<svg width="22" height="27" viewBox="0 0 22 27" fill="none" xmlns="http://www.w3.org/2000/svg">
<path d="M21.2666 19.7771V19.6125C21.2651 19.073 21.1064 18.5449 20.8089 18.0895C20.5114 17.6342 20.0872 17.2701 19.5856 17.0395C19.3786 16.9443 19.2036 16.794 19.0809 16.6061C18.9582 16.4182 18.8928 16.2003 18.8923 15.9777V10.6635C18.8897 8.77376 18.1709 6.95121 16.8733 5.54432C15.5756 4.13743 13.7902 3.24491 11.8584 3.03738V1.46543C11.8578 1.24441 11.7671 1.03264 11.6062 0.876553C11.4453 0.720468 11.2273 0.632812 10.9999 0.632812C10.7726 0.632812 10.5546 0.720468 10.3937 0.876553C10.2327 1.03264 10.142 1.24441 10.1415 1.46543V3.03738C8.20967 3.24497 6.4243 4.13751 5.12669 5.54439C3.82907 6.95127 3.11024 8.77378 3.10759 10.6635V15.9777C3.10712 16.2003 3.04167 16.4183 2.91885 16.6063C2.79604 16.7942 2.6209 16.9445 2.41378 17.0395C1.91227 17.2702 1.48825 17.6343 1.19083 18.0897C0.893411 18.5451 0.734767 19.073 0.733276 19.6125V19.7771C0.734217 20.5307 1.04256 21.2532 1.59068 21.7861C2.13879 22.319 2.88191 22.6187 3.65703 22.6196H7.39064C7.38806 22.6745 7.38278 22.7289 7.38278 22.7841C7.38278 23.2458 7.4763 23.7029 7.65799 24.1294C7.83969 24.5559 8.106 24.9434 8.44172 25.2699C8.77745 25.5963 9.17601 25.8552 9.61466 26.0319C10.0533 26.2086 10.5234 26.2995 10.9982 26.2995C11.473 26.2995 11.9432 26.2086 12.3818 26.0319C12.8205 25.8552 13.219 25.5963 13.5547 25.2699C13.8905 24.9434 14.1568 24.5559 14.3385 24.1294C14.5202 23.7029 14.6137 23.2458 14.6137 22.7841C14.6137 22.7288 14.608 22.6745 14.6054 22.6196H18.3431C19.1182 22.6187 19.8613 22.3189 20.4093 21.786C20.9574 21.2531 21.2657 20.5307 21.2666 19.7771ZM2.45048 19.7771V19.6125C2.45109 19.3899 2.51654 19.172 2.63923 18.9841C2.76192 18.7962 2.93685 18.6459 3.14375 18.5507C3.64549 18.3202 4.06974 17.9561 4.36728 17.5007C4.66482 17.0453 4.82346 16.5172 4.8248 15.9777V10.6635C4.82404 9.87455 4.98322 9.09316 5.29322 8.36402C5.60323 7.63489 6.05798 6.97231 6.6315 6.41416C7.20501 5.856 7.88604 5.41322 8.63565 5.11112C9.38526 4.80903 10.1888 4.65353 11.0002 4.65353C11.8117 4.65353 12.6152 4.80903 13.3648 5.11112C14.1144 5.41322 14.7954 5.856 15.3689 6.41416C15.9424 6.97231 16.3972 7.63489 16.7072 8.36402C17.0172 9.09316 17.1764 9.87455 17.1756 10.6635V15.9777C17.1769 16.5171 17.3353 17.0451 17.6327 17.5005C17.93 17.9559 18.3541 18.3201 18.8556 18.5507C19.0627 18.6457 19.2379 18.796 19.3608 18.9839C19.4837 19.1718 19.5493 19.3898 19.5499 19.6125V19.7771C19.5496 20.0881 19.4223 20.3864 19.1961 20.6064C18.9698 20.8264 18.6631 20.9501 18.3431 20.9504H13.8046C13.633 20.8956 13.4478 20.8956 13.2762 20.9504H3.65703C3.33711 20.95 3.03041 20.8263 2.80422 20.6063C2.57802 20.3863 2.45081 20.0881 2.45048 19.7771ZM12.897 22.7841C12.897 23.2737 12.697 23.7432 12.341 24.0894C11.9849 24.4356 11.502 24.6301 10.9985 24.6301C10.495 24.6301 10.0121 24.4356 9.65605 24.0894C9.30001 23.7432 9.09999 23.2737 9.09999 22.7841C9.09999 22.7284 9.11072 22.6745 9.11568 22.6196H12.8802C12.8853 22.6746 12.897 22.7282 12.897 22.7841Z" fill="#111111"/>
</svg>
