<svg width="18" height="19" viewBox="0 0 18 19" fill="none" xmlns="http://www.w3.org/2000/svg">
<path d="M9 16.91C4.91408 16.91 1.59 13.5859 1.59 9.5C1.59 5.41408 4.91408 2.09 9 2.09C13.0859 2.09 16.41 5.41408 16.41 9.5C16.41 13.5859 13.0859 16.91 9 16.91ZM9 3.785C5.84841 3.785 3.285 6.34905 3.285 9.5C3.285 12.6509 5.84841 15.215 9 15.215C12.1516 15.215 14.715 12.6509 14.715 9.5C14.715 6.34905 12.1516 3.785 9 3.785ZM10.4132 10.7624C10.6506 11.1659 10.5158 11.6854 10.1122 11.9226C9.70887 12.1597 9.18969 12.025 8.95247 11.6217L8.10371 10.1788C7.93105 9.88527 7.84 9.55092 7.84 9.21038V6.6875C7.84 6.21944 8.21944 5.84 8.6875 5.84C9.15556 5.84 9.535 6.21944 9.535 6.6875V8.70036C9.535 9.07301 9.63463 9.43888 9.82358 9.76007L10.4132 10.7624Z" fill="#111111" stroke="white" stroke-width="0.18"/>
</svg>
