<svg width="18" height="19" viewBox="0 0 18 19" fill="none" xmlns="http://www.w3.org/2000/svg">
<path d="M8.39478 17.1196L8.39473 17.1195C8.07525 16.85 6.51537 15.5056 5.03615 13.7774C4.29651 12.9132 3.57885 11.9553 3.0465 10.9895C2.51352 10.0225 2.17046 9.05516 2.17044 8.17043C2.17243 6.35961 2.89261 4.62352 4.17299 3.34302C5.45335 2.06253 7.18935 1.34218 9.00015 1.34C10.8114 1.34146 12.5481 2.06149 13.8291 3.34206C15.11 4.62266 15.8306 6.35917 15.8326 8.17047C15.8325 9.05519 15.4894 10.0225 14.9563 10.9895C14.4239 11.9553 13.7061 12.9132 12.9664 13.7774C11.487 15.5056 9.92708 16.85 9.60821 17.1196C9.25788 17.4156 8.74511 17.4155 8.39478 17.1196ZM8.67126 14.8485C8.85678 15.022 9.14347 15.0219 9.32888 14.8483C10.3638 13.8792 11.5155 12.6577 12.4094 11.4585C12.8563 10.859 13.2401 10.2632 13.5125 9.70604C13.7842 9.1502 13.9487 8.62561 13.9487 8.17037C13.9487 6.85793 13.4273 5.59925 12.4993 4.67121C11.5713 3.74318 10.3126 3.22181 9.00013 3.22181C7.68769 3.22181 6.429 3.74318 5.50097 4.67121C4.57293 5.59925 4.05157 6.85793 4.05157 8.17037C4.05157 8.6264 4.21598 9.15151 4.48768 9.70769C4.76003 10.2652 5.14376 10.8611 5.59061 11.4606C6.48435 12.6596 7.63608 13.8804 8.67126 14.8485Z" fill="#111111" stroke="white" stroke-width="0.18"/>
<path d="M10.8806 7.97548C10.8806 9.01401 10.0387 9.85591 9.00013 9.85591C7.9616 9.85591 7.1197 9.01401 7.1197 7.97548C7.1197 6.93694 7.9616 6.09504 9.00013 6.09504C10.0387 6.09504 10.8806 6.93694 10.8806 7.97548Z" fill="#111111" stroke="white" stroke-width="0.36"/>
</svg>
