<svg width="119" height="111" viewBox="0 0 119 111" fill="none" xmlns="http://www.w3.org/2000/svg">
<path d="M26.5835 80.9849C26.2085 73.7359 28.0515 65.8449 28.1555 58.1029C28.2495 51.2009 27.7545 44.6649 29.6045 38.0339C33.5785 23.7829 43.9705 14.4459 59.6175 16.0339C68.7955 16.9649 77.4165 22.3609 82.2655 30.2099C86.4715 37.0179 87.8054 45.1829 88.5974 53.1459C89.4834 62.0499 89.7555 71.3719 87.1065 80.0229C85.9935 83.6569 84.3855 87.3469 82.0305 90.3349C80.1855 92.6749 77.6795 94.4319 76.0675 96.9649C74.8325 98.9059 74.5185 101.83 72.9095 103.501C68.2705 108.318 58.5934 106.745 52.9124 105.427C46.8044 104.011 40.7165 101.972 35.6595 98.2639C29.0115 93.3869 26.9175 87.4409 26.5835 80.9849Z" fill="#E8BB91"/>
<path d="M26.8989 82.8086C39.3959 99.7106 56.7109 101.436 77.6509 98.1186C79.3659 100.451 79.2259 106.22 77.7119 107.765C75.7699 108.66 41.0949 118.445 21.8609 92.7686C21.8609 92.7686 20.9459 88.0576 23.0229 85.7446C24.8859 83.6706 26.8989 82.8086 26.8989 82.8086Z" fill="#EF4136"/>
<path d="M93.6218 49.4778C92.2648 45.4018 90.8388 41.3438 89.5668 37.2308C87.8398 31.6508 85.7288 27.3398 81.9628 22.7708C77.3498 17.1718 64.6429 8.05377 76.7789 1.63077C83.5629 -1.96023 95.5749 8.24776 99.7289 12.8438C102.79 16.2338 103.878 20.9698 106.845 24.3338C110.771 28.7808 116.384 31.0318 118.209 36.5888C121.082 45.3468 113.472 52.0188 111.759 60.0478C111.318 62.1118 112.203 65.9948 109.76 67.5898C100.08 73.9138 95.2268 54.2998 93.6218 49.4778Z" fill="#D88D50"/>
<path d="M22.1827 27.9983C22.5287 24.0033 21.9237 20.5633 23.5837 16.6793C25.1447 13.0273 27.7977 9.82636 31.0747 7.58736C37.1017 3.47036 44.8597 2.41333 52.0667 3.56233C53.1067 3.72833 54.1537 3.93733 55.2037 3.85133C56.4197 3.75133 57.5627 3.26033 58.7217 2.88133C68.0477 -0.171668 78.2637 4.03835 86.1767 9.84135C89.0987 11.9844 91.9087 14.4143 93.7387 17.5413C97.3957 23.7873 96.5527 31.5624 95.8727 38.7684C95.0497 47.4944 96.0307 53.6423 100.656 60.9843C103.352 65.2633 103.661 70.7074 102.594 75.6514C100.445 85.6124 91.5577 100.726 70.9717 102.18C66.6517 102.485 48.8677 106.886 36.1727 81.1353C34.2537 77.2433 34.7557 71.1474 33.7567 68.5874C32.1907 64.5734 29.1487 61.0793 27.0907 57.3103C24.6927 52.9133 23.5616 48.0893 22.7336 43.0463C21.9266 38.1153 21.7587 32.8963 22.1827 27.9983Z" fill="#FFDDBB"/>
<path d="M28.9549 60.7063C28.6099 56.2943 28.3399 51.8703 27.9019 47.4573C27.3069 41.4683 27.5809 36.5333 29.3159 30.6913C31.4399 23.5343 39.8039 9.80633 25.7819 8.54633C17.9429 7.84133 10.6699 22.3263 8.57988 28.3483C7.04088 32.7883 7.90188 37.7203 6.44188 42.0983C4.50788 47.8883 0.104926 52.2633 0.598926 58.2693C1.37793 67.7333 11.2259 71.0353 16.0439 77.9783C17.2849 79.7633 17.9969 83.8033 20.9399 84.3443C32.6009 86.4903 29.3629 65.9263 28.9549 60.7063Z" fill="#D88D50"/>
<path d="M39.6109 45.8455C40.5689 50.5905 43.748 53.9535 46.712 53.3545C49.673 52.7565 51.2979 48.4235 50.3399 43.6785C49.3819 38.9325 46.2029 35.5705 43.2409 36.1685C40.2779 36.7675 38.6529 41.0995 39.6109 45.8455Z" fill="black"/>
<path d="M76.8849 40.2841C77.8429 45.0301 81.021 48.3921 83.985 47.7941C86.948 47.1961 88.573 42.8641 87.614 38.1181C86.656 33.3721 83.477 30.0101 80.514 30.6091C77.55 31.2071 75.9259 35.5381 76.8849 40.2841Z" fill="black"/>
<path d="M64.2822 68.5617C64.0222 80.1947 90.6122 75.1737 90.0502 66.3607C89.5422 58.4127 80.8152 59.2387 76.1682 59.6347C70.4402 60.1227 64.4432 61.3237 64.2822 68.5617Z" fill="black"/>
<path d="M75.595 87.1054C75.833 87.0714 76.065 86.9875 76.267 86.8505C82.996 82.3015 79.8201 72.4895 79.6821 72.0745C79.4911 71.5055 78.751 71.1994 78.038 71.3854C77.32 71.5744 76.8911 72.1885 77.0791 72.7585C77.1081 72.8465 79.939 81.6205 74.616 85.2185C74.029 85.6155 73.9231 86.3025 74.3781 86.7535C74.6781 87.0495 75.144 87.1694 75.595 87.1054Z" fill="black"/>
<path d="M91.0215 78.0724C91.9944 78.7894 88.7084 96.8954 74.6024 98.1064C54.6914 99.8154 59.6834 76.4425 59.7644 78.5105C59.7674 78.5935 66.3634 83.6404 79.6314 82.4294C87.0474 81.7514 90.7234 77.8524 91.0215 78.0724Z" fill="#A00A2B"/>
<path d="M73.7301 83.994C65.3911 83.994 59.4021 79.402 59.0961 79.162C58.6041 78.778 58.5101 78.057 58.8841 77.553C59.2581 77.047 59.9621 76.951 60.4541 77.333C60.5371 77.397 68.9251 83.796 79.1721 80.953C79.3191 80.912 79.4731 80.904 79.6251 80.926C79.6841 80.934 85.8512 81.759 90.2282 77.26C90.6652 76.81 91.3741 76.809 91.8131 77.258C92.2511 77.707 92.2522 78.434 91.8142 78.884C87.0972 83.73 80.8641 83.368 79.5451 83.23C77.5171 83.771 75.5661 83.994 73.7301 83.994Z" fill="black"/>
</svg>
