<svg width="487" height="487" viewBox="0 0 487 487" fill="none" xmlns="http://www.w3.org/2000/svg">
<mask id="mask0_1370_926" style="mask-type:luminance" maskUnits="userSpaceOnUse" x="17" y="16" width="454" height="455">
<path d="M243.929 470.113C369.105 470.113 470.581 368.637 470.581 243.461C470.581 118.284 369.105 16.8086 243.929 16.8086C118.753 16.8086 17.277 118.284 17.277 243.461C17.277 368.637 118.753 470.113 243.929 470.113Z" fill="white"/>
</mask>
<g mask="url(#mask0_1370_926)">
<path d="M243.929 470.113C369.105 470.113 470.581 368.637 470.581 243.461C470.581 118.284 369.105 16.8086 243.929 16.8086C118.753 16.8086 17.277 118.284 17.277 243.461C17.277 368.637 118.753 470.113 243.929 470.113Z" fill="#E8DCD4"/>
</g>
<mask id="mask1_1370_926" style="mask-type:luminance" maskUnits="userSpaceOnUse" x="17" y="16" width="454" height="455">
<path d="M243.929 470.113C369.105 470.113 470.581 368.637 470.581 243.461C470.581 118.284 369.105 16.8086 243.929 16.8086C118.753 16.8086 17.277 118.284 17.277 243.461C17.277 368.637 118.753 470.113 243.929 470.113Z" fill="white"/>
</mask>
<g mask="url(#mask1_1370_926)">
<path d="M200.462 317.674C200.058 312.061 195.17 307.6 189.347 309.207C154.409 318.853 118.297 335.122 102.034 369.627C95.675 383.117 93.415 398.132 90.31 412.623C86.835 428.842 83.606 445.113 80.625 461.43C76.853 482.073 73.772 502.834 70.851 523.612C68.196 542.494 68.692 565.692 59.982 582.675C43.737 614.351 26.7891 646.602 10.1841 678.453C1.66805 694.787 -6.82099 711.135 -15.223 727.528C-19.325 735.531 -23.403 743.546 -27.464 751.574C-29.44 755.481 -32.893 760.118 -30.791 764.593C-26.666 773.371 -14.804 778.209 -7.04099 783.322C-4.75499 784.828 -2.421 786.355 0.219999 787.098C12.25 790.473 22.406 770.957 28.14 763.383C37.944 750.433 47.586 737.361 57.062 724.169C77.944 695.1 99.415 665.421 117.763 634.307C125.011 622.017 132.735 609.523 138.544 596.514C152.309 565.687 157.45 531.687 168.635 499.876C180.441 466.299 194.914 432.349 198.886 396.67C201.804 370.457 202.358 343.98 200.462 317.674Z" fill="#64444D"/>
<path d="M479.775 802.362C468.431 805.26 431.079 801.422 429.727 800.606C423.651 796.927 423.23 598.306 413.922 581.974C408.786 572.974 388.784 540.03 368.264 505.242C348.894 472.386 329.059 437.879 320.885 420.371C305.59 387.647 312.043 310.388 314.361 301.783C335.566 307.192 349.939 313.443 351.449 314.111C351.537 314.155 351.581 314.172 351.581 314.172C365.823 320.705 383.032 332.98 390.215 339.635C438.507 384.415 483.946 523.812 491.637 561.463C500.848 606.559 487.801 800.316 479.775 802.362Z" fill="#64444D"/>
<path d="M402.508 740.021C377.377 758.869 99.584 760.216 99.584 747.045C99.584 696.799 110.928 640.065 114.511 589.876C117.567 547.168 128.033 412.6 129.438 388.805C130.404 372.289 132.95 333.489 132.95 333.489C132.95 333.489 157.781 318.554 170.706 312.416C188.557 303.934 206.951 298.648 226.339 295.681C258.607 290.755 290.734 295.751 314.362 301.783C335.567 307.192 349.94 313.443 351.45 314.111C351.538 314.155 351.582 314.172 351.582 314.172C351.582 314.172 338.202 319.922 334.899 341.391C320.85 432.707 368.229 504.61 368.229 504.61C368.229 504.61 381.092 583.765 388.459 624.12C393.139 649.741 406.02 737.387 402.508 740.021Z" fill="#795963"/>
<path d="M178.426 143.742C180.356 136.577 183.476 129.941 187.575 124.663C198.537 110.55 217.106 100.174 235.361 102.811C251.944 105.206 266.78 111.988 275.486 126.96C284.598 142.629 284.296 163.73 273.424 178.478C266.925 187.294 258.026 194.414 248.071 198.961C245.085 200.325 241.99 201.451 238.822 202.315C222.02 206.9 200.019 204.942 187.241 191.929C175.134 179.599 174.157 159.585 178.426 143.742Z" fill="#32334C"/>
<path d="M281.395 213.721C280.579 218.237 279.78 222.76 278.973 227.275C278.92 227.545 278.876 227.822 278.831 228.091C278.808 228.217 278.784 228.334 278.761 228.46C277.69 234.447 276.626 240.425 275.893 246.441C275.588 248.852 275.346 251.284 275.175 253.717C274.979 256.435 274.873 259.171 274.845 261.9C274.767 267.121 274.91 272.347 275.07 277.562C275.261 283.921 275.443 290.281 275.633 296.632C271.889 300.699 266.647 305.792 261.041 310.32C250.13 313.341 237.427 315.353 226.405 315.756C218.945 311.404 212.33 305.021 213.442 299.18L213.786 276.256L213.802 272.497L213.829 262.553L213.882 248.399C218.76 247.205 223.327 244.99 227.851 242.789C242.861 235.447 257.775 227.92 272.394 219.821C272.788 219.607 273.164 219.394 273.533 219.191C276.473 217.557 278.878 216.16 281.395 213.721Z" fill="#FFCFCA"/>
<path d="M213.787 276.26C230.68 271.895 246.933 265.132 261.695 255.897C266.39 252.965 271.26 249.824 275.894 246.443C276.622 240.423 277.692 234.45 278.759 228.463C279.637 223.553 280.513 218.629 281.391 213.719C278.564 216.465 275.864 217.9 272.395 219.822C257.779 227.917 242.864 235.45 227.851 242.787C223.328 244.992 218.763 247.205 213.879 248.4L213.787 276.26Z" fill="#F9BFBB"/>
<path d="M180.493 231.755C183.719 241.029 188.427 249.563 196.584 255.331C203.819 260.444 212.709 263.234 221.557 263.328C231.35 263.43 240.928 260.532 249.522 255.744C253.799 253.36 257.838 250.51 261.528 247.324C267.98 241.756 273.506 235.206 278.339 228.211C286.19 216.825 292.738 203.724 296.371 190.025C300.505 174.538 300.927 158.281 295.357 142.909C293.103 136.641 289.791 130.767 285.604 125.575C267.963 103.664 235.892 98.3106 212.074 113.308C199.668 121.128 190.065 133.364 184.562 146.873C182.815 151.154 181.272 155.563 179.969 160.052C173.199 183.307 172.553 208.902 180.493 231.755Z" fill="#FFCFCA"/>
<path d="M271.6 224.121C279.003 229.911 289.554 231.42 298.246 227.819C305.589 224.783 311.323 218.188 313.478 210.561C313.866 209.176 314.136 207.765 314.286 206.314C314.54 203.79 314.4 201.209 313.667 198.783C311.826 192.799 306.084 188.33 299.873 187.588C293.649 186.848 287.219 189.668 283.202 194.473L278.741 205.875L271.6 224.121Z" fill="#FFCFCA"/>
<path d="M230.239 192.334C231.465 192.464 233.267 190.6 233.893 187.719C234.223 186.201 234.156 184.662 233.71 183.495C233.556 183.092 233.116 182.136 232.37 181.973C232.331 181.965 232.293 181.958 232.255 181.954C231.028 181.824 229.227 183.688 228.601 186.569C228.271 188.087 228.338 189.627 228.784 190.793C228.938 191.196 229.378 192.152 230.124 192.314C230.162 192.323 230.2 192.329 230.239 192.334Z" fill="#1F3C49"/>
<path d="M193.566 186.765C194.602 186.874 196.438 185.231 197.073 182.305C197.393 180.834 197.328 179.343 196.897 178.214C196.586 177.399 196.123 176.87 195.628 176.762C195.593 176.754 195.557 176.748 195.521 176.745C194.485 176.635 192.649 178.279 192.014 181.205C191.695 182.676 191.759 184.167 192.19 185.296C192.502 186.111 192.964 186.64 193.459 186.747C193.495 186.755 193.531 186.761 193.566 186.765Z" fill="#1F3C49"/>
<path d="M211.705 194.459C210.799 193.348 209.194 192.807 207.641 193.005C206.062 193.181 204.559 194.22 203.757 195.612C202.919 196.983 202.728 198.801 203.333 200.272C203.905 201.73 205.152 202.878 206.564 203.137C205.626 202.087 205.129 200.934 204.978 199.811C204.826 198.694 205.083 197.646 205.625 196.718C206.176 195.795 206.973 195.065 208.026 194.662C209.083 194.255 210.335 194.137 211.705 194.459Z" fill="#1F3C49"/>
<path d="M241.402 169.27C241.62 169.196 241.808 169.035 241.91 168.809C242.104 168.377 241.911 167.871 241.479 167.677C238.312 166.257 234.518 166.228 231.326 167.587C230.891 167.773 230.689 168.276 230.875 168.712C231.061 169.147 231.563 169.349 232 169.163C234.762 167.976 238.041 168.013 240.778 169.241C240.983 169.332 241.205 169.337 241.402 169.27Z" fill="#1F3C49"/>
<path d="M204.57 163.65C204.765 163.61 204.947 163.502 205.078 163.332C205.366 162.957 205.295 162.419 204.92 162.131C202.426 160.218 199.085 159.368 195.981 159.856C195.526 159.932 195.194 160.368 195.267 160.836C195.34 161.303 195.779 161.623 196.247 161.55C198.896 161.134 201.749 161.859 203.877 163.492C204.082 163.648 204.335 163.698 204.57 163.65Z" fill="#1F3C49"/>
<path d="M231.412 183.824C233.229 183.549 233.659 186.372 231.839 186.647C230.022 186.922 229.592 184.1 231.412 183.824Z" fill="white"/>
<path d="M194.161 178.191C195.978 177.916 196.408 180.74 194.588 181.015C192.771 181.29 192.341 178.466 194.161 178.191Z" fill="white"/>
<path d="M191.594 208.092C191.401 211.815 192.241 215.308 193.831 218.239C196.376 222.944 200.851 226.163 206.088 226.434C211.454 226.712 216.339 223.834 219.332 219.235C221.102 216.547 222.216 213.267 222.401 209.69C222.408 209.562 222.397 209.432 222.404 209.295L191.631 207.699C191.625 207.836 191.601 207.963 191.594 208.092Z" fill="#D55454"/>
<path d="M192.881 207.764C196.14 211.597 201.078 214.161 206.709 214.453C212.34 214.745 217.517 212.705 221.155 209.23L192.881 207.764Z" fill="white"/>
<path d="M193.831 218.238C196.376 222.943 200.851 226.162 206.088 226.433C211.454 226.711 216.339 223.833 219.332 219.234C214.138 217.806 208.733 217.123 203.348 217.23C200.152 217.296 196.968 217.637 193.831 218.238Z" fill="#F37C7C"/>
<path d="M227.903 204.79C227.401 209.462 232.136 213.802 238.48 214.484C244.824 215.166 250.373 211.931 250.875 207.259C251.377 202.587 246.642 198.247 240.298 197.565C233.955 196.883 228.406 200.118 227.903 204.79Z" fill="#F9BFBB"/>
<path d="M178.697 193.264C178.358 196.419 181.556 199.35 185.84 199.811C190.124 200.271 193.872 198.087 194.211 194.932C194.55 191.777 191.352 188.846 187.068 188.385C182.784 187.925 179.036 190.109 178.697 193.264Z" fill="#F9BFBB"/>
<path d="M178.588 124.129C177.452 112.364 195.621 99.5489 229.453 93.6349C255.599 89.0649 290.411 98.0199 308.399 117.311C318.992 128.671 325.391 144.135 324.041 159.682C322.936 172.41 317.346 184.909 312.201 196.509C308.465 189.225 298.041 186.389 290.072 188.966C285.417 190.471 281.609 193.469 278.585 197.162C278.466 182.339 274.714 167.991 274.72 153.142C274.669 153.444 250.156 150.148 248.419 149.924C234.237 148.097 220.16 146.291 206.391 142.313C200.523 140.618 194.742 138.635 189.078 136.371C184.925 134.713 178.925 127.624 178.588 124.129Z" fill="#32334C"/>
<path d="M299.504 186.672L297.216 186.637L277.945 186.31L266.768 186.119L252.013 185.877C251.998 185.72 252 185.561 251.985 185.403C251.054 175.763 242.457 168.681 232.817 169.612C226.026 170.268 220.513 174.743 218.169 180.704L211.64 179.773C211.648 179.128 211.622 178.487 211.559 177.84C210.628 168.2 202.031 161.118 192.391 162.049C186.667 162.602 181.849 165.881 179.072 170.463L178.725 168.15C178.671 167.776 178.399 167.511 178.056 167.43C177.948 167.405 177.832 167.399 177.719 167.41C177.241 167.483 176.914 167.929 176.987 168.416L177.333 170.72L177.715 173.215C177.659 173.37 177.604 173.526 177.548 173.681C176.716 176.028 176.345 178.578 176.6 181.218C176.933 184.67 178.249 187.789 180.241 190.332C183.35 194.301 188.106 196.868 193.365 197.074C193.445 197.084 193.525 197.085 193.613 197.085C194.321 197.105 195.041 197.079 195.767 197.009C203.371 196.275 209.366 190.764 211.105 183.743L217.13 184.661C216.942 186.002 216.889 187.375 217.025 188.782C217.684 195.608 222.189 201.153 228.192 203.476C228.761 203.703 229.344 203.894 229.942 204.057C231.925 204.589 234.035 204.782 236.193 204.574C240.283 204.179 243.905 202.4 246.658 199.761C246.763 199.663 246.868 199.555 246.972 199.448C250.018 196.366 251.907 192.179 252.05 187.631L264.933 187.851L278.107 188.07L292.474 188.314L292.783 188.319L296.795 188.39L299.472 188.432L299.577 188.422C299.673 188.413 299.768 188.386 299.852 188.343C300.123 188.228 300.318 187.963 300.358 187.65C300.364 187.623 300.37 187.596 300.367 187.561C300.373 187.083 299.99 186.679 299.504 186.672ZM195.599 195.261C195.11 195.308 194.626 195.329 194.141 195.331C192.933 195.342 191.748 195.209 190.601 194.941C187.049 194.146 183.908 192.129 181.687 189.318C179.859 187.016 178.651 184.186 178.348 181.049C178.215 179.668 178.261 178.323 178.479 177.014C178.478 177.005 178.478 177.005 178.478 177.005C179.6 170.087 185.271 164.502 192.56 163.798C201.239 162.96 208.973 169.332 209.811 178.01C210.649 186.688 204.277 194.423 195.599 195.261ZM217.467 182.934L211.451 182.024C211.47 181.855 211.507 181.692 211.527 181.532L217.609 182.4C217.556 182.572 217.511 182.753 217.467 182.934ZM245.046 198.865C242.627 201.039 239.512 202.487 236.025 202.824C233.552 203.063 231.154 202.712 228.965 201.883C223.501 199.835 219.373 194.817 218.774 188.612C217.936 179.933 224.316 172.199 232.986 171.361C241.664 170.523 249.399 176.895 250.237 185.573C250.738 190.765 248.658 195.623 245.046 198.865Z" fill="black"/>
<path d="M283.934 300.128C283.378 306.212 271.768 311.146 257.153 314.114C246.059 316.372 233.248 317.5 222.223 317.139C212.043 316.808 203.4 315.214 199.056 312.082C194.783 308.991 196.21 271.754 211.179 273.107C211.514 273.142 212.005 273.137 212.646 273.111C216.586 272.978 225.937 271.856 236.584 270.594C249.796 269.016 264.996 267.218 274.276 266.766C278.96 266.534 282.143 266.65 282.82 267.308C287.564 271.922 284.847 290.037 283.934 300.128Z" fill="#795963"/>
</g>
</svg>
