<svg width="454" height="454" viewBox="0 0 454 454" fill="none" xmlns="http://www.w3.org/2000/svg">
<mask id="mask0_1370_347" style="mask-type:luminance" maskUnits="userSpaceOnUse" x="0" y="0" width="454" height="454">
<path d="M227.028 453.495C352.204 453.495 453.68 352.02 453.68 226.843C453.68 101.667 352.204 0.191406 227.028 0.191406C101.852 0.191406 0.375977 101.667 0.375977 226.843C0.375977 352.02 101.852 453.495 227.028 453.495Z" fill="white"/>
</mask>
<g mask="url(#mask0_1370_347)">
<path d="M227.028 453.495C352.204 453.495 453.68 352.02 453.68 226.843C453.68 101.667 352.204 0.191406 227.028 0.191406C101.852 0.191406 0.375977 101.667 0.375977 226.843C0.375977 352.02 101.852 453.495 227.028 453.495Z" fill="#E8DCD4"/>
</g>
<mask id="mask1_1370_347" style="mask-type:luminance" maskUnits="userSpaceOnUse" x="0" y="0" width="454" height="454">
<path d="M227.028 453.495C352.204 453.495 453.68 352.02 453.68 226.843C453.68 101.667 352.204 0.191406 227.028 0.191406C101.852 0.191406 0.375977 101.667 0.375977 226.843C0.375977 352.02 101.852 453.495 227.028 453.495Z" fill="white"/>
</mask>
<g mask="url(#mask1_1370_347)">
<path d="M253.26 199.209C276.479 195.592 291.578 168.75 286.984 139.255C282.39 109.759 259.843 88.7805 236.624 92.397C213.404 96.0135 198.305 122.856 202.899 152.351C207.493 181.846 230.04 202.825 253.26 199.209Z" fill="#603813"/>
<path d="M171.494 273.732L256.593 277.182L232.273 327.546L179.544 325.444L171.494 273.732Z" fill="black"/>
<path d="M52.7023 787.352C79.5393 807.602 373.075 805.003 372.875 790.598C372.388 755.49 366.973 717.559 361.939 680.439C359.087 659.454 356.36 638.736 354.721 618.925C350.845 572.261 337.747 425.24 335.902 399.237C334.711 382.282 331.738 343.818 331.387 339.241C329.232 337.724 327.031 336.276 324.794 334.885C324.728 334.848 324.663 334.81 324.588 334.763C322.941 333.787 321.052 332.68 319.013 331.508C318.994 331.489 318.985 331.479 318.966 331.48C310.219 326.386 298.735 319.899 291.141 316.296C272.152 307.281 252.636 301.769 232.106 298.807C197.937 293.892 164.067 299.827 139.194 306.77C116.871 312.996 101.779 320.044 100.194 320.796C100.102 320.845 100.056 320.865 100.056 320.865C100.056 320.865 114.282 326.959 118.095 350.39C134.323 450.055 85.3523 529.386 85.3523 529.386C85.3523 529.386 72.9613 616.145 65.7893 660.387C61.2323 688.477 48.9513 784.522 52.7023 787.352Z" fill="white"/>
<path d="M170.071 226.689C171.003 231.846 171.915 237.012 172.837 242.168C172.898 242.476 172.948 242.793 172.999 243.1C173.025 243.244 173.053 243.377 173.079 243.521C174.302 250.359 175.517 257.185 176.354 264.056C176.703 266.81 176.978 269.587 177.173 272.366C177.397 275.47 177.518 278.595 177.55 281.711C177.639 287.674 177.476 293.642 177.293 299.598C177.19 302.966 177.14 306.329 177.117 309.693C177.09 313.589 175.434 317.794 177.02 321.576C179.027 326.358 183.616 328.838 187.659 331.645C192.063 334.702 196.857 337.21 201.877 339.089C211.726 342.773 222.839 344.149 233.029 341.02C252.512 335.037 247.348 313.619 247.281 298.107L247.262 293.814L247.231 282.457L247.17 266.292C241.6 264.928 236.384 262.399 231.217 259.885C214.075 251.5 197.044 242.904 180.347 233.655C179.897 233.41 179.467 233.167 179.047 232.935C175.692 231.07 172.945 229.475 170.071 226.689Z" fill="#FFCFCA"/>
<path d="M247.281 298.11C227.989 293.125 209.427 285.402 192.568 274.855C187.206 271.506 181.644 267.92 176.352 264.058C175.52 257.183 174.299 250.362 173.081 243.525C172.078 237.918 171.078 232.295 170.075 226.688C173.304 229.822 176.387 231.462 180.349 233.657C197.04 242.901 214.074 251.505 231.219 259.884C236.385 262.402 241.598 264.93 247.176 266.294L247.281 298.11Z" fill="#F9BFBB"/>
<path d="M180.315 230.904C171.516 237.05 159.391 238.121 149.701 233.479C141.514 229.564 135.382 221.691 133.394 212.86C133.037 211.257 132.815 209.631 132.734 207.967C132.6 205.073 132.919 202.138 133.903 199.417C136.371 192.706 143.195 187.964 150.323 187.5C157.466 187.039 164.626 190.651 168.91 196.379L173.294 209.656L180.315 230.904Z" fill="#FFCFCA"/>
<path d="M182.994 838.373C173.794 852.173 78.829 811.165 47.296 798.124C23.411 788.246 32.082 774.055 34.646 755.575C42.19 701.123 51.332 654.239 60.325 604.111C63.752 584.987 67.167 565.391 70.468 544.737C70.606 543.886 70.732 543.047 70.87 542.196C66.845 555.478 59.531 582.779 56.495 592.278C39.245 646.327 11.646 773.975 -17.104 778.575C-22.06 779.368 -76.753 760.129 -79.203 753.275C-96.453 704.976 -42.979 527.925 -34.354 506.029C-19.404 468.08 27.825 370.389 40.395 354.232C64.545 323.183 142.893 304.944 146.768 303.863C158.061 300.655 169.457 297.768 180.922 295.215C192.272 322.147 195.067 348.643 197.965 377.715C213.411 532.858 190.227 827.517 182.994 838.373Z" fill="#749BD2"/>
<path d="M208.294 328.931L207.454 333.313L206.615 337.775L205.212 345.123L204.384 349.516L202.072 361.637L201.267 365.88L198.323 381.359L150.795 302.482L154.095 297.893L156.36 294.743L160.339 289.223L162.593 286.095L165.986 281.391L168.205 278.298L171.494 273.732L208.294 328.931Z" fill="#363740"/>
<path d="M207.454 333.313L206.615 337.775C199.152 328.311 191.861 318.72 184.731 309.014C178.165 300.079 171.207 291.212 165.986 281.392L168.206 278.299C170.828 283.428 174.002 288.235 177.348 292.95C187.076 306.633 197.116 320.088 207.454 333.313Z" fill="white"/>
<path d="M205.212 345.124L204.384 349.517C195.909 339.512 187.583 329.369 179.671 318.928C172.53 309.51 165.825 299.7 160.34 289.224L162.594 286.096C165.147 291.11 167.987 295.974 171.035 300.712C179.361 313.661 189.113 325.632 198.876 337.5C200.968 340.053 203.084 342.594 205.212 345.124Z" fill="white"/>
<path d="M202.072 361.637L201.267 365.88C191.412 355.151 182.327 343.708 174.104 331.68C169.263 324.596 164.72 317.305 160.5 309.83C158.361 306.058 156.314 302.24 154.348 298.388C154.267 298.227 154.175 298.055 154.095 297.893L156.36 294.742C156.946 295.881 157.521 297.03 158.108 298.169C160.328 302.458 162.639 306.679 165.054 310.853C173.587 325.584 183.362 339.591 194.264 352.655C196.805 355.703 199.416 358.705 202.072 361.637Z" fill="white"/>
<path d="M78.346 568.128C73.344 580.364 67.421 592.715 60.326 604.111C63.753 584.987 67.168 565.391 70.469 544.737C72.573 539.988 93.032 492.815 99.046 443.93C101.345 503.73 88.696 542.829 78.346 568.128Z" fill="#AF4646"/>
<path d="M598.137 503.73C577.15 533.112 422.431 700.377 375.041 602.628C374.351 601.202 373.5 599.04 372.534 596.349C367.417 582.147 359.206 553.363 355.825 542.196C355.963 543.047 356.089 543.886 356.227 544.737C356.491 546.416 356.767 548.083 357.032 549.751C360.079 568.576 363.219 586.539 366.37 604.111C375.363 654.239 384.505 701.123 392.049 755.575C394.614 774.055 403.284 788.246 379.399 798.124C347.866 811.165 252.901 852.173 243.701 838.373C239.113 831.496 242.85 709.023 239.343 581.927C237.319 508.466 223.071 434.534 228.729 377.713C231.627 348.641 234.421 322.146 245.772 295.213C257.237 297.766 268.634 300.652 279.926 303.861C283.801 304.942 362.15 323.181 386.299 354.23C398.868 370.387 453.239 504.877 453.239 504.877C453.239 504.877 499.779 470.148 555.587 446.228C563.638 442.781 603.887 495.68 598.137 503.73Z" fill="#749BD2"/>
<path d="M218.402 328.931L219.241 333.313L220.081 337.775L221.484 345.123L222.312 349.516L224.623 361.637L225.428 365.88L228.372 381.359L275.901 302.482L272.6 297.893L270.335 294.743L266.356 289.223L264.102 286.095L260.71 281.391L258.49 278.298L255.201 273.732L218.402 328.931Z" fill="#363740"/>
<path d="M219.241 333.313L220.08 337.775C227.543 328.311 234.834 318.72 241.964 309.014C248.53 300.079 255.488 291.212 260.709 281.392L258.489 278.299C255.867 283.428 252.693 288.235 249.347 292.95C239.619 306.633 229.58 320.088 219.241 333.313Z" fill="white"/>
<path d="M221.484 345.124L222.312 349.517C230.787 339.512 239.113 329.369 247.025 318.928C254.166 309.51 260.871 299.7 266.356 289.224L264.102 286.096C261.549 291.11 258.709 295.974 255.661 300.712C247.335 313.661 237.583 325.632 227.82 337.5C225.727 340.053 223.611 342.594 221.484 345.124Z" fill="white"/>
<path d="M224.623 361.637L225.428 365.88C235.283 355.151 244.368 343.708 252.591 331.68C257.432 324.596 261.975 317.305 266.195 309.83C268.334 306.058 270.381 302.24 272.347 298.388C272.428 298.227 272.52 298.055 272.6 297.893L270.335 294.742C269.749 295.881 269.174 297.03 268.587 298.169C266.368 302.458 264.056 306.679 261.641 310.853C253.108 325.584 243.333 339.591 232.432 352.655C229.89 355.703 227.28 358.705 224.623 361.637Z" fill="white"/>
<path d="M280.338 246.511C276.087 256.888 270.193 266.33 260.535 272.404C251.969 277.789 241.66 280.423 231.564 279.985C220.391 279.498 209.646 275.603 200.141 269.614C195.411 266.632 190.981 263.133 186.969 259.272C179.954 252.525 174.056 244.715 168.976 236.44C160.724 222.972 154.064 207.629 150.766 191.783C147.006 173.868 147.526 155.303 154.825 138.116C157.781 131.107 161.92 124.613 167.015 118.95C188.482 95.0511 225.385 90.9231 251.622 109.492C265.288 119.174 275.484 133.719 280.928 149.464C282.657 154.453 284.144 159.576 285.354 164.776C291.641 191.711 290.801 220.939 280.338 246.511Z" fill="#FFCFCA"/>
<path d="M226.038 198.488C224.632 198.56 222.691 196.324 222.155 193C221.872 191.249 222.043 189.497 222.624 188.194C222.825 187.743 223.385 186.68 224.246 186.541C224.291 186.534 224.334 186.529 224.379 186.527C225.786 186.454 227.726 188.691 228.262 192.015C228.545 193.767 228.374 195.518 227.793 196.821C227.592 197.272 227.032 198.334 226.171 198.473C226.127 198.481 226.083 198.486 226.038 198.488Z" fill="#1F3C49"/>
<path d="M268.202 194.399C267.014 194.46 265.022 192.473 264.478 189.097C264.204 187.399 264.369 185.703 264.931 184.443C265.336 183.533 265.897 182.958 266.467 182.866C266.508 182.859 266.549 182.855 266.59 182.853C267.778 182.792 269.77 184.78 270.314 188.156C270.587 189.853 270.422 191.55 269.861 192.81C269.455 193.72 268.895 194.295 268.325 194.387C268.284 194.393 268.243 194.397 268.202 194.399Z" fill="#1F3C49"/>
<path d="M247.042 202.054C248.144 200.843 250.007 200.324 251.766 200.646C253.556 200.944 255.206 202.222 256.035 203.859C256.907 205.474 257.011 207.56 256.231 209.199C255.489 210.827 253.996 212.059 252.37 212.267C253.505 211.127 254.142 209.843 254.384 208.572C254.626 207.308 254.398 206.097 253.836 205.006C253.265 203.919 252.401 203.038 251.225 202.513C250.045 201.982 248.625 201.772 247.042 202.054Z" fill="#1F3C49"/>
<path d="M227.337 168.136C225.353 167.162 223.106 166.583 220.837 166.46C218.461 166.332 216.067 166.702 213.913 167.532C212.226 168.182 211.382 170.083 212.032 171.77C212.36 172.62 213.033 173.3 213.875 173.635C214.208 173.768 214.557 173.845 214.915 173.864C215.379 173.889 215.835 173.817 216.27 173.649C217.579 173.144 219.04 172.919 220.495 172.998C221.882 173.073 223.245 173.425 224.445 174.019C224.844 174.215 225.272 174.327 225.715 174.351C227.027 174.422 228.251 173.705 228.833 172.525C229.631 170.905 228.962 168.937 227.337 168.136Z" fill="#1F3C49"/>
<path d="M267.585 161.314C266.824 161.152 266.037 161.048 265.247 161.006C261.767 160.818 258.295 161.778 255.472 163.711C253.983 164.732 253.6 166.775 254.622 168.27C255.068 168.921 255.735 169.389 256.495 169.587C256.709 169.643 256.93 169.677 257.15 169.689C257.866 169.728 258.587 169.525 259.178 169.12C260.793 168.015 262.872 167.443 264.882 167.551C265.337 167.575 265.787 167.635 266.222 167.727C266.392 167.763 266.56 167.785 266.728 167.794C268.351 167.882 269.773 166.792 270.111 165.202C270.481 163.455 269.36 161.713 267.585 161.314Z" fill="#1F3C49"/>
<path d="M225.225 188.713C223.17 188.288 222.505 191.481 224.564 191.907C226.619 192.333 227.283 189.139 225.225 188.713Z" fill="white"/>
<path d="M268.051 184.586C265.996 184.161 265.331 187.354 267.39 187.78C269.446 188.205 270.11 185.012 268.051 184.586Z" fill="white"/>
<path d="M272.624 218.248C273.201 223.944 272.176 229.366 269.958 233.983C266.409 241.394 259.787 246.669 251.772 247.48C243.562 248.312 235.849 244.265 230.91 237.436C227.992 233.445 226.035 228.497 225.481 223.024C225.461 222.828 225.467 222.629 225.446 222.419L272.535 217.648C272.557 217.858 272.604 218.052 272.624 218.248Z" fill="#D55454"/>
<path d="M270.624 217.842C265.913 223.968 258.531 228.275 249.915 229.148C241.299 230.021 233.203 227.283 227.359 222.226L270.624 217.842Z" fill="white"/>
<path d="M269.958 233.983C266.409 241.394 259.787 246.669 251.772 247.48C243.562 248.312 235.849 244.265 230.91 237.436C238.771 234.854 247.011 233.397 255.281 233.154C260.189 233.015 265.099 233.298 269.958 233.983Z" fill="#F37C7C"/>
<path d="M223.403 211.441C223.688 216.8 218.02 221.458 210.745 221.844C203.469 222.231 197.34 218.2 197.055 212.841C196.77 207.482 202.438 202.824 209.714 202.438C216.989 202.052 223.118 206.082 223.403 211.441Z" fill="#F9BFBB"/>
<path d="M284.758 202.726C284.95 206.345 281.123 209.49 276.209 209.752C271.295 210.013 267.156 207.291 266.964 203.672C266.772 200.053 270.599 196.908 275.513 196.646C280.427 196.386 284.566 199.107 284.758 202.726Z" fill="#F9BFBB"/>
<path d="M372.534 596.347C367.417 582.145 359.206 553.361 355.825 542.194C355.963 543.045 356.089 543.884 356.227 544.735C356.491 546.414 356.767 548.081 357.032 549.749L355.491 541.676L347.142 416.777C347.142 416.777 373.442 534.65 373.81 574.692C373.845 578.764 373.235 587.573 372.534 596.347Z" fill="#AF4646"/>
<path d="M146.458 124.053C144.311 115.719 147.034 106.471 152.429 100.124C157.824 93.7772 165.573 90.1372 173.481 88.8332C181.389 87.5292 189.49 88.4022 197.369 89.9952C204.957 91.5292 212.558 93.7392 220.255 93.2762C229.704 92.7082 238.85 87.9112 245.075 80.2602C250.971 73.0132 263.648 74.0822 271.318 79.1412C278.987 84.2002 286.546 93.0812 288.126 102.622C289.641 111.769 288.782 127.01 274.47 135.391C257.6 145.27 204.552 141.771 197.387 141.593C190.222 141.415 182.525 143.288 177.797 149.064C168.408 160.534 166.576 177.814 165.911 193.139C160.371 190.002 155.089 188.701 148.847 188.734C146.098 188.749 143.102 188.963 139.746 191.398C133.826 179.937 130.34 167.626 127.629 154.852C126.285 148.519 125.353 141.976 126.149 135.55C126.452 133.103 127.03 130.632 128.34 128.613C130.313 125.571 133.756 123.923 137.189 123.557C140.62 123.192 143.124 123.067 146.458 124.053Z" fill="#603813"/>
</g>
</svg>
