<svg width="487" height="487" viewBox="0 0 487 487" fill="none" xmlns="http://www.w3.org/2000/svg">
<mask id="mask0_1370_1067" style="mask-type:luminance" maskUnits="userSpaceOnUse" x="17" y="17" width="454" height="454">
<path d="M243.727 470.32C368.904 470.32 470.379 368.844 470.379 243.668C470.379 118.491 368.904 17.0156 243.727 17.0156C118.551 17.0156 17.075 118.491 17.075 243.668C17.075 368.844 118.551 470.32 243.727 470.32Z" fill="white"/>
</mask>
<g mask="url(#mask0_1370_1067)">
<path d="M243.727 470.32C368.904 470.32 470.379 368.844 470.379 243.668C470.379 118.491 368.904 17.0156 243.727 17.0156C118.551 17.0156 17.075 118.491 17.075 243.668C17.075 368.844 118.551 470.32 243.727 470.32Z" fill="#E8DCD4"/>
</g>
<mask id="mask1_1370_1067" style="mask-type:luminance" maskUnits="userSpaceOnUse" x="17" y="17" width="454" height="454">
<path d="M243.727 470.32C368.904 470.32 470.379 368.844 470.379 243.668C470.379 118.491 368.904 17.0156 243.727 17.0156C118.551 17.0156 17.075 118.491 17.075 243.668C17.075 368.844 118.551 470.32 243.727 470.32Z" fill="white"/>
</mask>
<g mask="url(#mask1_1370_1067)">
<path d="M570.09 784.039C564.53 770.108 558.963 756.177 553.396 742.238C548.062 728.873 543.399 717.358 536.375 704.764C533.488 699.594 529.556 692.827 526.295 687.689C510.661 658.937 495.026 630.185 479.392 601.434C469.501 583.244 459.61 565.054 449.719 546.864C443.222 534.917 436.708 522.93 431.759 510.263C425.626 494.565 421.976 478.023 418.657 461.499C416.215 449.341 413.932 437.127 411.48 424.957C404.348 428.125 397.23 431.329 390.154 434.626C374.966 441.704 359.872 449.083 344.605 456.059C356.17 489.802 368.802 523.035 386.208 554.12C417.303 609.653 463.4 653.394 500.982 704.764C502.342 706.623 501.742 712.205 501.868 714.575C502.278 722.263 501.637 729.937 502.58 737.599C503.533 745.342 505.327 752.983 507.931 760.338C509.11 763.669 512.317 766.725 515.724 763.736C516.032 763.547 516.319 763.318 516.595 763.011C519.956 759.437 519.977 754.542 519.76 749.942C519.525 744.697 519.791 739.726 522.08 734.915C522.703 733.615 523.748 732.39 525.163 732.113C526.021 731.938 526.914 732.154 527.749 732.428C530.555 733.386 532.672 735.127 534.381 737.276C535.283 738.4 536.075 739.641 536.787 740.938C537.48 742.164 538.1 743.44 538.696 744.722C539.442 746.316 540.141 747.915 540.876 749.432C541.026 749.745 541.176 750.05 541.326 750.347C541.463 750.62 541.607 750.901 541.743 751.174C542.639 752.957 543.535 754.732 544.439 756.516C546.066 759.761 547.701 762.998 549.336 766.243C550.759 769.07 552.189 771.898 553.612 774.725C556.11 779.666 558.784 785.208 563.249 788.707C566.594 791.329 571.921 788.632 570.09 784.039Z" fill="#FFCFCA"/>
<path d="M152.984 338.926C103.102 338.919 55.331 496.435 54.109 498.473C53.072 500.23 -46.16 646.327 -46.453 646.677C-46.453 646.677 -80.133 680.562 -88.363 690.757C-93.911 697.665 -99.711 704.809 -103.257 712.962C-107.019 721.604 -109.32 730.718 -111.781 739.789C-112.166 741.208 -112.56 742.663 -112.388 744.129C-112.068 746.757 -109.185 749.043 -106.546 747.85C-100.813 745.275 -98.838 737.761 -97.16 732.301C-95.604 727.22 -94.325 722.001 -91.926 717.231C-89.574 712.535 -86.018 709.09 -81.814 705.967C-78.785 703.71 -75.865 701.359 -72.766 699.164C-71.588 698.321 -70.3491 697.484 -69.0501 696.822C-67.2901 695.917 -65.4131 695.314 -63.4351 695.464C-61.7831 695.594 -59.381 696.391 -58.408 697.844C-57.357 699.43 -58.511 701.299 -59.176 702.77C-59.98 704.518 -61.14 706.071 -62.344 707.576C-64.395 710.128 -66.783 712.643 -68.025 715.698C-68.239 716.211 -68.42 716.746 -68.566 717.297C-70.076 723.14 -65.652 731.566 -59.121 726.274C-57.717 725.144 -56.6241 723.684 -55.5241 722.263C-50.2601 715.491 -43.533 709.805 -39.579 702.158C-37.057 697.285 -35.0861 692.166 -33.1331 687.059C-29.4771 677.518 -27.888 671.769 -27.191 667.195L-27.186 667.173L-27.071 666.999C-26.296 666.381 64.053 585.389 117.302 512.801C129.776 495.797 160.352 428.886 175.155 380.326C178.21 370.315 162.285 348.59 152.984 338.926Z" fill="#FFCFCA"/>
<path d="M224.901 226.622C239.98 234.328 255.343 241.456 270.798 248.381C275.454 250.462 280.153 252.55 285.141 253.595L286.175 281.813L287.064 305.994C286.147 306.598 285.179 307.091 284.18 307.516C279.61 319.113 268.315 327.325 255.094 327.325C240.864 327.325 228.863 317.813 225.082 304.804C224.795 304.717 224.508 304.629 224.22 304.543C224.216 303.322 224.21 302.102 224.205 300.881C223.963 299.312 223.835 297.704 223.835 296.066C223.835 294.525 223.951 293.012 224.167 291.53C224.158 289.422 224.148 287.314 224.141 285.207C224.111 277.147 224.069 269.071 223.233 261.052C222.972 258.595 222.651 256.143 222.256 253.708C221.315 247.634 220.03 241.62 218.747 235.592C217.691 230.648 216.638 225.69 215.582 220.746C218.539 223.43 221.322 224.793 224.901 226.622Z" fill="#FFCFCA"/>
<path d="M316.292 178.053C314.693 197.662 306.13 216.727 292.127 230.547C285.722 236.868 278.183 242.118 269.796 245.38C260.59 248.959 250.548 250.075 240.685 249.561C234.862 249.258 228.992 248.378 223.645 246.052C217.236 243.265 211.88 238.544 206.89 233.651C198.36 225.289 190.496 216.122 184.662 205.698C178.828 195.274 175.08 183.51 175.116 171.565C175.128 167.511 175.589 163.394 177.157 159.656C179.245 154.677 183.142 150.699 187.133 147.062C200.317 135.049 215.792 125.2 232.979 120.433C250.756 115.503 269.539 116.168 287.974 116.87C292.639 117.048 296.898 117.96 300.645 120.89C303.71 123.286 305.391 127.335 307.066 130.745C311.686 140.149 314.732 150.334 315.96 160.741C316.639 166.483 316.762 172.29 316.292 178.053Z" fill="#534741"/>
<path d="M286.175 281.812C268.916 277.961 252.223 271.659 236.957 262.803C232.102 259.991 227.063 256.975 222.255 253.706C221.314 247.633 220.029 241.618 218.746 235.59C217.69 230.646 216.637 225.688 215.581 220.744C218.538 223.43 221.321 224.793 224.9 226.622C239.979 234.328 255.342 241.456 270.797 248.381C275.453 250.462 280.152 252.55 285.14 253.595L286.175 281.812Z" fill="#F9BFBB"/>
<path d="M314.228 168.824C313.147 164.463 311.826 160.168 310.298 155.987C305.485 142.795 296.573 130.649 284.696 122.622C261.893 107.225 230.028 110.997 211.639 131.265C207.275 136.067 203.742 141.561 201.236 147.478C195.046 161.987 194.724 177.599 198.097 192.63C201.056 205.925 206.918 218.77 214.142 230.025C218.59 236.94 223.74 243.458 229.85 249.073C233.344 252.286 237.197 255.192 241.306 257.66C249.562 262.617 258.874 265.804 268.534 266.123C277.262 266.409 286.155 264.11 293.52 259.513C301.825 254.327 306.854 246.341 310.456 237.582C319.322 215.996 319.847 191.417 314.228 168.824Z" fill="#FFCFCA"/>
<path d="M218.146 225.416C209.851 229.569 199.348 228.964 191.643 223.78C185.133 219.406 180.876 211.904 180.283 204.103C180.179 202.687 180.193 201.269 180.332 199.836C180.58 197.345 181.221 194.874 182.404 192.671C185.356 187.242 191.786 184.042 197.939 184.539C204.106 185.04 209.775 189.027 212.721 194.462L214.806 206.366L218.146 225.416Z" fill="#FFCFCA"/>
<path d="M244.162 152.377C258.089 149.751 272.052 146.643 285.239 141.71C295.955 137.701 307.822 129.992 310.691 118.402C314.28 103.901 302.092 92.7711 289.955 87.0871C266.256 75.9881 236.973 77.95 215.34 92.902C202.207 101.979 192.328 115.484 187.793 130.559C185.192 139.207 184.108 152.283 194.293 156.299C206.124 160.964 220.754 156.588 232.757 154.453C236.544 153.778 240.351 153.095 244.162 152.377Z" fill="#534741"/>
<path d="M164.165 155.418C165.378 146.443 169.343 138.158 176.654 133.505C187.265 126.752 203.321 128.651 209.767 140.2C213.978 147.745 214.048 157.36 212.904 165.702C212.368 169.607 211.336 173.507 209.248 176.889C207.851 179.152 203.114 185.014 199.948 184.552C198.891 184.398 197.789 184.255 196.885 184.183C196.702 184.168 196.52 184.159 196.337 184.155C193.099 184.165 190.081 184.982 187.282 186.604C185.191 187.731 183.514 189.271 182.248 191.225C178.268 195.573 172.279 188.066 170.17 184.894C165.067 177.22 162.755 165.853 164.165 155.418Z" fill="#534741"/>
<path d="M371.416 481.387C371.292 481.44 371.168 481.502 371.035 481.555C374.858 545.368 377.087 672.613 381.972 726.339C307.497 721.747 197.258 725.923 131.781 717.96C130.011 685.222 131.763 607.8 140.78 505.356C141.656 495.296 142.682 484.97 143.85 474.405C143.885 474.078 143.921 473.75 143.956 473.414C143.912 473.388 143.867 473.352 143.823 473.325C134.117 466.698 123.295 460.734 112.447 454.877C97.3431 446.719 82.1771 438.765 69.8431 429.509C68.7641 428.695 84.168 402.248 84.841 400.859C105.864 357.078 142.159 310.678 192.134 299.963C195.072 299.335 223.81 296.061 223.864 294.76C223.846 295.194 223.837 295.627 223.837 296.061C223.837 313.333 237.826 327.322 255.097 327.322C272.36 327.322 286.349 313.333 286.349 296.061C286.349 295.645 286.34 295.229 286.322 294.813C312.53 300.14 337.535 311.979 357.833 329.232C376.273 344.911 390.943 364.855 400.614 387.01C402.419 391.116 404.083 395.274 405.649 399.477C412.143 416.934 417.187 434.878 422.628 452.672C416.089 457.503 408.878 462.157 401.269 466.546C391.776 472.017 381.653 477.051 371.416 481.387Z" fill="#397272"/>
<path d="M370.598 422.74C371.747 442.268 370.359 461.87 371.416 481.388C381.649 477.048 391.771 472.019 401.269 466.549C396.681 461.741 392.7 456.344 389.482 450.506C381.777 436.55 378.596 420.635 374.349 405.272C370.092 389.909 364.576 375.263 353.074 364.221C365.027 381.045 369.375 402.145 370.598 422.74Z" fill="#306664"/>
<path d="M252.295 165.588C253.528 165.461 254.771 165.561 256.006 165.661C258.193 165.838 260.381 166.015 262.568 166.193C263.294 166.252 264.198 166.215 264.516 165.56C264.673 165.236 264.624 164.844 264.484 164.512C263.953 163.251 262.401 162.823 261.044 162.65C257.676 162.223 254.118 162.461 250.965 163.79C250.35 164.049 246.828 165.658 247.076 166.483C247.297 167.219 251.587 165.661 252.295 165.588Z" fill="#211A17"/>
<path d="M299.998 164.103C298.759 164.067 297.527 164.258 296.302 164.448C294.134 164.785 291.965 165.123 289.797 165.46C289.077 165.572 288.173 165.602 287.808 164.972C287.628 164.66 287.648 164.266 287.763 163.925C288.2 162.629 289.716 162.087 291.057 161.816C294.384 161.143 297.95 161.118 301.193 162.213C301.825 162.426 305.456 163.772 305.27 164.613C305.102 165.363 300.709 164.124 299.998 164.103Z" fill="#211A17"/>
<path d="M296.113 221.624C293.658 228.009 289.152 232.403 283.677 232.86C278.405 233.293 273.41 229.965 269.951 224.448C267.58 220.66 265.93 215.841 265.406 210.492L266.439 210.408L296.903 207.897L298.033 207.801C298.381 212.863 297.648 217.63 296.113 221.624Z" fill="#CE7872"/>
<path d="M296.903 207.896C293.516 213.017 288.344 216.467 282.313 216.967C276.282 217.467 270.619 214.901 266.438 210.406L296.903 207.896Z" fill="white"/>
<path d="M296.113 221.623C293.658 228.008 289.152 232.402 283.677 232.859C278.405 233.292 273.41 229.964 269.951 224.447C271.435 223.464 272.994 222.603 274.618 221.881C279.309 219.792 284.584 218.881 289.654 219.693C291.905 220.05 294.05 220.729 296.113 221.623Z" fill="#EA8C8B"/>
<path d="M264.365 185.313C264.49 189.465 262.216 192.902 259.285 192.99C256.354 193.078 253.877 189.784 253.752 185.632C253.627 181.48 255.901 178.043 258.832 177.955C261.762 177.867 264.24 181.161 264.365 185.313Z" fill="#211A17"/>
<path d="M260.521 182.903C258.814 182.954 258.891 185.608 260.601 185.556C262.309 185.505 262.232 182.852 260.521 182.903Z" fill="white"/>
<path d="M292.666 184.46C292.791 188.612 295.268 191.906 298.199 191.818C301.13 191.73 303.404 188.293 303.279 184.141C303.154 179.989 300.677 176.695 297.746 176.783C294.815 176.871 292.541 180.308 292.666 184.46Z" fill="#211A17"/>
<path d="M299.543 180.942C297.836 180.993 297.913 183.647 299.623 183.595C301.331 183.543 301.253 180.89 299.543 180.942Z" fill="white"/>
<path d="M283.602 193.795C281.872 192.449 279.176 192.49 277.549 193.959L282.279 202.136C283.599 202.051 284.679 200.956 285.164 199.726C285.968 197.687 285.332 195.141 283.602 193.795Z" fill="#CE7872"/>
<path d="M241.82 194.251C234.02 194.792 228.053 200.368 228.493 206.706C228.932 213.044 235.612 217.742 243.412 217.201C251.212 216.66 257.179 211.084 256.739 204.746C256.299 198.409 249.62 193.71 241.82 194.251Z" fill="#F9BFBB"/>
<path d="M316.902 198.099C316.655 194.543 312.907 191.906 308.53 192.209C304.153 192.513 300.805 195.642 301.051 199.198C301.298 202.754 305.046 205.391 309.423 205.087C313.801 204.785 317.149 201.656 316.902 198.099Z" fill="#F9BFBB"/>
<path d="M155.821 396.648C149.893 421.848 145.876 447.517 143.823 473.327C134.117 466.7 123.295 460.736 112.447 454.879C115.668 452.632 118.8 450.268 121.826 447.755C132.674 438.748 142.124 427.723 147.645 414.751C150.344 408.398 151.548 402.063 155.821 396.648Z" fill="#306664"/>
</g>
</svg>
