<svg width="486" height="487" viewBox="0 0 486 487" fill="none" xmlns="http://www.w3.org/2000/svg">
<mask id="mask0_1370_865" style="mask-type:luminance" maskUnits="userSpaceOnUse" x="16" y="16" width="454" height="455">
<path d="M243.028 470.011C368.204 470.011 469.68 368.536 469.68 243.359C469.68 118.183 368.204 16.707 243.028 16.707C117.852 16.707 16.376 118.183 16.376 243.359C16.376 368.536 117.852 470.011 243.028 470.011Z" fill="white"/>
</mask>
<g mask="url(#mask0_1370_865)">
<path d="M243.028 470.011C368.204 470.011 469.68 368.536 469.68 243.359C469.68 118.183 368.204 16.707 243.028 16.707C117.852 16.707 16.376 118.183 16.376 243.359C16.376 368.536 117.852 470.011 243.028 470.011Z" fill="#E8DCD4"/>
</g>
<mask id="mask1_1370_865" style="mask-type:luminance" maskUnits="userSpaceOnUse" x="16" y="16" width="454" height="455">
<path d="M243.028 470.011C368.204 470.011 469.68 368.536 469.68 243.359C469.68 118.183 368.204 16.707 243.028 16.707C117.852 16.707 16.376 118.183 16.376 243.359C16.376 368.536 117.852 470.011 243.028 470.011Z" fill="white"/>
</mask>
<g mask="url(#mask1_1370_865)">
<path d="M643.2 526.383C636.872 524.972 630.501 523.762 624.126 522.578C616.793 521.216 609.436 520.019 602.14 518.464C601.644 518.358 600.438 517.973 600.474 517.301C600.488 517.038 600.72 516.828 600.973 516.753C601.698 516.538 602.648 516.879 603.341 517.067C608.459 518.451 613.492 519.335 618.719 520.168C623.261 520.892 627.788 521.712 632.295 522.628C635.476 523.274 638.763 524.35 641.988 524.604C644.25 524.783 646.694 524.179 647.497 521.775C649.849 514.734 635.723 512.89 631.565 511.999C618.855 509.275 606.253 505.998 593.517 503.442C592.383 503.214 591.2 503.131 590.177 502.544C589.973 502.427 589.761 502.274 589.703 502.045C589.624 501.734 589.86 501.436 590.094 501.215C591.821 499.577 594.304 498.867 596.44 497.939C599.413 496.634 602.724 495.173 605.175 492.975C606.982 491.331 608.27 488.56 606.826 486.3C605.617 484.408 603.274 483.387 601.089 483.283C598.308 483.151 595.621 484.189 593.019 485.181C587.204 487.399 581.334 489.475 575.417 491.405C569.958 493.186 564.097 493.314 558.682 495.248C555.091 496.53 551.642 498.179 548.354 500.121C546.781 499.555 439.753 447.622 413.537 450.664C399.222 452.325 382.592 498.689 395.362 505.367C435.649 526.435 536.756 529.017 538.291 529.735C539.395 530.256 540.217 531.821 541.029 532.746C542.032 533.888 543.099 534.985 544.209 536.028C546.431 538.128 548.817 540.054 551.334 541.791C556.111 545.089 561.347 547.676 566.862 549.482C570.218 550.581 573.708 550.922 577.193 551.355C584.561 552.271 591.901 553.416 599.277 554.259C606.632 555.099 614.04 555.009 621.426 554.718C624.123 554.612 627.685 554.499 629.227 551.853C630.217 550.155 629.809 548.12 628.014 547.184C626.241 546.26 623.967 546.428 622.01 546.275C619.793 546.103 617.575 545.937 615.357 545.777C611.577 545.505 607.796 545.252 604.014 545.018C602.217 544.907 600.146 545.168 598.446 544.465C597.432 544.045 598.532 543.109 599.119 542.965C600.317 542.67 601.754 543.093 602.957 543.227C604.451 543.393 605.947 543.549 607.444 543.694C610.436 543.985 613.432 544.236 616.43 544.458C622.277 544.89 628.132 545.206 633.989 545.49C635.571 545.567 637.174 545.637 638.726 545.318C641.595 544.728 645.182 541.432 642.831 538.347C641.635 536.778 639.387 536.592 637.416 536.52C630.88 536.399 624.352 535.94 617.852 535.247C614.598 534.9 611.35 534.495 608.109 534.043C606.492 533.817 604.878 533.58 603.265 533.333C602.642 533.237 600.096 533.244 599.901 532.475C599.626 531.387 601.747 531.547 602.273 531.611C606.797 532.162 611.321 532.714 615.846 533.265C623.386 534.184 630.927 535.103 638.467 536.021C642.087 536.462 649.403 538.315 650.998 533.573C652.656 528.636 646.76 527.176 643.2 526.383Z" fill="#FFCFCA"/>
<path d="M373.76 293.479C373.96 290.766 373.876 288.036 373.46 285.378C372.399 278.596 369.299 272.286 363.99 267.942C359.401 264.187 353.729 262.276 349.06 258.64C343.744 254.5 340.006 248.313 337.516 241.738C334.344 233.362 332.627 224.057 330.864 215.246C328.937 205.613 327.477 195.878 326.114 186.135C323.629 168.371 321.225 150.087 314.272 133.607C307.028 116.438 294.426 103.729 278.088 97.3156C261.821 90.9306 243.784 89.7977 226.999 94.4167C205.524 100.327 188.104 116.794 178.387 138.276C171.933 152.544 168.429 168.183 166.079 183.876C164.372 195.274 163.229 206.86 159.82 217.797C157.279 225.951 153.343 233.835 147.556 239.807C141.154 246.414 132.153 248.545 124.682 253.45C116.518 258.81 111.028 268.221 109.042 278.331C85.514 287.725 68.882 310.705 68.882 337.585C68.882 372.818 97.4439 401.381 132.678 401.381C141.991 401.381 150.828 399.369 158.804 395.783C161.052 397.112 163.386 398.309 165.797 399.367C170.713 431.196 198.225 455.564 231.43 455.564C246.748 455.564 260.843 450.365 272.078 441.654C275.057 442.17 278.116 442.455 281.243 442.455C309.164 442.455 332.057 420.985 334.348 393.656C337.26 394.132 340.244 394.39 343.291 394.39C373.698 394.39 398.348 369.74 398.348 339.334C398.347 320.196 388.579 303.345 373.76 293.479Z" fill="#CF9A5C"/>
<path d="M472.175 528.963C469.204 532.931 406.736 523.012 385.92 505.166C378.247 498.594 369.892 486.814 362.752 475.287C353.087 459.688 345.632 444.551 345.073 443.398C345.047 443.354 345.038 443.328 345.038 443.328C345.038 443.328 344.164 519.359 343.29 523.728C341.734 531.488 366.886 608.498 363.39 611.993C318.777 656.606 161.516 639.958 137.047 591.893C134.216 586.335 172.004 513.241 172.004 513.241C172.004 513.241 153.259 438.032 150.48 419.855C150.305 418.693 150.192 417.775 150.157 417.111C148.899 420.878 144.887 429.984 139.976 440.68C129.375 463.751 119.841 496.427 119.57 496.637C117.945 497.852 106.059 550.348 102.092 554.315C96.324 560.083 42.028 541.678 40.044 537.711C37.833 533.28 44.92 487.714 55.774 459.059C77.622 401.381 103.839 339.333 132.678 317.135C146.425 306.552 199.646 281.733 261.746 286.4C296.685 289.022 345.012 312.128 354.188 320.754C386.907 351.489 416.28 427.162 419.627 434.773C434.326 440.567 487.775 465.578 488.037 468.48C489.033 479.386 479.744 518.869 472.175 528.963Z" fill="#C15252"/>
<path d="M277.905 306.387C274.226 318.176 261.825 320.937 250.875 320.814C238.789 320.683 222.814 317.895 218.505 304.664C215.542 295.54 217.675 285.062 217.718 275.659C217.753 269.41 217.552 263.154 217.045 256.923C216.739 253.095 216.32 249.276 215.769 245.475C215.323 242.408 214.816 239.339 214.248 236.289C213.864 234.235 213.453 232.19 213.007 230.154C212.701 228.73 210.988 224.893 212.64 223.905C214.169 222.996 217.307 225.697 218.583 226.466C237.346 237.713 256.939 247.59 277.153 255.97C277.948 256.293 278.778 256.66 279.25 257.377C279.696 258.059 279.713 258.924 279.713 259.745C279.722 266.308 279.722 272.88 279.73 279.443C279.739 281.995 279.809 284.554 279.844 287.106C279.967 293.601 279.871 300.086 277.905 306.387Z" fill="#FFCFCA"/>
<path d="M279.845 287.107C262.297 282.274 245.43 275.074 230.032 265.444C225.75 262.77 221.337 259.938 217.046 256.923C216.74 253.095 216.321 249.276 215.77 245.475C215.324 242.408 214.817 239.339 214.249 236.289C213.865 234.235 213.454 232.19 213.008 230.154C212.702 228.73 210.989 224.893 212.641 223.905C214.17 222.996 217.308 225.697 218.584 226.466C237.347 237.713 256.94 247.59 277.154 255.97C277.949 256.293 278.779 256.66 279.251 257.377C279.697 258.059 279.714 258.924 279.714 259.745C279.723 266.308 279.723 272.88 279.731 279.443C279.74 281.996 279.81 284.556 279.845 287.107Z" fill="#F9BFBB"/>
<path d="M220.525 225.537C212.742 230.974 202.016 231.921 193.445 227.815C186.204 224.352 180.779 217.387 179.021 209.576C178.705 208.158 178.509 206.72 178.437 205.248C178.318 202.688 178.6 200.092 179.471 197.685C181.655 191.749 187.69 187.554 193.995 187.144C200.314 186.736 206.646 189.932 210.436 194.998L214.314 206.743L220.525 225.537Z" fill="#FFCFCA"/>
<path d="M309.002 239.341C305.242 248.52 300.028 256.872 291.485 262.245C283.908 267.009 274.788 269.338 265.858 268.951C255.974 268.52 246.47 265.074 238.063 259.777C233.879 257.14 229.96 254.044 226.411 250.629C220.206 244.661 214.989 237.752 210.495 230.433C203.196 218.52 197.305 204.948 194.388 190.931C191.062 175.084 191.522 158.662 197.979 143.459C200.594 137.259 204.255 131.514 208.762 126.506C227.751 105.366 260.394 101.714 283.602 118.14C295.69 126.704 304.709 139.571 309.525 153.498C311.054 157.911 312.37 162.443 313.44 167.042C319 190.867 318.256 216.721 309.002 239.341Z" fill="#FFCFCA"/>
<path d="M260.97 196.862C259.726 196.926 258.01 194.948 257.536 192.008C257.286 190.459 257.437 188.909 257.951 187.757C258.129 187.359 258.624 186.418 259.386 186.295C259.426 186.289 259.464 186.285 259.503 186.283C260.748 186.219 262.463 188.197 262.937 191.137C263.187 192.687 263.036 194.236 262.522 195.388C262.345 195.786 261.849 196.727 261.087 196.849C261.048 196.856 261.009 196.86 260.97 196.862Z" fill="#1F3C49"/>
<path d="M298.266 193.245C297.215 193.299 295.453 191.541 294.972 188.555C294.729 187.053 294.876 185.553 295.373 184.438C295.731 183.633 296.227 183.124 296.732 183.043C296.768 183.037 296.804 183.033 296.841 183.031C297.892 182.977 299.654 184.735 300.135 187.722C300.377 189.223 300.231 190.724 299.734 191.839C299.375 192.644 298.88 193.152 298.375 193.234C298.339 193.239 298.302 193.243 298.266 193.245Z" fill="#1F3C49"/>
<path d="M279.549 200.016C280.524 198.945 282.172 198.486 283.728 198.77C285.312 199.033 286.771 200.164 287.504 201.612C288.275 203.04 288.368 204.885 287.677 206.336C287.021 207.776 285.7 208.866 284.262 209.05C285.266 208.042 285.83 206.906 286.043 205.782C286.257 204.664 286.055 203.593 285.559 202.627C285.054 201.666 284.29 200.886 283.249 200.422C282.205 199.953 280.949 199.766 279.549 200.016Z" fill="#1F3C49"/>
<path d="M260.97 172.685C260.852 172.698 260.738 172.688 260.623 172.653C259.237 172.231 257.711 172.096 256.218 172.262C256.016 172.285 255.813 172.313 255.612 172.346C254.267 172.57 252.955 173.042 251.818 173.713C251.725 173.768 251.628 173.804 251.524 173.821C251.381 173.838 251.286 173.833 251.192 173.812C250.963 173.762 250.753 173.611 250.632 173.406C250.391 172.996 250.528 172.464 250.939 172.221C252.246 171.451 253.761 170.907 255.316 170.648C255.548 170.609 255.782 170.577 256.016 170.551C257.744 170.359 259.51 170.513 261.122 170.996C261.578 171.133 261.839 171.617 261.701 172.075C261.605 172.392 261.342 172.625 261.016 172.679L260.97 172.685Z" fill="#1F3C49"/>
<path d="M290.362 167.475C290.31 167.462 290.253 167.441 290.2 167.415C290.011 167.324 289.863 167.169 289.781 166.978C289.593 166.541 289.796 166.029 290.234 165.841C292.392 164.914 294.88 164.66 297.241 165.126C297.454 165.168 297.666 165.215 297.876 165.269C298.453 165.416 299.017 165.606 299.552 165.835C299.98 166.024 300.193 166.538 300.008 166.971C299.843 167.357 299.458 167.562 299.05 167.481C298.956 167.458 298.913 167.444 298.87 167.426C298.417 167.232 297.935 167.069 297.44 166.943C297.265 166.898 297.09 166.859 296.913 166.824C294.888 166.425 292.759 166.64 290.918 167.43C290.759 167.498 290.577 167.517 290.405 167.483L290.362 167.475Z" fill="#1F3C49"/>
<path d="M260.25 188.216C258.432 187.84 257.844 190.665 259.665 191.042C261.484 191.418 262.071 188.593 260.25 188.216Z" fill="white"/>
<path d="M298.133 184.566C296.315 184.19 295.727 187.015 297.548 187.392C299.366 187.768 299.954 184.943 298.133 184.566Z" fill="white"/>
<path d="M302.177 214.342C302.687 219.381 301.781 224.177 299.819 228.261C296.68 234.816 290.822 239.482 283.733 240.2C276.47 240.936 269.648 237.356 265.28 231.315C262.699 227.785 260.968 223.408 260.478 218.566C260.46 218.392 260.466 218.216 260.447 218.031L302.1 213.811C302.119 213.997 302.16 214.168 302.177 214.342Z" fill="#D55454"/>
<path d="M300.409 213.982C296.242 219.401 289.712 223.211 282.09 223.983C274.468 224.755 267.307 222.333 262.138 217.86L300.409 213.982Z" fill="white"/>
<path d="M299.82 228.26C296.681 234.815 290.823 239.481 283.734 240.199C276.471 240.935 269.649 237.355 265.281 231.314C272.235 229.03 279.523 227.741 286.839 227.527C291.178 227.403 295.522 227.654 299.82 228.26Z" fill="#F37C7C"/>
<path d="M258.639 208.321C258.891 213.061 253.878 217.181 247.442 217.523C241.006 217.865 235.584 214.3 235.332 209.559C235.08 204.819 240.093 200.699 246.529 200.357C252.965 200.015 258.387 203.581 258.639 208.321Z" fill="#F9BFBB"/>
<path d="M312.911 200.612C313.081 203.813 309.696 206.595 305.349 206.826C301.003 207.057 297.341 204.649 297.171 201.448C297.001 198.247 300.386 195.465 304.733 195.234C309.08 195.003 312.741 197.411 312.911 200.612Z" fill="#F9BFBB"/>
<path d="M309.339 148.199C307.11 144.745 304.034 140.853 299.943 141.248C298.444 141.393 297.073 142.127 295.624 142.538C292.609 143.394 289.21 142.767 286.699 140.893C284.605 139.33 283.135 136.99 280.878 135.674C278.212 134.12 274.624 134.325 272.155 136.175C270.032 137.765 268.858 140.287 267.218 142.371C263.492 147.108 257.352 149.471 251.335 149.82C245.318 150.169 239.347 148.73 233.56 147.046C230.809 146.246 227.708 145.42 225.209 146.821C223.475 147.793 222.434 149.65 221.714 151.503C219.873 156.235 219.569 161.441 219.941 166.504C220.39 172.616 221.687 179.228 218.603 184.524C216.439 188.241 212.181 190.64 207.88 190.564C203.849 190.493 200.149 188.452 196.258 187.394C192.367 186.336 187.488 186.621 185.244 189.97C183.49 173.323 183.176 155.898 189.981 140.604C196.184 126.663 207.995 115.455 221.963 109.314C235.931 103.173 251.91 102.011 266.799 105.348C272.44 106.612 277.973 108.518 282.962 111.437C295.719 118.902 304.569 134.21 309.339 148.199Z" fill="#CF9A5C"/>
<path d="M150.479 419.856C150.304 418.694 150.191 417.776 150.156 417.112C148.898 420.879 144.886 429.985 139.975 440.681C144.292 408.294 146.573 370.305 146.573 370.305C146.573 370.305 148.766 400.455 150.479 419.856Z" fill="#AD4242"/>
<path d="M362.753 475.287C353.088 459.688 345.633 444.551 345.074 443.398C343.37 415.38 340.67 357.484 339.673 348.281C351.943 387.817 353.883 429.258 361.678 469.912C362.019 471.704 362.377 473.504 362.753 475.287Z" fill="#AD4242"/>
</g>
</svg>
