<svg width="487" height="487" viewBox="0 0 487 487" fill="none" xmlns="http://www.w3.org/2000/svg">
<mask id="mask0_1370_741" style="mask-type:luminance" maskUnits="userSpaceOnUse" x="17" y="17" width="454" height="454">
<path d="M243.727 470.805C368.904 470.805 470.379 369.329 470.379 244.153C470.379 118.977 368.904 17.501 243.727 17.501C118.551 17.501 17.075 118.977 17.075 244.153C17.075 369.329 118.551 470.805 243.727 470.805Z" fill="white"/>
</mask>
<g mask="url(#mask0_1370_741)">
<path d="M243.727 470.805C368.904 470.805 470.379 369.329 470.379 244.153C470.379 118.977 368.904 17.501 243.727 17.501C118.551 17.501 17.075 118.977 17.075 244.153C17.075 369.329 118.551 470.805 243.727 470.805Z" fill="#E8DCD4"/>
</g>
<mask id="mask1_1370_741" style="mask-type:luminance" maskUnits="userSpaceOnUse" x="17" y="17" width="454" height="454">
<path d="M243.727 470.805C368.904 470.805 470.379 369.329 470.379 244.153C470.379 118.977 368.904 17.501 243.727 17.501C118.551 17.501 17.075 118.977 17.075 244.153C17.075 369.329 118.551 470.805 243.727 470.805Z" fill="white"/>
</mask>
<g mask="url(#mask1_1370_741)">
<path d="M404.614 360.295C404.601 360.261 404.588 360.227 404.575 360.192C397.553 341.655 385.068 324.57 371.182 310.601C355.958 295.286 343.232 281.996 338.261 260.102C334.566 243.829 334.675 226.969 334.405 210.282C333.968 183.306 331.45 154.29 316.134 131.273C302.696 111.079 280.943 97.3864 256.42 97.0184C224.926 96.5454 194.985 115.549 179.078 142.328C162.28 170.607 160.556 203.904 148.387 233.948C141.596 250.713 130.231 265.69 120.666 281.042C106.645 303.546 89.7759 325.716 83.2869 351.764C68.4159 411.829 100.958 476.344 158.396 499.173C163.809 501.324 169.377 503.08 175.045 504.417C177.636 505.028 180.246 505.555 182.87 505.997C222.546 512.68 262.889 507.547 301.431 496.908C324.146 490.638 346.608 482.235 365.803 468.529C399.777 444.273 420.091 401.311 404.614 360.295Z" fill="black"/>
<path d="M673.791 530.33C667.337 528.891 660.839 527.657 654.339 526.45C646.861 525.061 639.358 523.84 631.917 522.254C631.411 522.146 630.181 521.754 630.218 521.068C630.233 520.8 630.469 520.586 630.727 520.509C631.467 520.289 632.435 520.638 633.142 520.829C638.361 522.24 643.495 523.142 648.825 523.992C653.457 524.73 658.073 525.567 662.67 526.5C665.915 527.159 669.267 528.256 672.555 528.516C674.862 528.698 677.355 528.082 678.173 525.63C680.571 518.449 666.166 516.569 661.924 515.66C648.962 512.882 636.11 509.54 623.121 506.933C621.965 506.701 620.758 506.616 619.715 506.017C619.507 505.897 619.291 505.742 619.232 505.509C619.152 505.191 619.393 504.888 619.63 504.663C621.39 502.993 623.924 502.269 626.102 501.322C629.134 499.991 632.511 498.501 635.01 496.26C636.853 494.583 638.167 491.757 636.694 489.452C635.461 487.522 633.071 486.481 630.843 486.375C628.007 486.241 625.266 487.299 622.613 488.311C616.683 490.573 610.696 492.69 604.662 494.658C599.094 496.474 593.117 496.605 587.595 498.577C583.933 499.885 580.415 501.566 577.062 503.547C575.648 503.038 490.655 461.821 452.227 454.192L385.737 363.4C382.849 366.649 379.891 369.841 376.936 373.038C368.839 381.798 360.98 390.774 352.84 399.495C350.281 402.236 347.69 404.945 345.093 407.648C344.096 408.993 343.097 410.336 342.103 411.684C365.785 440.98 405.556 490.14 417.533 504.713C418.288 506.611 419.433 508.061 421.032 508.897C462.118 530.383 565.232 533.017 566.798 533.749C567.924 534.281 568.762 535.876 569.591 536.819C570.613 537.984 571.703 539.102 572.834 540.166C575.1 542.308 577.534 544.272 580.1 546.043C584.972 549.406 590.311 552.045 595.936 553.887C599.358 555.008 602.918 555.355 606.472 555.797C613.986 556.731 621.472 557.899 628.995 558.758C636.496 559.615 644.051 559.522 651.583 559.226C654.334 559.118 657.966 559.003 659.539 556.305C660.548 554.573 660.133 552.498 658.302 551.544C656.494 550.601 654.175 550.773 652.179 550.617C649.918 550.441 647.656 550.272 645.394 550.109C641.539 549.832 637.683 549.574 633.826 549.335C631.993 549.221 629.881 549.488 628.147 548.771C627.113 548.343 628.235 547.388 628.834 547.241C630.056 546.94 631.522 547.371 632.749 547.508C634.273 547.678 635.799 547.836 637.325 547.984C640.377 548.281 643.432 548.537 646.49 548.763C652.453 549.204 658.425 549.526 664.397 549.815C666.011 549.893 667.645 549.965 669.228 549.64C672.154 549.038 675.812 545.677 673.415 542.531C672.195 540.931 669.903 540.741 667.892 540.668C661.226 540.545 654.569 540.076 647.94 539.37C644.621 539.017 641.309 538.603 638.004 538.142C636.355 537.912 634.709 537.67 633.063 537.418C632.428 537.321 629.831 537.328 629.632 536.543C629.351 535.433 631.515 535.597 632.051 535.662C636.665 536.224 641.279 536.787 645.893 537.349C653.583 538.286 661.273 539.223 668.963 540.16C672.655 540.61 680.116 542.499 681.743 537.663C683.434 532.627 677.421 531.139 673.791 530.33Z" fill="#FFCFCA"/>
<path d="M424.672 407.319C407.187 427.509 392.589 441.935 374.741 461.789C372.626 459.483 370.52 457.095 368.504 454.771C361.123 446.256 355.014 438.503 354.778 438.194L354.769 438.185C354.769 438.185 349.322 563.466 348.414 568.005C346.798 576.067 363.847 638.816 360.216 642.447C313.871 688.792 177.742 676.037 152.323 626.106C149.382 620.332 194.894 555.295 194.894 555.295C194.894 555.295 176.181 495.378 166.903 460.599C163.145 446.528 160.503 436.569 160.494 436.369C159.495 439.356 157.77 447.263 155.047 456.341C145.969 453.617 85.997 441.09 79.697 438.184C100.883 371.037 127.901 337.166 140.28 327.263C149.035 320.259 206.921 298.46 271.431 303.308C307.726 306.032 350.931 322.369 358.275 329.014C376.66 345.649 405.551 382.419 424.672 407.319Z" fill="#C093FF"/>
<path d="M287.304 322.255C283.482 334.502 270.6 337.37 259.225 337.243C246.67 337.107 230.075 334.211 225.599 320.466C222.521 310.988 224.736 300.103 224.782 290.335C224.818 283.844 224.609 277.344 224.083 270.871C223.765 266.895 223.33 262.927 222.758 258.978C222.295 255.792 221.768 252.605 221.178 249.437C220.779 247.304 220.352 245.179 219.889 243.064C219.571 241.584 217.792 237.599 219.508 236.573C221.097 235.629 224.356 238.434 225.681 239.233C245.172 250.917 265.526 261.175 286.524 269.881C287.35 270.217 288.212 270.598 288.703 271.343C289.166 272.051 289.184 272.95 289.184 273.803C289.193 280.621 289.193 287.448 289.202 294.266C289.211 296.917 289.284 299.577 289.32 302.228C289.447 308.973 289.347 315.71 287.304 322.255Z" fill="#FFCFCA"/>
<path d="M289.32 302.229C271.091 297.209 253.57 289.728 237.574 279.724C233.126 276.946 228.541 274.005 224.084 270.873C223.766 266.897 223.331 262.929 222.759 258.98C222.296 255.794 221.769 252.607 221.179 249.439C220.78 247.306 220.353 245.181 219.89 243.066C219.572 241.586 217.793 237.601 219.509 236.575C221.098 235.631 224.357 238.436 225.682 239.235C245.173 250.919 265.527 261.177 286.525 269.883C287.351 270.219 288.213 270.6 288.704 271.345C289.167 272.053 289.185 272.952 289.185 273.805C289.194 280.623 289.194 287.45 289.203 294.268C289.211 296.919 289.283 299.578 289.32 302.229Z" fill="#F9BFBB"/>
<path d="M319.609 248.229C315.705 257.77 310.286 266.44 301.416 272.023C293.545 276.971 284.067 279.395 274.789 278.986C264.521 278.541 254.653 274.964 245.92 269.463C241.572 266.721 237.495 263.508 233.81 259.958C227.364 253.757 221.945 246.577 217.278 238.978C209.698 226.604 203.579 212.506 200.547 197.944C200.193 196.264 199.884 194.576 199.612 192.887C197.252 178.008 198.25 162.811 204.278 148.63C206.992 142.184 210.796 136.22 215.481 131.018C235.199 109.058 269.116 105.263 293.219 122.321C305.783 131.218 315.152 144.59 320.154 159.052C321.743 163.637 323.104 168.348 324.221 173.123C324.412 173.949 324.602 174.784 324.775 175.62C329.931 199.669 328.905 225.524 319.609 248.229Z" fill="#FFCFCA"/>
<path d="M269.712 204.103C268.42 204.17 266.637 202.115 266.144 199.061C265.884 197.452 266.041 195.842 266.575 194.645C266.759 194.231 267.274 193.254 268.066 193.126C268.107 193.119 268.147 193.115 268.188 193.113C269.481 193.046 271.263 195.101 271.756 198.156C272.016 199.766 271.859 201.375 271.325 202.572C271.141 202.986 270.626 203.963 269.834 204.09C269.794 204.096 269.753 204.101 269.712 204.103Z" fill="#1F3C49"/>
<path d="M308.456 200.345C307.364 200.401 305.534 198.575 305.034 195.473C304.782 193.913 304.934 192.355 305.451 191.197C305.823 190.361 306.338 189.832 306.863 189.748C306.901 189.742 306.938 189.738 306.976 189.736C308.068 189.68 309.898 191.507 310.398 194.609C310.649 196.169 310.498 197.728 309.981 198.885C309.608 199.721 309.094 200.249 308.569 200.334C308.531 200.339 308.494 200.343 308.456 200.345Z" fill="#1F3C49"/>
<path d="M289.013 207.378C290.025 206.265 291.738 205.789 293.354 206.084C294.999 206.357 296.515 207.532 297.276 209.036C298.077 210.52 298.173 212.436 297.456 213.943C296.774 215.439 295.402 216.571 293.908 216.762C294.951 215.715 295.536 214.535 295.759 213.367C295.982 212.206 295.771 211.093 295.256 210.09C294.731 209.092 293.937 208.282 292.857 207.8C291.772 207.313 290.467 207.119 289.013 207.378Z" fill="#1F3C49"/>
<path d="M269.713 181.712C269.591 181.725 269.472 181.715 269.353 181.679C267.913 181.241 266.328 181.1 264.777 181.273C264.567 181.296 264.357 181.326 264.148 181.361C262.751 181.593 261.388 182.084 260.207 182.781C260.111 182.838 260.01 182.875 259.901 182.893C259.753 182.911 259.654 182.905 259.556 182.884C259.318 182.832 259.1 182.675 258.975 182.462C258.724 182.036 258.867 181.483 259.294 181.231C260.652 180.431 262.225 179.866 263.841 179.597C264.082 179.557 264.325 179.523 264.569 179.496C266.364 179.296 268.198 179.456 269.873 179.959C270.346 180.101 270.617 180.605 270.474 181.08C270.374 181.409 270.101 181.651 269.762 181.707L269.713 181.712Z" fill="#1F3C49"/>
<path d="M300.245 176.299C300.191 176.285 300.132 176.264 300.076 176.237C299.879 176.143 299.726 175.982 299.641 175.783C299.446 175.329 299.657 174.797 300.112 174.602C302.353 173.639 304.938 173.376 307.39 173.859C307.611 173.903 307.831 173.952 308.05 174.008C308.649 174.16 309.235 174.358 309.791 174.596C310.236 174.792 310.458 175.326 310.265 175.776C310.094 176.177 309.694 176.39 309.269 176.306C309.172 176.283 309.127 176.267 309.083 176.249C308.612 176.047 308.112 175.878 307.598 175.747C307.416 175.701 307.234 175.66 307.051 175.624C304.948 175.209 302.736 175.433 300.823 176.254C300.658 176.325 300.469 176.345 300.29 176.309L300.245 176.299Z" fill="#1F3C49"/>
<path d="M268.965 195.122C267.077 194.731 266.466 197.666 268.358 198.057C270.246 198.448 270.856 195.513 268.965 195.122Z" fill="white"/>
<path d="M308.318 191.329C306.429 190.938 305.819 193.873 307.711 194.264C309.599 194.655 310.21 191.721 308.318 191.329Z" fill="white"/>
<path d="M312.519 222.261C313.049 227.495 312.107 232.478 310.07 236.72C306.809 243.53 300.724 248.377 293.36 249.123C285.815 249.887 278.728 246.168 274.19 239.894C271.509 236.227 269.711 231.68 269.201 226.651C269.183 226.471 269.189 226.288 269.169 226.095L312.439 221.711C312.458 221.903 312.501 222.081 312.519 222.261Z" fill="#D55454"/>
<path d="M310.682 221.889C306.353 227.518 299.57 231.476 291.652 232.278C283.734 233.08 276.295 230.564 270.925 225.917L310.682 221.889Z" fill="white"/>
<path d="M310.07 236.72C306.809 243.53 300.724 248.377 293.36 249.123C285.815 249.887 278.728 246.168 274.19 239.894C281.414 237.521 288.985 236.183 296.585 235.96C301.093 235.831 305.605 236.091 310.07 236.72Z" fill="#F37C7C"/>
<path d="M267.291 216.006C267.553 220.93 262.345 225.21 255.659 225.566C248.973 225.921 243.341 222.218 243.079 217.293C242.817 212.368 248.025 208.089 254.711 207.733C261.397 207.378 267.029 211.082 267.291 216.006Z" fill="#F9BFBB"/>
<path d="M323.669 207.997C323.846 211.322 320.329 214.213 315.814 214.453C311.299 214.693 307.495 212.192 307.319 208.866C307.142 205.541 310.659 202.65 315.174 202.41C319.689 202.171 323.493 204.672 323.669 207.997Z" fill="#F9BFBB"/>
<path d="M325.577 175.387C313.708 171.93 301.719 164.226 292.029 152.844C290.751 151.355 289.556 149.828 288.425 148.284C281.061 163.831 266.011 178.127 245.978 186.603C229.815 193.443 213.193 195.309 198.823 192.873C196.433 177.805 197.444 162.414 203.549 148.054C206.298 141.526 210.15 135.486 214.894 130.218C234.863 107.978 269.21 104.136 293.619 121.411C306.343 130.421 315.831 143.963 320.897 158.609C322.506 163.252 323.885 168.023 325.016 172.859C325.209 173.695 325.403 174.541 325.577 175.387Z" fill="black"/>
<path d="M227.698 232.983C219.613 238.631 208.471 239.614 199.567 235.349C192.044 231.752 186.41 224.517 184.583 216.402C184.255 214.929 184.051 213.435 183.976 211.906C183.853 209.247 184.146 206.55 185.051 204.049C187.319 197.883 193.589 193.525 200.139 193.099C206.703 192.676 213.282 195.995 217.218 201.257L221.247 213.457L227.698 232.983Z" fill="#FFCFCA"/>
<path d="M289.128 303.303C288.144 311.866 286.874 320.932 280.087 327.061C274.136 332.435 265.822 334.749 257.886 334.686C249.541 334.62 241.234 331.927 234.489 327.071C226.857 321.576 224.546 312.347 224.295 303.396C224.178 299.208 217.57 299.191 217.688 303.396C217.978 313.754 220.766 324.656 229.294 331.313C237.372 337.619 247.591 341.111 257.886 341.207C267.561 341.298 277.57 338.223 284.759 331.672C292.875 324.276 294.551 313.617 295.735 303.303C296.214 299.14 289.603 299.174 289.128 303.303Z" fill="#8F3FFF"/>
<path d="M143.363 737.469C143.735 739.248 144.153 741.037 144.117 742.852C143.954 751.295 134.648 749.107 131.135 744.087C130.808 743.615 130.518 743.134 130.263 742.625C130.163 742.443 130.072 742.253 129.991 742.062C129.555 741.118 129.219 740.128 128.947 739.121C128.402 737.087 128.103 734.972 127.703 732.948C127.331 731.051 126.895 729.135 126.069 727.374C125.897 727.002 125.724 726.593 125.533 726.185C125.243 725.577 124.916 724.959 124.48 724.469C124.335 724.306 124.18 724.16 124.008 724.033C123.836 723.906 123.654 723.797 123.454 723.715C123.354 723.67 123.245 723.633 123.136 723.606C123.027 723.57 122.918 723.552 122.8 723.533C122.264 723.47 121.683 723.542 121.111 723.715C120.902 723.778 120.684 723.851 120.476 723.942C120.158 724.078 119.841 724.242 119.532 724.414C119.332 724.532 119.142 724.65 118.951 724.777C118.479 725.095 118.061 725.449 117.725 725.785C116.863 726.657 116.245 727.701 115.791 728.826C115.519 729.507 115.31 730.215 115.146 730.941C114.81 732.366 114.656 733.864 114.538 735.317C114.22 739.112 114.139 742.879 113.903 746.665C113.876 747.128 113.858 747.591 113.839 748.045C113.685 752.03 113.984 755.843 115.192 759.592C115.201 759.592 115.201 759.601 115.201 759.61C115.437 760.336 115.7 761.053 116.009 761.78C118.124 766.755 121.293 771.176 124.189 775.715C126.822 779.873 130.48 785.202 130.417 790.431C130.408 791.33 130.29 792.219 130.036 793.1C129.645 794.489 128.565 795.351 127.303 795.687C126.014 796.032 124.534 795.832 123.408 795.079C122.182 794.244 121.32 792.982 120.476 791.756C115.12 783.894 109.618 776.132 105.433 767.581C101.475 759.501 96.455 738.957 94.748 730.187C92.261 717.205 82.3019 646.276 79.5059 617.171C73.7959 557.581 78.2079 517.8 84.2359 485.39C85.9789 476.021 89.8559 458.745 93.7139 442.068C110.473 446.144 137.272 451.945 149.6 454.923L135.075 513.533C135.075 513.533 129.292 590.744 126.904 617.934C124.752 642.5 118.743 670.842 118.162 678.15C121.566 681.781 125.179 686.856 130.844 697.224C133.495 702.081 136.146 706.956 138.252 712.085C141.556 720.138 141.565 729.007 143.363 737.469Z" fill="#FFCFCA"/>
<path d="M182.272 381.045C182.109 382.67 178.323 420.036 175.018 434.553C172.957 443.631 169.771 453.036 166.902 460.599C163.144 446.528 160.502 436.569 160.493 436.369C160.493 436.369 170.479 416.397 175.926 400.964C181.028 386.492 182.154 381.599 182.272 381.045Z" fill="#AA6DFF"/>
<path d="M368.505 454.771C361.124 446.256 355.015 438.503 354.779 438.194L354.77 438.185C354.77 438.185 355.678 408.227 354.77 395.689C354.18 387.491 347.716 360.075 347.517 359.221C347.98 360.056 362.823 386.919 366.572 404.595C370.275 422.062 369.658 441.553 368.505 454.771Z" fill="#AA6DFF"/>
</g>
</svg>
