<svg width="454" height="455" viewBox="0 0 454 455" fill="none" xmlns="http://www.w3.org/2000/svg">
<mask id="mask0_1370_997" style="mask-type:luminance" maskUnits="userSpaceOnUse" x="0" y="0" width="454" height="455">
<path d="M227.291 454.218C352.467 454.218 453.943 352.742 453.943 227.566C453.943 102.39 352.467 0.914062 227.291 0.914062C102.115 0.914062 0.639038 102.39 0.639038 227.566C0.639038 352.742 102.115 454.218 227.291 454.218Z" fill="white"/>
</mask>
<g mask="url(#mask0_1370_997)">
<path d="M227.291 454.218C352.467 454.218 453.943 352.742 453.943 227.566C453.943 102.39 352.467 0.914062 227.291 0.914062C102.115 0.914062 0.639038 102.39 0.639038 227.566C0.639038 352.742 102.115 454.218 227.291 454.218Z" fill="#E8DCD4"/>
</g>
<mask id="mask1_1370_997" style="mask-type:luminance" maskUnits="userSpaceOnUse" x="0" y="0" width="454" height="455">
<path d="M227.291 454.218C352.467 454.218 453.943 352.742 453.943 227.566C453.943 102.39 352.467 0.914062 227.291 0.914062C102.115 0.914062 0.639038 102.39 0.639038 227.566C0.639038 352.742 102.115 454.218 227.291 454.218Z" fill="white"/>
</mask>
<g mask="url(#mask1_1370_997)">
<path d="M-247.755 642.544C-236.713 633.315 -225.663 624.088 -214.611 614.855C-204.017 606.001 -194.832 598.403 -183.163 590.969C-178.37 587.919 -171.965 583.997 -166.871 581.145C-140.568 563.992 -114.265 546.839 -87.962 529.686C-71.321 518.834 -54.681 507.982 -38.04 497.13C-27.11 490.002 -16.147 482.85 -6.19601 474.41C6.13599 463.95 76.8101 358.509 84.4261 349.35C89.0041 355.275 118.227 379.582 124.658 427.746C99.517 450.968 41.1421 513.881 12.2801 532.198C-39.2809 564.919 -98.1369 580.848 -153.278 607.099C-155.274 608.049 -157.31 613.036 -158.497 614.98C-162.346 621.285 -165.302 628.057 -169.589 634.096C-173.922 640.2 -178.919 645.834 -184.468 650.858C-186.981 653.133 -191.082 654.253 -192.596 650.176C-192.77 649.877 -192.908 649.552 -193.002 649.167C-194.211 644.617 -191.998 640.475 -189.719 636.689C-187.13 632.367 -185.09 628.048 -184.83 622.943C-184.764 621.561 -185.088 620.051 -186.157 619.172C-186.801 618.634 -187.654 618.409 -188.484 618.259C-191.29 617.789 -193.871 618.295 -196.293 619.331C-197.567 619.869 -198.801 620.556 -199.993 621.327C-201.137 622.047 -202.242 622.841 -203.329 623.652C-204.685 624.659 -206.004 625.69 -207.316 626.636C-207.585 626.832 -207.85 627.021 -208.113 627.203C-208.353 627.371 -208.603 627.543 -208.842 627.711C-210.411 628.809 -211.977 629.899 -213.553 630.994C-216.405 632.992 -219.262 634.98 -222.121 636.976C-224.611 638.715 -227.107 640.451 -229.597 642.19C-233.957 645.224 -238.741 648.685 -244.106 649.604C-248.126 650.293 -251.395 645.588 -247.755 642.544Z" fill="#FFCFCA"/>
<path d="M194.61 184.82C192.414 180.188 190.7 175.239 189.549 170.02C181.319 132.71 204.893 95.7906 242.204 87.5606C279.515 79.3306 316.433 102.905 324.663 140.216C324.901 141.297 325.11 142.377 325.296 143.457C337.589 149.532 347.12 160.918 350.303 175.35C351.219 179.503 351.542 183.646 351.348 187.7C365.249 193.262 376.248 205.377 379.716 221.101C385.286 246.352 369.331 271.337 344.081 276.906C339.88 277.833 335.688 278.151 331.59 277.942C325.652 283.521 318.185 287.627 309.651 289.51C299.215 291.812 288.829 290.429 279.836 286.241C274.439 290.526 268.012 293.685 260.83 295.27C241.711 299.487 222.751 291.358 212.25 276.203C189.246 278.126 167.796 262.799 162.687 239.635C157.393 215.646 171.534 191.911 194.61 184.82Z" fill="#AC1B35"/>
<path d="M276.73 280.902C270.393 277.535 264.808 272.924 258.41 269.694C257.862 269.594 257.307 269.509 256.734 269.462C246.579 268.625 236.465 267.127 226.28 266.561C223.121 266.385 219.912 266.41 216.76 266.805C206.411 272.964 195.783 278.625 184.244 281.48C179.551 282.641 173.739 283.906 167.718 284.525C163.321 286.495 161.03 289.804 163.348 295.85C165.579 301.668 169.853 306.915 174.098 311.52C175.395 312.927 176.756 314.28 178.173 315.576C197.536 333.27 231.877 342.53 256.909 331.03C269.811 325.103 280.691 315.057 288.728 303.976C291.245 300.505 293.051 296.639 294.957 292.845C295.106 292.548 295.429 291.829 295.852 290.916C289.449 287.633 283.084 284.278 276.73 280.902Z" fill="#FFCFCA"/>
<path d="M210.395 287.391C213.944 290.141 218.48 291.165 222.86 292.107C228.139 293.255 233.431 294.401 238.817 294.767C249.316 295.482 259.204 292.795 269.483 290.547C269.967 284.5 270.464 278.452 270.948 272.405C271.556 264.843 272.176 257.266 273.537 249.8C273.959 247.513 274.436 245.234 274.983 242.977C276.303 237.344 277.942 231.792 279.579 226.227C280.925 221.663 282.27 217.085 283.617 212.521C280.649 214.829 277.938 215.908 274.448 217.368C259.742 223.516 244.81 229.102 229.807 234.49C225.287 236.108 220.727 237.729 215.97 238.351L212.97 264.76L210.395 287.391Z" fill="#FFCFCA"/>
<path d="M212.968 264.761C229.443 262.388 245.563 257.674 260.528 250.46C265.287 248.17 270.233 245.701 274.981 242.979C276.301 237.346 277.94 231.794 279.577 226.229C280.923 221.665 282.268 217.087 283.615 212.523C280.647 214.831 277.936 215.91 274.446 217.37C259.74 223.518 244.808 229.103 229.805 234.491C225.285 236.109 220.725 237.731 215.968 238.353L212.968 264.761Z" fill="#F9BFBB"/>
<path d="M186.049 219.077C188.139 228.209 191.711 236.794 198.843 243.116C205.169 248.721 213.308 252.296 221.689 253.31C230.965 254.43 240.351 252.684 249.001 249.042C253.306 247.229 257.434 244.948 261.266 242.313C267.967 237.708 273.891 232.074 279.206 225.946C287.841 215.97 295.421 204.231 300.298 191.62C305.838 177.366 307.938 161.994 304.263 146.835C302.781 140.655 300.254 134.739 296.827 129.378C282.39 106.756 252.536 98.3273 228.382 110.058C215.8 116.176 205.415 126.776 198.783 139.011C196.679 142.888 194.755 146.908 193.05 151.028C184.197 172.371 180.909 196.576 186.049 219.077Z" fill="#FFCFCA"/>
<path d="M273.242 221.363C279.657 227.627 289.505 230.161 298.124 227.656C305.405 225.545 311.531 219.89 314.373 212.883C314.886 211.61 315.29 210.3 315.584 208.94C316.089 206.573 316.226 204.111 315.785 201.734C314.665 195.867 309.687 191.029 303.875 189.676C298.05 188.323 291.658 190.325 287.346 194.462L281.924 204.808L273.242 221.363Z" fill="#FFCFCA"/>
<path d="M203.179 120.823C205.565 118.926 207.965 117.044 210.419 115.234C210.723 115.01 211.047 114.796 211.365 114.575C211.475 114.499 211.593 114.415 211.712 114.327C211.725 114.318 211.738 114.309 211.75 114.3C212.927 113.528 214.098 112.749 215.3 112.015C217.752 110.519 220.281 109.14 222.907 107.973C223.358 107.773 223.98 107.613 224.472 107.375C225.42 107.108 226.368 106.858 227.328 106.637C230.877 100.126 237.113 95.1239 244.923 93.4009C251.778 91.8889 258.596 93.1798 264.191 96.5008C266.515 94.9428 269.16 93.7789 272.058 93.1399C284.495 90.3969 296.801 98.2549 299.544 110.692C299.717 111.477 299.847 112.261 299.938 113.042C306.883 116.495 312.264 122.94 314.065 131.103C315.459 137.422 314.473 143.711 311.709 149.038C318.57 151.34 324.088 157.079 325.761 164.66C328.297 176.155 321.034 187.528 309.539 190.064C298.044 192.6 286.671 185.337 284.135 173.842C283.324 170.166 283.52 166.503 284.531 163.137C274.026 161.698 265.018 154.002 262.356 143.162C260.488 144.078 258.485 144.794 256.362 145.262C246.303 147.481 236.325 143.672 230.178 136.249C227.195 139.026 223.458 141.07 219.191 142.011C208.294 144.415 197.501 138.868 192.848 129.24C196.265 126.404 199.7 123.589 203.179 120.823Z" fill="#AC1B35"/>
<path d="M180.713 302.887C180.767 302.877 180.822 302.868 180.876 302.859C180.032 303.097 179.178 303.313 178.32 303.518C178.877 303.34 180.054 303.005 180.713 302.887Z" fill="#FFCFCA"/>
<path d="M236.901 185.992C238.184 186.14 240.087 184.181 240.766 181.132C241.125 179.526 241.068 177.893 240.611 176.653C240.453 176.224 240 175.207 239.22 175.029C239.179 175.02 239.14 175.013 239.099 175.008C237.816 174.86 235.913 176.819 235.233 179.868C234.875 181.474 234.932 183.107 235.389 184.347C235.547 184.776 236 185.792 236.78 185.971C236.821 185.98 236.86 185.987 236.901 185.992Z" fill="#1F3C49"/>
<path d="M201.885 177.993C203.019 178.122 205.042 176.335 205.763 173.126C206.127 171.514 206.069 169.875 205.607 168.632C205.273 167.734 204.772 167.149 204.232 167.026C204.193 167.017 204.154 167.01 204.115 167.007C202.981 166.877 200.958 168.667 200.236 171.874C199.874 173.487 199.931 175.125 200.392 176.368C200.726 177.266 201.228 177.851 201.768 177.973C201.807 177.983 201.846 177.99 201.885 177.993Z" fill="#1F3C49"/>
<path d="M218.751 188.105C217.895 187.038 216.368 186.509 214.885 186.686C213.377 186.841 211.935 187.821 211.159 189.143C210.349 190.444 210.153 192.178 210.719 193.585C211.253 194.981 212.434 196.086 213.779 196.343C212.892 195.334 212.427 194.23 212.291 193.158C212.155 192.092 212.408 191.094 212.933 190.213C213.466 189.337 214.231 188.646 215.239 188.27C216.251 187.889 217.446 187.787 218.751 188.105Z" fill="#1F3C49"/>
<path d="M246.729 165.821C246.948 165.825 247.169 165.74 247.333 165.569C247.645 165.243 247.634 164.726 247.307 164.413C244.915 162.124 241.514 160.885 238.21 161.085C237.759 161.113 237.417 161.501 237.445 161.952C237.473 162.403 237.86 162.744 238.312 162.717C241.174 162.533 244.109 163.615 246.177 165.594C246.333 165.742 246.531 165.817 246.729 165.821Z" fill="#1F3C49"/>
<path d="M211.57 159.193C211.752 159.14 211.917 159.023 212.028 158.852C212.273 158.473 212.164 157.967 211.785 157.722C209.266 156.096 206.023 155.546 203.109 156.249C202.683 156.357 202.401 156.796 202.506 157.236C202.612 157.675 203.054 157.945 203.493 157.839C205.98 157.239 208.748 157.708 210.898 159.096C211.105 159.228 211.35 159.257 211.57 159.193Z" fill="#1F3C49"/>
<path d="M237.127 177.016C238.863 176.768 239.251 179.465 237.513 179.713C235.776 179.961 235.388 177.264 237.127 177.016Z" fill="white"/>
<path d="M203.126 168.016C204.862 167.768 205.25 170.465 203.512 170.714C201.776 170.961 201.387 168.264 203.126 168.016Z" fill="white"/>
<path d="M199.459 200.955C199.246 204.505 200.02 207.843 201.514 210.652C203.905 215.161 208.149 218.265 213.144 218.565C218.261 218.872 222.944 216.164 225.835 211.8C227.544 209.249 228.632 206.129 228.837 202.717C228.844 202.595 228.835 202.471 228.843 202.341L199.498 200.58C199.49 200.711 199.466 200.833 199.459 200.955Z" fill="#D55454"/>
<path d="M200.689 200.652C203.768 204.334 208.46 206.818 213.829 207.141C219.199 207.463 224.153 205.558 227.651 202.27L200.689 200.652Z" fill="white"/>
<path d="M201.514 210.651C203.905 215.16 208.149 218.264 213.144 218.564C218.261 218.871 222.944 216.163 225.835 211.799C220.891 210.397 215.74 209.703 210.601 209.763C207.552 209.802 204.512 210.102 201.514 210.651Z" fill="#F37C7C"/>
<path d="M234.124 198.088C233.609 202.541 238.092 206.719 244.139 207.418C250.185 208.118 255.505 205.075 256.02 200.622C256.535 196.169 252.052 191.991 246.005 191.292C239.958 190.592 234.639 193.634 234.124 198.088Z" fill="#F9BFBB"/>
<path d="M187.27 186.71C186.922 189.717 189.95 192.538 194.033 193.011C198.116 193.484 201.708 191.429 202.056 188.421C202.404 185.414 199.376 182.593 195.293 182.12C191.21 181.648 187.618 183.702 187.27 186.71Z" fill="#F9BFBB"/>
<path d="M369.522 759.848C369.283 748.901 365.541 723.239 367.189 703.717C374.095 652.72 401.712 567.737 400.263 530.9C398.868 495.426 384.129 461.973 375.39 427.565C370.47 408.194 367.127 388.365 360.394 369.547C358.62 364.589 356.601 359.715 354.276 354.989C346.866 339.922 336.514 328.165 323.275 317.914C312.28 309.401 300.074 302.45 287.129 297.369L279.933 349.668C280.056 349.603 280.181 349.543 280.303 349.478C277.879 364.551 283.452 379.645 289.085 393.835C305.187 434.395 322.595 474.436 341.273 513.876C344.307 520.284 347.413 526.793 348.486 533.801C349.326 539.282 348.89 544.868 348.452 550.395C344.317 602.602 340.977 647.139 339.255 699.873C337.765 703.936 332.131 716.108 329.6 724.643C328.081 729.763 326.568 734.899 325.623 740.161C324.147 748.417 325.921 756.781 325.951 765.126C325.955 766.874 325.925 768.649 326.323 770.348C328.187 778.289 336.52 774.328 338.809 768.896C339.021 768.388 339.204 767.859 339.339 767.34C339.525 766.678 339.65 765.999 339.737 765.315C340.057 762.813 339.84 760.198 339.79 757.693C339.762 755.823 339.785 753.937 340.211 752.106C340.565 750.566 340.786 748.445 342.515 747.83C344.111 747.259 346.414 748.05 347.75 748.914C349.338 749.955 350.427 751.52 351.231 753.259C351.396 753.614 351.552 753.967 351.692 754.334C352.075 755.288 352.395 756.289 352.69 757.254C353.756 760.769 354.596 764.316 355.583 767.835C356.95 772.727 357.623 777.485 356.662 782.515C355.674 787.629 353.581 792.44 351.773 797.307C349.837 802.527 346.921 809.526 349.773 814.884C351.085 817.357 354.632 817.268 356.422 815.404C357.41 814.37 357.97 813 358.509 811.675C361.97 803.185 365.588 794.757 367.805 785.828C369.897 777.412 369.688 768.465 369.522 759.848Z" fill="#FFCFCA"/>
<path d="M383.519 422.605C352.036 446.382 335.506 459.287 313.255 468.853C313.241 468.895 313.227 468.936 313.213 468.978C311.162 475.211 309.065 481.667 306.952 488.271C306.376 490.07 305.794 491.894 305.211 493.718C302.776 501.355 300.335 509.172 297.913 517.061C267.905 526.229 152.962 544.659 137.882 546.672C136.351 538.362 134.862 530.361 133.373 521.443C130.074 501.741 126.769 477.603 122.993 435.961C122.919 436.112 122.837 436.272 122.757 436.448C121.362 439.314 118.564 445.349 113.777 455.091C113.15 456.377 112.485 457.73 111.782 459.151C98.121 446.869 49.229 391.252 49.229 391.252C49.229 391.252 82.297 333.678 108.618 314.145C141.5 289.745 188.372 278.248 188.372 278.248C188.372 278.248 199.841 290.262 203.313 292.886C213.429 300.543 224.083 304.602 236.749 305.395C255.387 306.566 275.033 297.908 285.996 282.065C328.672 299.446 359.233 319.925 383.519 422.605Z" fill="#FE8F8C"/>
<path d="M113.776 455.092C118.563 445.349 121.361 439.314 122.756 436.449C121.986 427.665 122.373 418.778 123.908 410.068C118.534 418.622 114.572 428.035 113.227 437.84C112.443 443.571 112.583 449.441 113.776 455.092Z" fill="#F98080"/>
<path d="M313.213 468.977C311.162 475.21 309.065 481.666 306.952 488.27C295.467 469.347 291.242 446.215 294.873 424.287C297.89 440.213 304.172 455.516 313.213 468.977Z" fill="#F98080"/>
</g>
</svg>
