<svg width="454" height="454" viewBox="0 0 454 454" fill="none" xmlns="http://www.w3.org/2000/svg">
<mask id="mask0_1370_1133" style="mask-type:luminance" maskUnits="userSpaceOnUse" x="0" y="0" width="454" height="454">
<path d="M227.23 453.984C352.407 453.984 453.882 352.508 453.882 227.332C453.882 102.155 352.407 0.679688 227.23 0.679688C102.054 0.679688 0.578125 102.155 0.578125 227.332C0.578125 352.508 102.054 453.984 227.23 453.984Z" fill="white"/>
</mask>
<g mask="url(#mask0_1370_1133)">
<path d="M227.23 453.984C352.407 453.984 453.882 352.508 453.882 227.332C453.882 102.155 352.407 0.679688 227.23 0.679688C102.054 0.679688 0.578125 102.155 0.578125 227.332C0.578125 352.508 102.054 453.984 227.23 453.984Z" fill="#E8DCD4"/>
</g>
<mask id="mask1_1370_1133" style="mask-type:luminance" maskUnits="userSpaceOnUse" x="0" y="0" width="454" height="454">
<path d="M227.23 453.984C352.407 453.984 453.882 352.508 453.882 227.332C453.882 102.155 352.407 0.679688 227.23 0.679688C102.054 0.679688 0.578125 102.155 0.578125 227.332C0.578125 352.508 102.054 453.984 227.23 453.984Z" fill="white"/>
</mask>
<g mask="url(#mask1_1370_1133)">
<path d="M316.524 336.489C316.511 337.271 316.498 338.046 316.472 338.828C316.317 345.47 315.968 352.151 315.451 358.865C314.365 373.073 312.524 387.411 310.191 401.743C305.061 433.287 297.533 464.793 290.284 494.839C285.942 497.753 278.783 502.347 273.827 504.014C231.053 518.429 202.92 515.638 158.472 507.762C152.062 481.929 148.709 455.476 146.99 428.914C145.123 400.064 143.268 371.156 143.54 342.26C144.432 339.385 145.368 336.516 146.357 333.666C146.538 333.143 146.725 332.619 146.913 332.096C147.294 331.088 147.675 330.073 148.069 329.072C149.122 326.384 150.227 323.722 151.39 321.079C152.954 317.525 154.627 314.03 156.404 310.586C163.195 302.735 170.503 295.337 178.269 288.456C186.662 281.019 195.844 274.041 206.557 270.72C213.936 268.433 221.78 267.98 229.501 268.368C234.308 268.614 239.096 269.195 243.819 270.1C261.407 273.46 278.155 281.259 292.086 292.515C296.467 296.049 300.57 299.933 304.33 304.12C305.002 304.87 305.661 305.625 306.314 306.395C310.204 310.983 313.77 316.042 315.373 321.844C316.679 326.577 316.608 331.571 316.524 336.489Z" fill="#FFCFCA"/>
<path d="M291.866 111.373C289.586 108.133 287.15 104.999 284.564 101.988C279.219 95.7651 272.854 90.3051 265.888 85.8841C239.753 69.2941 204.464 71.996 182.099 93.713C171.674 103.836 164.923 117.145 160.586 130.911C152.731 155.846 150.686 182.174 150.088 208.122C149.938 214.617 149.93 221.115 149.785 227.609C149.743 229.486 148.824 245.142 150.107 245.649C154.599 247.427 159.17 248.993 163.761 250.454C188.706 258.404 214.701 263.526 240.711 262.503C266.705 261.473 292.782 254.019 313.95 238.551C314.818 231.382 315.249 224.417 315.289 217.44C315.408 196.373 316.194 174.85 311.23 154.196C307.555 138.905 300.955 124.291 291.866 111.373Z" fill="#3A374C"/>
<path d="M259.522 199.406L259.823 223.031L260.507 276.503L199.302 280.253L200.836 249.083L202.188 221.472L259.522 199.406Z" fill="#FFCFCA"/>
<path d="M259.522 199.406L259.823 223.032C253.342 229.415 246.372 235.258 238.563 239.886C227.221 246.592 213.847 250.566 200.836 249.083L202.188 221.472L259.522 199.406Z" fill="#FCB9B4"/>
<path d="M284.406 162.807L284.407 162.814C281.65 176.426 276.242 189.528 268.955 200.606C257.159 218.539 237.588 234.582 215.473 236.376C204.169 237.291 192.768 233.586 184.573 225.648C182.577 223.72 180.753 221.563 179.126 219.205C164.381 197.878 162.235 169.572 168.782 144.151C171.617 133.136 176.084 122.672 181.868 113.544C188.174 103.593 197.369 94.9033 207.887 89.0343C225.317 79.3163 246.374 77.3413 263.921 90.1873C271.853 95.9913 277.667 104.406 281.241 113.577C281.382 113.916 281.509 114.257 281.635 114.597C287.203 129.68 287.687 146.602 284.406 162.807Z" fill="#FFCFCA"/>
<path d="M213.136 98.9716C212.672 104.439 209.927 109.452 206.797 113.963C206.102 114.957 205.391 115.945 204.655 116.905C195.583 128.812 183.251 138.217 169.353 143.797C169.15 143.879 168.919 143.972 168.659 144.083C171.5 133.046 175.976 122.559 181.771 113.413C188.09 103.442 197.304 94.7355 207.843 88.8535C209.038 89.3085 210.121 89.9865 210.983 90.9365C212.067 92.1275 212.685 93.6235 212.982 95.2145C213.209 96.4435 213.239 97.7306 213.136 98.9716Z" fill="#FCB9B4"/>
<path d="M284.406 162.808L284.407 162.815C279.728 166.284 275.078 169.885 269.532 171.487C266.748 172.293 263.84 172.563 260.941 172.568C252.124 172.58 243.313 170.145 235.747 165.605C224.998 159.157 217.066 148.722 211.77 137.361C208.731 130.837 206.503 124.001 204.705 117.03C203.354 111.864 202.25 106.619 201.229 101.373C203.985 97.3768 208.281 96.1998 213.014 95.3838C213.309 95.3298 213.605 95.2758 213.909 95.2288C231.488 92.3408 249.825 95.9837 265.739 103.987C271.187 106.725 276.354 109.952 281.24 113.578C281.381 113.917 281.508 114.258 281.634 114.598C287.203 129.681 287.687 146.603 284.406 162.808Z" fill="#FCB9B4"/>
<path d="M467.256 430.024C442.276 430.67 384.725 396.716 360.947 384.562C356.469 382.268 348.005 377.584 338.229 372.027C330.992 367.911 323.038 363.324 315.453 358.865C302.272 351.118 290.189 343.771 284.89 340.062C280.703 337.122 276.439 333.807 272.316 330.15C257.894 317.395 245.172 300.576 243.181 281.832C243.078 280.856 243.071 273.833 243.821 270.098C244.105 268.676 244.493 267.733 245.029 267.772C287.674 270.951 327.593 289.553 364.926 310.417C376.893 317.105 383.419 321.783 393.182 328.179C395.276 329.555 397.511 331.003 399.986 332.566C400.031 332.598 400.083 332.624 400.128 332.657C400.018 332.398 399.915 332.14 399.805 331.875C398.28 328.147 396.904 324.289 395.67 320.671C394.417 316.975 393.318 313.525 392.375 310.688C390.017 303.606 387.206 293.888 387.206 293.888C387.206 293.888 378.27 270.104 377.12 269.625C374.141 268.384 371.279 266.885 368.598 265.109C365.296 262.912 362.951 260.024 359.92 257.536C354.686 253.246 348.535 249.976 342.991 246.054C341.279 244.839 339.515 243.521 338.513 241.66C338.474 241.589 338.442 241.518 338.41 241.453C337.518 239.611 337.557 237.176 339.069 235.793C340.232 234.733 341.977 234.533 343.521 234.83C346.248 235.373 348.91 236.872 351.301 238.222C352.832 239.094 354.415 240.173 356.102 240.716C358.667 241.563 357.569 239.404 356.729 237.802C355.799 236.057 354.681 234.416 353.485 232.846C351.114 229.738 348.406 226.902 345.912 223.891C345.912 223.891 329.028 203.499 329.009 203.467C327.348 201.457 328.544 197.955 330.986 197.212C334.385 196.165 336.756 200.41 338.714 202.42C341.983 205.774 345.279 209.114 348.574 212.442C350.945 214.826 353.323 217.21 355.714 219.575C357.097 220.951 358.021 222.909 359.429 224.35C359.946 224.88 361.29 226.456 362.227 225.959C363.196 225.436 362.136 223.82 361.859 223.129C361.187 221.449 360.451 219.801 359.688 218.154C358.202 214.988 356.593 211.874 354.952 208.772C351.644 202.459 348.219 196.159 345.68 189.478C345.57 189.2 345.499 188.922 345.447 188.658C344.504 186.648 345.647 184.006 347.767 183.308C351.76 181.99 353.886 187.65 355.469 190.247C358.009 194.453 360.393 198.744 362.932 202.957C364.819 206.091 366.706 209.238 368.605 212.378C369.258 213.483 371.157 219.234 373.102 218.6C374.808 218.051 372.637 213.651 372.424 212.623C371.901 210.168 371.358 207.719 370.789 205.27C369.665 200.372 368.424 195.513 367.048 190.674C366.913 190.222 366.867 189.782 366.887 189.362C366.448 188.012 366.002 186.655 365.543 185.304C364.735 182.874 366.764 180.283 369.316 180.361C372.999 180.458 373.542 185.123 374.42 187.817C375.816 192.101 377.16 196.391 378.465 200.714C379.389 203.757 380.287 206.813 381.166 209.876C381.631 211.504 383.111 218.793 386.051 216.654C386.626 216.234 386.581 214.728 386.613 214.121C386.755 212.195 386.445 210.276 386.329 208.351C386.032 203.208 385.799 198.045 385.644 192.895C385.553 190.065 388.713 188.049 391.272 189.335C395 191.202 393.663 198.4 393.727 201.721C393.824 207.013 394.115 212.292 394.606 217.564C394.703 218.462 394.781 219.367 395.084 220.226C395.465 221.324 396.157 222.281 396.796 223.269C396.802 223.275 396.809 223.282 396.815 223.295C400.42 228.884 402.546 235.365 403.393 241.936C403.82 245.238 403.923 248.578 403.703 251.9C403.477 255.26 402.068 261.579 402.068 261.579C402.068 261.579 404.53 265.52 405.667 267.019C406.959 268.731 408.161 270.521 409.395 272.272C411.96 275.91 414.532 279.548 417.097 283.185C425.994 295.785 435.131 308.229 443.563 321.159C465.39 354.623 474.3 371.745 483.902 394.799C489.179 407.473 485.225 429.565 467.256 430.024Z" fill="#FFCFCA"/>
<path d="M338.228 372.027C330.991 367.911 323.037 363.324 315.452 358.865C314.366 373.073 312.525 387.411 310.192 401.743C299.944 401.491 289.716 400.942 279.526 399.863C273.045 399.178 265.989 397.97 261.705 393.059C258.642 389.55 257.576 384.73 257.247 380.084C256.22 365.585 261.318 351.305 267.915 338.35C269.323 335.584 270.797 332.858 272.315 330.151C277.891 320.155 283.926 310.399 288.514 299.925C289.593 297.457 290.691 294.84 292.087 292.514C293.638 289.91 295.563 287.655 298.258 286.324L300.274 286.964C301.502 292.702 302.833 298.433 304.332 304.119C307.375 315.691 311.103 327.07 316.066 337.944C316.202 338.241 316.337 338.532 316.473 338.829C322.055 350.879 329.227 362.303 338.228 372.027Z" fill="#FCB9B4"/>
<path d="M396.896 243.972C396.342 240.149 395.37 236.248 392.991 233.206C390.612 230.164 386.528 228.185 382.816 229.253C380.959 229.787 379.38 231 377.624 231.806C373.231 233.816 367.676 233.32 364.069 236.535C363.576 236.974 363.12 237.504 362.975 238.148C362.699 239.379 363.612 240.529 364.462 241.462C365.664 242.781 366.989 244.171 368.738 244.524C370.161 244.811 371.613 244.356 373.053 244.18C376.618 243.745 380.166 245.036 383.393 246.613C385.089 247.442 386.747 248.357 388.276 249.463C391.383 251.712 393.877 254.687 396.338 257.628C396.66 258.013 396.866 258.385 396.891 258.891C397.665 253.93 397.616 248.937 396.896 243.972Z" fill="#F9BFBB"/>
<path d="M270.824 93.9095C263.064 87.8205 254.09 83.4375 244.288 81.1115C239.019 79.8615 233.623 79.1105 228.21 78.9335C221.304 78.7085 217.37 81.2655 214.071 87.2515C211.508 91.9015 210.258 97.1955 210.013 102.476C209.937 104.111 209.954 105.766 210.055 107.435C211.047 123.746 219.912 141.303 229.785 150.509C237.763 157.953 247.955 163.079 258.528 165.63C269.084 168.177 282.265 168.582 292.067 163.202C301.341 158.112 302.595 147.464 300.006 138.065C296.79 126.392 289.81 114.504 282.221 105.148C278.813 100.947 274.994 97.1815 270.824 93.9095Z" fill="#3A374C"/>
<path d="M229.619 86.7503C229.347 85.5963 229.004 84.4353 228.347 83.4483C226.828 81.1653 223.927 80.2234 221.197 79.9704C211.553 79.0784 202.609 84.7203 194.873 90.5473C190.07 94.1643 185.348 97.9924 181.634 102.721C179.093 105.956 177.066 109.562 175.227 113.241C169.606 124.483 165.653 136.557 163.536 148.946L164.736 156.03C165.846 143.177 170.289 130.048 179.851 121.389C192.125 110.274 209.907 108.618 226.016 104.785C227.073 104.534 228.196 104.229 228.909 103.409C229.465 102.768 229.682 101.907 229.851 101.076C230.803 96.3574 230.724 91.4343 229.619 86.7503Z" fill="#3A374C"/>
<path d="M292.967 174.283C290.97 169.466 286.108 166.073 279.897 165.94C272.824 165.789 267.286 171.7 262.75 177.128C262.75 177.128 254.09 210.036 254.087 210.044C253.85 210.945 262.553 210.692 263.589 210.464C267.096 209.691 270.644 207.86 273.728 206.073C280.107 202.377 285.641 197.204 289.676 191.027C292.849 186.169 295.329 179.98 292.967 174.283Z" fill="#FFCFCA"/>
<path d="M213.822 81.7407C213.95 83.1007 213.997 84.4688 213.967 85.8298C213.956 86.2988 213.938 86.7687 213.905 87.2397C213.597 92.4637 212.193 97.6068 209.975 102.323C209.254 103.855 208.445 105.344 207.563 106.781C207.351 107.128 207.131 107.476 206.895 107.817C202.052 115.255 195.238 121.181 187.789 125.816C183.93 128.216 179.835 130.308 175.417 131.273C174.495 131.476 173.56 131.62 172.619 131.712C172.514 131.723 172.41 131.734 172.305 131.738C171.31 131.821 170.308 131.836 169.314 131.782C166.976 131.652 164.672 131.125 162.534 130.099C163.902 125.835 165.482 121.646 167.322 117.566C176.027 98.2508 190.468 84.7428 208.002 78.5078C209.931 78.7718 211.83 79.2428 213.576 79.7748C213.675 80.4278 213.76 81.0827 213.822 81.7407Z" fill="#3A374C"/>
<path d="M219.771 194.747C220.072 198.236 219.598 201.58 218.517 204.531C218.285 205.165 218.027 205.782 217.739 206.377C215.232 211.604 210.697 215.263 205.254 215.732C200.923 216.105 196.813 214.39 193.619 211.291C193.37 211.05 193.127 210.8 192.888 210.54C189.871 207.272 187.807 202.711 187.362 197.538C187.309 196.92 187.28 196.305 187.274 195.695L219.542 192.916C219.641 193.519 219.718 194.129 219.771 194.747Z" fill="#D55454"/>
<path d="M217.738 206.378C215.231 211.605 210.696 215.264 205.253 215.733C200.922 216.106 196.812 214.391 193.618 211.292C194.177 210.337 194.859 209.443 195.649 208.623C198.298 205.873 202.153 203.974 206.564 203.594C209.873 203.309 213.021 203.92 215.691 205.201C216.412 205.545 217.096 205.94 217.738 206.378Z" fill="#F37C7C"/>
<path d="M215.325 193.279C214.711 194.097 213.993 194.858 213.184 195.554C210.569 197.802 207 199.337 202.978 199.683C198.69 200.052 194.68 199.001 191.64 196.996C190.947 196.541 190.305 196.035 189.721 195.484L215.325 193.279Z" fill="white"/>
<path d="M146.75 173.222C150.309 186.83 164.274 195.006 177.883 191.447C190.558 188.132 198.508 175.789 196.665 163.116L203.777 162.443C203.6 165.227 203.84 168.082 204.583 170.925C208.334 185.269 223.055 193.886 237.398 190.135C251.742 186.384 260.359 171.663 256.608 157.32C252.857 142.976 238.136 134.359 223.793 138.11C220.585 138.949 217.685 140.36 215.124 142.17L184.301 144.761C178.665 141.465 171.775 140.312 164.975 142.09C151.367 145.648 143.191 159.614 146.75 173.222ZM205.917 170.576C202.358 156.968 210.534 143.002 224.142 139.444C237.75 135.885 251.716 144.061 255.274 157.669C258.833 171.277 250.657 185.243 237.049 188.801C223.441 192.359 209.476 184.184 205.917 170.576ZM196.407 161.755C196.311 161.275 196.233 160.794 196.107 160.314C196.026 160.004 195.912 159.712 195.821 159.408L204.291 158.715C204.132 159.484 204.003 160.259 203.911 161.044L196.407 161.755ZM186.185 145.985L213.135 143.72C208.983 147.286 206.002 152.033 204.61 157.305L195.394 158.059C193.577 153.049 190.304 148.905 186.185 145.985ZM148.084 172.873C144.718 160.001 152.451 146.79 165.324 143.423C178.196 140.057 191.407 147.791 194.773 160.663C198.139 173.535 190.405 186.746 177.533 190.113C164.662 193.479 151.45 185.745 148.084 172.873Z" fill="#999999"/>
<path d="M204.153 183.85C203.333 182.893 202.039 182.298 200.678 182.278C199.307 182.225 197.887 182.897 197.001 183.991C196.108 185.066 195.712 186.678 196.252 188.016C196.726 189.322 197.962 190.342 199.253 190.335C198.132 189.766 197.494 188.737 197.284 187.711C197.082 186.686 197.406 185.658 198.069 184.862C198.717 184.044 199.662 183.512 200.74 183.348C201.825 183.187 203.002 183.364 204.153 183.85Z" fill="#B53434"/>
<path d="M224.871 150.805C225.181 150.724 225.402 150.435 225.384 150.102C225.364 149.722 225.039 149.43 224.659 149.45L214.478 149.991C214.099 150.009 213.806 150.336 213.826 150.716C213.846 151.096 214.171 151.388 214.551 151.368L224.732 150.827C224.78 150.824 224.827 150.816 224.871 150.805Z" fill="#24404C"/>
<path d="M187.742 154.279C188.057 154.196 188.279 153.899 188.255 153.562C188.227 153.182 187.897 152.896 187.517 152.924L177.916 153.619C177.537 153.643 177.251 153.977 177.278 154.357C177.306 154.737 177.636 155.023 178.016 154.995L187.617 154.3C187.66 154.297 187.702 154.289 187.742 154.279Z" fill="#24404C"/>
<path d="M213.983 168.955C213.848 168.955 213.712 168.927 213.582 168.867C213.095 168.645 212.88 168.07 213.102 167.583C214.282 164.994 216.718 163.193 219.617 162.768C221.928 162.428 224.967 163.631 227.007 165.693C227.383 166.073 227.38 166.687 226.999 167.063C226.618 167.439 226.005 167.436 225.629 167.055C224.047 165.455 221.584 164.436 219.899 164.684C217.654 165.014 215.772 166.398 214.866 168.386C214.703 168.744 214.351 168.955 213.983 168.955Z" fill="#FCB9B4"/>
<path d="M178.583 170.147C178.382 170.147 178.18 170.085 178.006 169.956C177.576 169.637 177.486 169.03 177.805 168.6C179.528 166.279 182.354 164.662 184.686 164.662C184.694 164.662 184.701 164.662 184.709 164.662C187.639 164.675 190.304 166.114 191.838 168.511C192.126 168.962 191.995 169.561 191.544 169.85C191.092 170.139 190.493 170.006 190.205 169.556C189.028 167.715 186.97 166.61 184.7 166.6C182.972 166.599 180.702 167.948 179.362 169.755C179.172 170.011 178.879 170.147 178.583 170.147Z" fill="#FCB9B4"/>
<path d="M213.336 167.678C213.201 167.678 213.065 167.65 212.935 167.59C212.448 167.368 212.233 166.793 212.455 166.306C213.635 163.717 216.071 161.916 218.97 161.491C221.281 161.151 224.32 162.354 226.36 164.416C226.736 164.796 226.733 165.41 226.352 165.786C225.971 166.162 225.358 166.159 224.981 165.778C223.399 164.179 220.936 163.159 219.251 163.407C217.006 163.737 215.124 165.121 214.218 167.109C214.056 167.468 213.704 167.678 213.336 167.678Z" fill="#24404C"/>
<path d="M177.937 168.87C177.736 168.87 177.534 168.808 177.36 168.679C176.93 168.36 176.84 167.753 177.159 167.323C178.881 165.002 181.708 163.385 184.04 163.385C184.048 163.385 184.055 163.385 184.063 163.385C186.993 163.398 189.658 164.837 191.192 167.234C191.481 167.685 191.349 168.284 190.898 168.573C190.446 168.862 189.847 168.729 189.559 168.279C188.382 166.438 186.324 165.334 184.055 165.323C182.327 165.322 180.057 166.671 178.717 168.478C178.526 168.735 178.233 168.87 177.937 168.87Z" fill="#24404C"/>
<path d="M220.799 301.593C220.36 302.091 219.914 302.582 219.449 303.066C211.204 311.698 198.999 318.231 190.269 324.324C179.065 332.142 172.061 340.025 165.755 351.875C164.489 354.246 163.28 356.669 162.111 359.118C161.284 360.843 160.483 362.594 159.701 364.358C155.54 373.682 151.928 383.464 148.548 393.376C142.345 411.5 136.918 430.038 130.359 446.999C122.424 467.54 113.411 487.176 102.485 506.301C91.772 525.065 80.3869 543.448 68.3429 561.41C62.3209 570.391 56.137 579.269 49.799 588.031C47.634 591.023 41.496 599.959 37.723 605.102C36.89 606.239 36.179 607.183 35.643 607.848L35.578 608.016V608.035C35.849 612.015 35.5911 617.152 34.3051 625.868C33.6201 630.533 32.922 635.211 31.714 639.786C29.821 646.965 25.227 653.013 22.067 659.7C21.408 661.102 20.7621 662.537 19.7931 663.751C15.2891 669.431 9.98507 663.169 10.1591 657.968C10.1781 657.477 10.2301 656.992 10.3141 656.52C10.7861 653.716 12.3239 651.151 13.5709 648.618C14.3009 647.125 14.9861 645.6 15.3351 643.979C15.6191 642.616 16.24 640.826 15.057 639.689C13.965 638.649 11.794 638.429 10.379 638.629C8.68604 638.874 7.2191 639.734 5.9081 640.826C4.9391 641.627 4.05411 642.564 3.22011 643.495C1.02311 645.924 -0.993004 648.451 -3.119 650.919C-6.072 654.337 -8.41698 657.904 -9.51598 662.297C-10.64 666.762 -10.7369 671.395 -11.0929 675.963C-11.4809 680.873 -11.7331 687.567 -16.0751 690.811C-18.0721 692.31 -20.928 690.927 -21.69 688.776C-22.11 687.574 -22.052 686.276 -21.994 685.009C-21.626 676.913 -21.4001 668.81 -19.8551 660.83C-18.4011 653.303 -14.8599 646.202 -11.4869 639.346C-6.47292 629.221 15.8451 594.679 15.8451 594.679C16.0261 594.33 25.447 572.6 31.766 558.922C36.522 548.629 40.5531 540.72 45.0441 530.317C53.8451 509.918 65.3591 484.086 72.8471 463.17C73.4671 461.438 74.0489 459.739 74.5919 458.066C75.2379 456.121 75.8259 454.202 76.3749 452.309C81.0729 436.285 83.166 421.753 87.036 404.236C91.119 385.75 95.533 367.361 99.713 348.894C106.342 319.533 118.354 302.127 128.466 295.911C142.474 287.304 156.592 280.417 171.344 275.254C172.578 274.815 173.819 274.395 175.066 273.988C180.675 272.14 186.38 270.538 192.208 269.181C193.235 268.942 194.269 268.709 195.31 268.483C201.965 267.049 208.776 265.918 215.799 265.091C218.358 264.794 220.826 266.189 222.855 268.315C225.278 270.822 227.1 274.356 227.766 277.296C229.981 287.093 226.614 294.957 220.799 301.593Z" fill="#FFCFCA"/>
<path d="M259.955 370.496C246.179 383.865 227.551 391.734 208.477 393.938C202.843 394.584 197.092 394.765 191.535 393.634C177.262 390.726 165.709 379.193 160.223 365.701C160.042 365.255 159.868 364.809 159.7 364.357C159.332 363.375 158.989 362.386 158.679 361.391C154.75 349.024 154.944 335.507 157.244 322.674C158.323 316.613 159.855 310.662 161.612 304.763C164.003 296.699 166.807 288.739 169.456 280.752C170.057 278.93 170.671 277.082 171.343 275.253C172.577 274.814 173.818 274.394 175.065 273.987C180.674 272.139 186.379 270.537 192.207 269.18C192.498 271.713 193.04 274.2 193.803 276.617C194.611 279.182 195.683 281.663 196.995 284.035C201.57 292.286 208.981 299.071 217.807 302.476C218.35 302.689 218.892 302.883 219.448 303.064C220.185 303.309 220.934 303.536 221.69 303.73C228.571 305.526 235.802 305.442 242.896 304.996C256.277 304.163 270.305 301.785 280.643 293.262C279.118 301.707 281.225 310.34 281.554 318.92C282.292 338.105 273.737 357.127 259.955 370.496Z" fill="#FCB9B4"/>
<path d="M303.683 278.446C305.188 293.85 305.221 309.539 306.87 324.89C309.299 347.57 314.231 369.901 317.647 392.457C319.578 405.223 320.621 418.442 320.49 431.591C320.39 441.681 319.607 451.718 318.012 461.489C272.986 483.474 220.475 489.719 171.554 478.914C166.52 477.803 161.51 476.509 156.666 474.741C149.216 472.022 142.76 468.118 135.195 465.74C134.913 444.151 134.631 422.484 135.852 400.95C136.567 388.276 137.802 375.651 139.86 363.119C145.237 330.395 155.632 306.51 160.335 273.699C163.302 273.092 168.126 270.821 171.234 270.232C176.981 269.142 182.747 267.419 188.842 266.89C188.615 275.793 190.138 284.825 194.406 292.615C199.166 301.302 207.647 308.23 217.457 309.639C222.044 310.3 226.725 309.76 231.277 308.891C239.673 307.282 248.084 304.386 254.452 298.679C260.33 293.412 264.024 286.156 266.918 278.81C268.859 273.869 269.731 271.441 271.06 266.301C274.331 267.178 285.572 271.031 287.338 271.96C288.559 272.607 302.475 277.789 303.683 278.446Z" fill="#FFD342"/>
<path d="M320.49 431.59C320.39 441.68 319.607 451.717 318.012 461.488C272.986 483.473 220.475 489.718 171.554 478.913C166.52 477.802 161.51 476.508 156.666 474.74C149.216 472.021 142.76 468.117 135.195 465.739C134.913 444.15 134.631 422.483 135.852 400.949C139.74 406.429 144.339 411.23 150.211 414.473C159.22 419.447 170.004 419.992 180.267 419.275C190.529 418.551 200.767 416.689 211.038 417.293C229.702 418.39 246.882 427.496 265.098 431.691C273.266 433.575 281.649 434.472 290.029 434.598C300.254 434.748 310.486 433.729 320.49 431.59Z" fill="#FFC300"/>
<path d="M88.144 463.888C84.315 460.733 79.544 458.715 74.593 458.065C75.234 456.122 75.8242 454.204 76.3762 452.311C78.1332 453.056 79.7942 453.982 81.5322 455.193C84.7642 457.44 86.849 460.21 88.144 463.888Z" fill="#FCB9B4"/>
<path d="M412.495 359.738C408.773 355.919 404.619 350.434 402.034 345.768C398.842 340.03 395.889 334.157 393.182 328.18C395.276 329.556 397.511 331.004 399.986 332.567C402.538 342.369 406.273 351.829 412.495 359.738Z" fill="#FCB9B4"/>
</g>
</svg>
