<svg width="462" height="462" viewBox="0 0 462 462" fill="none" xmlns="http://www.w3.org/2000/svg">
<mask id="mask0_1396_154" style="mask-type:luminance" maskUnits="userSpaceOnUse" x="4" y="4" width="454" height="454">
<path d="M230.652 457.304C355.829 457.304 457.304 355.828 457.304 230.652C457.304 105.476 355.829 4 230.652 4C105.476 4 4 105.476 4 230.652C4 355.828 105.476 457.304 230.652 457.304Z" fill="white"/>
<path d="M230.652 457.304C355.829 457.304 457.304 355.828 457.304 230.652C457.304 105.476 355.829 4 230.652 4C105.476 4 4 105.476 4 230.652C4 355.828 105.476 457.304 230.652 457.304Z" fill="white"/>
</mask>
<g mask="url(#mask0_1396_154)">
<path d="M230.652 457.304C355.829 457.304 457.304 355.828 457.304 230.652C457.304 105.476 355.829 4 230.652 4C105.476 4 4 105.476 4 230.652C4 355.828 105.476 457.304 230.652 457.304Z" fill="#E8DCD4"/>
</g>
<mask id="mask1_1396_154" style="mask-type:luminance" maskUnits="userSpaceOnUse" x="3" y="3" width="455" height="455">
<path d="M234.452 457.165C359.608 455.011 459.321 351.804 457.167 226.648C455.012 101.491 351.806 1.77815 226.649 3.93275C101.493 6.08734 1.7796 109.294 3.9342 234.45C6.08879 359.607 109.295 459.32 234.452 457.165Z" fill="white"/>
</mask>
<g mask="url(#mask1_1396_154)">
<path d="M229.248 262.776C236.167 262.546 242.465 266.382 248.545 269.692C254.624 273.003 261.678 275.975 268.291 273.928C275.222 271.782 279.371 264.877 285.057 260.368C291.257 255.451 299.244 253.447 306.081 249.465C312.524 245.714 317.976 240.061 320.822 233.17C323.669 226.28 323.73 218.139 320.344 211.497C319.446 209.737 318.286 207.944 318.433 205.973C318.565 204.2 319.74 202.69 320.963 201.401C324.21 197.979 328.238 195.144 330.421 190.963C332.116 187.713 332.525 183.918 332.245 180.263C331.445 169.761 324.843 159.888 315.444 155.136C306.045 150.383 294.18 150.92 285.248 156.5C276.815 161.769 266.108 160.542 257.621 165.725C243.424 174.396 230.869 185.748 220.816 199.004C216.275 204.992 212.194 211.464 210.008 218.654C207.823 225.844 207.67 233.859 210.793 240.695C212.43 244.278 214.888 247.412 217.323 250.508C220.63 254.712 224.932 259.616 229.248 262.776Z" fill="black"/>
<path d="M190.467 314.2C187.287 325.995 213.567 342.087 221.351 340.419C233.192 337.881 249.63 325.092 258.758 316.553C259.075 309.58 259.407 302.604 259.723 295.631C260.122 286.91 260.535 278.171 261.804 269.531C262.199 266.884 262.657 264.244 263.196 261.627C264.491 255.096 266.155 248.646 267.817 242.18C269.184 236.878 270.55 231.56 271.917 226.257C268.594 229.029 265.52 230.378 261.565 232.195C244.896 239.85 227.945 246.866 210.903 253.658C205.769 255.698 200.589 257.744 195.142 258.649L192.74 289.141L190.467 314.2Z" fill="#FFCFCA"/>
<path d="M192.739 289.139C211.594 285.756 229.946 279.695 246.87 270.804C252.252 267.982 257.843 264.946 263.195 261.627C264.49 255.096 266.154 248.645 267.816 242.18C269.183 236.878 270.549 231.559 271.916 226.257C268.593 229.029 265.519 230.378 261.564 232.195C244.895 239.849 227.944 246.865 210.902 253.657C205.768 255.698 200.588 257.744 195.141 258.649L192.739 289.139Z" fill="#F9BFBB"/>
<path d="M159.967 237.667C162.732 248.087 167.182 257.819 175.636 264.806C183.134 271.002 192.636 274.791 202.314 275.624C213.027 276.545 223.752 274.163 233.556 269.632C238.435 267.376 243.092 264.589 247.395 261.406C254.919 255.843 261.509 249.128 267.377 241.87C276.913 230.054 285.164 216.252 290.272 201.554C296.078 184.941 297.882 167.179 293.054 149.89C291.105 142.841 287.963 136.138 283.809 130.108C266.306 104.664 231.637 96.1546 204.324 110.605C190.096 118.141 178.573 130.744 171.432 145.078C169.166 149.621 167.112 154.321 165.315 159.127C155.983 184.024 153.161 211.992 159.967 237.667Z" fill="#FFCFCA"/>
<path d="M260.337 236.836C267.964 243.786 279.39 246.31 289.203 243.086C297.492 240.368 304.314 233.622 307.304 225.45C307.843 223.966 308.256 222.444 308.539 220.868C309.026 218.126 309.085 215.288 308.484 212.572C306.962 205.869 301.045 200.502 294.308 199.176C287.555 197.851 280.283 200.408 275.489 205.336L269.664 217.45L260.337 236.836Z" fill="#FFCFCA"/>
<path d="M216.626 197.877C217.975 197.984 219.899 195.886 220.502 192.706C220.82 191.031 220.703 189.343 220.18 188.076C219.998 187.638 219.488 186.601 218.665 186.445C218.622 186.437 218.581 186.432 218.538 186.428C217.188 186.321 215.265 188.419 214.661 191.599C214.344 193.275 214.461 194.962 214.984 196.23C215.165 196.668 215.675 197.704 216.499 197.86C216.541 197.868 216.584 197.874 216.626 197.877Z" fill="#1F3C49"/>
<path d="M176.218 192.829C177.359 192.919 179.325 191.062 179.937 187.833C180.246 186.209 180.132 184.574 179.625 183.348C179.26 182.463 178.736 181.896 178.191 181.792C178.152 181.785 178.113 181.779 178.073 181.776C176.933 181.686 174.966 183.543 174.353 186.773C174.046 188.398 174.158 190.031 174.665 191.258C175.031 192.143 175.553 192.71 176.099 192.814C176.138 192.821 176.178 192.826 176.218 192.829Z" fill="#1F3C49"/>
<path d="M196.347 200.746C195.321 199.553 193.543 199.005 191.845 199.268C190.116 199.507 188.497 200.69 187.657 202.241C186.777 203.77 186.62 205.772 187.327 207.368C187.997 208.951 189.399 210.176 190.955 210.419C189.894 209.294 189.316 208.043 189.118 206.815C188.919 205.593 189.171 204.436 189.739 203.401C190.317 202.373 191.171 201.549 192.314 201.075C193.464 200.598 194.834 200.434 196.347 200.746Z" fill="#1F3C49"/>
<path d="M227.64 174.01C227.893 174.006 228.143 173.899 228.325 173.696C228.671 173.309 228.638 172.714 228.249 172.368C225.408 169.831 221.446 168.54 217.654 168.901C217.137 168.951 216.758 169.411 216.808 169.929C216.858 170.446 217.317 170.824 217.835 170.775C221.12 170.45 224.539 171.577 226.996 173.771C227.18 173.936 227.411 174.014 227.64 174.01Z" fill="#1F3C49"/>
<path d="M186.941 167.783C187.148 167.715 187.334 167.574 187.454 167.372C187.721 166.926 187.575 166.348 187.13 166.082C184.168 164.311 180.416 163.808 177.093 164.732C176.607 164.872 176.3 165.389 176.439 165.89C176.578 166.391 177.097 166.684 177.598 166.544C180.434 165.755 183.637 166.186 186.164 167.696C186.408 167.843 186.691 167.865 186.941 167.783Z" fill="#1F3C49"/>
<path d="M217.668 188.507C219.654 188.153 220.208 191.24 218.218 191.594C216.232 191.948 215.678 188.863 217.668 188.507Z" fill="white"/>
<path d="M176.622 183.404C178.608 183.05 179.162 186.136 177.172 186.491C175.186 186.845 174.632 183.758 176.622 183.404Z" fill="white"/>
<path d="M174.67 216.295C174.565 220.386 175.589 224.196 177.418 227.366C180.347 232.457 185.351 235.859 191.107 236.005C197.004 236.155 202.282 232.855 205.434 227.721C207.298 224.72 208.426 221.088 208.526 217.156C208.529 217.015 208.514 216.873 208.518 216.723L174.699 215.863C174.696 216.013 174.673 216.153 174.67 216.295Z" fill="#D55454"/>
<path d="M176.073 215.898C179.761 220.011 185.255 222.682 191.443 222.839C197.632 222.997 203.254 220.608 207.146 216.689L176.073 215.898Z" fill="white"/>
<path d="M177.419 227.366C180.348 232.457 185.352 235.859 191.108 236.006C197.005 236.156 202.283 232.855 205.435 227.722C199.693 226.305 193.741 225.712 187.834 225.985C184.329 226.149 180.844 226.615 177.419 227.366Z" fill="#F37C7C"/>
<path d="M214.424 211.619C214.007 216.761 219.33 221.387 226.312 221.952C233.294 222.517 239.291 218.806 239.707 213.664C240.123 208.522 234.8 203.896 227.818 203.332C220.836 202.765 214.839 206.476 214.424 211.619Z" fill="#F9BFBB"/>
<path d="M160.086 200.394C159.805 203.866 163.399 206.99 168.114 207.371C172.829 207.753 176.879 205.247 177.16 201.774C177.44 198.301 173.846 195.177 169.131 194.796C164.416 194.414 160.366 196.921 160.086 200.394Z" fill="#F9BFBB"/>
<path d="M287.749 313.665C276.587 310.586 264.302 304.699 259.843 303.549C243.288 327.753 206.865 331.735 190.464 302.022C173.975 305.289 152.262 309.533 133.121 314.59C133.18 339.273 120.627 368.025 117.86 392.189C113.416 430.992 107.206 458.301 100.755 496.86C93.9756 537.386 94.3143 571.314 87.3379 625.145C82.5644 661.977 80.0051 704.832 77.8931 761.066C149.098 789.552 235.708 787.083 366.192 760.842C364.86 697.841 342.892 559.66 335.53 496.884C320.467 435.588 307.617 373.655 287.749 313.665Z" fill="white"/>
<path d="M297.224 199.776C282.46 199.859 269.029 216.967 264.067 173.948C263.287 167.178 262.189 160.466 260.929 153.775C259.67 147.083 256.79 140.178 251.127 136.807C237.96 128.97 222.27 144.967 207.294 142.682C200.463 141.64 193.271 132.93 186.711 135.16C183.725 136.176 178.644 140.27 176.468 142.639C169.694 150.017 166.916 160.315 161.881 169.089C160.307 159.651 155.854 146.122 159.894 137.538C162.237 132.559 165.801 126.858 168.233 121.927C175.235 107.736 173.851 97.989 185.721 87.9659C192.344 82.3726 208.383 76.6535 216.494 79.3862C220.521 80.7434 224.254 83.1395 228.437 83.7991C234.106 84.6924 239.701 82.2912 245.112 80.3239C253.153 77.3991 261.757 75.3319 270.16 76.7958C278.565 78.2597 286.729 83.8921 289.431 92.3584C291.473 98.753 290.444 106.415 294.511 111.644C298.253 116.457 304.876 117.313 309.933 120.549C320.689 127.431 322.15 143.28 319.815 156.239C316.939 172.205 307.167 187.318 297.224 199.776Z" fill="black"/>
<path d="M191.256 299.326C191.256 299.326 191.894 320.524 191.393 335.969C190.143 374.583 183.223 391.418 182.138 430.066C181.706 445.519 182.065 460.968 182.5 476.415C182.76 486.042 183.05 495.657 183.194 505.279C183.315 513.801 183.33 522.316 183.085 530.849C183.068 531.573 183.052 532.296 183.025 533.02C182.294 555.842 180.288 578.613 177.527 601.283C176.909 606.393 176.242 611.487 175.537 616.581C174.764 622.322 173.934 628.048 173.084 633.773C173.035 634.084 172.996 634.383 172.948 634.694C172.868 635.236 172.788 635.788 172.699 636.34C171.318 645.563 169.901 654.893 168.468 664.329C159.769 721.424 150.42 781.884 144.764 837.903C144.408 841.444 65.8774 812.307 38.6053 788.612C35.6341 786.021 55.0361 708.988 65.37 666.475C67.1639 659.101 68.6805 652.758 69.7628 648.029C69.8655 647.582 69.9584 647.155 70.0525 646.747C70.0698 646.679 70.0775 646.621 70.0949 646.563C70.5456 644.562 70.9017 642.913 71.1526 641.66C71.2104 641.33 71.2683 641.03 71.3187 640.758C71.3607 640.555 71.3938 640.361 71.4172 640.186C65.101 639.575 51.3749 637.25 45.1305 635.479C29.1591 630.964 13.8 622.427 5.7401 604.25C2.37777 596.674 0.286333 587.421 -0.0542113 576.081C-0.266737 567.744 0.0373099 559.249 0.811401 550.661C0.876395 549.936 0.941132 549.201 1.01613 548.475C3.21998 526.189 8.4834 503.328 15.7204 481.035C40.4153 404.904 88.0905 335.422 115.367 318.207C147.809 297.74 191.256 299.326 191.256 299.326Z" fill="#F1A917"/>
<path d="M355.932 642.647C355.967 642.858 355.993 643.059 356.028 643.271C357.484 652.562 359.174 663.564 360.969 675.431C369.604 732.621 380.622 809.77 378.797 811.291C366.56 821.303 312.219 842.225 260.216 844.753C258.584 844.059 251.953 752.128 245.576 657.441C244.709 644.679 243.862 631.859 243.018 619.212C240.708 584.399 238.533 550.854 236.772 523.094C236.427 517.704 236.098 512.544 235.786 507.626C233.68 474.475 232.351 452.72 232.4 452.438C240.728 405.463 253.481 300.063 253.481 300.063C253.481 300.063 302.882 307.258 351.986 336.643C379.639 353.19 421.957 441.618 435.635 539.528C436.066 542.62 436.468 545.734 436.841 548.856C437.951 558.178 438.764 567.585 439.26 577.05C441.558 621.344 393.787 636.282 355.932 642.647Z" fill="#F1A917"/>
<path d="M337.4 390.146C337.156 401.001 336.13 412.243 335.888 423.098C335.789 427.541 335.69 431.984 335.59 436.426C335.132 456.912 334.673 477.409 333.102 497.839L347.898 497.045C340.176 462.051 342.157 425.665 337.4 390.146Z" fill="#D78A00"/>
<path d="M114.868 397.069C114.73 407.926 115.362 419.198 115.223 430.054C115.166 434.498 115.11 438.942 115.053 443.386C114.791 463.874 114.53 484.376 115.384 504.848L100.625 503.536C109.57 468.833 108.867 432.4 114.868 397.069Z" fill="#D78A00"/>
<path d="M138.417 545.663C139.887 545.778 141.978 545.441 143.272 546.125C145.063 547.082 146.801 549.478 148.294 550.895C152.464 554.854 156.737 558.713 160.88 562.707C162.026 563.81 163.144 564.934 164.264 566.055C173.22 555.276 182.024 544.371 190.744 533.396C180.647 526.19 172.939 520.775 169.471 518.494C167.798 517.392 166.114 516.292 164.441 515.19C163.941 510.641 163.043 506.148 161.693 501.783C160.02 496.415 157.014 492.069 154.841 486.953C151.088 478.114 149.086 468.428 145.957 459.319C144.983 456.493 143.887 453.568 141.753 451.462C141.678 451.387 141.593 451.314 141.519 451.239C139.364 449.295 136.027 448.375 133.543 449.878C131.633 451.044 130.671 453.34 130.46 455.561C130.114 459.491 131.092 463.716 131.976 467.506C132.553 469.937 133.387 472.525 133.462 475.039C133.583 478.871 131.082 476.517 129.239 474.733C127.231 472.77 125.45 470.593 123.785 468.335C120.495 463.867 117.712 459.051 114.608 454.451C114.608 454.451 93.5678 423.328 93.5304 423.291C91.4637 420.224 86.2149 420.457 84.223 423.485C81.4455 427.692 86.2851 432.615 88.2377 436.084C91.5009 441.88 94.7332 447.692 97.9566 453.517C100.254 457.696 102.554 461.885 104.821 466.079C106.147 468.513 108.444 470.553 109.841 473.041C110.355 473.963 111.973 476.42 110.916 477.499C109.821 478.604 108.041 476.522 107.212 475.869C105.193 474.282 103.238 472.62 101.3 470.925C97.5781 467.641 93.9837 464.2 90.4171 460.734C83.1319 453.706 75.9242 446.537 67.8357 440.413C67.4992 440.15 67.149 439.942 66.8143 439.765C64.447 437.68 60.3909 438.186 58.597 440.79C55.2133 445.703 62.0742 450.856 64.9822 454.051C69.691 459.185 74.5903 464.144 79.3101 469.276C82.8302 473.102 86.3612 476.926 89.8834 480.762C91.1184 482.096 98.1979 486.973 96.557 489.373C95.1303 491.477 89.9995 486.765 88.6926 486.062C85.5582 484.374 82.4404 482.652 79.3294 480.907C73.1084 477.418 66.984 473.787 60.944 469.984C60.3805 469.624 59.8012 469.385 59.2248 469.241C57.5578 468.106 55.8895 466.961 54.2282 465.793C51.243 463.721 46.9095 465.453 45.9903 468.96C44.657 474.012 50.7967 476.615 54.1098 478.887C59.3859 482.498 64.6952 486.04 70.0623 489.543C73.8414 492.016 77.6382 494.456 81.4627 496.87C83.4932 498.156 92.8351 503.078 88.7434 506.23C87.9423 506.846 85.9128 506.178 85.0739 505.986C82.3942 505.411 79.9075 504.22 77.3295 503.299C70.4394 500.835 63.5092 498.46 56.551 496.197C52.7287 494.948 48.7284 498.44 49.462 502.443C50.5143 508.262 60.8518 509.313 65.3487 510.723C72.5177 512.967 79.5941 515.47 86.5702 518.244C87.761 518.729 88.9605 519.202 90.0068 519.952C91.3491 520.909 92.3811 522.239 93.4663 523.498C103.338 534.943 118.204 542.426 132.986 544.969C134.781 545.286 136.6 545.523 138.417 545.663Z" fill="#FFCFCA"/>
</g>
</svg>
