<svg width="32" height="32" viewBox="0 0 32 32" fill="none" xmlns="http://www.w3.org/2000/svg">
<path d="M15.9998 29.3337C23.3515 29.3337 29.3332 23.3525 29.3332 16.0003C29.3332 14.7313 29.156 13.4808 28.8053 12.2831C28.6325 11.6942 28.0175 11.356 27.427 11.5288C26.8375 11.701 26.5003 12.3181 26.6726 12.9071C26.9631 13.9021 27.1109 14.9432 27.1109 16.0003C27.1109 22.1269 22.1264 27.1114 15.9998 27.1114C9.87326 27.1114 4.88873 22.1269 4.88873 16.0003C4.88873 9.87375 9.87326 4.88921 15.9998 4.88921C18.2264 4.88921 20.3686 5.54026 22.1948 6.77154C22.7031 7.11469 23.3943 6.97987 23.7369 6.47152C24.0798 5.96262 23.9461 5.27197 23.4372 4.92909C21.2426 3.44933 18.671 2.66699 15.9998 2.66699C8.64822 2.66699 2.6665 8.64817 2.6665 16.0003C2.6665 23.3525 8.64822 29.3337 15.9998 29.3337Z" fill="#111111"/>
<path d="M27.4589 5.66333L16.1566 17.2755L12.5407 13.5609C12.1118 13.1204 11.4169 13.1204 10.988 13.5609C10.5593 14.0016 10.5593 14.7155 10.988 15.1563L15.3803 19.6691C15.595 19.8898 15.8754 19.9997 16.1566 19.9997C16.4378 19.9997 16.7182 19.8898 16.933 19.6691L29.0117 7.25871C29.4403 6.818 29.4403 6.10405 29.0117 5.66333C28.5827 5.2229 27.8879 5.2229 27.4589 5.66333Z" fill="#111111"/>
</svg>
