<svg width="32" height="32" viewBox="0 0 32 32" fill="none" xmlns="http://www.w3.org/2000/svg">
<path d="M9.02304 2.61699C5.89762 2.61699 3.18168 4.93039 2.89111 8.09936C2.52394 12.1037 2.52527 15.432 2.89331 19.4515C3.13424 22.0827 5.04609 24.1264 7.47724 24.7453C8.12967 27.472 10.6309 29.3837 13.4723 29.3837H22.9617C26.0752 29.3837 28.7855 27.0871 29.0893 23.9308C29.1587 23.2093 29.2159 22.5102 29.2607 21.826C29.2959 21.289 28.8668 20.8392 28.3297 20.8392C27.8294 20.8392 27.4181 21.2311 27.3852 21.7294C27.3419 22.3861 27.2869 23.0574 27.2202 23.751C27.0145 25.8879 25.1655 27.5059 22.9617 27.5059H13.4723C11.2589 27.5059 9.40448 25.8738 9.20772 23.7247C8.85004 19.8184 8.84884 16.6049 9.2055 12.7152C9.4023 10.5688 11.2555 8.93921 13.4675 8.93921H22.9692C25.1707 8.93921 27.018 10.5532 27.2239 12.6861C27.3816 14.3199 27.473 15.835 27.4982 17.3339C27.5069 17.8518 27.9259 18.2725 28.4449 18.2725C28.9629 18.2725 29.3846 17.8526 29.3762 17.3335C29.351 15.7745 29.2565 14.2 29.093 12.5057C28.8405 9.88969 26.9324 7.8674 24.5147 7.25405C23.8665 4.52406 21.3619 2.61699 18.5247 2.61699H9.02304ZM7.33556 12.5438C7.00596 16.1382 6.97328 19.188 7.23628 22.6821C5.88383 22.0786 4.90339 20.8107 4.76327 19.2803C4.40559 15.3739 4.4044 12.1604 4.76104 8.2708C4.95785 6.12438 6.81104 4.49477 9.02304 4.49477H18.5247C20.2969 4.49477 21.8399 5.54086 22.4814 7.06144H13.4675C10.3421 7.06144 7.6261 9.37483 7.33556 12.5438Z" fill="#111111" stroke="#111111" stroke-width="0.1"/>
<path d="M19.1609 13.7785C19.1609 13.26 18.7406 12.8396 18.222 12.8396C17.7035 12.8396 17.2831 13.26 17.2831 13.7785V17.2841H13.7776C13.259 17.2841 12.8387 17.7044 12.8387 18.223C12.8387 18.7415 13.259 19.1619 13.7776 19.1619H17.2831V22.6674C17.2831 23.186 17.7035 23.6063 18.222 23.6063C18.7406 23.6063 19.1609 23.186 19.1609 22.6674V19.1619H22.6664C23.185 19.1619 23.6053 18.7415 23.6053 18.223C23.6053 17.7044 23.185 17.2841 22.6664 17.2841H19.1609V13.7785Z" fill="#111111" stroke="#111111" stroke-width="0.1"/>
</svg>
