<svg width="32" height="32" viewBox="0 0 32 32" fill="none" xmlns="http://www.w3.org/2000/svg">
<path d="M16.0002 30.6663C7.91296 30.6663 1.3335 24.0869 1.3335 15.9997C1.3335 7.91247 7.91296 1.33301 16.0002 1.33301C24.0874 1.33301 30.6668 7.91247 30.6668 15.9997C30.6668 24.0869 24.0874 30.6663 16.0002 30.6663ZM16.0002 3.16634C8.92386 3.16634 3.16683 8.92337 3.16683 15.9997C3.16683 23.076 8.92386 28.833 16.0002 28.833C23.0765 28.833 28.8335 23.076 28.8335 15.9997C28.8335 8.92337 23.0765 3.16634 16.0002 3.16634Z" fill="#462008"/>
<path d="M23.1333 16.9163H8.86735C8.36117 16.9163 7.95068 16.506 7.95068 15.9997C7.95068 15.4933 8.36117 15.083 8.86735 15.083H23.1333C23.6394 15.083 24.0499 15.4933 24.0499 15.9997C24.0499 16.506 23.6394 16.9163 23.1333 16.9163Z" fill="#462008"/>
<path d="M16.0002 24.0488C15.494 24.0488 15.0835 23.6385 15.0835 23.1322V8.86589C15.0835 8.35952 15.494 7.94922 16.0002 7.94922C16.5063 7.94922 16.9168 8.35952 16.9168 8.86589V23.132C16.9168 23.6385 16.5063 24.0488 16.0002 24.0488Z" fill="#462008"/>
</svg>
