<svg width="487" height="487" viewBox="0 0 487 487" fill="none" xmlns="http://www.w3.org/2000/svg">
<mask id="mask0_1370_678" style="mask-type:luminance" maskUnits="userSpaceOnUse" x="16" y="17" width="454" height="454">
<path d="M243.291 470.701C368.467 470.701 469.943 369.225 469.943 244.048C469.943 118.872 368.467 17.3965 243.291 17.3965C118.115 17.3965 16.639 118.872 16.639 244.048C16.639 369.225 118.115 470.701 243.291 470.701Z" fill="white"/>
</mask>
<g mask="url(#mask0_1370_678)">
<path d="M243.291 470.701C368.467 470.701 469.943 369.225 469.943 244.048C469.943 118.872 368.467 17.3965 243.291 17.3965C118.115 17.3965 16.639 118.872 16.639 244.048C16.639 369.225 118.115 470.701 243.291 470.701Z" fill="#E8DCD4"/>
</g>
<mask id="mask1_1370_678" style="mask-type:luminance" maskUnits="userSpaceOnUse" x="16" y="17" width="454" height="454">
<path d="M243.291 470.701C368.467 470.701 469.943 369.225 469.943 244.048C469.943 118.872 368.467 17.3965 243.291 17.3965C118.115 17.3965 16.639 118.872 16.639 244.048C16.639 369.225 118.115 470.701 243.291 470.701Z" fill="white"/>
</mask>
<g mask="url(#mask1_1370_678)">
<path d="M414.152 350.964C414.152 318.967 388.213 293.028 356.216 293.028C352.103 293.028 348.093 293.463 344.222 294.278C339.56 270.923 343.59 242.449 344.736 225.19C347.392 185.186 346.098 133.159 311.136 104.487C290.879 87.8738 259.615 83.3098 234.583 92.3478C206.013 102.663 188.74 129.004 180.598 155.44C175.381 172.379 173.557 189.855 169.089 206.669C165.934 205.196 162.417 204.369 158.706 204.369C147.074 204.369 137.336 212.452 134.786 223.305C132.269 222.986 129.709 222.803 127.105 222.803C93.653 222.803 66.535 249.921 66.535 283.373C66.535 290.507 67.778 297.348 70.043 303.704C53.739 313.537 42.834 331.415 42.834 351.843C42.834 380.122 63.7309 403.512 90.924 407.435C97.012 433.429 120.323 452.792 148.173 452.792C149.39 452.792 150.595 452.743 151.793 452.67C161.188 476.388 184.314 493.171 211.376 493.171C236.215 493.171 257.737 479.029 268.373 458.366C278.645 465.37 291.055 469.47 304.426 469.47C339.077 469.47 367.286 441.962 368.451 407.595C394.57 401.978 414.152 378.763 414.152 350.964Z" fill="#602826"/>
<path d="M585.45 856.392C579.663 841.893 573.868 827.393 568.074 812.885C562.522 798.975 557.669 786.99 550.359 773.881C547.354 768.5 543.261 761.457 539.867 756.109C523.594 726.184 507.322 696.258 491.049 666.333C480.754 647.401 470.459 628.468 460.164 609.536C453.402 597.101 446.622 584.625 441.471 571.441C435.088 555.102 431.288 537.885 427.834 520.687C420.745 485.386 414.958 449.629 402.985 415.672C393.867 389.811 380.845 364.724 360.921 345.883C331.38 317.948 289.8 307.246 249.9 309.955C243.005 310.423 236.139 311.308 229.353 312.613C210.686 316.203 192.645 322.968 176.172 332.447C159.108 342.267 145.165 354.302 134.119 370.665C130.654 375.798 127.521 381.151 124.66 386.642C113.801 407.483 106.729 430.044 97.8929 451.819C82.1979 490.498 59.669 527.103 52.358 568.2C44.766 610.877 63.315 714.294 63.185 774.803C61.975 797.806 53.5039 827.099 51.4709 839.812C49.8959 849.822 48.22 860.211 49.307 870.35C50.458 881.106 53.322 891.504 55.993 901.947C56.407 903.577 56.84 905.262 57.826 906.625C59.613 909.084 63.729 909.756 65.654 907.085C69.835 901.301 67.5599 892.682 66.1419 886.29C64.8159 880.331 63.149 874.391 62.817 868.276C62.504 862.262 64.051 856.829 66.427 851.349C68.14 847.407 69.6869 843.41 71.4919 839.487C71.9889 838.41 72.5229 837.295 73.1219 836.245C73.3429 835.84 73.583 835.453 73.831 835.066C75.047 833.169 76.566 831.52 78.583 830.563C80.278 829.771 83.0859 829.218 84.8549 830.139C86.771 831.134 86.688 833.639 86.853 835.489C87.056 837.69 86.779 839.891 86.448 842.065C85.987 844.975 85.3149 847.987 85.2879 850.952C85.2789 851.763 85.316 852.573 85.426 853.374C85.5 854 85.6289 854.645 85.7939 855.271C87.5899 861.966 96.6609 867.915 100.105 858.964C100.842 857.048 101.09 854.976 101.376 852.941C102.748 843.225 106.156 833.767 105.76 823.913C105.502 817.632 104.563 811.407 103.614 805.2C102.035 794.853 97.422 779.772 96.339 774.8C102.786 713.097 106.034 660.684 109.585 599.21C109.961 592.701 110.349 586.124 112.205 579.875C114.579 571.884 119.239 564.8 123.801 557.822C151.879 514.875 178.573 471.024 203.83 426.36C212.666 410.735 221.577 394.046 221.17 376.1C244.753 393.236 277.274 397.249 304.316 386.36C337.98 461.815 353.697 544.995 394.063 617.086C426.427 674.885 474.406 720.413 513.522 773.88C514.938 775.815 514.313 781.625 514.444 784.092C514.871 792.094 514.203 800.081 515.184 808.055C516.176 816.114 518.043 824.067 520.753 831.722C521.98 835.189 525.318 838.37 528.864 835.258C529.184 835.062 529.483 834.823 529.771 834.504C533.269 830.784 533.291 825.689 533.065 820.901C532.82 815.442 533.098 810.268 535.48 805.26C536.129 803.907 537.216 802.632 538.689 802.344C539.582 802.162 540.511 802.386 541.38 802.671C544.3 803.668 546.504 805.481 548.282 807.717C549.22 808.887 550.046 810.178 550.786 811.528C551.507 812.804 552.152 814.132 552.773 815.466C553.549 817.126 554.276 818.79 555.042 820.368C555.198 820.693 555.354 821.011 555.511 821.32C555.653 821.604 555.803 821.897 555.945 822.181C556.877 824.037 557.81 825.885 558.751 827.741C560.445 831.118 562.147 834.488 563.849 837.865C565.33 840.808 566.818 843.751 568.299 846.694C570.899 851.836 573.682 857.605 578.33 861.246C581.812 863.979 587.356 861.172 585.45 856.392Z" fill="#FFCFCA"/>
<path d="M302.926 328.709C298.218 331.602 292.534 332.251 287.051 332.821C280.441 333.523 273.815 334.222 267.178 333.954C254.239 333.433 242.501 328.831 230.226 324.715C230.438 317.254 230.634 309.789 230.846 302.328C231.108 292.996 231.357 283.645 230.684 274.331C230.472 271.477 230.191 268.627 229.823 265.792C228.957 258.726 227.691 251.716 226.427 244.69C225.387 238.928 224.35 233.149 223.31 227.387C226.634 230.605 229.806 232.285 233.882 234.535C251.055 244.011 268.578 252.828 286.215 261.414C291.529 263.994 296.892 266.584 302.628 267.978L302.787 300.683L302.926 328.709Z" fill="#FFCFCA"/>
<path d="M302.786 300.683C282.947 295.589 263.854 287.68 246.508 276.865C240.991 273.431 235.268 269.754 229.822 265.792C228.956 258.726 227.69 251.716 226.426 244.69C225.386 238.928 224.349 233.149 223.309 227.387C226.633 230.605 229.805 232.285 233.881 234.535C251.054 244.011 268.577 252.828 286.214 261.414C291.528 263.994 296.891 266.584 302.627 267.978L302.786 300.683Z" fill="#F9BFBB"/>
<path d="M336.708 175.809C335.7 171.108 334.433 166.469 332.941 161.946C328.242 147.673 319.123 134.38 306.692 125.39C282.826 108.147 248.617 111.098 228.261 132.15C223.43 137.138 219.465 142.893 216.583 149.136C209.469 164.443 208.594 181.13 211.691 197.321C214.404 211.641 220.237 225.579 227.581 237.863C232.103 245.41 237.39 252.557 243.733 258.77C247.361 262.325 251.383 265.564 255.693 268.343C264.355 273.926 274.207 277.651 284.528 278.32C293.854 278.923 303.442 276.767 311.477 272.1C320.536 266.836 326.186 258.466 330.337 249.22C340.553 226.435 341.951 200.165 336.708 175.809Z" fill="#FFCFCA"/>
<path d="M232.02 233.069C223.007 237.229 211.794 236.225 203.73 230.418C196.916 225.518 192.618 217.35 192.249 208.987C192.185 207.469 192.249 205.953 192.446 204.425C192.796 201.769 193.565 199.148 194.906 196.832C198.248 191.126 205.234 187.922 211.798 188.662C218.376 189.408 224.305 193.864 227.27 199.777L229.095 212.58L232.02 233.069Z" fill="#FFCFCA"/>
<path d="M310.254 117.102C302.514 139.071 286.355 157.636 266.582 169.947C246.809 182.258 223.598 188.518 200.338 189.732C198.689 189.818 203.485 159.106 204.372 156.16C209.086 140.49 219.354 126.554 232.885 117.361C234.915 115.982 237.018 114.71 239.184 113.556C252.575 106.424 268.277 103.86 283.269 106.034C289.443 106.929 295.471 108.521 300.982 111.42C302.048 111.981 310.721 115.777 310.254 117.102Z" fill="#602826"/>
<path d="M344.347 567.275C348.708 532.546 352.012 497.89 359.043 463.552C365.28 433.091 372.415 400.852 360.835 370.817C355.949 365.658 350.056 361.408 343.982 357.661C291.985 325.585 226.699 328.864 169.056 349.109C165.982 396.802 172.18 444.707 176.184 492.462C177.378 499.312 178.236 506.22 179.043 513.13C184.085 556.336 186.796 599.742 189.707 643.133C191.085 642.952 192.481 642.823 193.909 642.775C203.661 642.446 213.362 644.063 222.985 645.673C247.736 649.816 272.486 653.959 297.237 658.102C306.83 659.708 316.469 661.332 325.915 663.62C331.451 638.722 337.352 613.885 343.234 589.067C343.075 581.877 343.423 574.636 344.347 567.275Z" fill="#FFCFCA"/>
<path d="M425.665 471.087C417.745 481.024 408.315 487.618 397.485 492.075C394.455 493.318 391.711 494.359 389.123 495.234C378.32 498.908 370.336 499.802 356.964 501.284L346.235 608.748C332.522 612.855 318.211 614.587 303.936 615.084C281.815 615.848 259.418 614.495 237.371 612.69C217.037 611.032 196.352 607.735 177.989 598.379C178.468 572.372 177.915 546.346 176.405 520.367C175.779 509.518 174.987 498.679 174.029 487.849C174.011 487.72 174.001 487.591 173.992 487.462C171.321 491.284 168.586 494.212 166.367 498.311C140.038 480.878 116.664 460.157 95.98 436.415C96.431 435.347 96.8729 434.269 97.3149 433.173C99.8569 426.846 102.96 420.971 106.386 415.067C113.707 402.413 121.167 389.769 129.078 377.465C130.552 375.172 132.062 372.906 133.618 370.668C144.071 355.601 156.549 341.87 171.643 331.344C179.711 325.717 188.358 321.057 197.521 317.466C202.264 315.606 228.676 308.358 228.952 308.809C232.166 314.132 235.426 316.213 241.357 318.046C255.631 322.457 270.919 322.844 285.728 320.892C293.961 319.805 305.39 312.493 305.39 312.493C305.39 312.493 331.176 319.86 344.364 327.817C350.101 331.27 355.48 335.304 360.618 339.596C376.255 352.636 388.117 368.78 396.691 387.199C405.486 406.097 411.085 426.228 417.624 445.964C420.388 454.307 423.114 462.679 425.665 471.087Z" fill="#FF8E63"/>
<path d="M362.747 449.868C363.023 445.033 363.235 440.18 362.885 435.345C362.48 429.626 361.292 424.017 359.947 418.492C356.963 406.207 353.215 394.161 348.73 382.484C349.715 384.399 350.821 386.269 351.917 388.111C359.809 401.492 367.297 415.721 369.691 431.607C371.524 443.708 370.308 456.334 373.163 468.177C375.659 478.501 381.212 487.738 388.432 494.599C388.662 494.811 388.892 495.032 389.123 495.234C378.32 498.908 370.336 499.802 356.964 501.284C359.707 483.141 361.706 468.222 362.747 449.868Z" fill="#EF5D30"/>
<path d="M194.86 458.607C190.743 479.752 186.378 501.486 176.405 520.365C175.779 509.516 174.987 498.677 174.029 487.847C182.722 479.383 191.748 470.321 194.86 458.607Z" fill="#EF5D30"/>
<path d="M270.34 172.175C271.623 172.043 272.917 172.147 274.203 172.251C276.479 172.435 278.756 172.62 281.033 172.804C281.789 172.865 282.73 172.827 283.06 172.145C283.224 171.808 283.172 171.4 283.027 171.054C282.474 169.742 280.86 169.296 279.447 169.116C275.942 168.672 272.238 168.919 268.956 170.302C268.316 170.572 264.65 172.246 264.908 173.105C265.137 173.872 269.603 172.251 270.34 172.175Z" fill="#211A17"/>
<path d="M319.989 170.63C318.7 170.592 317.417 170.791 316.142 170.989C313.885 171.34 311.628 171.691 309.371 172.042C308.622 172.158 307.681 172.19 307.301 171.534C307.113 171.209 307.134 170.799 307.254 170.444C307.709 169.095 309.286 168.531 310.682 168.249C314.145 167.548 317.857 167.523 321.232 168.662C321.89 168.884 325.669 170.285 325.475 171.16C325.302 171.941 320.73 170.652 319.989 170.63Z" fill="#211A17"/>
<path d="M315.946 230.499C313.391 237.145 308.701 241.718 303.003 242.194C297.516 242.645 292.317 239.18 288.716 233.438C286.248 229.495 284.531 224.48 283.985 218.912L285.06 218.824L316.768 216.211L317.944 216.111C318.306 221.381 317.543 226.342 315.946 230.499Z" fill="#CE7872"/>
<path d="M316.769 216.213C313.244 221.543 307.861 225.133 301.584 225.653C295.307 226.174 289.413 223.504 285.061 218.826L316.769 216.213Z" fill="white"/>
<path d="M315.946 230.499C313.391 237.145 308.701 241.718 303.003 242.194C297.516 242.645 292.317 239.18 288.716 233.438C290.261 232.415 291.883 231.518 293.574 230.767C298.456 228.593 303.947 227.645 309.224 228.49C311.566 228.862 313.798 229.569 315.946 230.499Z" fill="#EA8C8B"/>
<path d="M282.902 192.705C283.032 197.026 280.665 200.604 277.614 200.696C274.563 200.788 271.985 197.359 271.855 193.038C271.725 188.717 274.092 185.139 277.143 185.047C280.193 184.955 282.771 188.384 282.902 192.705Z" fill="#211A17"/>
<path d="M278.902 190.198C277.125 190.252 277.205 193.013 278.985 192.959C280.762 192.906 280.682 190.145 278.902 190.198Z" fill="white"/>
<path d="M312.358 191.819C312.488 196.14 315.066 199.569 318.117 199.477C321.167 199.385 323.535 195.808 323.405 191.486C323.275 187.164 320.697 183.736 317.646 183.828C314.595 183.92 312.228 187.497 312.358 191.819Z" fill="#211A17"/>
<path d="M319.516 188.157C317.739 188.211 317.819 190.972 319.599 190.919C321.376 190.866 321.296 188.104 319.516 188.157Z" fill="white"/>
<path d="M302.924 201.534C301.123 200.133 298.317 200.176 296.623 201.704L301.546 210.215C302.92 210.126 304.044 208.987 304.549 207.706C305.387 205.584 304.725 202.935 302.924 201.534Z" fill="#CE7872"/>
<path d="M274.965 214.775C275.423 221.371 269.212 227.175 261.094 227.738C252.976 228.301 246.023 223.41 245.566 216.814C245.108 210.218 251.319 204.414 259.437 203.851C267.555 203.288 274.507 208.179 274.965 214.775Z" fill="#F9BFBB"/>
<path d="M337.584 207.854C337.841 211.555 334.356 214.812 329.8 215.128C325.244 215.444 321.343 212.7 321.086 208.998C320.829 205.297 324.314 202.04 328.87 201.724C333.426 201.408 337.327 204.153 337.584 207.854Z" fill="#F9BFBB"/>
</g>
</svg>
