<svg width="487" height="487" viewBox="0 0 487 487" fill="none" xmlns="http://www.w3.org/2000/svg"><mask id="mask0_1370_446" style="mask-type:luminance" maskUnits="userSpaceOnUse" x="17" y="17" width="454" height="454">
<path d="M243.929 470.598C369.105 470.598 470.581 369.122 470.581 243.946C470.581 118.77 369.105 17.2939 243.929 17.2939C118.753 17.2939 17.277 118.77 17.277 243.946C17.277 369.122 118.753 470.598 243.929 470.598Z" fill="white"/>
</mask>
<g mask="url(#mask0_1370_446)">
<path d="M243.929 470.598C369.105 470.598 470.581 369.122 470.581 243.946C470.581 118.77 369.105 17.2939 243.929 17.2939C118.753 17.2939 17.277 118.77 17.277 243.946C17.277 369.122 118.753 470.598 243.929 470.598Z" fill="#E8DCD4"/>
</g>
<mask id="mask1_1370_446" style="mask-type:luminance" maskUnits="userSpaceOnUse" x="17" y="17" width="454" height="454">
<path d="M243.929 470.598C369.105 470.598 470.581 369.122 470.581 243.946C470.581 118.77 369.105 17.2939 243.929 17.2939C118.753 17.2939 17.277 118.77 17.277 243.946C17.277 369.122 118.753 470.598 243.929 470.598Z" fill="white"/>
</mask>
<g mask="url(#mask1_1370_446)">
<path d="M328.683 331.335C321.285 370.583 313.361 409.553 308.326 449.168C303.555 486.682 298.961 524.238 292.991 561.581C262.246 562.268 231.595 560.975 200.935 558.593C170.41 556.213 140.229 551.972 111.56 540.804C96.354 534.886 81.619 527.631 67.624 519.161C81.348 499.234 89.756 476.264 98.921 454.041C108.74 430.226 117.168 405.837 124.171 381.049C139.445 326.947 145.523 272.772 149.158 216.909C151.229 185.126 160.327 151.714 181.711 127.315C203.196 102.78 239.188 88.7738 270.806 100.719C290.334 108.103 306.244 123.4 316.865 141.378C321.92 149.923 325.846 159.066 328.882 168.523C329.698 171.038 330.44 173.583 331.127 176.141C333.293 184.158 334.888 192.342 336.057 200.555C337.864 213.319 338.678 226.125 338.726 238.941C338.827 269.924 334.409 300.927 328.683 331.335Z" fill="#345668"/>
<path d="M302.993 337.734C298.757 341.049 293.329 342.301 288.089 343.455C281.772 344.86 275.44 346.264 268.99 346.733C256.417 347.65 244.557 344.487 232.231 341.854C231.617 334.613 230.986 327.371 230.372 320.13C229.601 311.075 228.814 302.002 227.14 293.066C226.621 290.329 226.037 287.602 225.369 284.901C223.755 278.161 221.761 271.52 219.767 264.862C218.128 259.402 216.491 253.926 214.852 248.467C218.421 251.215 221.674 252.492 225.863 254.22C243.515 261.5 261.434 268.105 279.438 274.473C284.862 276.385 290.334 278.302 296.035 279.02L299.78 310.638L302.993 337.734Z" fill="#FFCFCA"/>
<path d="M299.781 310.639C280.031 307.891 260.694 302.337 242.727 293.78C237.013 291.064 231.074 288.135 225.371 284.901C223.757 278.161 221.763 271.52 219.769 264.862C218.13 259.402 216.493 253.926 214.854 248.467C218.423 251.215 221.676 252.492 225.865 254.22C243.517 261.5 261.436 268.105 279.44 274.473C284.864 276.385 290.336 278.302 296.037 279.02L299.781 310.639Z" fill="#F9BFBB"/>
<path d="M330.035 259.747C326.977 270.545 322.18 280.597 313.261 287.725C305.35 294.045 295.395 297.825 285.307 298.527C274.142 299.301 263.019 296.638 252.893 291.754C247.854 289.322 243.054 286.342 238.63 282.955C230.895 277.036 224.15 269.934 218.166 262.279C208.444 249.817 200.093 235.31 195.028 219.925C189.27 202.534 187.697 184.015 193.018 166.103C195.168 158.8 198.552 151.876 202.98 145.672C221.633 119.489 257.864 111.227 286.045 126.736C300.725 134.824 312.502 148.139 319.688 163.182C321.969 167.949 324.025 172.875 325.813 177.909C335.101 203.983 337.557 233.141 330.035 259.747Z" fill="#FFCFCA"/>
<path d="M328.882 168.522C320.041 155.424 311.173 141.776 299.512 131.421C289.062 122.141 276.074 115.817 262.07 114.536C235.542 112.109 204.611 122.173 187.757 143.594C179.252 154.404 175.383 167.967 174.818 181.424C174.253 194.881 177.02 206.781 180.395 219.922C206.021 217.485 228.358 201.243 241.598 180.801C251.455 165.583 256.821 148.269 259.604 130.542C267.533 140.805 276.324 150.406 286.641 158.275C299.499 168.082 314.965 175.091 331.126 176.14C330.44 173.581 329.698 171.037 328.882 168.522Z" fill="#345668"/>
<path d="M428.024 629.676C419.773 617.875 401.7 594.983 401.7 594.983C401.7 594.983 412.914 445.428 382.124 381.548C362.554 361.305 343.51 343.106 315.498 337.895C295.002 372.264 288.756 403.262 285.383 443.136C280.909 496.011 279.618 551.793 303.485 599.186C310.095 612.311 318.488 624.448 327.021 636.412C349.544 667.988 374.821 698.455 402.985 725.654C410.562 732.972 421.972 734.617 431.266 729.659L458.383 715.194C467.25 710.464 470.572 699.407 465.769 690.579C453.873 668.713 441.9 649.521 428.024 629.676Z" fill="#BADDD4"/>
<path d="M346.392 356.142C344.888 352.151 332.76 343.516 332.76 343.516C332.76 343.516 260.206 328.875 225.768 333.259C208.548 335.451 191.536 339.299 175.064 344.777C156.988 350.789 141.192 357.935 126.283 369.965C111.069 382.242 97.601 396.57 84.834 411.327C78.667 418.454 72.664 425.721 66.696 433.015C49.55 453.97 31.574 475 17.232 498.099C-3.45803 531.422 -18.466 574.002 1.54496 611.235C13.51 633.498 33.185 650.744 52.532 666.496C75.552 685.239 100.797 702.073 127.853 714.616C135.457 718.141 144.547 715.47 148.877 708.294C154.636 698.75 159.464 688.73 163.861 678.466C166.523 672.252 166.041 665.153 162.689 659.282C144.361 627.184 121.599 597.099 93.469 567.787C114.144 548.096 134.708 527.269 151.348 504.325C152.916 524.141 153.558 543.986 152.547 563.874C152.256 569.593 151.903 575.662 154.644 580.689C158.116 587.055 165.542 589.996 172.453 592.19C222.779 608.165 277.409 610.086 328.868 598.259C339.261 595.87 350.126 592.495 356.63 583.458C362.534 575.255 363.966 564.698 365.607 554.99C368.406 538.425 370.093 521.671 370.677 504.881C372.437 454.352 364.226 403.462 346.392 356.142Z" fill="#BADDD4"/>
<path d="M317.015 330.676C316.62 329.129 316.149 327.576 315.865 326.102C314.692 320.031 315.811 312.282 309.115 308.094C305.825 306.037 301.765 306.392 297.964 306.34C293.481 306.279 289.003 306.359 284.519 306.264C275.12 306.064 265.707 305.106 256.443 303.415C251.716 302.552 247.028 301.498 242.399 300.258C238.227 299.139 234.01 297.261 229.682 296.831C226.572 296.522 223.18 297.288 221.391 299.422C220.232 300.804 219.873 302.57 219.548 304.272C217.908 312.88 216.399 321.655 217.785 330.4C218.212 333.093 218.999 335.912 221.177 337.939C226.092 342.512 236.837 343.932 243.463 345.344C265.353 350.004 288.787 350.627 309.345 343.082C311.825 342.172 314.318 341.104 316.035 339.331C318.508 336.775 317.797 333.739 317.015 330.676Z" fill="#97C6B7"/>
<path d="M227.879 339.436C227.527 339.39 227.231 339.148 227.173 338.83C224.83 325.994 224.64 313.029 226.609 300.294C226.667 299.921 227.063 299.669 227.499 299.727C227.504 299.728 227.509 299.728 227.515 299.729C227.957 299.794 228.268 300.154 228.21 300.531C226.261 313.134 226.448 325.966 228.767 338.67C228.837 339.05 228.537 339.395 228.096 339.439C228.023 339.447 227.949 339.445 227.879 339.436Z" fill="#83B2A3"/>
<path d="M234.743 341.865C234.738 341.864 234.734 341.864 234.728 341.863C234.287 341.798 233.975 341.439 234.033 341.061C234.923 335.237 234.785 329.206 234.653 323.374L234.21 303.95C234.196 303.385 234.098 303.209 234.019 303.16C233.649 302.934 233.55 302.499 233.798 302.189C234.046 301.879 234.545 301.811 234.918 302.038C235.791 302.571 235.813 303.522 235.824 303.978L236.267 323.402C236.402 329.285 236.54 335.369 235.635 341.296C235.576 341.67 235.179 341.922 234.743 341.865Z" fill="#83B2A3"/>
<path d="M243.179 343.598C242.777 343.545 242.465 343.243 242.463 342.888C242.395 330.308 242.773 317.577 243.588 305.047C243.612 304.666 243.993 304.386 244.438 304.423C244.873 304.466 245.223 304.798 245.198 305.18C244.386 317.682 244.009 330.385 244.077 342.937C244.079 343.32 243.72 343.619 243.274 343.606C243.241 343.605 243.21 343.602 243.179 343.598Z" fill="#83B2A3"/>
<path d="M250.057 345.012C249.63 344.956 249.313 344.622 249.343 344.251C250.324 331.853 250.516 319.24 249.914 306.761C249.896 306.378 250.242 306.067 250.687 306.066C251.137 306.072 251.508 306.377 251.526 306.759C252.13 319.287 251.938 331.952 250.953 344.4C250.923 344.781 250.538 345.056 250.094 345.015C250.082 345.015 250.069 345.013 250.057 345.012Z" fill="#83B2A3"/>
<path d="M257.682 347.147C257.239 347.089 256.921 346.734 256.97 346.355C257.716 340.706 257.885 334.58 257.52 326.493L257.485 325.729C257.356 322.964 257.222 320.105 257.627 317.309C257.766 316.346 257.969 315.389 258.172 314.433C258.561 312.605 258.928 310.877 258.864 309.097C258.85 308.714 259.2 308.407 259.646 308.41C260.087 308.409 260.462 308.727 260.477 309.111C260.546 311.037 260.146 312.917 259.76 314.736C259.562 315.667 259.364 316.597 259.228 317.535C258.84 320.218 258.97 323.02 259.096 325.73L259.131 326.495C259.5 334.656 259.328 340.846 258.572 346.566C258.524 346.945 258.124 347.205 257.682 347.147Z" fill="#83B2A3"/>
<path d="M264.294 346.562C264.285 346.561 264.274 346.559 264.265 346.558C263.824 346.487 263.52 346.124 263.585 345.747C265.617 333.984 266.28 321.948 265.554 309.974C265.53 309.591 265.872 309.276 266.317 309.272C266.772 309.265 267.142 309.575 267.165 309.957C267.897 322.023 267.229 334.151 265.18 346.005C265.117 346.373 264.723 346.618 264.294 346.562Z" fill="#83B2A3"/>
<path d="M273.159 346.279C273.147 346.277 273.135 346.276 273.123 346.274C272.683 346.199 272.382 345.834 272.451 345.458C272.948 342.755 272.668 339.903 272.399 337.145C272.273 335.849 272.142 334.509 272.089 333.187C271.974 330.256 272.241 327.29 272.499 324.422C272.929 319.649 273.374 314.714 272.003 310.017C271.893 309.641 272.154 309.274 272.586 309.195C273.019 309.115 273.457 309.355 273.566 309.73C275.003 314.651 274.548 319.701 274.108 324.585C273.853 327.416 273.589 330.343 273.701 333.197C273.752 334.484 273.881 335.806 274.006 337.085C274.284 339.925 274.571 342.862 274.044 345.729C273.978 346.094 273.586 346.335 273.159 346.279Z" fill="#83B2A3"/>
<path d="M280.135 345.753C279.704 345.697 279.387 345.357 279.422 344.985C280.491 333.393 280.826 321.594 280.416 309.912C280.403 309.529 280.753 309.221 281.198 309.225C281.643 309.224 282.016 309.543 282.029 309.926C282.44 321.658 282.104 333.508 281.029 345.149C280.994 345.53 280.606 345.802 280.162 345.756C280.153 345.756 280.145 345.755 280.135 345.753Z" fill="#83B2A3"/>
<path d="M288.009 344.005C287.574 343.948 287.256 343.604 287.295 343.229C288.416 332.668 289.576 321.747 287.472 311.017C287.398 310.637 287.693 310.289 288.132 310.24C288.576 310.192 288.988 310.46 289.063 310.84C291.203 321.748 290.033 332.761 288.903 343.41C288.863 343.79 288.47 344.058 288.027 344.008C288.02 344.006 288.015 344.005 288.009 344.005Z" fill="#83B2A3"/>
<path d="M294.837 345.174C294.433 345.121 294.119 344.815 294.121 344.457L294.259 311.008C294.261 310.625 294.623 310.329 295.069 310.346C295.501 310.355 295.874 310.687 295.873 311.07L295.735 344.519C295.733 344.902 295.371 345.198 294.925 345.181C294.895 345.18 294.866 345.178 294.837 345.174Z" fill="#83B2A3"/>
<path d="M302.953 343.048C302.538 342.994 302.222 342.674 302.237 342.31C302.664 331.933 302.387 321.397 301.412 310.994C301.376 310.611 301.707 310.288 302.151 310.273C302.593 310.252 302.984 310.555 303.02 310.938C304 321.395 304.279 331.985 303.849 342.416C303.833 342.798 303.46 343.084 303.014 343.055C302.994 343.053 302.973 343.051 302.953 343.048Z" fill="#83B2A3"/>
<path d="M310.804 340.024C310.748 340.017 310.692 340.004 310.637 339.986C310.214 339.85 309.987 339.448 310.128 339.091C311.115 336.594 310.672 333.894 310.202 331.035C309.986 329.72 309.762 328.359 309.69 327.021C309.633 325.949 309.674 324.877 309.714 323.839C309.754 322.798 309.795 321.721 309.733 320.675C309.532 317.245 308.228 313.855 306.966 310.578C306.825 310.21 307.053 309.825 307.475 309.717C307.899 309.61 308.355 309.822 308.497 310.19C309.793 313.558 311.132 317.04 311.345 320.661C311.41 321.765 311.368 322.871 311.326 323.941C311.287 324.952 311.248 325.997 311.302 327.014C311.37 328.287 311.589 329.613 311.8 330.897C312.275 333.79 312.768 336.783 311.659 339.586C311.535 339.896 311.174 340.072 310.804 340.024Z" fill="#83B2A3"/>
<path d="M225.579 257.159C217.522 264.262 205.586 266.692 195.427 263.168C186.846 260.197 179.861 253.059 176.889 244.502C176.353 242.948 175.95 241.356 175.681 239.711C175.221 236.849 175.208 233.894 175.881 231.077C177.58 224.126 183.83 218.642 190.866 217.378C197.917 216.115 205.443 218.9 210.349 224.113L216.204 236.821L225.579 257.159Z" fill="#FFCFCA"/>
<path d="M341.501 594.613C345.479 592.313 349.569 590.32 353.319 588.015C357.067 585.726 360.406 582.962 362.5 579.302C363.551 577.486 364.333 575.493 364.852 573.412C365.391 571.318 365.618 569.32 365.391 567.18C365.188 565.039 364.784 562.785 364.472 560.53C364.138 558.272 363.882 555.997 363.644 553.725C363.196 549.178 362.949 544.626 362.805 540.079C362.634 535.532 362.638 530.967 362.737 526.429C362.912 517.342 363.413 508.287 363.921 499.238C364.942 481.141 366.34 463.081 365.937 444.977C365.626 426.881 364.162 408.791 361.484 390.871C364.46 408.745 366.228 426.827 366.842 444.955C367.549 463.097 366.445 481.243 365.726 499.328C365.369 508.375 365.019 517.424 364.995 526.456C364.972 530.976 365.043 535.474 365.287 539.978C365.505 544.482 365.824 548.978 366.338 553.439C366.609 555.668 366.896 557.891 367.262 560.109C367.606 562.334 368.046 564.537 368.313 566.902C368.616 569.27 368.379 571.848 367.812 574.141C367.272 576.461 366.427 578.744 365.241 580.868C364.049 582.986 362.512 584.921 360.757 586.566C359.004 588.216 357.078 589.618 355.116 590.87C351.18 593.371 347.142 595.412 343.314 597.711L341.501 594.613Z" fill="#97C6B7"/>
<path d="M150.983 364.475C155.385 367.677 159.127 371.848 162.051 376.523C165.01 381.189 167.168 386.333 168.803 391.598C170.454 396.868 171.474 402.311 172.188 407.753C172.896 413.199 173.202 418.684 173.317 424.164C173.37 429.647 173.139 435.126 172.673 440.581C172.158 446.031 171.441 451.462 170.395 456.831C168.36 467.577 165.05 478.154 159.947 487.777C163.676 477.558 166.14 467.028 167.635 456.374C168.338 451.033 168.98 445.688 169.288 440.317C169.644 434.953 169.844 429.578 169.734 424.209C169.69 418.841 169.402 413.475 168.826 408.144C168.575 405.47 168.201 402.828 167.77 400.189C167.292 397.562 166.776 394.941 166.121 392.355C165.45 389.775 164.686 387.214 163.754 384.717C163.331 383.449 162.776 382.238 162.283 380.996C161.705 379.797 161.185 378.561 160.535 377.396C158.112 372.625 154.872 368.282 150.983 364.475Z" fill="#97C6B7"/>
<path d="M216.87 345.001C216.501 345.001 216.155 344.771 216.025 344.403C215.859 343.936 216.104 343.424 216.57 343.259C217.698 342.859 218.826 342.461 219.954 342.065C220.422 341.9 220.933 342.146 221.097 342.613C221.261 343.081 221.016 343.592 220.549 343.756C219.421 344.152 218.295 344.549 217.169 344.948C217.07 344.984 216.969 345.001 216.87 345.001Z" fill="#97C6B7"/>
<path d="M138.388 695.99C138.222 695.99 138.054 695.944 137.904 695.848C135.882 694.547 133.86 693.244 131.842 691.934C131.427 691.665 131.308 691.109 131.578 690.694C131.848 690.279 132.402 690.159 132.818 690.43C134.834 691.738 136.854 693.04 138.875 694.339C139.291 694.607 139.412 695.162 139.144 695.578C138.972 695.845 138.683 695.99 138.388 695.99ZM126.289 688.136C126.12 688.136 125.949 688.088 125.797 687.988C123.786 686.666 121.78 685.337 119.78 683.999C119.369 683.724 119.258 683.167 119.534 682.755C119.809 682.344 120.366 682.232 120.778 682.508C122.774 683.843 124.776 685.17 126.783 686.489C127.197 686.761 127.312 687.317 127.04 687.73C126.867 687.994 126.581 688.136 126.289 688.136ZM114.304 680.111C114.13 680.111 113.954 680.06 113.799 679.954C111.811 678.595 109.831 677.225 107.861 675.842C107.456 675.558 107.358 674.998 107.642 674.593C107.926 674.189 108.486 674.089 108.891 674.374C110.856 675.753 112.83 677.118 114.811 678.474C115.22 678.753 115.324 679.311 115.045 679.72C114.871 679.975 114.59 680.111 114.304 680.111ZM102.501 671.821C102.319 671.821 102.135 671.766 101.977 671.651C100.025 670.239 98.084 668.812 96.156 667.369C95.759 667.073 95.679 666.51 95.975 666.114C96.272 665.718 96.833 665.637 97.23 665.933C99.15 667.371 101.083 668.791 103.027 670.198C103.428 670.488 103.518 671.049 103.228 671.45C103.053 671.692 102.779 671.821 102.501 671.821ZM90.958 663.175C90.765 663.175 90.572 663.113 90.408 662.986C88.495 661.499 86.589 659.987 84.745 658.491C84.361 658.179 84.302 657.615 84.613 657.23C84.925 656.846 85.489 656.787 85.874 657.098C87.709 658.586 89.604 660.09 91.508 661.57C91.899 661.874 91.969 662.437 91.666 662.828C91.489 663.056 91.225 663.175 90.958 663.175ZM79.758 654.088C79.553 654.088 79.347 654.018 79.178 653.875C77.317 652.296 75.481 650.699 73.72 649.128C73.35 648.798 73.318 648.232 73.647 647.862C73.976 647.492 74.543 647.46 74.913 647.789C76.663 649.35 78.488 650.938 80.338 652.508C80.716 652.828 80.762 653.394 80.441 653.771C80.264 653.981 80.012 654.088 79.758 654.088ZM68.956 644.528C68.742 644.528 68.526 644.451 68.354 644.296C66.588 642.694 64.808 641.067 63.028 639.414C62.665 639.077 62.644 638.51 62.981 638.147C63.318 637.784 63.886 637.763 64.248 638.1C66.023 639.748 67.798 641.37 69.559 642.968C69.926 643.301 69.953 643.868 69.621 644.235C69.443 644.428 69.2 644.528 68.956 644.528ZM58.392 634.7C58.168 634.7 57.944 634.617 57.77 634.449C55.961 632.706 54.226 630.996 52.615 629.366C52.267 629.014 52.271 628.446 52.622 628.098C52.974 627.75 53.542 627.753 53.89 628.105C55.49 629.724 57.214 631.424 59.014 633.157C59.37 633.501 59.381 634.068 59.038 634.425C58.861 634.608 58.627 634.7 58.392 634.7ZM48.258 624.424C48.017 624.424 47.777 624.328 47.601 624.137C45.907 622.311 44.282 620.492 42.773 618.732C42.45 618.356 42.494 617.79 42.87 617.468C43.245 617.145 43.811 617.187 44.134 617.565C45.629 619.307 47.238 621.108 48.916 622.917C49.253 623.28 49.231 623.847 48.868 624.184C48.695 624.345 48.477 624.424 48.258 624.424ZM38.886 613.467C38.619 613.467 38.355 613.348 38.178 613.121C36.655 611.164 35.208 609.196 33.879 607.272C33.598 606.864 33.7 606.306 34.107 606.025C34.514 605.742 35.073 605.846 35.354 606.253C36.663 608.149 38.089 610.089 39.592 612.02C39.896 612.411 39.826 612.974 39.435 613.278C39.273 613.405 39.079 613.467 38.886 613.467ZM30.72 601.593C30.414 601.593 30.116 601.437 29.949 601.155C28.682 599.024 27.514 596.871 26.477 594.754C26.259 594.31 26.443 593.773 26.888 593.555C27.334 593.336 27.87 593.522 28.088 593.966C29.104 596.039 30.249 598.15 31.491 600.239C31.744 600.665 31.604 601.215 31.179 601.468C31.033 601.552 30.876 601.593 30.72 601.593ZM24.408 588.646C24.046 588.646 23.705 588.425 23.57 588.067C22.695 585.76 21.946 583.422 21.343 581.117C21.217 580.638 21.504 580.148 21.984 580.023C22.463 579.898 22.953 580.184 23.078 580.663C23.665 582.906 24.394 585.183 25.247 587.431C25.423 587.894 25.19 588.412 24.727 588.587C24.621 588.627 24.514 588.646 24.408 588.646ZM20.791 574.725C20.351 574.725 19.966 574.401 19.904 573.952C19.86 573.64 19.819 573.327 19.78 573.013C19.521 570.928 19.376 568.788 19.348 566.651C19.342 566.156 19.738 565.749 20.233 565.743C20.742 565.774 21.135 566.133 21.141 566.628C21.168 568.699 21.309 570.773 21.559 572.792C21.597 573.097 21.637 573.401 21.679 573.705C21.747 574.195 21.405 574.648 20.915 574.716C20.874 574.722 20.832 574.725 20.791 574.725ZM20.582 560.337C20.551 560.337 20.519 560.335 20.488 560.332C19.996 560.28 19.638 559.84 19.689 559.347C19.935 556.993 20.319 554.567 20.83 552.137C20.932 551.652 21.408 551.344 21.892 551.444C22.377 551.546 22.687 552.021 22.585 552.506C22.087 554.876 21.713 557.241 21.473 559.534C21.424 559.994 21.035 560.337 20.582 560.337ZM23.51 546.237C23.423 546.237 23.336 546.224 23.249 546.198C22.775 546.054 22.508 545.553 22.652 545.08C23.333 542.842 24.134 540.528 25.032 538.203C25.211 537.741 25.73 537.512 26.191 537.69C26.653 537.868 26.883 538.387 26.704 538.849C25.821 541.133 25.035 543.404 24.367 545.601C24.25 545.988 23.894 546.237 23.51 546.237ZM28.675 532.78C28.55 532.78 28.423 532.754 28.303 532.699C27.853 532.493 27.655 531.961 27.86 531.511C28.825 529.402 29.895 527.208 31.041 524.99C31.267 524.55 31.809 524.377 32.249 524.605C32.689 524.832 32.861 525.373 32.634 525.813C31.501 528.006 30.444 530.174 29.491 532.257C29.34 532.585 29.015 532.78 28.675 532.78ZM35.273 519.956C35.124 519.956 34.972 519.919 34.833 519.84C34.402 519.597 34.25 519.049 34.493 518.619C35.619 516.625 36.814 514.581 38.146 512.37C38.401 511.947 38.952 511.808 39.377 512.065C39.801 512.32 39.938 512.871 39.682 513.296C38.36 515.492 37.173 517.522 36.055 519.501C35.889 519.792 35.586 519.956 35.273 519.956ZM42.688 507.587C42.526 507.587 42.361 507.543 42.214 507.451C41.794 507.188 41.666 506.635 41.929 506.216C43.205 504.174 44.495 502.14 45.799 500.116C46.068 499.7 46.622 499.58 47.038 499.848C47.454 500.116 47.574 500.671 47.306 501.087C46.007 503.104 44.721 505.131 43.45 507.166C43.279 507.437 42.987 507.587 42.688 507.587ZM50.493 495.458C50.323 495.458 50.152 495.41 49.999 495.309C49.586 495.036 49.473 494.479 49.746 494.067C51.075 492.059 52.415 490.06 53.768 488.068C54.047 487.658 54.604 487.552 55.013 487.83C55.423 488.108 55.529 488.666 55.251 489.075C53.903 491.061 52.565 493.054 51.241 495.056C51.069 495.317 50.784 495.458 50.493 495.458ZM58.595 483.525C58.418 483.525 58.24 483.473 58.084 483.364C57.677 483.082 57.577 482.523 57.86 482.116C59.234 480.14 60.619 478.171 62.015 476.21C62.302 475.806 62.861 475.711 63.265 475.999C63.669 476.286 63.763 476.846 63.476 477.249C62.084 479.205 60.703 481.169 59.332 483.14C59.157 483.391 58.878 483.525 58.595 483.525ZM66.953 471.77C66.77 471.77 66.586 471.714 66.427 471.599C66.027 471.308 65.937 470.747 66.228 470.347C67.642 468.399 69.065 466.458 70.496 464.523C70.79 464.126 71.352 464.042 71.75 464.335C72.148 464.63 72.232 465.191 71.937 465.589C70.509 467.52 69.089 469.456 67.678 471.399C67.504 471.641 67.23 471.77 66.953 471.77ZM75.529 460.172C75.342 460.172 75.152 460.113 74.991 459.992C74.596 459.694 74.516 459.132 74.814 458.736C76.261 456.814 77.715 454.897 79.176 452.985C79.476 452.592 80.038 452.515 80.433 452.817C80.826 453.118 80.901 453.68 80.601 454.074C79.142 455.983 77.691 457.896 76.247 459.815C76.071 460.049 75.802 460.172 75.529 460.172ZM84.288 448.712C84.096 448.712 83.903 448.651 83.739 448.524C83.347 448.221 83.276 447.658 83.579 447.266C85.053 445.364 86.532 443.467 88.018 441.575C88.324 441.184 88.887 441.117 89.277 441.423C89.667 441.729 89.734 442.292 89.429 442.681C87.946 444.571 86.468 446.466 84.997 448.364C84.82 448.592 84.555 448.712 84.288 448.712ZM93.192 437.363C92.997 437.363 92.8 437.3 92.635 437.169C92.247 436.861 92.182 436.297 92.49 435.91C93.985 434.026 95.484 432.145 96.988 430.268C97.298 429.881 97.862 429.819 98.248 430.128C98.635 430.437 98.697 431.002 98.388 431.388C96.886 433.264 95.388 435.142 93.895 437.024C93.718 437.246 93.456 437.363 93.192 437.363ZM102.206 426.103C102.008 426.103 101.809 426.038 101.643 425.904C101.258 425.593 101.197 425.028 101.508 424.643C103.019 422.771 104.532 420.902 106.048 419.036C106.361 418.652 106.925 418.594 107.309 418.905C107.693 419.217 107.752 419.782 107.44 420.166C105.925 422.032 104.412 423.899 102.903 425.769C102.727 425.989 102.468 426.103 102.206 426.103ZM111.298 414.905C111.099 414.905 110.898 414.839 110.731 414.703C110.348 414.39 110.29 413.825 110.603 413.441C112.123 411.578 113.645 409.717 115.168 407.856C115.482 407.472 116.047 407.417 116.43 407.73C116.813 408.044 116.87 408.609 116.556 408.992C115.033 410.852 113.512 412.713 111.993 414.575C111.816 414.792 111.558 414.905 111.298 414.905ZM120.434 403.743C120.234 403.743 120.033 403.676 119.866 403.54C119.483 403.226 119.427 402.661 119.742 402.278L124.318 396.702C124.633 396.32 125.198 396.265 125.58 396.579C125.963 396.894 126.017 397.459 125.703 397.841L121.129 403.415C120.951 403.631 120.693 403.743 120.434 403.743ZM129.629 392.63C129.424 392.63 129.217 392.56 129.048 392.416C128.671 392.095 128.625 391.529 128.946 391.152C130.667 389.13 132.233 387.351 133.734 385.714C134.069 385.349 134.636 385.325 135.001 385.659C135.366 385.994 135.391 386.561 135.056 386.926C133.57 388.547 132.018 390.309 130.312 392.314C130.134 392.523 129.883 392.63 129.629 392.63ZM139.411 382.037C139.177 382.037 138.944 381.946 138.768 381.765C138.423 381.41 138.431 380.843 138.786 380.497C140.594 378.74 142.414 377.1 144.194 375.623C144.576 375.308 145.14 375.36 145.457 375.74C145.773 376.121 145.72 376.686 145.34 377.003C143.595 378.45 141.811 380.059 140.036 381.783C139.861 381.952 139.636 382.037 139.411 382.037ZM150.526 372.874C150.239 372.874 149.957 372.736 149.784 372.482C149.505 372.072 149.612 371.515 150.021 371.237C151.948 369.927 154.033 368.638 156.218 367.407C156.649 367.163 157.196 367.317 157.439 367.748C157.682 368.179 157.53 368.726 157.098 368.969C154.957 370.176 152.915 371.438 151.03 372.719C150.875 372.823 150.7 372.874 150.526 372.874ZM163.057 365.759C162.723 365.759 162.403 365.572 162.248 365.251C162.033 364.804 162.221 364.269 162.667 364.054C164.716 363.069 166.878 362.093 169.277 361.071C169.733 360.877 170.259 361.089 170.453 361.544C170.647 362 170.435 362.526 169.98 362.72C167.606 363.731 165.468 364.696 163.444 365.67C163.32 365.73 163.188 365.759 163.057 365.759ZM176.307 360.067C175.949 360.067 175.611 359.852 175.473 359.499C175.291 359.039 175.518 358.518 175.978 358.336C177.537 357.721 179.099 357.117 180.66 356.517L182.713 355.729C183.175 355.552 183.694 355.784 183.871 356.246C184.048 356.709 183.816 357.227 183.354 357.404L181.304 358.19C179.748 358.788 178.191 359.39 176.637 360.003C176.528 360.047 176.416 360.067 176.307 360.067ZM189.775 354.904C189.413 354.904 189.072 354.682 188.936 354.323C188.761 353.86 188.995 353.342 189.459 353.168C191.71 352.319 193.963 351.476 196.218 350.639C196.682 350.467 197.199 350.703 197.371 351.167C197.543 351.631 197.307 352.147 196.843 352.32C194.591 353.156 192.341 353.998 190.092 354.845C189.987 354.885 189.88 354.904 189.775 354.904ZM203.298 349.884C202.933 349.884 202.589 349.658 202.456 349.295C202.286 348.83 202.526 348.315 202.99 348.145C205.249 347.319 207.511 346.499 209.774 345.685C210.239 345.519 210.754 345.759 210.921 346.225C211.089 346.691 210.847 347.204 210.381 347.372C208.121 348.185 205.862 349.005 203.606 349.829C203.504 349.866 203.4 349.884 203.298 349.884Z" fill="#97C6B7"/>
<path d="M269.643 216.635C268.801 211.6 265.449 207.965 262.157 208.516C258.865 209.067 256.879 213.595 257.722 218.63C258.564 223.665 261.916 227.3 265.208 226.749C268.5 226.198 270.486 221.67 269.643 216.635Z" fill="#1F3C49"/>
<path d="M315.222 212.177C314.4 207.265 311.131 203.719 307.919 204.257C304.708 204.794 302.77 209.211 303.592 214.123C304.414 219.035 307.683 222.581 310.895 222.043C314.106 221.506 316.044 217.089 315.222 212.177Z" fill="#1F3C49"/>
<path d="M251.45 197.172C250.923 197.172 250.401 196.941 250.047 196.497C249.429 195.723 249.556 194.595 250.331 193.977C255.184 190.105 262.261 189.193 267.937 191.706C268.843 192.107 269.252 193.166 268.851 194.071C268.45 194.977 267.391 195.387 266.486 194.985C261.997 192.998 256.405 193.719 252.568 196.78C252.236 197.044 251.841 197.172 251.45 197.172Z" fill="#1F3C49"/>
<path d="M298.362 192.976C297.814 192.976 297.272 192.725 296.92 192.251C296.33 191.455 296.497 190.332 297.292 189.743C301.884 186.338 308.435 185.704 313.595 188.163C314.489 188.589 314.868 189.659 314.443 190.553C314.017 191.447 312.947 191.827 312.053 191.4C308.057 189.494 302.984 189.987 299.429 192.623C299.108 192.861 298.734 192.976 298.362 192.976Z" fill="#1F3C49"/>
<path d="M287.473 228.738C288.66 227.418 290.678 226.843 292.587 227.18C294.531 227.491 296.328 228.866 297.237 230.636C298.193 232.381 298.32 234.643 297.484 236.426C296.69 238.196 295.078 239.542 293.317 239.778C294.541 238.535 295.223 237.138 295.477 235.758C295.732 234.386 295.476 233.074 294.86 231.894C294.233 230.719 293.291 229.769 292.012 229.208C290.729 228.641 289.187 228.422 287.473 228.738Z" fill="#1F3C49"/>
<path d="M314.346 246.316L314.367 246.44C315.291 251.985 314.032 257.412 311.21 261.854C307.855 267.139 302.299 271.047 295.56 272.17C288.3 273.38 281.282 271.087 276.316 266.543C272.771 263.325 270.263 258.963 269.424 253.931L269.403 253.807L314.346 246.316Z" fill="#EA5353"/>
<path d="M311.21 261.854C307.855 267.139 302.299 271.047 295.56 272.17C288.3 273.38 281.282 271.087 276.316 266.543C278.039 265.538 279.836 264.647 281.657 263.853C288.621 260.811 296.321 259.019 303.863 260.043C306.375 260.387 308.818 261.026 311.21 261.854Z" fill="#FF948F"/>
<path d="M310.163 247.014C309.638 247.574 309.091 248.111 308.525 248.641C300.169 256.423 283.669 261.2 274.214 253.005L310.163 247.014Z" fill="white"/>
<path d="M265.028 213.871C262.242 213.871 262.238 218.2 265.028 218.2C267.813 218.2 267.818 213.871 265.028 213.871Z" fill="white"/>
<path d="M310.82 209.061C308.034 209.061 308.03 213.39 310.82 213.39C313.606 213.391 313.61 209.061 310.82 209.061Z" fill="white"/>
</g>
</svg>
