<svg width="157" height="157" viewBox="0 0 157 157" fill="none" xmlns="http://www.w3.org/2000/svg">
<path d="M157 78.4977C157 92.0158 153.584 104.734 147.569 115.84C146.1 118.549 144.479 121.162 142.708 123.666C141.849 124.887 140.955 126.082 140.026 127.252C139.844 127.484 139.659 127.713 139.472 127.942C138.854 128.705 138.223 129.456 137.575 130.193C134.774 133.398 131.709 136.374 128.417 139.086C127.942 139.479 127.463 139.865 126.979 140.246C126.885 140.321 126.789 140.396 126.693 140.471C126.34 140.747 125.982 141.021 125.624 141.287C125.271 141.554 124.915 141.816 124.559 142.076C124.426 142.172 124.293 142.268 124.159 142.364C119.475 145.719 114.408 148.57 109.034 150.84C108.437 151.093 107.836 151.338 107.23 151.574C107.186 151.593 107.141 151.61 107.097 151.626C104.472 152.655 101.777 153.544 99.0205 154.288C92.479 156.057 85.6006 157 78.5023 157C77.384 157 76.268 156.977 75.1591 156.93C74.5601 156.904 73.9613 156.876 73.367 156.836C73.2875 156.832 73.2102 156.827 73.1307 156.818C64.259 156.221 55.7968 154.148 47.9779 150.845C47.393 150.599 46.8128 150.346 46.2372 150.087C43.2496 148.737 40.3601 147.207 37.5854 145.508C37.0519 145.183 36.5233 144.851 36.0016 144.511C35.7793 144.369 35.5594 144.224 35.3395 144.078C35.1172 143.933 34.8949 143.786 34.6749 143.636C29.1582 139.919 24.1398 135.518 19.7391 130.556C18.5061 129.161 17.3176 127.725 16.1829 126.244C14.847 124.506 13.5836 122.706 12.3951 120.856C11.9061 120.093 11.4313 119.321 10.968 118.542C9.55728 116.167 8.26812 113.713 7.11002 111.186C5.54718 107.78 4.2206 104.24 3.15375 100.59C3.01572 100.129 2.88471 99.6639 2.75838 99.1983C1.02709 92.8533 0.0748712 86.1879 0.00468373 79.3118C0.00234415 79.0404 0 78.769 0 78.4977C0 35.1452 35.1452 0 78.5023 0C121.855 0 157 35.1452 157 78.4977Z" fill="#E7F2F2"/>
<path d="M40.7649 95.8855C40.7649 95.8855 39.0032 116.67 36.0015 144.511C35.7793 144.369 35.5593 144.224 35.3394 144.079C35.1172 143.933 34.8948 143.786 34.6749 143.636C29.1582 139.919 24.1398 135.518 19.739 130.556C18.5061 129.161 17.3175 127.725 16.1828 126.244C14.8469 124.506 13.5836 122.706 12.3951 120.856C11.9061 120.093 11.4313 119.321 10.968 118.542C26.697 105.333 40.0653 96.3534 40.7368 95.9042C40.7415 95.9019 40.7462 95.8995 40.7508 95.8949C40.7558 95.8902 40.7602 95.8855 40.7649 95.8855Z" fill="#CE4949"/>
<path d="M128.417 139.086C127.942 139.479 127.463 139.865 126.978 140.246C126.885 140.321 126.789 140.396 126.693 140.471C126.34 140.747 125.982 141.021 125.624 141.287C125.271 141.554 124.915 141.816 124.559 142.076C124.426 142.172 124.293 142.268 124.159 142.363C119.475 145.718 114.408 148.57 109.034 150.84C108.437 151.092 107.836 151.338 107.23 151.574C107.186 151.593 107.141 151.609 107.097 151.626C104.472 152.655 101.776 153.544 99.0205 154.288C92.479 156.057 85.6006 157 78.5023 157C77.384 157 76.268 156.976 75.159 156.93C74.5601 156.904 73.9612 156.876 73.367 156.836C73.2874 156.831 73.2101 156.827 73.1306 156.817C64.2589 156.221 55.7967 154.148 47.9778 150.844C47.3929 150.599 46.8127 150.346 46.2372 150.086C43.2495 148.736 40.36 147.206 37.5853 145.508C37.0519 145.183 36.5232 144.85 36.0015 144.511C35.7792 144.368 35.5593 144.223 35.3394 144.078C35.1171 143.933 34.8948 143.786 34.6749 143.636C29.1581 139.919 24.1398 135.518 19.739 130.556C21.7511 122.192 23.8192 115.847 25.8757 112.59C30.0495 105.983 34.8059 100.356 40.7368 95.904C40.7414 95.9017 40.7461 95.8993 40.7508 95.8947C40.7557 95.89 40.7602 95.8853 40.7649 95.8853C46.1576 91.8402 52.5212 88.7706 60.298 86.8241C62.7779 86.2041 65.4006 85.6987 68.1824 85.3127C73.1189 84.6249 78.5561 84.3137 84.5688 84.405C84.8356 84.4096 85.1 84.4143 85.362 84.4237C87.098 84.4728 88.7637 84.5968 90.3616 84.7933C102.176 86.2392 110.318 91.5009 115.875 98.157C115.912 98.2015 115.952 98.2459 115.989 98.2927C122.018 105.585 124.98 114.525 126.284 121.955C127.021 126.157 127.734 132.053 128.417 139.086Z" fill="#FF5F4A"/>
<path d="M63.9737 31.6121C65.4395 29.288 68.4824 24.1414 75.6551 22.9405C82.8276 21.7396 90.747 26.9742 95.2353 32.8025C99.7235 38.6309 95.631 65.6807 82.7546 65.566C69.8785 65.4514 58.2855 40.6315 63.9737 31.6121Z" fill="white"/>
<path d="M81.9611 58.2202L85.3803 84.5616C85.8782 89.3123 75.2684 102.656 67.1354 97.3591C64.7544 95.8086 67.029 88.997 68.6391 83.8623L72.1451 63.1797L81.9611 58.2202Z" fill="#FF867A"/>
<path d="M82.6128 44.5519C82.6128 44.5519 82.9611 49.1064 82.8307 54.4802C82.6387 62.4069 77.3372 66.0716 69.4219 66.9525C61.706 67.8111 59.0749 66.1231 57.4648 60.7833C57.0654 59.459 56.6857 57.4765 56.7208 55.6556C56.7788 52.631 58.0181 47.5606 60.2138 44.2707C61.2147 42.7708 61.9123 40.354 62.4871 39.1688C65.9214 32.0895 70.5321 31.6669 75.2052 37.5854C76.228 38.8808 76.2316 40.0333 82.6128 44.5519Z" fill="#FF867A"/>
<path d="M78.6779 62.0642C79.322 63.3065 76.8805 73.8468 69.9321 76.236L70.8015 69.2189C70.9405 68.1525 70.5126 66.8299 69.4439 66.9497C69.4366 66.9507 69.4292 66.9514 69.4292 66.9514C63.1113 67.6544 60.2022 66.6528 58.4707 63.3437C59.95 64.0065 63.346 65.2896 66.9746 65.0158C71.823 64.6502 77.9936 60.7445 78.6779 62.0642Z" fill="#C66C67"/>
<path d="M70.0422 53.7522C66.3461 54.1689 62.0479 53.4209 60.4193 52.6676C59.8625 52.41 59.2074 52.819 59.1992 53.3957C59.0493 64.2378 68.6738 59.4039 70.6788 54.9643C70.9687 54.3224 70.7656 53.6706 70.0422 53.7522Z" fill="white"/>
<path d="M74.0808 41.2637C72.8144 40.0598 71.697 39.1315 69.7394 39.7319C69.1924 39.8999 69.0806 40.7134 69.7486 40.8565C71.5894 41.2513 72.1824 41.3246 73.6143 42.2826C74.2523 42.7097 74.8175 41.964 74.0808 41.2637Z" fill="#E7F2F2"/>
<path d="M61.8692 39.3786C62.5705 38.8224 63.5346 38.9489 64.3739 39.1031C64.9341 39.206 65.3291 39.8817 64.6571 40.0593C62.8055 40.5488 62.7968 40.2815 61.9557 40.6775C61.3597 40.9582 61.0686 40.0137 61.8692 39.3786Z" fill="#E7F2F2"/>
<path d="M90.1731 25.1194C90.1731 25.1194 94.1631 20.3727 97.9598 21.3068C101.756 22.241 106.023 26.4785 103.065 30.2338C100.107 33.989 92.3843 34.3231 90.5038 33.7312C88.6232 33.1395 86.4052 28.195 90.1731 25.1194Z" fill="white"/>
<path d="M64.5238 50.9815C64.5606 51.1 64.2418 51.2327 63.7852 51.1833C63.3111 51.151 62.6745 50.9326 62.093 50.3668C62.0897 50.356 62.0724 50.3378 62.0586 50.33C61.7129 49.9635 61.5119 49.5769 61.3987 49.2101C61.2244 48.6852 61.2539 48.2163 61.3456 47.9875C61.3971 47.8537 61.4509 47.802 61.5246 47.8149C61.5594 47.8161 61.5872 47.831 61.6186 47.857C61.7257 47.9777 61.8501 48.3054 62.0475 48.6815C62.2045 48.9641 62.393 49.2721 62.6552 49.5577C62.6793 49.5975 62.7106 49.6234 62.745 49.6599C63.149 50.1029 63.6267 50.3703 63.9892 50.5663C64.3101 50.7401 64.5294 50.8502 64.5238 50.9815Z" fill="#C66C67"/>
<path d="M68.1885 44.3209C68.1178 44.9127 68.3745 45.4298 68.7613 45.4759C69.1482 45.522 69.5192 45.0797 69.5898 44.4879C69.6604 43.8961 69.4038 43.379 69.0169 43.3329C68.6298 43.2868 68.2589 43.7291 68.1885 44.3209Z" fill="#434A59"/>
<path d="M59.7026 43.3436C59.632 43.9354 59.8886 44.4525 60.2755 44.4986C60.6624 44.5447 61.0333 44.1024 61.104 43.5106C61.1746 42.9188 60.918 42.4017 60.5311 42.3556C60.1442 42.3095 59.7733 42.7518 59.7026 43.3436Z" fill="#434A59"/>
<path d="M59.8128 88.4888C59.8128 88.4888 63.092 78.0252 61.7423 74.8569C60.3928 71.6887 59.7531 70.8284 65.1337 71.1826C70.5143 71.5368 84.2793 71.3296 87.0143 70.6223C89.749 69.9148 90.427 72.2878 90.1434 73.2822C89.8599 74.2763 90.5969 90.8482 90.7141 92.2955C90.8313 93.7427 79.97 102.272 70.082 102.224C60.194 102.176 58.444 93.6632 59.8128 88.4888Z" fill="#FF5F4A"/>
<path d="M137.575 130.193C134.774 133.398 131.709 136.374 128.417 139.086C127.942 139.479 127.463 139.865 126.979 140.246C126.885 140.321 126.789 140.396 126.693 140.471C126.34 140.747 125.982 141.021 125.624 141.287C125.271 141.554 124.915 141.816 124.559 142.076C124.426 142.172 124.293 142.268 124.159 142.363C119.475 145.718 114.408 148.57 109.034 150.84C108.437 151.092 107.836 151.338 107.23 151.574C107.186 151.593 107.141 151.609 107.097 151.626C106.678 150.227 106.269 148.835 105.876 147.457C104.448 142.438 103.215 137.586 102.324 133.197C101.475 129.009 100.941 125.242 100.848 122.159C100.202 100.724 107.661 89.6012 113.678 95.7473C114.342 96.4257 115.077 97.2329 115.875 98.157C115.912 98.2015 115.952 98.2459 115.99 98.2927C121.373 104.575 129.494 116.16 137.575 130.193Z" fill="#FF5F4A"/>
<path d="M66.9727 44.6645C66.9131 44.6593 66.8549 44.6327 66.8069 44.5836C65.6627 43.4115 64.396 44.3237 64.3427 44.363C64.2066 44.4638 64.0283 44.4201 63.9439 44.2661C63.8599 44.112 63.9011 43.9055 64.0365 43.804C64.6145 43.3712 66.0189 42.8702 67.1982 44.0786C67.3163 44.1995 67.3245 44.4107 67.2169 44.5506C67.1521 44.6334 67.0612 44.6722 66.9727 44.6645Z" fill="#434A59"/>
<path d="M75.1286 44.1548C74.9976 43.4552 74.7052 42.8212 74.2794 42.2971C73.6126 41.476 72.6206 40.9191 71.4203 40.7788C70.8752 40.7179 70.3442 40.7507 69.8388 40.8747C69.2469 41.0221 68.6948 41.2935 68.2152 41.6795C67.759 42.0468 67.3799 42.5007 67.0898 43.0294C66.9705 43.247 66.8652 43.4763 66.7763 43.7196V43.7219C66.699 43.9325 66.6336 44.1524 66.5822 44.3794C66.5447 44.5221 66.5166 44.6671 66.4932 44.8169C66.2803 46.127 66.5213 47.4115 67.174 48.4362C67.8385 49.482 68.8491 50.1301 70.0166 50.2658C70.1429 50.2798 70.2716 50.2892 70.3979 50.2892C72.6416 50.3243 74.7239 48.3964 75.1427 45.8112C75.1871 45.5328 75.2081 45.2567 75.2081 44.99C75.2081 44.7022 75.1801 44.4238 75.1286 44.1548ZM74.3167 45.7176C73.9471 47.9964 72.0778 49.6715 70.1476 49.4492C69.2258 49.344 68.4234 48.8222 67.89 47.98C67.4712 47.3249 67.2559 46.5365 67.2559 45.7036C67.2559 45.4415 67.277 45.1772 67.3191 44.9105C67.4993 43.8038 67.9859 42.9031 68.7275 42.3042C69.3382 41.8129 70.1056 41.5602 70.9151 41.5719C71.0367 41.5742 71.163 41.5812 71.287 41.5953C73.0911 41.8035 74.7098 43.2868 74.3167 45.7176Z" fill="#434A59"/>
<path d="M63.894 40.2431C63.5454 39.7915 63.0891 39.4406 62.544 39.23C62.5206 39.2183 62.4972 39.2113 62.4715 39.2019C62.4083 39.1786 62.3452 39.1575 62.2797 39.1388C62.1884 39.1107 62.0972 39.0873 62.0013 39.0686C61.0374 38.8721 60.0688 39.1084 59.2804 39.74C58.8803 40.0606 58.541 40.4653 58.2696 40.9426C58.0006 41.4199 57.7971 41.9697 57.6731 42.578C57.4204 43.7969 57.5256 45.0181 57.9678 46.0171C58.1596 46.45 58.4077 46.822 58.7024 47.1238C59.1095 47.5496 59.6102 47.835 60.1694 47.9496C60.2536 47.966 60.3354 47.9801 60.4197 47.9894C60.7402 48.0245 61.0631 47.9988 61.3766 47.9192C61.4538 47.9005 61.531 47.8771 61.6082 47.8514H61.6106C62.4973 47.5543 63.3114 46.8407 63.8846 45.8581C64.1653 45.3784 64.3876 44.8357 64.5327 44.2461C64.5537 44.1642 64.5725 44.0823 64.5889 43.9981C64.624 43.8203 64.6543 43.6448 64.6731 43.4717C64.8228 42.1966 64.528 41.0549 63.894 40.2431ZM63.777 43.832C63.7162 44.1268 63.6343 44.4122 63.5337 44.6789V44.6836C62.9043 46.3587 61.5825 47.442 60.3285 47.1823C59.8372 47.0793 59.4043 46.7798 59.0674 46.3166C58.9388 46.1411 58.8264 45.9446 58.7282 45.7247C58.4872 45.1796 58.3656 44.5526 58.3656 43.8928C58.3656 43.5185 58.4053 43.1324 58.4848 42.7464C58.7001 41.7006 59.161 40.8724 59.8207 40.346C60.319 39.9459 60.9086 39.7541 61.5075 39.7962C61.5426 39.7962 61.5778 39.7985 61.6129 39.8032C61.6901 39.8102 61.7649 39.8219 61.8421 39.8383C61.9521 39.8617 62.0574 39.8898 62.1603 39.9249C62.3288 39.9834 62.4856 40.0582 62.6306 40.1495C62.7499 40.222 62.8596 40.3062 62.9628 40.3975C63.7513 41.1087 64.0788 42.3697 63.777 43.832Z" fill="#434A59"/>
<path d="M74.6179 44.1125L85.8056 45.014L85.3068 45.6834L74.8438 44.9654L74.6179 44.1125Z" fill="#434A59"/>
<path d="M83.4701 48.4516C83.8762 47.589 84.146 46.6766 84.3608 45.7482C84.7688 43.9835 85.7868 41.4563 88.125 43.352C91.5261 46.1092 88.8345 55.3908 84.278 55.0941C80.8942 54.8738 82.4467 50.6244 83.4701 48.4516Z" fill="#FF867A"/>
<path d="M103.445 133.845L109.034 150.84C108.438 151.092 107.836 151.338 107.23 151.574L105.876 147.457L101.599 134.451C101.431 133.941 101.709 133.394 102.219 133.225C102.254 133.213 102.289 133.204 102.324 133.197C102.802 133.096 103.288 133.37 103.445 133.845Z" fill="#CE4949"/>
</svg>
