<svg width="157" height="157" viewBox="0 0 157 157" fill="none" xmlns="http://www.w3.org/2000/svg">
<rect width="157" height="157" fill="#1E1E1E"/>
<g id="Section 2">
<path d="M-3967 -3381C-3967 -3382.1 -3966.1 -3383 -3965 -3383H2252C2253.1 -3383 2254 -3382.1 2254 -3381V1039C2254 1040.1 2253.1 1041 2252 1041H-3965C-3966.1 1041 -3967 1040.1 -3967 1039V-3381Z" fill="#DAFFEE"/>
<path d="M-3965 -3382H2252V-3384H-3965V-3382ZM2253 -3381V1039H2255V-3381H2253ZM2252 1040H-3965V1042H2252V1040ZM-3966 1039V-3381H-3968V1039H-3966ZM-3965 1040C-3965.55 1040 -3966 1039.55 -3966 1039H-3968C-3968 1040.66 -3966.66 1042 -3965 1042V1040ZM2253 1039C2253 1039.55 2252.55 1040 2252 1040V1042C2253.66 1042 2255 1040.66 2255 1039H2253ZM2252 -3382C2252.55 -3382 2253 -3381.55 2253 -3381H2255C2255 -3382.66 2253.66 -3384 2252 -3384V-3382ZM-3965 -3384C-3966.66 -3384 -3968 -3382.66 -3968 -3381H-3966C-3966 -3381.55 -3965.55 -3382 -3965 -3382V-3384Z" fill="white" fill-opacity="0.1"/>
<g id="&#237;&#148;&#132;&#235;&#161;&#156;&#237;&#149;&#132; &#236;&#157;&#180;&#235;&#175;&#184;&#236;&#167;&#128;" clip-path="url(#clip0_0_1)">
<rect width="375" height="812" transform="translate(-20 -417)" fill="white"/>
<g id="Group">
<g id="Group_2">
<path id="Vector" d="M157 78.4975C157 79.9925 156.958 81.4781 156.876 82.9521C156.605 87.7856 155.898 92.5045 154.791 97.0667C153.191 103.662 150.76 109.93 147.614 115.755C145.761 119.183 143.662 122.458 141.339 125.556C140.876 126.173 140.403 126.784 139.921 127.388C139.631 127.753 139.339 128.115 139.039 128.473C139.004 128.515 138.971 128.555 138.936 128.597C138.414 129.229 137.883 129.849 137.34 130.462C136.393 131.533 135.417 132.582 134.414 133.599C132.949 135.085 131.428 136.51 129.851 137.876C128.076 139.413 126.23 140.871 124.321 142.246C124.232 142.309 124.145 142.375 124.054 142.438C124.054 142.438 124.054 142.438 124.052 142.438C120.449 145.012 116.621 147.286 112.599 149.228C106.664 152.094 100.312 154.237 93.6605 155.537C90.1979 156.216 86.6511 156.665 83.0411 156.871C81.5391 156.958 80.0254 157 78.5023 157C78.2801 157 78.0578 157 77.8355 156.995C77.3606 156.993 76.8857 156.983 76.4131 156.972C76.1768 156.965 75.9405 156.958 75.7042 156.948C73.1587 156.862 70.646 156.651 68.1684 156.326C61.9498 155.509 55.9581 153.963 50.2846 151.775C48.441 151.064 46.6325 150.285 44.8591 149.443C44.6392 149.34 44.4216 149.235 44.204 149.129C43.1302 148.605 42.068 148.06 41.0223 147.489C38.3879 146.057 35.8471 144.478 33.4092 142.763C30.3163 140.592 27.3895 138.201 24.6498 135.616C23.3958 134.432 22.1792 133.209 21.0048 131.947C19.6642 130.504 18.3774 129.011 17.1491 127.47C14.5967 124.281 12.2898 120.886 10.2544 117.318C10.1538 117.14 10.0532 116.962 9.95259 116.785C3.61466 105.459 0 92.4016 0 78.4975C0 35.1451 35.1475 0 78.5023 0C121.855 0 157 35.1451 157 78.4975Z" fill="#529AE3"/>
</g>
<g id="Group_3">
<g id="Group_4">
<path id="Vector_2" d="M147.614 115.755C145.761 119.183 143.662 122.458 141.339 125.556C140.876 126.174 140.403 126.784 139.921 127.388C139.631 127.753 139.338 128.115 139.039 128.473C139.004 128.516 138.971 128.555 138.936 128.597C138.414 129.229 137.883 129.849 137.34 130.462C136.393 131.534 135.417 132.582 134.414 133.599C132.949 135.085 131.428 136.51 129.851 137.876C128.076 139.413 126.23 140.871 124.321 142.246C124.232 142.31 124.145 142.375 124.054 142.438C124.054 142.438 124.054 142.438 124.052 142.438C120.449 145.012 116.621 147.286 112.599 149.228C111.177 147.471 109.939 145.681 108.872 143.87C95.1929 120.699 109.071 94.2852 109.071 94.2852C109.071 94.2852 109.076 94.2852 109.085 94.2875H109.088L109.09 94.2898C109.675 94.3881 123.93 96.992 147.614 115.755Z" fill="#CE4949"/>
<g id="Group_5">
<g id="Group_6">
<path id="Vector_3" d="M139.039 128.474C139.004 128.516 138.971 128.555 138.936 128.598C138.414 129.229 137.883 129.849 137.341 130.462C136.393 131.534 135.417 132.582 134.414 133.6C132.949 135.085 131.428 136.51 129.852 137.876C128.076 139.413 126.23 140.871 124.321 142.247C124.232 142.31 124.145 142.375 124.054 142.439C124.054 142.439 124.054 142.439 124.052 142.439C120.449 145.012 116.621 147.286 112.599 149.228C106.664 152.094 100.312 154.237 93.6606 155.538C90.198 156.216 86.6512 156.665 83.0412 156.871C81.5392 156.958 80.0255 157 78.5025 157C78.2802 157 78.0579 157 77.8356 156.995C77.3607 156.993 76.8858 156.984 76.4132 156.972C76.1769 156.965 75.9406 156.958 75.7043 156.949C73.1589 156.862 70.6461 156.651 68.1685 156.326C61.9499 155.51 55.9582 153.963 50.2847 151.776C48.4411 151.065 46.6327 150.285 44.8593 149.443C44.6393 149.34 44.4217 149.235 44.2042 149.13C43.1303 148.606 42.0682 148.061 41.0224 147.49C38.388 146.058 35.8472 144.479 33.4094 142.764C30.3164 140.593 27.3896 138.202 24.6499 135.616C23.3959 134.432 22.1794 133.209 21.0049 131.948C21.054 131.829 21.1031 131.712 21.1546 131.592C23.4895 126.097 32.9391 115.138 41.3639 106.601C46.7029 101.194 51.63 96.7559 54.0772 95.296C58.3259 92.7599 62.9419 91.0052 67.7404 89.9173C74.324 88.427 81.2467 88.1931 88.0385 88.916C95.4129 89.7021 102.631 91.6206 109.085 94.2877H109.088L109.09 94.29C118.954 98.3656 127.028 104.198 131.155 110.431C134.093 114.869 136.704 121.017 139.039 128.474Z" fill="#FF5F4A"/>
</g>
</g>
<path id="Vector_4" d="M124.052 142.438C120.449 145.012 116.621 147.286 112.6 149.228C106.664 152.094 100.312 154.237 93.6607 155.538C90.1981 156.216 86.6513 156.665 83.0413 156.871C81.5393 156.958 80.0256 157 78.5026 157C78.2803 157 78.058 157 77.8357 156.995C77.3608 156.993 76.8859 156.984 76.4133 156.972C76.177 156.965 75.9407 156.958 75.7044 156.949C73.159 156.862 70.6462 156.651 68.1686 156.326C61.95 155.51 55.9583 153.963 50.2848 151.776C48.4412 151.064 46.6328 150.285 44.8594 149.443C44.6394 149.34 44.4218 149.235 44.2043 149.13C43.1304 148.606 42.0683 148.06 41.0225 147.49C44.2979 147.494 47.6809 147.452 51.1318 147.377C70.2181 146.954 91.4405 145.417 108.873 143.87C114.37 143.381 119.494 142.892 124.052 142.438Z" fill="#FF8E85"/>
<g id="Group_7">
<path id="Vector_5" d="M51.4427 144.743C51.3983 145.475 51.293 146.357 51.1316 147.377C50.9327 148.643 50.6473 150.117 50.2846 151.776C48.4411 151.064 46.6326 150.285 44.8592 149.443C44.6392 149.34 44.4217 149.235 44.2041 149.13C43.1302 148.606 42.0681 148.06 41.0223 147.49C38.3879 146.058 35.8471 144.479 33.4093 142.764C30.3163 140.592 27.3895 138.201 24.6498 135.616C23.3958 134.432 22.1793 133.209 21.0048 131.948C19.6642 130.504 18.3775 129.012 17.1492 127.47C25.6723 119.866 33.3624 113.329 39.1552 108.098C39.9179 107.41 40.655 106.912 41.3638 106.601C48.6329 103.396 52.9611 119.443 51.4427 144.743Z" fill="#FF5F4A"/>
</g>
<g id="Group_8">
<path id="Vector_6" d="M61.9979 48.6996C61.9979 48.6996 53.6964 46.9023 51.423 53.0875C49.1497 59.2726 56.1902 64.3373 62.0953 63.0564C68.0006 61.7755 73.6104 48.8058 61.9979 48.6996Z" fill="#7F635D"/>
</g>
<g id="Group_9">
<path id="Vector_7" d="M83.003 24.7481C83.003 24.7481 74.2621 20.7612 69.0696 22.5121C60.7737 25.3096 59.0976 29.9101 57.6562 39.117C56.9531 43.6069 63.1589 52.4468 65.8845 56.9776C68.6103 61.5084 69.5048 69.2061 72.0423 68.4876C74.5798 67.7689 95.5281 51.8317 97.0353 44.9807C98.5425 38.1297 98.6552 23.014 83.003 24.7481Z" fill="#7F635D"/>
</g>
<g id="Group_10">
<g id="Group_11">
<path id="Vector_8" d="M73.7817 61.9795L69.6476 84.4282L67.4674 90.7088C66.8053 95.4904 79.1682 109.623 87.5088 104.545C89.9504 103.059 89.8544 96.3741 88.4151 91.1344L84.0124 65.147L73.7817 61.9795Z" fill="#FF867A"/>
</g>
</g>
<g id="Group_12">
<g id="Group_13">
<path id="Vector_9" d="M86.5318 80.0199L84.6204 68.7373L76.0562 65.8325C76.0562 65.8325 76.9541 78.5416 86.5318 80.0199Z" fill="#C66C67"/>
</g>
</g>
<g id="Group_14">
<g id="Group_15">
<path id="Vector_10" d="M76.3574 43.6813L71.798 52.4028C69.5929 61.1614 76.3653 70.2437 85.3081 71.511C96.4616 73.0916 102.091 71.1126 102.523 60.6788C102.776 54.5603 97.8234 43.2716 95.8456 38.9034C93.5331 33.7963 89.0859 31.293 84.7445 31.7473C80.6196 32.1787 85.4354 37.5265 76.3574 43.6813Z" fill="#FF867A"/>
</g>
</g>
<g id="Group_16">
<g id="Group_17">
<g id="Group_18">
<path id="Vector_11" d="M91.8232 52.6622C93.063 52.1699 94.0902 51.4402 94.9645 50.4326C95.6266 49.6694 96.6813 50.8331 96.0267 51.5881C95.0792 52.6802 93.896 53.5187 92.5526 54.0521C91.6222 54.4215 90.8855 53.0344 91.8232 52.6622Z" fill="#C66C67"/>
</g>
</g>
</g>
<g id="Group_19">
<path id="Vector_12" d="M89.4983 56.4455C91.1222 56.1271 95.2207 55.9182 99.4455 54.5977C99.7541 54.5013 100.044 54.8962 100.036 55.2722C100.014 56.3802 99.6572 57.8666 98.5227 58.731C97.2643 59.6903 93.671 62.031 89.156 57.4005C88.8617 57.0987 89.1233 56.519 89.4983 56.4455Z" fill="white"/>
</g>
<g id="Group_20">
<g id="Group_21">
<path id="Vector_13" d="M72.7464 51.5172C72.1631 50.703 71.7104 49.8116 71.311 48.8931C70.5523 47.1475 69.0201 44.7294 66.9839 47.1288C64.0225 50.6188 68.5742 59.697 73.1963 58.5303C76.6285 57.6637 74.2159 53.5683 72.7464 51.5172Z" fill="#FF867A"/>
</g>
</g>
<g id="Group_22">
<g id="Group_23">
<path id="Vector_14" d="M87.2041 39.9406C85.7704 40.374 84.2708 41.0685 83.0755 42.0062C82.5074 42.4517 83.1866 43.2706 83.7537 42.8258C84.7794 42.0211 86.1378 41.3798 87.3691 41.0076C88.0455 40.803 87.8894 39.7333 87.2041 39.9406Z" fill="#434A59"/>
</g>
</g>
<g id="Group_24">
<g id="Group_25">
<path id="Vector_15" d="M96.8505 39.8785C95.9677 39.595 95.0621 39.3899 94.153 39.1913C93.4593 39.0398 93.1654 40.0785 93.8628 40.2313C94.772 40.4301 95.6777 40.635 96.5604 40.9182C97.234 41.1344 97.5219 40.094 96.8505 39.8785Z" fill="#434A59"/>
</g>
</g>
<g id="Group_26">
<path id="Vector_16" d="M87.9887 45.2459C88.0862 46.1439 87.6713 46.9256 87.0617 46.9918C86.4524 47.058 85.8793 46.3836 85.7818 45.4854C85.6842 44.5873 86.0993 43.8058 86.7088 43.7396C87.3184 43.6734 87.8911 44.3477 87.9887 45.2459Z" fill="#434A59"/>
</g>
<g id="Group_27">
<path id="Vector_17" d="M97.9769 43.7022C98.0745 44.6004 97.6596 45.3819 97.05 45.4481C96.4405 45.5143 95.8676 44.8399 95.7701 43.9417C95.6725 43.0435 96.0876 42.2621 96.6971 42.1959C97.3064 42.1297 97.8794 42.8043 97.9769 43.7022Z" fill="#434A59"/>
</g>
<g id="Group_28">
<g id="Group_29">
<path id="Vector_18" d="M78.5021 157C78.2799 157 78.0577 157 77.8354 156.995C78.1278 156.733 78.3594 156.71 78.5021 157Z" fill="#FF5F4A"/>
</g>
</g>
</g>
</g>
</g>
</g>
</g>
<defs>
<clipPath id="clip0_0_1">
<rect width="375" height="812" fill="white" transform="translate(-20 -417)"/>
</clipPath>
</defs>
</svg>
