<svg width="157" height="157" viewBox="0 0 157 157" fill="none" xmlns="http://www.w3.org/2000/svg">
<rect width="157" height="157" fill="#1E1E1E"/>
<g id="Section 2">
<path d="M-4145 -3381C-4145 -3382.1 -4144.1 -3383 -4143 -3383H2074C2075.1 -3383 2076 -3382.1 2076 -3381V1039C2076 1040.1 2075.1 1041 2074 1041H-4143C-4144.1 1041 -4145 1040.1 -4145 1039V-3381Z" fill="#DAFFEE"/>
<path d="M-4143 -3382H2074V-3384H-4143V-3382ZM2075 -3381V1039H2077V-3381H2075ZM2074 1040H-4143V1042H2074V1040ZM-4144 1039V-3381H-4146V1039H-4144ZM-4143 1040C-4143.55 1040 -4144 1039.55 -4144 1039H-4146C-4146 1040.66 -4144.66 1042 -4143 1042V1040ZM2075 1039C2075 1039.55 2074.55 1040 2074 1040V1042C2075.66 1042 2077 1040.66 2077 1039H2075ZM2074 -3382C2074.55 -3382 2075 -3381.55 2075 -3381H2077C2077 -3382.66 2075.66 -3384 2074 -3384V-3382ZM-4143 -3384C-4144.66 -3384 -4146 -3382.66 -4146 -3381H-4144C-4144 -3381.55 -4143.55 -3382 -4143 -3382V-3384Z" fill="white" fill-opacity="0.1"/>
<g id="&#237;&#148;&#132;&#235;&#161;&#156;&#237;&#149;&#132; &#236;&#157;&#180;&#235;&#175;&#184;&#236;&#167;&#128;" clip-path="url(#clip0_0_1)">
<rect width="375" height="812" transform="translate(-198 -417)" fill="white"/>
<g id="Group">
<g id="Group_2">
<path id="Vector" d="M154.013 99.9808C152.976 103.618 151.683 107.155 150.148 110.575C148.345 114.589 146.214 118.435 143.781 122.077C143.329 122.753 142.868 123.422 142.396 124.084C140.613 126.583 138.686 128.976 136.623 131.25C135.937 132.005 135.24 132.747 134.524 133.479C132.959 135.077 131.324 136.609 129.624 138.068C126.536 140.726 123.231 143.149 119.731 145.311C119.198 145.641 118.662 145.963 118.119 146.279C117.415 146.693 116.702 147.096 115.981 147.486C114.854 148.099 113.707 148.686 112.542 149.245C109.34 150.785 106.007 152.118 102.559 153.222C102.29 153.309 102.021 153.395 101.749 153.477C99.5831 154.146 97.3701 154.726 95.1174 155.213C94.0695 155.44 93.0098 155.646 91.9431 155.828C91.2998 155.94 90.6518 156.046 90.0015 156.141C88.1816 156.41 86.3663 156.616 84.5581 156.757C82.4761 156.92 80.4059 157 78.3497 157C77.3298 157 76.3122 156.979 75.2993 156.937C74.7987 156.918 74.2981 156.895 73.7999 156.862C73.4537 156.843 73.1075 156.822 72.7636 156.794C70.7308 156.649 68.7143 156.422 66.7213 156.12C65.1938 155.889 63.6803 155.613 62.1808 155.295C58.9878 154.616 55.8602 153.739 52.8075 152.679C52.3279 152.513 51.8507 152.343 51.3758 152.167C50.6787 151.91 49.984 151.645 49.2963 151.365C49.2541 151.351 49.212 151.334 49.1676 151.313C48.9056 151.208 48.6413 151.1 48.3793 150.99C48.3465 150.976 48.3138 150.965 48.281 150.948C47.2822 150.532 46.2927 150.095 45.3125 149.634C44.6318 149.318 43.9581 148.988 43.2891 148.651C42.2692 148.141 41.2609 147.606 40.2644 147.049C40.0679 146.939 39.8691 146.829 39.6726 146.714C39.4527 146.59 39.2328 146.464 39.0153 146.338C38.5614 146.073 38.1123 145.804 37.6655 145.531C37.3263 145.322 36.9848 145.114 36.6479 144.899C36.4 144.745 36.152 144.588 35.9064 144.427C35.7754 144.342 35.6444 144.256 35.5134 144.167C35.483 144.148 35.4526 144.129 35.4222 144.108C35.338 144.055 35.2561 143.998 35.1742 143.945C34.8841 143.753 34.5964 143.561 34.311 143.365C33.9157 143.098 33.5227 142.826 33.1344 142.55C32.6244 142.19 32.1215 141.825 31.6232 141.453C31.3659 141.262 31.1086 141.067 30.8536 140.871C30.0934 140.293 29.3448 139.697 28.6056 139.088C21.7844 133.472 15.8918 126.704 11.2601 119.022C11.2156 118.95 11.1712 118.877 11.1291 118.805C10.1443 117.16 9.21558 115.476 8.35005 113.75C6.88335 110.833 5.59208 107.803 4.4903 104.671C2.83879 99.9925 1.61068 95.0918 0.857444 89.9992C-5.49361 47.1185 24.1213 7.20856 67.002 0.857499C109.883 -5.49356 149.793 24.119 156.144 66.9998C157.83 78.3942 156.977 89.5782 154.013 99.9808Z" fill="#FFE164"/>
</g>
<g id="Group_3">
<g id="Group_4">
<g id="Group_5">
<path id="Vector_2" d="M79.4727 28.703C79.4727 28.703 79.2786 20.2031 70.6201 20.8471C61.9616 21.4911 61.704 28.6386 62.2191 32.3089C62.7343 35.9792 67.0064 39.1989 67.0064 39.1989C67.0064 39.1989 63.3366 37.4225 62.7342 41.9611C62.1319 46.5 90.8195 67.6606 90.8195 67.6606C90.8195 67.6606 98.3435 61.5224 99.1804 55.2867C100.017 49.0512 102.593 44.4148 100.017 38.9414C97.4417 33.468 92.9342 34.1763 92.9342 34.1763C92.9342 34.1763 89.1923 23.2296 79.4727 28.703Z" fill="#3A4B66"/>
</g>
</g>
<g id="Group_6">
<g id="Group_7">
<g id="Group_8">
<path id="Vector_3" d="M142.396 124.085C140.613 126.583 138.686 128.976 136.622 131.25C135.937 132.005 135.24 132.747 134.524 133.479C132.959 135.077 131.324 136.609 129.623 138.069C126.536 140.726 123.23 143.149 119.731 145.311C119.197 145.641 118.662 145.964 118.119 146.279C117.415 146.693 116.701 147.096 115.981 147.486C114.853 148.099 113.707 148.686 112.542 149.246C109.34 150.785 106.006 152.118 102.558 153.222C102.289 153.309 102.02 153.395 101.749 153.477C99.5827 154.146 97.3698 154.726 95.1171 155.213C94.0691 155.44 93.0095 155.646 91.9428 155.828C91.2995 155.94 90.6515 156.046 90.0012 156.142C88.1813 156.411 86.366 156.616 84.5578 156.757C82.4758 156.921 80.4056 157 78.3494 157C77.3295 157 76.3119 156.979 75.299 156.937C74.7984 156.918 74.2978 156.895 73.7996 156.862C73.4534 156.843 73.1071 156.822 72.7633 156.794C70.7305 156.649 68.714 156.422 66.721 156.121C65.1935 155.889 63.68 155.613 62.1805 155.295C58.9874 154.616 55.8599 153.739 52.8072 152.68C52.3276 152.513 51.8504 152.343 51.3755 152.167C50.6784 151.91 49.9837 151.646 49.2959 151.365C49.2538 151.351 49.2117 151.334 49.1673 151.313C48.9053 151.208 48.641 151.101 48.379 150.991C48.3462 150.977 48.3135 150.965 48.2807 150.949C47.2818 150.532 46.2923 150.095 45.3122 149.634C44.6315 149.318 43.9578 148.988 43.2887 148.651C42.2688 148.141 41.2606 147.606 40.2641 147.049C40.0676 146.939 39.8688 146.829 39.6723 146.714C39.4524 146.59 39.2325 146.464 39.0149 146.338C38.5611 146.073 38.112 145.804 37.6652 145.531C37.326 145.323 36.9845 145.114 36.6476 144.899C36.3997 144.745 36.1517 144.588 35.9061 144.427C35.7751 144.342 35.6441 144.256 35.5131 144.167C35.4827 144.148 35.4523 144.13 35.4219 144.109C35.3376 144.055 35.2558 143.999 35.1739 143.945C34.8838 143.753 34.5961 143.561 34.3107 143.365C33.9154 143.098 33.5224 142.827 33.1341 142.551C32.6241 142.19 32.1212 141.825 31.6229 141.453C31.3656 141.262 31.1083 141.067 30.8533 140.871C30.0931 140.293 29.3445 139.697 28.6053 139.088C21.784 133.472 15.8915 126.705 11.2598 119.022C11.9265 118.293 12.6352 117.572 13.3838 116.863C25.7444 105.134 48.7205 96.3387 72.0592 95.2627C72.1083 95.258 72.1574 95.2557 72.2042 95.2557C72.3329 95.2463 72.4615 95.2416 72.5878 95.2393C77.1143 95.0498 81.6501 95.1551 86.1227 95.5855C89.5357 95.9153 92.9627 96.5048 96.371 97.3236C113.967 101.551 131.004 111.899 142.396 124.085Z" fill="#43B572"/>
</g>
</g>
</g>
<g id="Group_9">
<g id="Group_10">
<g id="Group_11">
<path id="Vector_4" d="M97.0269 103.063C97.4209 107.389 68.8119 109.796 70.8973 104.321L74.8258 83.2289L76.6292 73.525L78.2772 64.6778L91.3276 60.2903C91.3276 60.2903 96.3331 95.4845 97.0269 103.063Z" fill="#FF867A"/>
</g>
</g>
</g>
<g id="Group_12">
<g id="Group_13">
<path id="Vector_5" d="M61.8525 72.4938C64.054 73.2256 67.8471 74.1128 73.0047 73.9233C81.5324 73.6099 87.3641 71.6035 87.3641 71.6035C85.3035 80.9783 77.5419 81.9839 74.6457 84.1959L74.8258 83.2293L75.9414 77.2261C72.1024 77.8961 67.9975 77.5443 64.3286 75.4607C63.2343 74.8392 62.4116 73.8167 61.8525 72.4938Z" fill="#C66C67"/>
</g>
</g>
<g id="Group_14">
<g id="Group_15">
<g id="Group_16">
<path id="Vector_6" d="M89.5609 55.8622C90.2172 55.1326 90.755 54.3134 91.2436 53.4621C92.1719 51.8443 93.9264 49.6552 95.6491 52.2132C98.1547 55.9338 93.6965 63.8278 89.3216 62.1899C86.0727 60.9734 87.9072 57.7004 89.5609 55.8622Z" fill="#FF867A"/>
</g>
</g>
</g>
<g id="Group_17">
<g id="Group_18">
<g id="Group_19">
<path id="Vector_7" d="M88.3053 48.4751L90.1264 66.4733C90.2549 72.448 75.3255 81.7058 64.3294 75.4609C61.1726 73.6681 60.2222 68.6055 61.6002 62.3141C62.7369 57.1252 64.3526 53.2928 66.2705 49.6075C67.3695 47.4959 68.0397 45.2081 68.8893 43.8853C74.2071 35.6053 86.2592 36.8315 88.3053 48.4751Z" fill="#FF867A"/>
</g>
</g>
</g>
<g id="Group_20">
<path id="Vector_8" d="M71.1525 54.3317C71.1525 54.3317 65.2752 52.2082 63.3572 54.3317C61.4393 56.4553 59.7267 66.3192 60.1377 70.3607C60.5487 74.4023 63.6164 78.4438 67.8022 78.9233C71.9881 79.4029 79.5843 79.0419 83.7016 76.5944C88.4262 73.7859 89.7814 57.6663 89.9456 55.6663C90.1096 53.6662 88.0571 53.7497 87.1808 54.8628C86.3048 55.976 85.6196 58.716 83.1538 60.6339C80.688 62.5519 78.7052 57.5232 77.0573 56.2621C75.4095 55.0008 71.1525 54.3317 71.1525 54.3317Z" fill="#3A4B66"/>
</g>
<g id="Group_21">
<g id="Group_22">
<g id="Group_23">
<path id="Vector_9" d="M76.6936 57.9087C76.6936 57.9087 71.6413 58.3126 65.1981 56.7258C65.1981 56.7258 63.7983 60.501 66.0131 62.1627C68.2274 63.8243 73.6607 62.237 76.6936 57.9087Z" fill="white"/>
</g>
</g>
</g>
<g id="Group_24">
<g id="Group_25">
<g id="Group_26">
<path id="Vector_10" d="M91.7707 51.9422C92.0128 51.0929 90.2113 48.1071 88.3406 48.8271C88.3406 48.8271 88.0982 50.757 87.7324 52.6116L90.6134 54.6779C91.2321 53.4174 91.6777 52.2692 91.7707 51.9422Z" fill="#3A4B66"/>
</g>
</g>
</g>
<g id="Group_27">
<g id="Group_28">
<g id="Group_29">
<path id="Vector_11" d="M87.7322 52.6121C87.5332 53.6211 87.2979 54.6077 87.0446 55.2493C86.3258 57.07 85.1759 58.2201 87.0446 58.6991C88.1937 58.9939 89.8341 55.9957 90.8223 53.9818L87.7322 52.6121Z" fill="#3A4B66"/>
</g>
</g>
</g>
<g id="Group_30">
<g id="Group_31">
<g id="Group_32">
<g id="Group_33">
<g id="Group_34">
<g id="Group_35">
<path id="Vector_12" d="M74.4835 50.2078C74.3975 50.2015 74.3128 50.1678 74.2421 50.1056C72.5573 48.6177 70.7633 49.7866 70.6875 49.8368C70.4948 49.966 70.237 49.911 70.1105 49.7154C69.9844 49.5192 70.0373 49.256 70.2288 49.126C71.0468 48.5716 73.0527 47.9261 74.789 49.4598C74.9628 49.6132 74.9815 49.8824 74.8309 50.0611C74.7411 50.1673 74.611 50.2171 74.4835 50.2078Z" fill="#3A4B66"/>
</g>
</g>
</g>
</g>
</g>
<g id="Group_36">
<g id="Group_37">
<g id="Group_38">
<g id="Group_39">
<path id="Vector_13" d="M85.2879 50.398C85.1078 47.5839 83.0656 45.3827 80.1977 45.0926C78.6959 44.9429 77.29 45.3733 76.221 46.3067C75.6712 46.7886 75.2315 47.3781 74.904 48.0611C74.7309 48.4214 74.5928 48.805 74.4852 49.2144C74.408 49.5138 74.3472 49.8273 74.3075 50.1501C74.2981 50.2226 74.2887 50.2951 74.2817 50.3676C74.111 52.0542 74.511 53.6987 75.4092 55.0017C75.559 55.2192 75.7204 55.4227 75.8958 55.6122C76.4221 56.197 77.042 56.6438 77.7274 56.9316V56.9339H77.7298C78.1742 57.121 78.6421 57.2427 79.131 57.2918C79.2947 57.3082 79.4561 57.3175 79.6152 57.3175C82.441 57.3175 84.9206 54.8169 85.2668 51.5022C85.2668 51.4928 85.2692 51.4858 85.2692 51.4764C85.3066 51.1092 85.3113 50.7489 85.2879 50.398ZM84.2188 51.3712C83.9241 54.3046 81.6901 56.4894 79.2386 56.2415C78.0666 56.1245 77.0163 55.4695 76.2794 54.4005C75.6361 53.4718 75.2993 52.3303 75.2993 51.1279C75.2993 50.9103 75.311 50.6928 75.332 50.4729C75.4747 49.0483 76.0221 47.8833 76.9157 47.102C77.6502 46.4587 78.5976 46.1172 79.6199 46.1172C79.7743 46.1172 79.9334 46.1266 80.0924 46.1429C82.3826 46.3722 84.5346 48.2436 84.2188 51.3712Z" fill="#3A4B66"/>
</g>
</g>
</g>
</g>
<g id="Group_40">
<g id="Group_41">
<g id="Group_42">
<g id="Group_43">
<path id="Vector_14" d="M68.9919 43.729C68.3721 43.1582 67.6025 42.7979 66.7207 42.7091C65.5161 42.5898 64.3583 43.0108 63.4508 43.9021C63.418 43.9302 63.3853 43.9629 63.3549 43.9956C62.8847 44.4822 62.5058 45.0717 62.2228 45.7501C61.9374 46.4261 61.7503 47.1911 61.6661 48.0239C61.4977 49.6894 61.7807 51.3058 62.466 52.5784C62.7935 53.1889 63.1958 53.6872 63.6543 54.0591C63.7829 54.169 63.9186 54.2649 64.0566 54.3492C64.4986 54.6252 64.9828 54.796 65.4951 54.8474C65.6027 54.8568 65.7103 54.8615 65.8155 54.8615C66.7979 54.8615 67.7405 54.4077 68.5288 53.631C68.6738 53.4907 68.8165 53.3363 68.9498 53.1702C69.31 52.7304 69.6281 52.2158 69.8854 51.645C69.9813 51.4392 70.0679 51.2263 70.1474 51.0064V51.0041C70.2714 50.6532 70.3766 50.2882 70.4561 49.9069C70.524 49.5888 70.5754 49.2613 70.6105 48.9268C70.6105 48.9198 70.6129 48.9128 70.6129 48.9058C70.828 46.7092 70.1918 44.8284 68.9919 43.729ZM67.1207 53.4299C66.6435 53.7176 66.1243 53.8509 65.6003 53.7971C65.315 53.769 65.039 53.6825 64.777 53.5445C64.6717 53.493 64.5712 53.4298 64.4729 53.3597C64.0589 53.0649 63.6917 52.6322 63.3946 52.0778C62.9222 51.1982 62.6742 50.1151 62.6742 48.9619C62.6742 48.6882 62.6882 48.4122 62.7163 48.1314C62.8567 46.7302 63.3268 45.57 64.0706 44.7746C64.0847 44.7583 64.0987 44.7442 64.1127 44.7302C64.7326 44.0892 65.5068 43.7454 66.3208 43.7454C66.4167 43.7454 66.5149 43.75 66.6131 43.7594C67.3429 43.8343 67.9674 44.1524 68.4539 44.6647C69.31 45.5606 69.7404 47.0507 69.5603 48.8215C69.5112 49.3104 69.42 49.7806 69.2936 50.2228C68.875 51.6918 68.0727 52.8591 67.1207 53.4299Z" fill="#3A4B66"/>
</g>
</g>
</g>
</g>
</g>
<g id="Group_44">
<g id="Group_45">
<g id="Group_46">
<path id="Vector_15" d="M84.7529 50.2996L92.1405 51.6457L91.9096 52.5457L84.7529 51.4225V50.2996Z" fill="#3A4B66"/>
</g>
</g>
</g>
<g id="Group_47">
<g id="Group_48">
<g id="Group_49">
<path id="Vector_16" d="M97.3507 98.4238L75.6626 102.733L72.1558 95.1475L66.27 102.118V112.401L74.2424 107.483L82.1278 115.399L99.1002 106.164L97.3507 98.4238Z" fill="white"/>
</g>
</g>
</g>
<g id="Group_50">
<g id="Group_51">
<g id="Group_52">
<path id="Vector_17" d="M79.8982 42.6667C79.1946 42.7402 78.7988 43.0919 78.7988 43.0919C78.7988 43.0919 82.9833 45.5105 83.5515 45.7743C84.1196 46.0381 84.3945 44.675 84.3945 44.675C84.3945 44.675 80.6017 42.593 79.8982 42.6667Z" fill="#3A4B66"/>
</g>
</g>
</g>
<g id="Group_53">
<g id="Group_54">
<g id="Group_55">
<path id="Vector_18" d="M69.0133 41.8529C69.0133 41.8529 72.1745 41.4832 72.6482 41.8333C73.1218 42.1837 73.312 42.6634 73.312 42.6634C73.312 42.6634 69.7946 43.1825 69.3329 43.1941C68.8711 43.2058 69.0133 41.8529 69.0133 41.8529Z" fill="#3A4B66"/>
</g>
</g>
</g>
<g id="Group_56">
<g id="Group_57">
<g id="Group_58">
<g id="Group_59">
<path id="Vector_19" d="M71.5352 53.4558C71.0166 53.3824 70.6836 53.0383 70.7058 52.5036C70.7547 51.3358 68.9396 51.3727 68.8907 52.5366C68.8379 53.803 69.8172 55.0352 71.0847 55.2143C71.5691 55.2831 72.0587 55.0721 72.1894 54.5603C72.3003 54.1262 72.0236 53.5244 71.5352 53.4558Z" fill="#C66C67"/>
</g>
</g>
</g>
<g id="Group_60">
<g id="Group_61">
<g id="Group_62">
<path id="Vector_20" d="M77.312 49.8721C77.0185 49.6635 76.4845 49.6974 76.2927 50.0447C76.0585 50.4681 75.9067 50.8992 75.9067 51.3887C75.9067 51.7833 76.1512 52.1442 76.5699 52.1817C76.9364 52.2144 77.3628 51.9155 77.3628 51.5185C77.3628 51.3008 77.6591 50.1191 77.312 49.8721Z" fill="#3A4B66"/>
</g>
</g>
</g>
<g id="Group_63">
<g id="Group_64">
<g id="Group_65">
<path id="Vector_21" d="M66.9426 48.6555L66.8682 49.4898C66.7847 50.4268 68.2405 50.558 68.3242 49.6194L68.3986 48.785C68.4821 47.8483 67.0263 47.7171 66.9426 48.6555Z" fill="#3A4B66"/>
</g>
</g>
</g>
</g>
<g id="Group_66">
<path id="Vector_22" d="M83.1535 71.6035C80.1394 72.5722 70.4126 73.9229 66.1367 71.8678C63.45 70.5766 61.3662 68.1772 60.1877 66.5715C60.064 68.0485 60.0373 69.3777 60.1374 70.3606C60.5484 74.4022 63.6161 78.4437 67.802 78.9232C71.9878 79.4028 79.5841 79.0418 83.7014 76.5943C85.6659 75.4265 87.0463 71.9563 88.0023 68.1578C86.6851 69.4687 84.8298 71.0648 83.1535 71.6035Z" fill="#2A3749"/>
</g>
</g>
</g>
</g>
</g>
<defs>
<clipPath id="clip0_0_1">
<rect width="375" height="812" fill="white" transform="translate(-198 -417)"/>
</clipPath>
</defs>
</svg>
