<svg width="20" height="21" viewBox="0 0 20 21" fill="none" xmlns="http://www.w3.org/2000/svg">
<path d="M11.5673 2.27246C8.75978 3.3253 7.13558 6.26434 7.73811 9.20163L7.91066 10.0428L4.71109 8.6716L4.35328 9.43826C3.88646 10.4386 3.64453 11.529 3.64453 12.6329C3.64458 15.9988 6.37312 18.7274 9.73898 18.7274" stroke="#783D16" stroke-width="1.66667" stroke-miterlimit="10" stroke-linecap="round" stroke-linejoin="round"/>
<path d="M11.5683 2.27246V2.33371C11.5683 5.02601 12.6378 7.60806 14.5416 9.51181C15.3694 10.3396 15.8344 11.4623 15.8344 12.6329C15.8344 15.9988 13.1058 18.7274 9.73999 18.7274" stroke="#783D16" stroke-width="1.66667" stroke-miterlimit="10" stroke-linecap="round" stroke-linejoin="round"/>
<path d="M9.73948 12.7852C9.73948 12.7852 7.68262 15.5344 7.68262 16.6703C7.68262 17.8063 8.6035 18.7272 9.73948 18.7272C10.8755 18.7272 11.7963 17.8063 11.7963 16.6703C11.7963 15.5344 9.73948 12.7852 9.73948 12.7852Z" stroke="#783D16" stroke-width="1.66667" stroke-miterlimit="10" stroke-linecap="round" stroke-linejoin="round"/>
</svg>
