<svg width="14" height="14" viewBox="0 0 14 14" fill="none" xmlns="http://www.w3.org/2000/svg">
<path fill-rule="evenodd" clip-rule="evenodd" d="M7.00041 9.66634C5.52765 9.66634 4.33374 8.47243 4.33374 6.99967C4.33374 5.52692 5.52765 4.33301 7.00041 4.33301C8.47316 4.33301 9.66707 5.52692 9.66707 6.99967C9.66707 8.47243 8.47316 9.66634 7.00041 9.66634ZM7.00041 8.67409C6.07566 8.67409 5.32599 7.92443 5.32599 6.99967C5.32599 6.07492 6.07566 5.32526 7.00041 5.32526C7.92516 5.32526 8.67483 6.07492 8.67483 6.99967C8.67483 7.92443 7.92516 8.67409 7.00041 8.67409Z" fill="white"/>
<path fill-rule="evenodd" clip-rule="evenodd" d="M7.00041 0.333008C7.29351 0.333008 7.53109 0.570601 7.53109 0.863688V1.18908C10.316 1.45599 12.5296 3.67958 12.7809 6.46899H13.1364C13.4295 6.46899 13.6671 6.70659 13.6671 6.99967C13.6671 7.29276 13.4295 7.53035 13.1364 7.53035H12.7809C12.5296 10.3198 10.316 12.5434 7.53109 12.8103V13.1357C7.53109 13.4287 7.29351 13.6663 7.00041 13.6663C6.70733 13.6663 6.46973 13.4287 6.46973 13.1357V12.8162C3.65371 12.5786 1.40692 10.3419 1.15356 7.53035H0.86442C0.571335 7.53035 0.33374 7.29276 0.33374 6.99967C0.33374 6.70659 0.571335 6.46899 0.86442 6.46899H1.15356C1.40692 3.65748 3.65371 1.42077 6.46973 1.1831V0.863688C6.46973 0.570601 6.70733 0.333008 7.00041 0.333008ZM6.46973 2.52206V2.24916C4.24034 2.4799 2.46621 4.24416 2.22027 6.46899H2.52279C2.81589 6.46899 3.05347 6.70659 3.05347 6.99967C3.05347 7.29276 2.81589 7.53035 2.52279 7.53035H2.22027C2.46621 9.75519 4.24034 11.5194 6.46973 11.7502V11.4773C6.46973 11.1842 6.70733 10.9466 7.00041 10.9466C7.29351 10.9466 7.53109 11.1842 7.53109 11.4773V11.7429C9.72926 11.4843 11.4707 9.73307 11.7142 7.53035H11.478C11.1849 7.53035 10.9473 7.29276 10.9473 6.99967C10.9473 6.70659 11.1849 6.46899 11.478 6.46899H11.7142C11.4707 4.26627 9.72926 2.51502 7.53109 2.25648V2.52206C7.53109 2.81514 7.29351 3.05274 7.00041 3.05274C6.70733 3.05274 6.46973 2.81514 6.46973 2.52206Z" fill="white"/>
</svg>
