<svg width="217" height="205" viewBox="0 0 217 205" fill="none" xmlns="http://www.w3.org/2000/svg">
<path opacity="0.3" d="M198.317 193.85C198.317 199.489 162.526 204.061 118.369 204.061C74.2119 204.061 38.4189 199.489 38.4189 193.85C38.4189 188.207 74.2119 183.632 118.369 183.632C162.527 183.632 198.317 188.207 198.317 193.85Z" fill="#231F20"/>
<path d="M45.3876 103.495C43.6536 104.627 41.9466 105.821 40.2946 107.079C33.2086 112.476 27.9516 122.18 26.8356 130.635C26.0046 136.93 27.8496 146.407 32.7896 149.971C35.0626 151.611 38.0006 152.385 40.6386 151.531C43.2766 150.677 45.4345 147.985 45.3475 145.063C45.2815 142.866 44.2775 140.848 43.8176 138.701C42.2816 131.526 44.5056 127.091 47.7456 124.31C53.6096 119.279 66.7786 118.226 73.6156 114.765C78.6016 112.241 79.7176 110.837 76.7606 103.009C73.2556 93.7331 59.6695 96.7571 52.9375 99.4521C50.2935 100.513 47.7986 101.921 45.3876 103.495Z" fill="#DBA77D"/>
<path d="M37.8307 136.68C33.4767 137.788 28.9937 144.914 33.0457 149.212C37.1947 153.613 39.6697 158.837 44.0257 157.731C48.3737 156.624 50.5197 151.015 48.8097 145.203C47.0997 139.39 42.1857 135.573 37.8307 136.68Z" fill="#DBA77D"/>
<path d="M144.861 105.941C132.476 100.209 121.416 101.882 118.424 119.02C116.127 132.179 122.84 140.445 133.819 143.82C140.105 145.748 146.89 147.093 151.959 149.816C154.371 151.112 169.071 165.197 169.273 168.348C169.684 174.748 177.806 178.532 180.363 170.865C181.866 166.354 180.873 159.668 179.293 155.701C174.735 144.25 164.92 134.393 159.471 123.82C155.199 115.526 153.255 109.829 144.861 105.941Z" fill="#DBA77D"/>
<path d="M186.207 93.239C184.512 93.718 182.853 94.2 181.237 94.909C179.366 95.728 177.716 96.328 175.62 96.661C168.343 97.814 154.67 98.33 156.651 90.157C156.669 90.085 156.688 90.011 156.706 89.938C158.199 84.352 166.005 83.162 172.201 82.859C175.92 82.676 179.615 82.763 183.322 82.716C188.044 82.655 192.911 81.854 197.448 80.524C199.678 79.87 213.708 73.259 215.269 72.488C218.746 70.775 212.399 78.388 212.019 78.741C205.008 85.256 202.821 86.005 200.603 87.398C196.162 90.183 191.527 91.731 186.207 93.239Z" fill="#FFDDBB"/>
<path d="M170.539 84.392C166.315 81.114 157.304 80.097 152.202 80.562C149.29 80.826 146.301 81.658 143.225 81.786C137.846 82.009 132.587 81.588 127.393 80.252C122.644 79.031 117.963 77.371 113.79 74.95C113.708 74.825 113.627 74.701 113.543 74.577C111.781 71.973 109.51 69.572 107.904 67.587C107.507 67.097 107.13 66.61 106.754 66.124C94.3425 90.734 67.5255 87.487 57.7695 85.358C57.9375 86.81 57.9825 88.239 57.9855 89.661C57.9935 92.994 58.5586 97.341 59.1776 100.78C58.1426 112.009 62.4335 123.172 72.9945 131.061C86.4255 141.095 103.196 138.105 118.242 135.057C124.726 133.744 126.316 131.317 132.986 131.524C139.187 131.716 149.906 135.582 156.113 135.233C167.115 134.613 175.478 127.833 179.988 116.636C183.946 106.807 178.369 90.466 170.539 84.392Z" fill="#FFDDBB"/>
<path d="M155.084 123.567C150.835 119.257 142.41 118.642 136.785 118.908C128.373 119.306 120.409 124.34 111.87 122.95C103.436 121.578 95.0365 118.423 87.2285 114.994C83.3575 113.295 80.4615 112.372 76.0565 112.206C71.6905 112.042 69.1165 114.509 65.3405 114.708C63.4785 114.806 61.7965 113.942 60.4375 113.633C62.4215 120.177 66.5325 126.232 72.9945 131.059C86.4255 141.093 103.196 138.103 118.242 135.055C124.726 133.742 126.316 131.315 132.986 131.522C139.187 131.714 149.906 135.58 156.113 135.231C156.62 135.202 157.121 135.157 157.616 135.102C158.817 131.109 158.397 126.928 155.084 123.567Z" fill="#EFC095"/>
<path d="M170.783 101.085C156.188 94.2729 142.945 95.4199 138.845 113.491C135.699 127.367 143.449 136.55 156.44 140.773C163.878 143.186 171.93 145.006 177.891 148.195C180.728 149.713 197.825 165.549 197.969 168.914C198.261 175.751 207.831 180.244 211.119 172.229C213.052 167.513 212.074 160.34 210.312 156.027C205.229 143.576 194.818 131.975 187.656 120.954C182.06 112.343 180.675 105.705 170.783 101.085Z" fill="#FFDDBB"/>
<path d="M68.7852 113.573C67.0422 114.843 65.3332 116.171 63.6862 117.561C56.6252 123.517 51.8511 133.619 51.3571 142.138C50.9891 148.48 53.7122 157.777 59.2302 160.927C61.7692 162.377 64.9411 162.909 67.6631 161.843C70.3861 160.777 72.4511 157.918 72.1211 155.013C71.8731 152.828 62.7722 142.226 74.2722 134.907C81.0091 130.619 92.6212 126.518 99.5752 122.512C104.647 119.59 105.714 118.1 101.948 110.538C97.4851 101.577 83.3531 105.698 76.4471 108.933C73.7341 110.201 71.2082 111.808 68.7852 113.573Z" fill="#FFDDBB"/>
<path d="M63.4833 147.266C58.9653 148.725 54.8003 156.193 59.4383 160.148C64.1863 164.197 67.2303 169.203 71.7513 167.746C76.2633 166.288 78.0773 160.523 75.7963 154.868C73.5133 149.212 68.0023 145.808 63.4833 147.266Z" fill="#FFDDBB"/>
<path d="M76.3878 21.0388C72.6488 21.2308 68.9118 21.4788 65.1598 21.6018C60.0708 21.7668 55.9718 22.4758 51.2978 24.3688C45.5718 26.6888 35.1228 34.3478 32.3128 23.9808C30.7408 18.1858 41.9578 11.2658 46.7398 9.08779C50.2648 7.48279 54.5018 7.62479 57.9848 6.08579C62.5908 4.04779 65.7028 0.305787 70.7948 0.0637873C78.8168 -0.318213 82.8148 6.71678 89.2308 9.61478C90.8808 10.3608 94.3528 10.4828 95.1738 12.6308C98.4328 21.1388 80.8078 20.8118 76.3878 21.0388Z" fill="#CE945F"/>
<path d="M109.007 64.0849C106.875 61.5929 105.861 60.8719 105.861 60.8719C105.861 60.8749 105.863 60.8829 105.86 60.8809C97.5134 55.6689 58.6884 71.0559 55.8214 83.0569C54.8494 87.1399 56.8374 89.9549 59.0694 91.1719C60.8924 91.9219 102.191 102.351 110.965 70.6529C110.965 70.6529 111.881 67.4459 109.007 64.0849Z" fill="#EF4136"/>
<path d="M105.861 60.8808C104.761 57.6248 101.926 54.6228 101.434 50.6108C100.713 44.7378 100.558 39.1308 98.2696 33.6308C94.7566 25.1808 91.0587 20.9878 83.7577 17.5228C74.2727 13.0208 63.7426 12.4668 53.3216 15.2578C43.2876 17.9448 36.8006 23.5958 32.9206 33.4688C29.9006 41.1528 28.1996 44.3228 19.9647 46.4918C17.1397 47.2358 14.1787 46.8108 11.3397 47.4188C9.02165 47.9158 4.21067 49.3178 3.36367 51.6168C2.59067 53.7128 1.70465 69.0058 9.93865 76.7088C13.5677 80.1038 18.6787 81.4708 23.6487 81.4578C28.6187 81.4448 33.5307 80.3908 38.4957 80.1768C42.6587 79.9978 52.4807 80.9998 55.8237 83.0558C76.3777 88.0168 105.137 80.1488 105.861 60.8808Z" fill="#FFDDBB"/>
<path d="M103.164 48.5383C100.157 46.0453 97.0993 43.6053 94.1463 41.0393C90.1433 37.5573 86.3813 35.2893 81.0833 33.7173C74.5903 31.7893 59.5522 31.4713 67.0802 19.7863C71.2882 13.2543 86.2183 14.8123 91.8633 16.1973C96.0253 17.2183 99.0992 20.3793 103.167 21.4313C108.549 22.8213 114.389 21.5523 118.467 24.9663C124.891 30.3413 121.365 39.7653 123.519 47.0563C124.072 48.9303 126.588 51.5263 125.209 54.1183C119.748 64.3863 106.719 51.4863 103.164 48.5383Z" fill="#E5B27F"/>
<path d="M19.6937 53.7145C17.3387 62.6185 0.290692 62.7475 0.820692 55.1165C1.29969 48.2355 6.12867 47.4475 9.52467 47.6565C13.7567 47.9165 21.2947 47.6705 19.6937 53.7145Z" fill="#0B0808"/>
<path d="M6.97286 52.7161C5.16186 53.2801 3.45788 52.9781 3.16588 52.0401C2.87388 51.1031 4.10588 49.8861 5.91588 49.3221C7.72688 48.7581 9.43086 49.0601 9.72286 49.9971C10.0149 50.9351 8.78385 52.1521 6.97286 52.7161Z" fill="white"/>
<path d="M11.4753 70.7438C11.5063 70.1268 12.2973 70.0748 12.2923 69.7308C12.3233 69.7498 12.3563 69.7668 12.3893 69.7868C12.4203 69.7688 12.4513 69.7508 12.4833 69.7348L12.4843 69.8438C14.5923 71.1138 16.5593 71.8398 19.0913 71.3478C20.8413 71.0068 24.2603 69.1378 25.2203 67.3528C25.5583 66.7228 26.3133 66.5298 26.9043 66.9178C27.4963 67.3078 27.7013 68.1328 27.3633 68.7618C25.8793 71.5238 21.5943 73.5998 19.6113 73.9848C18.8423 74.1348 18.1163 74.1958 17.4263 74.1848C15.2693 74.1488 13.2783 73.8798 11.9133 72.1738C11.6953 71.9018 11.5243 71.2308 11.4823 70.8848C11.4753 70.8348 11.4733 70.7878 11.4753 70.7438Z" fill="black"/>
<path d="M12.8505 72.7208C13.2275 72.7718 13.6185 72.6658 13.9275 72.3908C14.5215 71.8618 14.7085 71.5708 14.1965 70.9208C14.1415 70.8488 11.5075 66.8408 10.3175 59.4948C10.1815 58.6638 9.44154 58.0838 8.66554 58.2018C7.88654 58.3198 7.36653 59.0918 7.50053 59.9218C8.84853 68.2388 11.7865 72.0168 11.9115 72.1748C12.1615 72.4868 12.5015 72.6728 12.8505 72.7208Z" fill="black"/>
<path d="M61.4612 41.6826C60.7492 46.1526 57.9092 49.4176 55.1172 48.9726C52.3272 48.5286 50.6422 44.5436 51.3532 40.0736C52.0652 35.6016 54.9052 32.3386 57.6952 32.7826C60.4872 33.2266 62.1722 37.2116 61.4612 41.6826Z" fill="#0B0808"/>
<path d="M56.6003 39.0119C55.7643 40.6509 54.3333 41.5949 53.4033 41.1209C52.4743 40.6469 52.3993 38.9339 53.2353 37.2949C54.0713 35.6559 55.5023 34.7109 56.4313 35.1849C57.3613 35.6599 57.4363 37.3729 56.6003 39.0119Z" fill="white"/>
<path d="M38.6793 38.2059C37.7783 41.5799 35.7723 43.9739 34.1983 43.5529C32.6243 43.1329 32.0783 40.0569 32.9793 36.6829C33.8813 33.3089 35.8863 30.9149 37.4603 31.3349C39.0353 31.7549 39.5803 34.8319 38.6793 38.2059Z" fill="#0B0808"/>
<path d="M36.5058 35.6456C35.8688 36.8936 34.8688 37.6596 34.2718 37.3546C33.6748 37.0506 33.7078 35.7916 34.3448 34.5426C34.9818 33.2936 35.9818 32.5286 36.5788 32.8336C37.1748 33.1386 37.1428 34.3976 36.5058 35.6456Z" fill="white"/>
</svg>
