<svg width="188" height="259" viewBox="0 0 188 259" fill="none" xmlns="http://www.w3.org/2000/svg">
<path d="M154.993 121.9C152.547 116.929 150.011 111.992 147.664 106.959C144.483 100.129 141.019 94.9918 135.369 89.8203C128.447 83.4827 110.448 74.0892 125.073 63.7045C133.248 57.8983 150.532 68.8093 156.689 73.9468C161.227 77.7352 163.438 83.6002 167.851 87.373C173.688 92.3603 181.337 94.2356 184.641 101.02C189.847 111.709 181.123 121.604 180.268 132.181C180.046 134.901 181.85 139.709 178.958 142.187C167.497 152.006 157.888 127.782 154.993 121.9Z" fill="#D0B096"/>
<path d="M31.295 121.9C33.741 116.929 36.2771 111.992 38.6239 106.959C41.8051 100.129 45.2684 94.9918 50.9191 89.8203C57.8418 83.4827 75.8414 74.0892 61.215 63.7045C53.0387 57.8983 35.756 68.8093 29.5986 73.9468C25.0605 77.7352 22.8496 83.6002 18.4369 87.373C12.5994 92.3603 4.9506 94.2356 1.64661 101.02C-3.5588 111.709 5.16477 121.604 6.02015 132.181C6.24216 134.901 4.43866 139.709 7.32998 142.187C18.7908 152.006 28.3998 127.782 31.295 121.9Z" fill="#D0B096"/>
<path d="M149.617 185.647C147.403 186.387 145.234 187.13 143.139 188.234C140.717 189.51 138.57 190.441 135.808 190.942C126.219 192.679 108.071 193.324 110.054 180.381C110.072 180.265 110.092 180.149 110.11 180.033C111.648 171.186 121.939 169.398 130.156 168.996C135.088 168.753 140.01 168.939 144.938 168.91C151.213 168.871 157.625 167.664 163.554 165.61C166.467 164.602 184.6 154.289 186.618 153.086C191.105 150.413 183.27 162.412 182.794 162.968C173.987 173.217 171.137 174.379 168.298 176.559C162.619 180.923 156.575 183.321 149.617 185.647Z" fill="#D9C5B2"/>
<path opacity="0.3" d="M180.685 238.775C180.685 249.423 142.275 258.053 94.8934 258.053C47.4989 258.053 9.09033 249.423 9.09033 238.775C9.09033 228.124 47.4989 219.494 94.8934 219.494C142.274 219.494 180.685 228.124 180.685 238.775Z" fill="#231F20"/>
<path d="M150.523 218.093C157.938 211.028 168.64 198.012 168.511 185.901C168.511 185.901 168.511 185.901 168.512 185.9C168.512 185.884 168.509 185.867 168.509 185.849C168.503 185.384 168.481 184.92 168.441 184.458C168.436 184.398 168.431 184.339 168.426 184.279C168.387 183.864 168.333 183.449 168.265 183.035C168.249 182.937 168.236 182.837 168.217 182.739C168.149 182.363 168.068 181.99 167.976 181.616C167.946 181.499 167.924 181.381 167.892 181.264C167.764 180.792 167.623 180.323 167.454 179.857C167.28 179.379 167.1 178.912 166.917 178.456C166.851 178.293 166.784 178.137 166.715 177.979C166.595 177.688 166.473 177.4 166.348 177.119C166.266 176.937 166.183 176.761 166.101 176.585C165.985 176.337 165.869 176.088 165.749 175.846C165.66 175.661 165.566 175.485 165.474 175.306C165.357 175.082 165.241 174.857 165.122 174.64C165.024 174.461 164.926 174.285 164.825 174.111C164.705 173.902 164.585 173.696 164.465 173.494C164.362 173.324 164.259 173.154 164.155 172.988C164.03 172.79 163.903 172.596 163.777 172.406C163.67 172.246 163.566 172.087 163.457 171.932C163.325 171.741 163.19 171.556 163.054 171.37C162.949 171.228 162.844 171.081 162.737 170.94C162.591 170.75 162.441 170.566 162.292 170.382C162.191 170.257 162.092 170.131 161.991 170.009C161.793 169.774 161.592 169.548 161.388 169.325C161.311 169.241 161.237 169.158 161.16 169.076C160.922 168.824 160.686 168.579 160.44 168.343C160.342 168.248 160.239 168.157 160.141 168.063C159.97 167.903 159.797 167.744 159.622 167.588C159.509 167.49 159.393 167.395 159.276 167.3C159.112 167.161 158.947 167.024 158.782 166.892C158.66 166.798 158.54 166.708 158.418 166.617C158.251 166.491 158.083 166.367 157.913 166.25C157.792 166.163 157.67 166.081 157.547 165.999C157.372 165.883 157.197 165.77 157.021 165.659C156.898 165.584 156.778 165.509 156.655 165.437C156.471 165.328 156.287 165.224 156.1 165.121C155.984 165.057 155.867 164.992 155.749 164.931C155.547 164.825 155.344 164.727 155.141 164.63C155.036 164.579 154.932 164.527 154.826 164.48C154.587 164.372 154.347 164.27 154.102 164.171C154.031 164.141 153.959 164.109 153.886 164.08C153.237 163.826 152.574 163.605 151.903 163.421C151.878 163.414 151.852 163.409 151.827 163.403C151.521 163.319 151.212 163.243 150.903 163.175C150.835 163.16 150.763 163.147 150.695 163.131C150.426 163.075 150.153 163.024 149.88 162.977C149.799 162.963 149.717 162.949 149.636 162.938C149.371 162.896 149.105 162.858 148.84 162.827C148.755 162.816 148.672 162.808 148.589 162.798C148.317 162.768 148.046 162.743 147.771 162.725C147.696 162.718 147.618 162.713 147.54 162.708C147.253 162.691 146.964 162.679 146.676 162.671C146.612 162.669 146.548 162.666 146.484 162.666C146.164 162.658 145.841 162.661 145.519 162.666C145.487 162.667 145.456 162.667 145.425 162.669C143.582 162.713 141.697 162.955 139.792 163.375C139.787 163.377 139.782 163.378 139.776 163.379C139.404 163.461 139.032 163.55 138.66 163.644C138.64 163.651 138.619 163.655 138.6 163.661C138.238 163.753 137.874 163.852 137.511 163.959C137.499 163.963 137.488 163.965 137.477 163.968C127.569 166.852 117.281 174.201 109.351 183.042C101.062 192.286 99.1478 208.936 104.526 218.684C110.103 228.778 121.026 233.098 130.346 236.502C138.721 239.555 150.793 245.753 159.901 237.704C163.582 234.454 164.259 228.018 161.901 224.013C159.215 219.435 154.228 220.465 150.523 218.093Z" fill="#D9C5B2"/>
<path d="M75.5163 183.047C67.5867 174.206 57.2986 166.858 47.3906 163.974V163.973C47.3762 163.97 47.3631 163.965 47.3475 163.963C46.9896 163.858 46.6345 163.76 46.2766 163.67C46.2492 163.662 46.2244 163.657 46.1996 163.649C45.8326 163.556 45.4682 163.468 45.1026 163.388C45.0921 163.384 45.0804 163.381 45.0686 163.379C43.1633 162.96 41.2828 162.717 39.4427 162.674C39.4114 162.672 39.3787 162.672 39.3474 162.671C39.0235 162.666 38.7023 162.663 38.3823 162.671C38.3183 162.671 38.2569 162.674 38.1942 162.676C37.9017 162.684 37.6131 162.696 37.3245 162.713C37.2501 162.718 37.1743 162.723 37.0986 162.728C36.8217 162.748 36.5449 162.774 36.2719 162.803C36.1923 162.813 36.1126 162.82 36.0343 162.83C35.7613 162.862 35.491 162.901 35.222 162.943C35.1449 162.956 35.0679 162.967 34.9908 162.979C34.71 163.029 34.4306 163.082 34.1537 163.141C34.0923 163.153 34.0297 163.165 33.9696 163.178C33.6444 163.249 33.3205 163.329 32.9993 163.417C32.9888 163.421 32.9784 163.423 32.9693 163.426C32.2928 163.61 31.6255 163.832 30.9712 164.091C30.915 164.111 30.8615 164.136 30.808 164.158C30.5455 164.264 30.2869 164.375 30.0296 164.491C29.9369 164.535 29.8468 164.579 29.7554 164.622C29.5373 164.727 29.3192 164.834 29.1037 164.946C28.9979 165.001 28.8934 165.058 28.7877 165.117C28.5879 165.224 28.3907 165.338 28.1935 165.454C28.0825 165.521 27.9728 165.587 27.8631 165.656C27.6737 165.774 27.4857 165.897 27.2989 166.021C27.1892 166.094 27.0769 166.17 26.9659 166.247C26.7831 166.375 26.6016 166.506 26.4214 166.644C26.313 166.725 26.2032 166.806 26.0975 166.889C25.9133 167.033 25.7318 167.184 25.5516 167.336C25.451 167.419 25.3505 167.499 25.2538 167.587C25.054 167.759 24.8595 167.94 24.6662 168.123C24.5891 168.195 24.5095 168.266 24.4324 168.34C24.1608 168.602 23.8944 168.873 23.6306 169.156C23.6254 169.161 23.6201 169.168 23.6149 169.173C23.3589 169.447 23.1095 169.731 22.8627 170.026C22.7791 170.125 22.6982 170.228 22.6159 170.33C22.4487 170.535 22.2803 170.743 22.117 170.957C22.0217 171.084 21.929 171.214 21.8336 171.342C21.6874 171.542 21.5411 171.742 21.3974 171.951C21.2969 172.095 21.199 172.242 21.101 172.388C20.9665 172.592 20.832 172.797 20.7001 173.007C20.6034 173.161 20.5055 173.321 20.4102 173.481C20.2822 173.694 20.1542 173.911 20.0301 174.13C19.9361 174.296 19.8421 174.462 19.7494 174.632C19.6266 174.859 19.5052 175.092 19.3824 175.328C19.2962 175.498 19.2074 175.668 19.1225 175.841C18.9971 176.092 18.877 176.349 18.7569 176.608C18.6785 176.776 18.5989 176.943 18.5218 177.117C18.3925 177.407 18.2659 177.706 18.1405 178.006C18.0778 178.157 18.0138 178.303 17.9524 178.456C17.7683 178.914 17.5881 179.38 17.4144 179.861C17.2459 180.327 17.101 180.8 16.9743 181.271C16.9443 181.384 16.9208 181.496 16.8933 181.611C16.8006 181.987 16.717 182.363 16.6504 182.742C16.6322 182.841 16.6178 182.94 16.6034 183.04C16.5342 183.453 16.4807 183.867 16.4428 184.284C16.4363 184.343 16.431 184.402 16.4271 184.46C16.3866 184.934 16.3631 185.41 16.3592 185.888C16.3592 185.893 16.3579 185.899 16.3579 185.902L16.3592 185.903C16.2286 198.015 26.9307 211.031 34.347 218.096C30.6408 220.466 25.6548 219.437 22.9711 224.019C20.6139 228.023 21.2917 234.46 24.9718 237.711C34.0806 245.759 46.1526 239.561 54.5288 236.508C63.8465 233.105 74.7719 228.785 80.3482 218.69C85.7168 208.941 83.805 192.291 75.5163 183.047Z" fill="#D9C5B2"/>
<path d="M142.865 128.014C139.527 116.117 134.783 107.633 124.202 106.421C113.977 105.25 103.311 103.251 92.9604 102.852V102.803C92.7854 102.809 92.609 102.822 92.4301 102.829C92.2551 102.822 92.0775 102.809 91.9026 102.803V102.852C81.5505 103.251 70.885 105.25 60.6583 106.421C50.083 107.633 45.3385 116.117 41.9967 128.014C39.0309 138.569 38.6287 148.968 40.3669 160.111C40.901 163.536 41.5187 167.066 42.22 170.609C43.7806 178.463 45.8204 186.387 48.7052 193.427C52.4153 202.479 55.7258 214.299 61.3792 221.489C63.3472 223.992 65.8154 225.617 68.4652 226.547C72.3281 230.422 81.604 232.03 92.4079 232.03C103.169 232.03 112.347 230.446 116.237 226.596C116.283 226.582 116.327 226.573 116.37 226.556C119.032 225.626 121.508 224.002 123.482 221.489C129.133 214.299 132.444 202.479 136.154 193.427C138.847 186.857 140.808 179.518 142.324 172.185C143.168 168.115 143.877 164.044 144.492 160.111C146.234 148.968 145.835 138.569 142.865 128.014Z" fill="#EADBCC"/>
<path d="M117.304 172.659C106.38 172.628 99.0851 179.124 86.9962 176.278C76.7369 173.863 65.7096 169.806 60.0301 179.899C53.1623 192.099 52.5433 208.771 59.1865 221.772C59.8787 222.623 60.6074 223.428 61.3818 224.164C63.3498 226.031 65.818 227.246 68.4677 227.939C72.3306 230.83 81.6066 232.032 92.4105 232.032C103.171 232.032 112.349 230.85 116.24 227.978C116.285 227.966 116.33 227.961 116.373 227.947C119.034 227.255 121.51 226.042 123.485 224.165C127.025 220.805 129.648 216.084 132.026 211.367C133.336 199.081 134.705 172.708 117.304 172.659Z" fill="#D9C5B2"/>
<path d="M52.1043 103.077C50.1311 107.127 50.0031 114.262 52.0103 118.239C53.9235 122.025 57.5657 125.344 60.9036 127.716C68.2821 132.962 77.4902 135.341 86.3404 135.801C99.3187 136.481 112.815 136.404 123.397 127.883C128.676 123.631 133.128 119.255 134.064 112.073C136.527 93.2263 119.341 88.9755 104.673 86.2488C90.8641 83.6813 69.6638 81.8399 59.2765 93.9119C57.0433 96.512 53.6349 99.9413 52.1043 103.077Z" fill="#E9AAA6"/>
<path d="M142.429 242.6C139.629 239.66 134.365 239.797 132.026 236.337C129.83 233.087 131.574 228.612 131.898 225.082C132.688 216.668 133.511 208.435 134.985 200.058C135.231 198.662 135.54 197.278 135.893 195.895C139.325 182.499 146.991 169.639 142.173 155.632C138.842 145.942 126.951 142.587 116.486 147.18C113.489 148.497 111.411 150.571 109.982 153.06C109.261 154.318 108.7 155.677 108.278 157.103C106.576 162.856 107.018 169.62 107.373 174.504C108.262 186.873 107.156 199.409 107.253 211.781C107.357 225.23 104.008 241.827 120.992 249.272C125.836 251.39 131.603 252.997 137.212 251.942C142.638 250.922 146.283 246.646 142.429 242.6Z" fill="#EADBCC"/>
<path d="M44.3628 242.6C47.1627 239.66 52.4269 239.797 54.7658 236.337C56.9624 233.087 55.2177 228.612 54.8938 225.082C54.1037 216.668 53.281 208.435 51.8066 200.058C51.5611 198.662 51.2516 197.278 50.899 195.895C47.467 182.499 39.8012 169.639 44.6188 155.632C47.9502 145.942 59.8406 142.587 70.3063 147.18C73.3034 148.497 75.3811 150.571 76.8098 153.06C77.5307 154.318 78.0922 155.677 78.514 157.103C80.2156 162.856 79.7743 169.62 79.4191 174.504C78.5297 186.873 79.6358 199.409 79.5392 211.781C79.4334 225.23 82.7844 241.827 65.7996 249.272C60.9559 251.39 55.189 252.997 49.58 251.942C44.1552 250.922 40.509 246.646 44.3628 242.6Z" fill="#EADBCC"/>
<path d="M146.442 52.2584C143.561 44.8917 138.246 39.1078 133.801 32.7988C129.59 26.8229 126.494 18.6935 121.128 13.7728C115.481 8.59481 107.9 5.56374 100.519 4.41453C97.9647 4.01753 95.3123 3.83603 92.6339 3.82167V3.81641C92.5777 3.81641 92.5203 3.81904 92.4641 3.81904C92.4067 3.81904 92.3505 3.81641 92.2931 3.81641V3.82167C89.6146 3.83603 86.9623 4.01753 84.4079 4.41453C77.0281 5.56244 69.4472 8.59481 63.7991 13.7728C58.4331 18.6935 55.3367 26.8229 51.1264 32.7988C46.681 39.1078 41.3659 44.8917 38.4851 52.2584C34.0802 63.522 35.3378 74.924 37.8673 86.2843C39.3548 92.9628 42.4538 99.017 46.8756 104.156C55.4464 114.116 68.0133 119.269 80.5959 120.757C84.4915 121.218 88.3466 120.962 92.2931 121.384V121.411C92.3492 121.406 92.4067 121.402 92.4641 121.398C92.5203 121.402 92.5777 121.406 92.6339 121.411V121.384C96.5791 120.962 100.435 121.218 104.331 120.757C116.912 119.269 129.481 114.116 138.051 104.156C142.473 99.017 145.572 92.9628 147.06 86.2843C149.589 74.9227 150.847 63.522 146.442 52.2584Z" fill="#EADBCC"/>
<path d="M112.673 31.0322C108.615 32.2859 105.034 34.9996 100.981 36.269C98.002 37.2027 94.8456 36.9925 92.2586 35.4162V35.1772C92.1933 35.2216 92.1228 35.2543 92.0562 35.2961C91.9896 35.253 91.919 35.2216 91.8537 35.1772V35.4162C89.2667 36.9925 86.1103 37.2027 83.1315 36.269C79.0792 34.9996 75.4971 32.2859 71.4395 31.0322C70.6795 39.0336 70.6364 47.1173 71.3116 55.1278C71.6955 59.6816 72.4477 64.5331 75.3325 67.8345C79.6394 72.7605 86.331 74.6645 92.0274 74.6358C97.7304 74.6057 104.453 72.7853 108.78 67.8345C111.665 64.5344 112.417 59.6816 112.799 55.1278C113.477 47.1173 113.434 39.0336 112.673 31.0322Z" fill="#A28188"/>
<path d="M91.8922 35.678C93.0114 35.678 93.9177 34.8435 93.9177 33.8184V17.5113C93.9177 16.4836 93.0114 15.6504 91.8922 15.6504C90.7717 15.6504 89.8667 16.4836 89.8667 17.5113V33.8184C89.8667 34.8435 90.7717 35.678 91.8922 35.678Z" fill="#A17D60"/>
<path d="M67.9856 25.9338C68.9416 25.2939 70.1874 25.6426 70.762 26.7161C72.3892 29.7536 78.053 33.0041 80.9352 33.6296C85.1063 34.532 88.3123 33.3619 91.7352 31.279V31.0949C91.7861 31.1249 91.8383 31.1536 91.8932 31.1863C91.9428 31.1536 91.9951 31.1249 92.0486 31.0949V31.279C95.4701 33.3619 98.6775 34.532 102.847 33.6296C105.729 33.0054 111.395 29.7536 113.022 26.7161C113.596 25.6413 114.841 25.2939 115.798 25.9338C116.758 26.575 117.07 27.9606 116.499 29.0327C113.984 33.7328 106.888 37.358 103.622 38.0658C102.355 38.3414 101.163 38.4655 100.032 38.4655C96.9158 38.4655 94.287 37.5069 91.8945 36.2454C89.4994 37.5069 86.8719 38.4655 83.756 38.4655C82.6238 38.4655 81.4288 38.3414 80.1647 38.0658C76.8986 37.358 69.8035 33.7341 67.2883 29.0327C66.7137 27.9606 67.0245 26.5737 67.9856 25.9338Z" fill="#A17D60"/>
<path d="M108.396 8.54076C111.898 24.0852 74.8454 24.5527 73.2104 12.5708C71.7373 1.76432 85.0146 0.0444396 91.4019 0.0444396C99.3536 0.0457455 106.219 -1.13092 108.396 8.54076Z" fill="#A17D60"/>
</svg>
