<svg width="182" height="166" viewBox="0 0 182 166" fill="none" xmlns="http://www.w3.org/2000/svg">
<path d="M158.566 49.0394C157.165 50.2434 155.799 51.4384 154.613 52.9054C153.24 54.6014 151.956 55.9444 150.062 57.1044C143.484 61.1284 130.124 66.5964 127.131 55.5404C127.104 55.4404 127.079 55.3414 127.054 55.2414C125.145 47.6344 132.23 43.3784 138.243 40.8124C141.851 39.2714 145.599 38.0814 149.278 36.7164C153.962 34.9754 158.344 32.2474 162.072 28.9624C163.904 27.3494 173.911 14.0294 175.006 12.5024C177.44 9.1074 175.726 20.9914 175.562 21.5734C172.514 32.3004 170.783 34.0214 169.412 36.5664C166.665 41.6594 162.97 45.2544 158.566 49.0394Z" fill="#E0A269"/>
<path opacity="0.3" d="M41.1807 130.572C41.1807 140.555 72.4857 148.645 111.108 148.645C149.734 148.645 181.04 140.555 181.04 130.572C181.04 120.583 149.735 112.488 111.108 112.488C72.4857 112.488 41.1807 120.583 41.1807 130.572Z" fill="black"/>
<path d="M130.647 50.6702C130.601 46.8092 131.145 43.9012 133.8 41.2672C139.961 35.1592 148.79 35.4592 153.135 42.9352C160.067 54.8502 156.329 68.8312 157.727 81.9882C157.779 82.4682 157.748 82.8472 157.655 83.1402C158.418 89.7942 159.492 96.2622 160.632 102.846C161.233 106.304 160.909 109.663 163.489 112.23C165.974 114.697 169.703 115.47 171.537 118.686C175.893 126.32 162.327 125.865 158.411 125.072C145.534 122.465 144.302 108.074 141.424 97.0012C138.78 86.8132 136.898 76.2452 133.721 66.2252C132.485 62.3282 130.818 56.9422 130.705 51.9022C130.705 51.9082 130.7 51.9162 130.7 51.9212C130.702 51.9202 130.647 50.6702 130.647 50.6702Z" fill="#E0A269"/>
<path d="M70.8175 112.931C73.2985 111.176 76.7775 112.326 79.0605 110.068C81.1995 107.945 80.9755 104.086 81.4935 101.242C82.6265 95.0063 83.6955 88.8754 84.4575 82.5714C84.3975 82.5014 84.3325 82.4373 84.2745 82.3663C84.3105 82.0293 84.3625 81.7003 84.3975 81.3623C85.7985 68.8213 82.0575 55.4963 88.9885 44.1373C93.3355 37.0123 102.164 36.7263 108.326 42.5463C110.98 45.0563 111.526 47.8314 111.479 51.5094C111.479 51.5094 111.423 52.7003 111.423 52.7023C111.421 52.7003 111.418 52.6993 111.416 52.6973C111.304 57.4953 109.638 62.6243 108.404 66.3363C105.229 75.8863 103.346 85.9604 100.7 95.6704C97.8255 106.226 96.5905 119.939 83.7135 122.426C80.0475 123.132 75.8645 123.252 72.3495 121.311C68.9455 119.433 67.4045 115.35 70.8175 112.931Z" fill="#E0A269"/>
<path d="M63.0602 28.8702C65.6462 19.2042 72.2552 11.6833 82.0022 10.5123C88.1102 9.78127 94.6542 9.36123 100.58 7.57123C104.105 6.50723 107.133 4.33123 110.567 3.03723C123.538 -1.85577 136.852 3.57422 145.423 13.8372C149.767 19.0382 152.936 25.2643 154.596 31.8333C155.359 34.8513 155.943 38.1982 156.173 41.2762C156.497 45.6112 155.807 50.8242 155.346 55.1072C154.864 59.6032 153.728 64.4893 151.394 68.3643C149.566 71.3993 146.69 73.7122 144.232 76.2122C143.616 76.8372 142.987 77.4492 142.348 78.0552C142.342 77.9302 142.343 77.8083 142.334 77.6823C141.841 70.3223 135.806 59.8333 128.208 58.8073C124.169 58.2633 123.092 60.8363 119.384 62.4663C112.596 65.4482 104.725 65.5443 97.7132 63.2833C90.3112 60.8953 85.2772 54.7333 76.9282 57.2883C71.7952 58.8593 69.1452 62.7842 68.1372 67.5662C65.1822 61.6382 60.2672 59.8863 59.9502 52.4943C59.6822 46.1443 61.4302 34.9682 63.0602 28.8702Z" fill="#FFDDBB"/>
<path d="M75.8332 55.6985C84.1812 53.1435 89.7222 59.7845 97.1262 62.1725C104.137 64.4335 111.618 65.4495 118.407 62.4675C122.114 60.8375 123.671 58.1545 127.74 58.3095C136.592 58.6455 142.063 70.2675 142.556 77.6265C142.564 77.7525 134.35 84.0865 130.083 85.9725C121.098 89.9495 106.741 91.8025 97.1962 88.4815C87.2692 85.0265 72.4702 80.2825 67.6902 68.7275C67.5222 68.3215 67.3442 67.9385 67.1602 67.5685C68.1682 62.7855 70.6992 57.2695 75.8332 55.6985Z" fill="#E0A269"/>
<path d="M48.7862 128.661C51.5302 126.386 55.7812 127.265 58.2342 124.447C60.5392 121.803 59.8402 117.483 60.1422 114.222C60.8512 106.449 61.5042 98.8383 61.6482 91.0023C61.6732 89.6983 61.6442 88.3913 61.5812 87.0823C60.9432 74.3993 56.7822 61.5963 62.9372 49.5363C67.1962 41.1903 77.3862 39.8383 85.1442 45.5153C87.3672 47.1433 88.7192 49.3283 89.4822 51.7983C89.8642 53.0463 90.1002 54.3643 90.2162 55.7223C90.6762 61.2013 89.2322 67.2973 88.1602 71.6903C85.4552 82.8233 84.3432 94.3943 82.2802 105.639C80.0402 117.868 80.0992 133.456 65.1172 137.8C60.8452 139.039 55.9072 139.675 51.5242 137.912C47.2832 136.207 45.0102 131.793 48.7862 128.661Z" fill="#FFDDBB"/>
<path d="M118.308 53.8125C118.919 51.2445 120.14 48.9275 122.261 47.1115C129.664 40.7825 139.912 41.4325 144.657 49.6185C151.517 61.4515 148.129 74.7735 148.245 87.7255C148.259 89.0615 148.31 90.3925 148.412 91.7185C149.023 99.6805 150.128 107.378 151.295 115.237C151.794 118.532 151.352 122.98 153.809 125.504C156.423 128.197 160.612 126.999 163.488 129.117C167.441 132.037 165.435 136.691 161.304 138.726C157.036 140.83 152.071 140.534 147.736 139.58C132.53 136.226 131.659 120.361 128.697 108.081C125.968 96.7855 124.169 85.0935 120.808 73.9595C119.478 69.5635 117.677 63.4645 117.808 57.8575C117.841 56.4685 118 55.1115 118.308 53.8125Z" fill="#FFDDBB"/>
<path d="M137.663 35.0817C139.15 41.8777 138.286 53.5767 135.643 59.9297C133.125 65.9737 128.873 71.1147 125.07 74.7287C116.665 82.7207 106.757 85.8658 97.4871 85.8978C83.8971 85.9528 69.8711 84.7238 60.0561 69.8998C55.1601 62.5028 51.1411 54.9738 51.1711 43.1318C51.2411 12.0548 68.9001 5.56374 84.5331 2.29374C99.2521 -0.783255 124.202 -0.095232 133.319 20.5298C135.281 24.9678 136.509 29.8187 137.663 35.0817Z" fill="#EF4136"/>
<path d="M78.5752 114.229C82.1812 113.585 85.8492 113.165 89.7902 114.001C100.302 116.233 104.458 113.274 111.719 104.939C121.662 93.5249 115.688 84.8109 119.081 73.2179C121.368 65.4079 127.9 57.3328 129.584 48.7068C132.045 36.1078 129.684 21.8158 120.595 12.1798C115.951 7.26084 111.903 5.81782 105.31 5.40982C97.5522 4.92982 91.2512 9.57084 83.8912 9.20084C79.3052 8.97284 75.2052 4.90186 69.9882 4.63486C54.1172 3.82486 40.6072 19.3608 39.4192 34.4088C38.7092 43.4008 43.1222 51.7048 45.3722 60.1718C46.5342 64.5458 46.5952 68.4849 46.4532 72.9529C46.3262 76.9199 44.9312 81.0639 45.1642 85.0459C45.5212 91.1639 46.0802 94.8809 48.2302 100.681C53.1122 113.853 65.3882 116.585 78.5752 114.229Z" fill="#FFDDBB"/>
<path d="M123.193 70.8985C122.736 66.4435 122.204 61.9905 121.84 57.5175C121.345 51.4465 120.181 46.5875 117.407 41.1025C114.011 34.3815 103.248 22.2994 116.901 18.4014C124.534 16.2214 134.354 29.2625 137.511 34.8605C139.838 38.9875 139.878 44.0575 142.116 48.1375C145.078 53.5335 150.659 54.2384 151.256 60.3074C152.197 69.8704 142.614 77.8315 139.098 85.6485C138.194 87.6585 138.22 91.8134 135.404 92.9064C124.247 97.2404 123.734 76.1675 123.193 70.8985Z" fill="#E0A269"/>
<path d="M63.1565 97.5525C59.9765 110.093 91.1175 110.853 92.6725 101.176C94.0745 92.4486 82.9385 90.9205 77.5685 90.8545C70.8855 90.7725 65.1315 89.7505 63.1565 97.5525Z" fill="black"/>
<path d="M98.9254 69.3204C102.286 68.9674 105.078 67.5334 106.95 65.4844C107.482 70.7914 104.802 75.1644 100.442 75.6214C96.1054 76.0754 91.5814 72.4984 89.6514 67.3764C92.3464 68.9004 95.6114 69.6664 98.9254 69.3204Z" fill="black"/>
<path d="M61.6806 68.8798C58.3066 68.7028 55.4426 67.4168 53.4666 65.4678C53.2126 70.7948 56.1176 75.0217 60.4946 75.2507C64.8496 75.4777 69.1806 71.6687 70.8406 66.4537C68.2276 68.1167 65.0076 69.0528 61.6806 68.8798Z" fill="black"/>
<path d="M23.198 42.365C26.093 28.827 41.71 19.261 54.876 24.469C60.604 26.736 58.321 34.909 54.786 39.36C50.657 44.555 42.393 44.687 36.504 47.929C33.702 49.471 30.376 52.662 26.851 51.64C22.526 50.384 22.462 45.799 23.198 42.365Z" fill="#B27542"/>
<path d="M27.4964 70.3767C33.8064 63.4167 33.9824 52.3217 39.6814 45.0797C45.2864 37.9567 60.3704 36.4807 58.8504 25.0527C57.4074 14.1997 41.7534 22.0957 35.0594 22.4657C30.3754 22.7247 27.2474 23.3307 23.6064 26.8897C17.0334 33.3147 15.4234 38.8617 12.6344 46.9267C10.4944 53.1217 6.7704 60.1177 3.0414 65.6147C0.836402 68.8637 -0.915577 70.4567 1.85042 74.2277C4.00342 77.1667 7.7994 78.2727 11.2744 78.1037C15.9124 77.8797 21.1284 75.4747 24.8934 72.7237C25.8654 72.0117 26.7264 71.2247 27.4964 70.3767Z" fill="#E0A269"/>
<path d="M107.134 92.6465C109.821 95.9585 110.444 100.921 108.725 105.302C107.347 108.814 104.267 111.505 101.303 113.807C98.2083 116.21 94.3763 117.444 90.7263 118.111C86.8163 118.825 82.8193 119.03 79.1393 118.145C75.4583 117.261 72.1052 115.212 70.1982 112.051C75.4432 112.435 80.8452 111.981 86.1542 110.74C90.5512 109.712 96.5853 108.224 100.372 105.328C104.384 102.26 106.795 97.4045 107.134 92.6465Z" fill="#912F41"/>
<path opacity="0.2" d="M136.913 150.636C137.036 142.41 113.498 135.387 84.3393 134.949C55.1805 134.512 31.4425 140.826 31.3191 149.052C31.1957 157.278 54.7336 164.301 83.8924 164.738C113.051 165.176 136.789 158.862 136.913 150.636Z" fill="black"/>
<path d="M127.561 121.382L40.4733 122.595L35.6973 147.031L132.893 144.776L127.561 121.382Z" fill="#EF4136"/>
<path d="M35.6976 147.031C35.8026 155.306 57.7057 161.736 84.6187 161.393C111.532 161.05 133.264 154.063 133.158 145.788C133.053 137.513 111.15 131.082 84.2366 131.426C57.3246 131.769 35.5926 138.755 35.6976 147.031Z" fill="#EF4136"/>
<path d="M40.4739 122.595C40.5579 129.175 60.1659 134.261 84.2699 133.953C108.374 133.646 127.846 128.062 127.762 121.482C127.678 114.902 108.07 109.816 83.9659 110.124C59.8619 110.431 40.3899 116.015 40.4739 122.595Z" fill="#FFA8A6"/>
<path d="M47.0363 122.511C47.0993 127.496 63.7533 131.325 84.2323 131.064C104.711 130.803 121.261 126.55 121.198 121.565C121.134 116.58 104.481 112.75 84.0023 113.012C63.5233 113.273 46.9723 117.526 47.0363 122.511Z" fill="#2E3033"/>
<path d="M85.6496 142.77C85.6096 144.357 86.5916 145.669 87.8446 145.701C89.0976 145.733 90.1456 144.472 90.1866 142.885C90.2266 141.298 89.2446 139.986 87.9916 139.954C86.7386 139.923 85.6906 141.183 85.6496 142.77Z" fill="#FEFEFE"/>
<path d="M72.3274 142.556C72.2874 144.143 73.2694 145.455 74.5224 145.487C75.7754 145.519 76.8234 144.258 76.8644 142.671C76.9044 141.084 75.9224 139.772 74.6694 139.74C73.4164 139.708 72.3684 140.969 72.3274 142.556Z" fill="#FEFEFE"/>
<path d="M80.6012 149.578C79.7992 149.542 78.7352 149.687 77.9912 149.967C77.8642 150.015 77.7262 150.084 77.6882 150.214C77.6622 150.302 77.6892 150.396 77.7202 150.482C78.0812 151.504 78.9312 152.34 79.9592 152.683C80.9972 153.03 86.0372 151.547 84.3232 149.948C84.1052 149.745 83.7812 149.721 83.4832 149.707C82.5222 149.665 81.5622 149.622 80.6012 149.578Z" fill="#FEFEFE"/>
<path d="M86.5112 153.45C86.2222 153.336 85.9002 153.477 85.7872 153.762C85.4342 154.652 84.1602 155.404 83.0482 155.038C82.4502 154.841 81.9562 154.33 81.7282 153.672C81.5042 153.026 81.5222 152.295 81.5392 151.588L81.5732 150.184L80.4592 150.13L80.4242 151.56C80.4062 152.328 80.3852 153.199 80.6742 154.036C81.0152 155.021 81.7722 155.79 82.6982 156.096C82.9802 156.189 83.2672 156.236 83.5522 156.243C84.9852 156.279 86.3672 155.316 86.8212 154.173C86.9372 153.887 86.7972 153.563 86.5112 153.45Z" fill="#FEFEFE"/>
<path d="M81.5088 150.181L80.3957 150.127L80.3578 151.554C80.3388 152.264 80.3188 152.995 80.0628 153.629C79.8018 154.275 79.2827 154.76 78.6757 154.926C77.5447 155.236 76.3128 154.42 76.0058 153.513C75.9078 153.222 75.5928 153.065 75.2988 153.165C75.0068 153.264 74.8518 153.58 74.9508 153.872C75.3458 155.036 76.6778 156.069 78.1098 156.105C78.3948 156.112 78.6838 156.08 78.9698 156.002C79.9108 155.744 80.7058 155.014 81.0958 154.048C81.4278 153.227 81.4508 152.356 81.4718 151.588L81.5088 150.181Z" fill="#FEFEFE"/>
<path d="M51.476 117.025C51.496 116.966 51.508 116.903 51.511 116.836C51.528 116.319 50.928 115.995 50.779 115.5C50.166 113.462 53.8199 114.476 54.4689 113.941C55.3669 113.201 54.858 111.968 55.183 110.95C56.117 108.03 57.9869 109.238 59.8109 107.405C59.9229 107.293 60.0189 107.16 60.0609 107.007C60.1129 106.818 60.0769 106.618 60.0689 106.422C60.0259 105.338 61.0249 104.328 62.1089 104.357C62.5089 104.368 62.8939 104.498 63.2859 104.573C64.5549 104.816 65.9259 104.451 66.9059 103.609C66.0359 102.726 66.3829 100.994 67.5259 100.514C68.7489 99.9999 70.179 100.84 71.459 100.494C73.673 99.8949 74.0219 98.9139 76.3699 100.014C77.4049 100.498 78.5529 101.215 79.5949 100.747C80.5329 100.326 80.967 99.0679 81.972 98.8509C83.658 98.4869 84.3479 101.197 85.9789 101.76C87.1019 102.148 88.2589 101.399 89.2979 100.823C90.3369 100.246 91.817 99.8919 92.572 100.809C92.865 101.165 92.9779 101.654 93.3139 101.969C94.7749 103.342 97.21 99.7779 98.795 101.004C99.416 101.485 99.3979 102.401 99.4969 103.181C99.5959 103.96 100.152 104.886 100.916 104.705C101.529 104.559 101.748 103.814 102.183 103.358C103.184 102.309 104.927 103.019 106.162 103.778C106.884 104.222 107.69 104.801 107.723 105.648C107.737 106 107.607 106.345 107.611 106.697C107.624 108.022 109.269 108.57 110.557 108.884C115.672 110.133 109.843 116.447 113.781 118.192C114.234 118.393 114.74 118.47 115.164 118.725C115.588 118.98 115.916 119.516 115.708 119.966C115.628 120.139 115.473 120.305 115.518 120.49C115.544 120.596 115.631 120.674 115.713 120.745C116.431 121.366 117.682 122.093 118.083 122.957C118.198 123.204 118.468 125.318 117.972 125.314C112.2 128.524 99.2819 130.872 84.2329 131.064C68.8009 131.261 55.545 129.134 49.92 125.941C49.101 125.476 52.174 121.23 51.067 120.011C50.627 119.528 50.024 118.964 50.244 118.348C50.45 117.775 51.293 117.557 51.476 117.025Z" fill="#754C29"/>
<path d="M107.639 106.364C107.623 106.475 107.609 106.586 107.61 106.697C107.612 106.863 107.64 107.016 107.688 107.158C107.7 107.194 107.717 107.227 107.732 107.262C107.747 107.296 107.759 107.331 107.776 107.363C107.791 107.392 107.811 107.418 107.828 107.445C107.85 107.481 107.87 107.518 107.895 107.552C107.914 107.578 107.938 107.603 107.958 107.628C107.986 107.661 108.011 107.695 108.041 107.727C108.066 107.754 108.094 107.778 108.12 107.803C108.149 107.831 108.178 107.86 108.208 107.887C108.26 107.931 108.316 107.973 108.373 108.015C108.381 108.021 108.389 108.028 108.397 108.034C108.451 108.072 108.51 108.108 108.567 108.144C108.58 108.152 108.591 108.161 108.604 108.168C108.655 108.199 108.71 108.227 108.764 108.256C108.785 108.267 108.805 108.279 108.826 108.29C109.191 108.477 109.603 108.62 110.007 108.737C110.025 108.742 110.042 108.748 110.059 108.753C110.117 108.77 110.174 108.785 110.231 108.8C110.257 108.807 110.284 108.814 110.309 108.821C110.392 108.843 110.472 108.863 110.552 108.883C111.008 108.995 111.643 109.399 112.271 109.899C113.223 111.137 112.743 113.123 112.543 114.864C112.508 115.166 112.512 115.496 112.58 115.796C112.439 115.878 112.302 115.967 112.179 116.075C111.317 116.831 111.264 118.122 110.968 119.23C110.672 120.338 109.661 121.531 108.587 121.128C107.532 120.732 107.214 119.02 106.087 119.013C104.537 119.004 104.457 122.174 102.918 121.991C101.465 121.818 101.231 118.697 99.9145 119.336C99.2305 119.668 99.4025 120.72 98.9585 121.337C98.3015 122.25 96.8465 121.712 95.9935 120.98C95.1405 120.248 94.1035 119.321 93.0535 119.724C92.2375 120.037 91.9155 120.999 91.3315 121.649C90.5705 122.496 89.2535 122.789 88.2055 122.343C87.1575 121.897 86.4535 120.747 86.5355 119.611C85.7605 120.366 84.8795 121.169 83.7985 121.21C82.7175 121.251 81.6245 120.001 82.2305 119.105C82.5415 118.646 80.9845 118.7 80.8865 118.722C80.0335 118.918 80.2235 119.82 79.7425 120.131C78.7255 120.787 76.6085 121.818 76.4545 119.272C76.4325 118.9 76.5165 118.528 76.4895 118.157C76.4005 116.914 74.8265 116.05 73.7295 116.641C73.2725 117.121 72.9895 117.764 72.9435 118.425C72.9245 118.692 72.9365 118.984 72.7775 119.199C72.6515 119.369 72.4425 119.454 72.2425 119.525C71.6155 119.745 70.9405 119.898 70.2885 119.773C69.6355 119.648 69.0125 119.191 68.8585 118.544C68.7115 117.928 69.0015 117.269 68.8485 116.654C68.6385 115.815 67.6355 115.372 66.7815 115.512C65.9275 115.653 65.2125 116.224 64.5905 116.825C63.2765 118.094 61.6145 119.947 59.6835 118.527C58.8075 117.883 58.3435 116.797 58.2045 115.718C57.7535 115.019 56.6215 115.398 56.0905 116.039C55.5605 116.68 55.2055 117.544 54.4375 117.864C53.8505 118.108 53.1665 117.955 52.6045 117.657C52.1735 117.429 51.8045 117.106 51.4975 116.731C51.2255 116.398 50.5215 115.457 50.4605 115.039C50.4085 114.681 50.5075 114.319 50.6255 113.976C50.7905 113.495 51.0085 113.007 51.4085 112.693C51.8605 112.338 52.4695 112.263 52.9845 112.006C53.9875 111.505 54.5115 110.393 55.3325 109.629C56.4355 108.602 57.8565 108.753 59.0655 107.996C59.1175 107.963 59.1695 107.927 59.2225 107.89C59.2755 107.852 59.3295 107.815 59.3805 107.775C59.5235 107.665 59.6665 107.546 59.8095 107.402C59.9215 107.29 60.0175 107.157 60.0595 107.004C60.1105 106.819 60.0765 106.623 60.0675 106.419C60.0565 106.148 60.1115 105.882 60.2155 105.635C60.9635 103.87 62.4075 104.786 63.6895 104.082C64.4385 103.671 64.7845 102.799 65.3395 102.15C66.1345 101.221 67.7215 100.236 68.9675 100.37C69.1335 100.388 69.3005 100.412 69.4685 100.438C70.1395 100.54 70.8165 100.664 71.4565 100.49C72.7025 100.153 73.3575 99.6953 74.1105 99.5553C74.1945 99.5393 74.2785 99.5283 74.3665 99.5203C74.5405 99.5063 74.7235 99.5102 74.9215 99.5362C75.0205 99.5492 75.1245 99.5682 75.2325 99.5942C75.5575 99.6702 75.9275 99.8033 76.3675 100.009C77.0145 100.312 77.7055 100.705 78.3875 100.844C78.5235 100.872 78.6595 100.889 78.7955 100.894C79.0655 100.903 79.3335 100.86 79.5935 100.743C80.0625 100.532 80.4055 100.113 80.7565 99.7183C80.9325 99.5213 81.1095 99.3303 81.3065 99.1753C81.5035 99.0203 81.7185 98.9012 81.9695 98.8462C82.2525 98.7852 82.5055 98.8163 82.7425 98.9033C84.2055 99.4453 85.0675 100.587 86.8125 100.25C87.3155 100.153 87.7935 99.9533 88.2925 99.8403C89.4385 99.5803 90.4965 99.8533 91.5365 100.337C92.5285 100.799 92.5355 101.233 93.3115 101.963C94.4065 102.993 96.0505 101.245 97.4725 100.825C97.5905 100.79 97.7085 100.764 97.8235 100.75C98.1685 100.707 98.4955 100.769 98.7925 100.999C98.9215 101.099 99.0175 101.22 99.0985 101.353C99.1635 101.46 99.2205 101.572 99.2625 101.694C99.2935 101.785 99.3185 101.879 99.3405 101.976C99.3835 102.169 99.4095 102.372 99.4315 102.575C99.4425 102.677 99.4525 102.778 99.4625 102.879C99.4725 102.98 99.4835 103.079 99.4955 103.177C99.5205 103.372 99.5735 103.576 99.6515 103.769C99.8075 104.156 100.061 104.502 100.384 104.648C100.545 104.721 100.723 104.745 100.914 104.7C101.144 104.645 101.318 104.506 101.47 104.33C101.621 104.153 101.749 103.94 101.886 103.735C101.977 103.599 102.073 103.467 102.181 103.353C102.306 103.222 102.443 103.118 102.589 103.039C102.808 102.92 103.048 102.855 103.3 102.833C104.223 102.753 105.312 103.252 106.16 103.773C106.25 103.829 106.343 103.886 106.434 103.946C107.072 104.366 107.693 104.902 107.722 105.643C107.724 105.731 107.72 105.819 107.71 105.906C107.693 106.063 107.662 106.213 107.639 106.364Z" fill="#996239"/>
<path d="M65.572 111.087C65.662 110.687 65.957 110.344 66.429 110.334C67.132 110.319 67.789 110.434 68.414 110.77C68.622 110.882 68.764 111.036 68.852 111.208C69.185 111.334 69.513 111.481 69.83 111.668C70.79 112.233 70.455 113.771 69.241 113.606C68.482 113.503 67.764 113.257 67.093 112.912C66.798 112.864 66.5041 112.817 66.2091 112.769C65.4121 112.64 65.185 111.629 65.572 111.087Z" fill="#754C29"/>
<path d="M60.1543 112.008L60.3233 111.99C60.8543 111.935 61.4123 112.348 61.4443 112.899C61.4773 113.452 61.1043 113.961 60.5353 114.02L60.3663 114.038C59.8353 114.093 59.2773 113.679 59.2453 113.128C59.2113 112.577 59.5843 112.067 60.1543 112.008Z" fill="#754C29"/>
<path d="M62.0468 107.191L62.2158 107.173C62.7468 107.118 63.3048 107.531 63.3368 108.082C63.3698 108.635 62.9968 109.144 62.4278 109.204L62.2588 109.222C61.7278 109.277 61.1698 108.863 61.1378 108.313C61.1048 107.76 61.4778 107.251 62.0468 107.191Z" fill="#754C29"/>
<path d="M98.1565 115.036C99.1035 114.977 100.053 115.009 100.993 115.135C101.105 115.15 101.208 115.192 101.304 115.246C102.503 115.242 102.606 117.036 101.383 117.279C100.182 117.518 98.9915 117.384 97.8425 116.982C96.8785 116.645 97.1805 115.097 98.1565 115.036Z" fill="#754C29"/>
<path d="M106.492 113.8L106.643 113.613C106.99 113.185 107.651 113.116 108.079 113.463C108.509 113.811 108.577 114.469 108.229 114.899C108.178 114.961 108.128 115.024 108.078 115.086C107.731 115.514 107.07 115.583 106.642 115.236C106.212 114.887 106.144 114.23 106.492 113.8Z" fill="#754C29"/>
<path d="M77.4281 115.637L77.5801 115.45C77.9271 115.022 78.5881 114.953 79.0161 115.3C79.4461 115.649 79.5141 116.306 79.1661 116.736C79.1151 116.798 79.0651 116.861 79.0151 116.923C78.6681 117.351 78.0071 117.419 77.5791 117.072C77.1491 116.724 77.0801 116.067 77.4281 115.637Z" fill="#754C29"/>
</svg>
