<svg width="162" height="207" viewBox="0 0 162 207" fill="none" xmlns="http://www.w3.org/2000/svg">
<path opacity="0.3" d="M133.349 196.983C133.349 202.385 109.195 206.763 79.4004 206.763C49.5974 206.763 25.4434 202.385 25.4434 196.983C25.4434 191.578 49.5974 187.2 79.4004 187.2C109.194 187.2 133.349 191.578 133.349 196.983Z" fill="#231F20"/>
<path d="M128.481 193.631C120.696 198.441 113.482 199.587 110.662 192.862C110.626 192.777 110.602 192.685 110.574 192.595C108.429 185.741 112.61 185.448 118.626 180.634C119.77 179.718 131.898 170.553 138.774 163.694C153.616 148.887 159.85 135.598 160.435 135.37C163.965 133.995 160.014 156.532 150.45 171.319C142.222 184.039 130.812 192.191 128.481 193.631Z" fill="#FFDDBB"/>
<path d="M13.143 146.522C16.874 147.973 21.057 147.846 23.998 145.434C26.146 143.672 27.035 138.775 28.169 138.658C29.176 138.554 41.367 147.793 47.528 148.58C50.343 148.94 53.554 148.589 55.399 146.184C56.288 145.025 56.738 143.535 57.153 142.08C59.958 132.238 62.073 122.149 63.471 111.938C63.846 109.199 64.168 106.39 63.688 103.671C61.529 91.4625 49.6 95.0665 46.419 102.457C44.22 107.567 41.299 126.692 40.824 126.961C40.365 127.221 31.072 120.337 24.051 119.706C10.956 118.528 9.69997 130.491 8.56597 135.823C7.73797 139.705 9.41197 145.071 13.143 146.522Z" fill="#E8BB91"/>
<path d="M93.9224 183.586C94.0264 182.894 94.0734 182.194 94.0654 181.496C94.0244 177.968 92.7024 174.489 90.9504 171.264C86.9554 163.91 80.0324 156.275 71.4364 153.09C63.6504 150.204 47.2324 148.778 41.7234 155.115C40.7734 156.208 40.1844 157.459 39.7424 158.726C36.4474 168.167 42.3844 181.614 53.0584 187.199C48.8654 188.329 45.8574 187.443 45.8534 193.12C45.8484 201.002 68.6054 200.496 69.2544 193.078C69.5274 189.96 69.4094 190.171 68.9704 187.316C71.4974 190.102 73.4334 191.53 77.6944 192.968C81.9554 194.406 86.4414 193.382 89.8014 190.836C92.1524 189.056 93.5014 186.392 93.9224 183.586Z" fill="#DBA77D"/>
<path d="M117.187 196.718C110.706 197.884 95.87 196.331 89.321 197.024C80.404 197.967 52.8 176.926 47.717 127.321C46.015 110.71 53.799 94.7712 70.886 89.5362C76.393 87.8492 96.684 80.4932 102.187 84.2162C107.416 87.7532 111.297 102.063 112.492 110.87C114.527 125.863 115.324 143.394 119.424 153.19C129.67 177.676 132.519 193.96 117.187 196.718Z" fill="#FFDDBB"/>
<path d="M112.904 197.124C113.463 193.925 113.117 190.54 111.869 187.544C110.577 184.443 108.448 181.802 106.615 179.001C96.046 162.849 95.67 142.189 91.493 123.227C90.963 120.82 89.957 114.973 88.303 116.768C85.893 119.383 73.776 134.644 47.285 119.69C47.102 119.587 47.449 124.705 47.717 127.323C52.8 176.928 80.405 197.969 89.321 197.026C94.675 196.459 105.567 197.41 112.904 197.124Z" fill="#E8BB91"/>
<path d="M50.4112 142.161C51.4212 142.735 52.6772 143.14 54.2172 143.33C56.3542 143.593 58.5202 143.085 60.4122 142.056C62.3992 140.974 63.5872 138.379 65.4552 137.47C67.3852 136.531 69.9962 139.018 71.7132 140.045C74.0652 141.453 76.4382 142.869 79.0312 143.797C84.9842 145.928 92.1572 147 95.5962 140.671C100.076 132.429 101.079 120.144 102.424 111.024C102.809 108.412 91.2572 100.796 86.7802 107.038C82.8792 112.478 81.4572 117.032 80.1652 122.27C80.0292 122.82 73.0162 116.411 64.3912 114.835C58.6302 113.783 55.1232 117.486 52.1792 121.726C48.2712 127.35 43.4582 138.204 50.4112 142.161Z" fill="#E8BB91"/>
<path d="M53.8311 146.276C54.8411 146.85 56.0971 147.255 57.6371 147.445C59.7741 147.708 61.9401 147.2 63.8321 146.17C65.8191 145.089 67.0071 142.493 68.8751 141.584C70.8041 140.645 73.4161 143.132 75.1321 144.159C77.4851 145.567 79.8571 146.983 82.4501 147.911C88.4031 150.042 94.9071 153.025 98.3461 146.696C102.826 138.453 104.497 124.257 105.843 115.138C106.228 112.526 106.559 109.849 106.065 107.257C103.847 95.6172 90.8071 102.627 87.5391 109.674C85.2801 114.546 84.9461 120.104 83.6541 125.342C83.5181 125.892 83.3251 126.501 82.8371 126.757C82.3661 127.005 81.7961 126.828 81.3091 126.615C76.6701 124.592 73.3851 119.726 68.4821 118.551C63.5761 117.376 58.4541 120.428 55.5091 124.667C51.6031 130.293 46.8781 142.32 53.8311 146.276Z" fill="#E8BB91"/>
<path d="M98.3461 144.799C98.3461 144.799 111.989 150.165 113.865 159.659C113.865 159.659 100.211 148.446 95.0811 148.423L98.3461 144.799Z" fill="#E8BB91"/>
<path d="M122.39 173.211C119.221 164.371 113.345 157.108 105.033 151.38C98.0893 146.596 82.0793 143.672 75.9543 150.782C74.8983 152.008 74.1853 153.439 73.6173 154.896C69.3843 165.753 74.7463 183.438 84.8083 190.542C80.5203 191.637 75.4753 190.928 75.3233 197.38C75.0663 208.309 96.6473 204.588 99.8793 197.974C101.41 194.84 99.4443 189.529 98.2033 186.249C100.186 190.513 103.354 194.284 107.451 196.195C111.548 198.106 116.608 197.923 120.21 195.13C122.731 193.175 126.639 185.064 122.39 173.211Z" fill="#FFDDBB"/>
<path d="M52.134 144.464C53.144 145.038 54.4 145.443 55.94 145.633C58.077 145.896 60.243 145.388 62.135 144.358C64.122 143.276 65.396 140.031 65.837 137.826C66.258 135.722 78.16 145.172 80.753 146.1C86.706 148.231 93.879 149.303 97.318 142.974C101.798 134.732 102.801 122.447 104.146 113.327C104.531 110.715 104.862 108.038 104.369 105.446C102.151 93.8057 89.111 100.816 85.843 107.863C83.584 112.735 81.803 127.853 81.315 128.11C80.844 128.358 70.378 119.608 65.475 118.433C60.569 117.258 56.758 118.617 53.814 122.856C49.907 128.481 45.181 140.508 52.134 144.464Z" fill="#FFDDBB"/>
<path d="M102.795 76.3568C103.54 68.9869 101.189 58.0319 101.47 50.1349C101.713 43.2949 103.496 34.0029 100.533 27.6489C97.9302 22.0649 90.8262 18.2469 85.2432 16.5439C78.3152 14.4309 70.9272 14.4449 63.6962 14.8679C57.9302 15.2059 49.5452 16.0478 45.9532 21.3568C42.1872 26.9218 41.0782 35.5438 40.1052 42.0599C38.7562 51.0909 38.0132 60.5809 40.2812 69.5309C41.2342 73.2909 43.9562 75.7689 46.2072 78.9329C47.9702 81.4109 49.1692 84.6909 50.6862 87.3539C51.8482 89.3939 52.0212 92.3899 53.5782 94.1739C58.0662 99.3159 68.0092 98.1959 73.8662 97.1379C80.1642 95.9999 86.4712 94.2259 91.8112 90.6989C98.8332 86.0589 102.132 82.9209 102.795 76.3568Z" fill="#E8BB91"/>
<path d="M102.535 76C89.6254 90.98 70.6434 92.341 50.4503 88.293C48.6773 90.36 48.5524 95.681 49.9524 97.177C51.7984 98.093 85.0414 108.751 104.896 86.008C104.896 86.008 105.38 82.926 104.519 80.117C103.617 77.172 102.535 76 102.535 76Z" fill="#EF4136"/>
<path d="M43.0061 48.9064C45.3061 44.8374 47.6701 40.7994 49.8961 36.6824C52.9171 31.0964 56.0041 26.8834 60.7541 22.6214C66.5731 17.3984 81.0781 9.57143 70.8861 1.28643C65.1881 -3.34657 51.0921 5.7044 45.9591 9.9464C42.1751 13.0734 39.9761 17.8614 36.2921 20.9764C31.4151 25.0924 25.4371 26.6974 22.3271 32.2474C17.4271 40.9904 23.1801 48.9414 22.8951 57.5284C22.8241 59.7364 21.0281 63.6654 23.0071 65.6474C30.8441 73.5074 40.2881 53.7174 43.0061 48.9064Z" fill="#D88D50"/>
<path d="M103.548 73.2384C105.654 71.8504 107.639 70.2834 109.399 68.4464C116.032 61.5224 117.387 50.3245 116.112 40.9675C114.966 32.5595 111.511 24.0934 105.688 18.0414C99.8072 11.9284 92.9382 11.2574 85.3572 9.11943C81.2402 7.95943 78.3492 4.79244 73.8402 4.37144C68.7262 3.89444 63.4942 5.16143 58.6372 6.72343C51.3502 9.06743 45.4702 14.1614 41.0362 20.5314C35.2802 28.7994 32.3832 32.0705 22.2712 32.1185C16.7862 32.1445 11.4422 28.7124 6.96818 31.8924C1.73718 35.6084 1.75717 43.2124 0.659173 49.1634C-0.569826 55.8244 -0.398823 62.9064 3.95918 68.2414C14.9712 81.7194 50.1292 86.2654 61.6922 86.1494C73.9142 86.0264 85.9942 82.4264 96.9672 76.9554C99.2142 75.8354 101.442 74.6264 103.548 73.2384Z" fill="#FFDDBB"/>
<path d="M72.7052 38.3274C70.3992 43.2244 66.1432 45.9854 63.1972 44.4924C60.2542 43.0004 59.7382 37.8204 62.0432 32.9234C64.3502 28.0254 68.6052 25.2654 71.5492 26.7574C74.4932 28.2494 75.0112 33.4294 72.7052 38.3274Z" fill="black"/>
<path d="M46.6171 27.6645C44.5701 31.4215 41.5451 33.6595 39.8641 32.6645C38.1811 31.6695 38.4781 27.8165 40.5261 24.0595C42.5761 20.3035 45.5971 18.0645 47.2791 19.0595C48.9611 20.0535 48.6651 23.9075 46.6171 27.6645Z" fill="black"/>
<path d="M22.7581 41.5015C17.3791 51.4225 -2.24387 46.2444 0.657125 37.2754C3.27213 29.1874 9.05712 29.7554 12.8961 31.0684C17.6781 32.7034 26.4111 34.7665 22.7581 41.5015Z" fill="black"/>
<path d="M9.86639 64.3784C11.8044 67.0794 14.1614 69.6554 17.2094 70.6574C20.2574 71.6594 24.0984 70.5714 25.4714 67.5014C26.6494 64.8664 25.7474 61.7604 24.8354 59.0084C22.6704 59.9054 20.3774 60.5674 18.0564 60.4954C15.7344 60.4234 13.3694 59.5514 11.7714 57.7544C11.5244 57.4764 11.2814 57.1674 10.9454 57.0324C10.4864 56.8484 9.97939 57.0324 9.50639 57.1714C7.65439 57.7164 6.05939 57.3174 4.27539 56.8164C4.73839 56.9474 5.22639 58.0144 5.49339 58.3874C5.96439 59.0454 6.44039 59.6984 6.91839 60.3494C7.90239 61.6914 8.89539 63.0254 9.86639 64.3784Z" fill="#A00A2B"/>
<path d="M0.572937 52.5281C0.718937 52.4271 0.89694 52.3601 1.10794 52.3391C1.80494 52.2681 2.13294 52.9491 2.55794 53.4031C3.14994 54.0331 3.86993 54.6181 4.60593 55.0291C6.97293 56.3511 9.09794 56.2661 11.5009 55.6781L11.5319 55.5691C11.5569 55.5971 11.5849 55.6241 11.6119 55.6531C11.6479 55.6441 11.6839 55.6361 11.7209 55.6281L11.6899 55.7371C13.4119 57.6181 15.1539 58.9171 17.8149 59.1711C19.6539 59.3461 23.6009 58.4921 25.0789 56.9991C25.5999 56.4721 26.4069 56.5021 26.8799 57.0611C27.3539 57.6231 27.3149 58.5021 26.7949 59.0291C24.5099 61.3391 19.6409 62.1441 17.5569 61.9451C16.7489 61.8691 16.0089 61.7161 15.3269 61.5031C13.4489 60.9141 12.0209 59.8491 10.7839 58.6501C9.13494 58.9441 7.39394 59.0151 5.51594 58.4261C4.83194 58.2121 4.13394 57.9131 3.41594 57.5101C2.38194 56.9321 0.927939 55.9581 0.304939 54.8691C-0.113061 54.1431 -0.0970633 52.9861 0.572937 52.5281Z" fill="black"/>
<path d="M11.0334 58.6773C11.3764 58.8093 11.7684 58.7923 12.1224 58.5953C12.8024 58.2173 13.0824 57.3123 12.7484 56.5763C12.7134 56.4953 11.1124 52.7313 11.6714 45.4083C11.7334 44.5803 11.1694 43.8603 10.4124 43.8043C9.65235 43.7483 8.98636 44.3763 8.92236 45.2033C8.29036 53.4933 10.1924 57.7673 10.2744 57.9463C10.4374 58.3013 10.7154 58.5543 11.0334 58.6773Z" fill="black"/>
<path d="M98.7963 65.6227C98.8383 60.8116 98.7973 55.9966 98.9433 51.1766C99.1453 44.6406 98.4403 39.3106 96.0043 33.1156C93.0203 25.5226 82.4143 11.2906 98.2673 8.83463C107.127 7.46163 116.552 22.5967 119.405 28.9637C121.51 33.6567 120.922 39.0696 122.93 43.7016C125.59 49.8256 130.948 54.2266 130.862 60.7786C130.727 71.0956 119.785 75.4396 114.854 83.3396C113.586 85.3696 113.097 89.8056 109.79 90.6216C96.6963 93.8526 98.7483 71.3106 98.7963 65.6227Z" fill="#D88D50"/>
</svg>
