<svg width="205" height="192" viewBox="0 0 205 192" fill="none" xmlns="http://www.w3.org/2000/svg">
<path opacity="0.3" d="M191.043 181.559C191.043 186.805 158.903 191.06 119.252 191.06C79.598 191.06 47.458 186.805 47.458 181.559C47.458 176.308 79.598 172.056 119.252 172.056C158.903 172.056 191.043 176.308 191.043 181.559Z" fill="#231F20"/>
<path d="M185.327 120.614C183.738 112.31 173.163 99.5271 166.312 96.3381C162.101 94.3781 151.98 89.1141 147.518 89.2751C133.227 89.7911 114.656 108.43 133.098 127.151C135.787 129.88 139.592 131.42 143.267 132.368C150.055 134.119 164.379 131.418 169.892 130.845C172.01 130.624 174.144 130.381 176.126 129.71C178.58 128.879 180.564 127.093 182.679 125.726C184.501 124.549 185.774 122.951 185.327 120.614Z" fill="#DBA77D"/>
<path d="M167.576 131.796C167.769 132.831 167.801 133.984 167.858 135.334C168.034 139.525 169.384 143.735 171.639 147.458C173.4 150.364 176.701 155.456 180.577 154.988C182.343 154.775 183.896 153.798 185.196 152.731C186.572 151.603 187.892 150.206 187.994 148.232C188.072 146.709 187.411 145.075 187.082 143.485C186.311 139.755 187.379 136.371 187.68 132.834C188.078 128.148 187.085 123.015 184.851 118.21C181.988 112.052 176.466 106.11 170.265 104.808C167.111 104.146 164.098 104.742 161.54 105.948C156.509 108.321 154.734 113.378 156.915 119.762C158.063 123.123 161.893 125.374 164.671 127.409C166.551 128.786 167.268 130.14 167.576 131.796Z" fill="#DBA77D"/>
<path d="M194.316 158.771C197.63 155.778 196.329 150.145 191.412 146.186C186.499 142.231 179.827 141.447 176.51 144.44C173.201 147.43 174.497 153.064 179.412 157.022C184.329 160.978 191.001 161.763 194.316 158.771Z" fill="#DBA77D"/>
<path d="M62.7356 18.0211C59.5216 19.9421 56.3366 21.9111 53.0786 23.7761C48.6596 26.3051 45.3696 28.8511 42.1266 32.7121C38.1536 37.4431 32.5086 49.1041 25.1706 41.2601C21.0676 36.8761 27.7376 25.5081 30.9436 21.3441C33.3066 18.2761 37.1166 16.4161 39.4736 13.4251C42.5886 9.46712 43.5866 4.70311 47.9716 2.10511C54.8806 -1.98889 61.7076 2.35412 68.7336 1.91112C70.5406 1.79812 73.6656 0.27912 75.3976 1.79212C82.2606 7.78612 66.5346 15.7511 62.7356 18.0211Z" fill="#CE945F"/>
<path d="M188.55 60.8328C187.348 62.1198 186.177 63.3908 185.161 64.8348C183.983 66.5038 182.884 67.8708 181.263 69.2408C175.633 73.9938 164.2 81.5128 161.665 73.4938C161.643 73.4228 161.621 73.3498 161.599 73.2778C159.985 67.7248 166.049 62.6668 171.193 59.2008C174.281 57.1198 177.487 55.2818 180.635 53.3218C184.644 50.8258 188.394 47.6208 191.587 44.1348C193.157 42.4208 201.739 29.5028 202.676 28.0348C204.764 24.7698 203.275 34.5688 203.133 35.0678C200.506 44.2708 199.022 46.0438 197.845 48.3838C195.486 53.0648 192.322 56.7888 188.55 60.8328Z" fill="#FFDDBB"/>
<path d="M95.6012 112.57C96.8802 109.169 97.2873 105.657 95.8193 102.446C92.4123 94.9944 84.6273 92.3344 78.4473 97.5134C68.5963 105.768 67.3752 119.382 61.9412 130.572C58.8902 136.856 55.5652 142.768 52.1362 148.793C50.9112 150.942 49.7632 153.497 48.3202 155.446C47.3092 156.813 46.0642 157.702 44.7262 158.606C42.2342 160.286 36.0103 160.43 38.0203 164.917C41.0543 171.698 50.9612 174.34 56.6642 169.227C63.2552 163.318 85.0282 128.791 88.1332 124.727C90.5512 121.567 93.8712 117.17 95.6012 112.57Z" fill="#DBA77D"/>
<path d="M172.329 61.5221C167.342 59.5961 158.418 61.2101 153.665 63.1201C150.951 64.2101 148.327 65.8641 145.418 66.8711C140.329 68.6301 135.172 69.7371 129.813 69.9491C124.913 70.1441 119.953 69.8981 115.26 68.7781C115.145 68.6821 115.033 68.5861 114.916 68.4921C112.48 66.5041 109.616 64.8571 107.506 63.4161C106.985 63.0611 106.484 62.7021 105.985 62.3441C101.166 89.4821 74.5468 94.0741 64.5898 94.8381C65.1678 96.1801 65.6208 97.5371 66.0328 98.8981C66.9978 102.088 68.7868 106.089 70.3678 109.206C72.6018 120.259 79.9178 129.719 92.3008 134.242C108.048 139.995 123.253 132.314 136.789 125.072C142.622 121.952 143.449 119.17 149.897 117.453C155.891 115.856 167.27 116.48 173.114 114.362C183.475 110.608 189.538 101.712 190.641 89.6911C191.61 79.1411 181.574 65.0911 172.329 61.5221Z" fill="#FFDDBB"/>
<path d="M107.732 59.9436C105.059 58.0436 103.9 57.5896 103.9 57.5896C103.901 57.5926 103.904 57.5996 103.901 57.5986C94.5386 54.5676 60.6087 78.9166 60.7387 91.2546C60.7867 95.4516 63.3986 97.6996 65.8586 98.3386C67.8096 98.6236 110.404 98.7196 111.225 65.8396C111.225 65.8396 111.336 62.5056 107.732 59.9436Z" fill="#EF4136"/>
<path d="M103.902 57.5986C102.045 54.7066 98.5659 52.4826 97.1149 48.7096C94.9899 43.1876 93.4789 37.7856 89.9249 33.0056C84.4659 25.6616 79.8609 22.4906 71.9379 20.9006C61.6439 18.8356 51.2939 20.8526 41.8619 26.0886C32.7799 31.1306 27.8579 38.1866 26.4899 48.7056C25.4249 56.8926 24.5439 60.3806 17.0819 64.4836C14.5219 65.8906 11.5469 66.1966 8.93989 67.4756C6.81189 68.5196 2.4849 71.0476 2.2209 73.4836C1.9799 75.7046 4.83091 90.7546 14.6889 96.2306C19.0329 98.6436 24.3229 98.7296 29.1409 97.5106C33.9589 96.2926 38.4679 94.0776 43.2329 92.6656C47.2279 91.4816 56.9989 90.0706 60.7419 91.2536C81.8849 91.0776 107.875 76.4666 103.902 57.5986Z" fill="#FFDDBB"/>
<path d="M101.608 37.9912C97.7843 37.1942 93.9393 36.4682 90.1303 35.5812C84.9633 34.3752 80.5773 34.1312 75.1593 35.2192C68.5183 36.5522 55.0782 43.3052 56.2662 29.4552C56.9302 21.7142 70.8553 16.1072 76.4923 14.6902C80.6483 13.6452 84.8433 15.0022 88.9313 14.0292C94.3383 12.7402 98.9062 8.88717 104.107 9.99717C112.299 11.7432 113.591 21.7222 118.905 27.1592C120.271 28.5572 123.708 29.6752 123.702 32.6112C123.679 44.2412 106.129 38.9332 101.608 37.9912Z" fill="#E5B27F"/>
<path d="M56.3218 49.4283C56.7038 53.9393 54.7317 57.7893 51.9147 58.0283C49.0997 58.2673 46.5067 54.8033 46.1227 50.2943C45.7397 45.7823 47.7128 41.9323 50.5278 41.6933C53.3448 41.4543 55.9378 44.9173 56.3218 49.4283Z" fill="#0B0808"/>
<path d="M50.9605 48.0032C50.5425 49.7952 49.3805 51.0552 48.3645 50.8182C47.3495 50.5812 46.8655 48.9362 47.2825 47.1452C47.7005 45.3532 48.8625 44.0932 49.8785 44.3292C50.8945 44.5662 51.3785 46.2112 50.9605 48.0032Z" fill="white"/>
<path d="M33.371 51.5237C33.307 55.0147 31.934 57.8207 30.306 57.7907C28.677 57.7607 27.409 54.9057 27.473 51.4147C27.538 47.9227 28.91 45.1177 30.538 45.1467C32.167 45.1767 33.436 48.0317 33.371 51.5237Z" fill="#0B0808"/>
<path d="M168.778 103.485C163.47 100.577 155.224 102.407 149.911 104.278C141.968 107.076 135.785 114.184 127.207 115.307C118.734 116.416 109.783 115.806 101.319 114.764C97.1226 114.249 94.0836 114.196 89.8166 115.303C85.5876 116.4 83.8305 119.502 80.2715 120.778C78.5165 121.407 76.6566 121.063 75.2666 121.157C79.0466 126.855 84.7236 131.475 92.2996 134.242C108.047 139.995 123.252 132.314 136.788 125.072C142.621 121.952 143.448 119.17 149.896 117.453C155.89 115.856 167.269 116.48 173.113 114.362C173.59 114.189 174.057 114.002 174.516 113.807C174.52 109.637 172.917 105.752 168.778 103.485Z" fill="#EFC095"/>
<path d="M113.872 117.763C115.193 105.335 104.818 92.4135 96.5522 101.76C89.2992 109.964 87.4422 124.456 84.7822 136.195C83.4192 142.217 76.0402 164.708 72.5442 168.272C71.3402 169.501 68.1712 169.39 68.4812 172.361C69.3282 180.508 80.3862 180.06 83.9962 178.471C90.4952 175.611 94.6282 164.308 97.9572 157.038C103.878 144.122 112.159 133.828 113.872 117.763Z" fill="#FFDDBB"/>
<path d="M30.6466 49.5614C30.3276 50.9264 29.5406 51.9093 28.8886 51.7563C28.2366 51.6043 27.9656 50.3744 28.2836 49.0094C28.6026 47.6444 29.3896 46.6614 30.0416 46.8134C30.6946 46.9674 30.9646 48.1964 30.6466 49.5614Z" fill="white"/>
<path d="M18.6661 71.1389C18.5181 80.3479 2.00007 84.5679 0.682067 77.0319C-0.505933 70.2379 3.99309 68.3129 7.34009 67.6999C11.5101 66.9369 18.7681 64.8869 18.6661 71.1389Z" fill="#0B0808"/>
<path d="M6.07668 73.2256C4.45468 74.2076 2.72765 74.3236 2.21865 73.4836C1.71065 72.6446 2.61368 71.1676 4.23568 70.1846C5.85868 69.2016 7.58565 69.0856 8.09365 69.9256C8.60165 70.7656 7.69868 72.2426 6.07668 73.2256Z" fill="white"/>
<path d="M14.7782 89.6432C14.6602 89.0372 15.4152 88.7962 15.3282 88.4632C15.3632 88.4742 15.3992 88.4822 15.4352 88.4942C15.4602 88.4692 15.4871 88.4442 15.5141 88.4212L15.5422 88.5272C17.8932 89.2542 19.9771 89.4862 22.3161 88.4002C23.9331 87.6492 26.8032 85.0142 27.3062 83.0502C27.4832 82.3572 28.1692 81.9892 28.8362 82.2242C29.5042 82.4612 29.9011 83.2122 29.7251 83.9042C28.9481 86.9412 25.2861 89.9862 23.4541 90.8362C22.7441 91.1672 22.0531 91.4002 21.3811 91.5552C19.2781 92.0382 17.2812 92.2552 15.5462 90.9272C15.2692 90.7152 14.9422 90.1052 14.8182 89.7792C14.8002 89.7312 14.7872 89.6862 14.7782 89.6432Z" fill="black"/>
<path d="M16.5878 91.232C16.9668 91.191 17.3198 90.9939 17.5538 90.6529C18.0038 89.9969 18.1147 89.669 17.4617 89.161C17.3907 89.105 13.8718 85.8459 10.9518 78.9999C10.6198 78.2259 9.76178 77.841 9.03778 78.141C8.31078 78.443 7.99076 79.317 8.31976 80.091C11.6258 87.841 15.3847 90.802 15.5447 90.926C15.8627 91.17 16.2368 91.269 16.5878 91.232Z" fill="black"/>
<path d="M203.804 123.317C206.647 114.799 203.802 97.5809 199.35 91.1599C196.613 87.2129 185.769 70.8519 181.723 68.7489C168.764 62.0139 147.269 76.3189 154.06 103.025C155.05 106.918 157.642 110.271 160.421 113.006C165.554 118.06 179.661 122.781 184.852 125.031C186.847 125.896 188.867 126.746 190.972 127.123C193.578 127.59 196.255 126.932 198.834 126.73C201.054 126.556 203.004 125.714 203.804 123.317Z" fill="#FFDDBB"/>
<path d="M182.307 124.746C181.948 125.805 181.386 126.893 180.745 128.176C178.754 132.159 177.796 136.753 177.893 141.351C177.969 144.941 178.292 151.338 181.975 152.86C183.653 153.554 185.533 153.43 187.235 153.095C189.035 152.741 190.923 152.11 192.025 150.327C192.875 148.951 193.125 147.099 193.647 145.455C194.873 141.6 197.556 138.995 199.635 135.86C202.39 131.706 204.137 126.436 204.614 120.843C205.225 113.675 203.365 105.366 198.523 101.026C196.061 98.8186 193.079 97.8506 190.189 97.6806C184.505 97.3456 180.338 101.149 179.004 108.183C178.302 111.885 180.55 115.91 181.975 119.204C182.938 121.431 182.882 123.051 182.307 124.746Z" fill="#FFDDBB"/>
<path d="M192.24 163.309C196.717 162.201 198.448 156.31 196.108 150.149C193.77 143.993 188.245 139.897 183.765 141.003C179.294 142.111 177.559 148 179.897 154.159C182.238 160.319 187.762 164.417 192.24 163.309Z" fill="#FFDDBB"/>
</svg>
