<svg width="209" height="168" viewBox="0 0 209 168" fill="none" xmlns="http://www.w3.org/2000/svg">
<path opacity="0.3" d="M178.38 158.219C178.38 163.102 155.055 167.061 126.278 167.061C97.5008 167.061 74.1748 163.102 74.1748 158.219C74.1748 153.332 97.5008 149.371 126.278 149.371C155.055 149.371 178.38 153.333 178.38 158.219Z" fill="#231F20"/>
<path d="M190.51 57.6216C189.194 58.7936 187.913 59.9506 186.769 61.2956C185.443 62.8496 184.222 64.1096 182.481 65.3246C176.438 69.5406 164.364 75.9776 162.576 67.7596C162.56 67.6866 162.545 67.6126 162.53 67.5386C161.433 61.8606 167.935 57.3806 173.376 54.4026C176.642 52.6136 180.004 51.0776 183.318 49.4156C187.539 47.2976 191.568 44.4516 195.067 41.2736C196.787 39.7106 206.52 27.6366 207.588 26.2606C209.967 23.2016 207.584 32.8216 207.396 33.3056C203.935 42.2286 202.295 43.8586 200.908 46.0796C198.131 50.5236 194.637 53.9416 190.51 57.6216Z" fill="#FFDDBB"/>
<path d="M83.1976 81.2328C80.6166 78.6748 77.5786 76.8688 74.0476 76.8948C65.8546 76.9578 65.2366 81.8708 67.4366 89.6278C70.9426 101.993 77.8756 109.777 85.8656 119.31C90.3536 124.663 94.3896 130.115 98.4856 135.707C99.9456 137.704 101.809 139.795 102.998 141.91C103.832 143.392 104.868 144.395 105.146 145.986C105.661 148.947 102.145 154.724 106.929 155.859C115.019 157.779 120.504 148.454 117.974 138.041C115.883 129.439 93.6796 97.5128 91.2406 93.0168C89.3436 89.5188 86.6886 84.6918 83.1976 81.2328Z" fill="#DBA77D"/>
<path d="M169.909 91.7749C169.437 77.1829 163.132 66.9079 146.974 70.8929C134.569 73.9539 130.356 83.9559 132.253 96.1989C133.342 103.207 135.157 110.473 135.025 116.597C134.961 119.513 131.26 131.472 130.414 134.7C129.692 137.449 128.537 138.963 126.575 141.262C123.389 144.995 121.5 153.845 129.264 153.268C133.832 152.927 140.176 146.859 142.918 143.684C150.836 134.525 154.073 123.181 160.838 113.497C166.146 105.901 170.228 101.666 169.909 91.7749Z" fill="#DBA77D"/>
<path d="M175.169 56.6722C170.589 53.9142 161.52 53.9642 156.509 55.0262C153.648 55.6312 150.778 56.8082 147.738 57.2982C142.422 58.1532 137.177 58.1162 131.836 57.6372C124.057 56.9402 112.82 49.1352 110.991 47.3522C110.539 46.9122 110.108 46.4732 109.677 46.0342C100.247 71.9332 73.2349 71.8642 63.2959 70.8972C63.6329 72.3192 63.8459 73.7332 64.0159 75.1452C64.4159 78.4542 65.4879 82.7042 66.5079 86.0472C66.8009 97.3192 72.3749 107.9 83.7919 114.492C98.3099 122.876 114.612 117.934 129.195 113.137C135.48 111.07 136.773 108.473 143.421 107.894C149.601 107.355 160.701 109.933 166.823 108.856C177.676 106.946 185.183 99.2302 188.345 87.5802C191.121 77.3552 183.66 61.7842 175.169 56.6722Z" fill="#FFDDBB"/>
<path d="M164.43 97.3947C159.703 93.6147 151.265 93.9947 145.71 94.9207C137.403 96.3057 130.087 102.241 121.443 101.867C112.906 101.497 104.194 99.3507 96.0375 96.8647C91.9935 95.6327 89.0085 95.0566 84.6145 95.4106C80.2595 95.7616 77.9935 98.5136 74.2675 99.1566C72.4305 99.4736 70.6575 98.8137 69.2725 98.6667C72.0125 104.932 76.8074 110.462 83.7924 114.495C98.3104 122.879 114.612 117.937 129.195 113.14C135.48 111.073 136.773 108.476 143.421 107.897C149.601 107.358 160.701 109.936 166.823 108.859C167.323 108.771 167.815 108.667 168.301 108.554C169.024 104.445 168.115 100.342 164.43 97.3947Z" fill="#EFC095"/>
<path d="M104.882 87.9697C96.11 79.0687 79.54 78.8977 81.526 91.2167C83.271 102.028 92.244 112.115 99.636 121.615C103.428 126.488 117.104 145.453 117.644 150.416C117.831 152.127 113.997 157.223 116.49 158.867C123.327 163.377 131.976 156.976 132.94 149.476C133.866 142.27 128.047 132.803 124.536 125.619C118.301 112.85 116.218 99.4807 104.882 87.9697Z" fill="#FFDDBB"/>
<path d="M188.753 90.3158C190.567 73.9978 185.311 66.5719 166.771 68.3709C152.536 69.7529 146.267 80.1968 146.408 94.1328C146.493 102.111 147.339 110.494 146.211 117.289C145.674 120.523 139.658 133.229 138.203 136.684C136.963 139.625 135.44 141.123 132.899 143.361C128.772 146.994 125.262 156.536 133.955 157.161C139.07 157.528 147.072 151.808 150.619 148.724C160.857 139.823 166.261 127.726 175.308 118.051C182.405 110.465 187.521 101.377 188.753 90.3158Z" fill="#FFDDBB"/>
<path d="M59.9117 37.6964C56.7927 35.6244 53.6427 33.6004 50.5547 31.4654C46.3667 28.5694 38.9107 35.6574 34.0277 34.3964C28.0467 32.8524 22.9587 25.7894 26.3327 15.5924C29.0147 7.4864 41.4157 3.38239 46.5547 4.47839C50.3417 5.28739 50.3097 13.8894 54.0257 14.7264C58.9397 15.8304 63.6677 14.6754 67.9037 17.5124C74.5777 21.9794 73.6027 30.0124 77.0327 36.1604C77.9137 37.7414 80.6327 39.9064 80.0137 42.1214C77.5667 50.8984 63.5987 40.1454 59.9117 37.6964Z" fill="#CE945F"/>
<path d="M107.765 42.4413C105.17 40.4353 104.03 39.9363 104.03 39.9363C104.03 39.9393 104.034 39.9463 104.031 39.9453C94.7978 36.5433 59.9208 59.5153 59.5578 71.8493C59.4378 76.0443 61.9578 78.3953 64.3908 79.1323C66.3288 79.4953 108.886 81.2943 111.02 48.4733C111.02 48.4733 111.264 45.1463 107.765 42.4413Z" fill="#EF4136"/>
<path d="M104.031 39.9457C102.291 36.9817 98.9042 34.6197 97.6052 30.7927C95.7032 25.1897 94.4092 19.7317 91.0482 14.8137C85.8872 7.25667 81.4132 3.90467 73.5592 1.99967C63.3562 -0.47533 52.9342 1.12666 43.2992 5.98166C34.0232 10.6557 28.8232 17.5097 27.0352 27.9657C25.6432 36.1037 24.6242 39.5537 17.0042 43.3547C14.3902 44.6587 11.4042 44.8447 8.7482 46.0187C6.5802 46.9767 2.15521 49.3297 1.79421 51.7537C1.46421 53.9637 3.7112 69.1157 13.3422 74.9807C17.5862 77.5657 22.8682 77.8627 27.7312 76.8377C32.5942 75.8127 37.1882 73.7797 42.0062 72.5597C46.0452 71.5367 55.8652 70.5167 59.5572 71.8487C80.6942 72.5177 107.247 58.9577 104.031 39.9457Z" fill="#FFDDBB"/>
<path d="M93.7552 35.6915C90.8223 33.1125 87.8353 30.5845 84.9583 27.9345C81.0573 24.3375 77.3633 21.9625 72.1123 20.2375C65.6783 18.1225 50.6552 17.3695 58.5182 5.9075C62.9132 -0.499503 77.7922 1.48851 83.3952 3.03651C87.5262 4.17651 90.5063 7.42551 94.5433 8.59451C99.8833 10.1395 105.757 9.04051 109.734 12.5705C116 18.1295 112.203 27.4475 114.145 34.7975C114.644 36.6875 117.083 39.3545 115.63 41.9055C109.875 52.0115 97.2243 38.7395 93.7552 35.6915Z" fill="#E5B27F"/>
<path d="M56.8174 29.8793C57.0184 34.4013 54.8944 38.1703 52.0694 38.2963C49.2464 38.4223 46.7944 34.8583 46.5914 30.3363C46.3894 25.8123 48.5144 22.0443 51.3374 21.9183C54.1624 21.7923 56.6144 25.3563 56.8174 29.8793Z" fill="#0B0808"/>
<path d="M51.5184 28.2417C51.0284 30.0147 49.8173 31.2287 48.8113 30.9507C47.8063 30.6737 47.3883 29.0107 47.8773 27.2367C48.3673 25.4627 49.5784 24.2497 50.5834 24.5267C51.5894 24.8047 52.0073 26.4677 51.5184 28.2417Z" fill="white"/>
<path d="M33.8011 31.0567C33.5971 34.5427 32.1131 37.2907 30.4881 37.1957C28.8611 37.1007 27.7081 34.1977 27.9121 30.7117C28.1171 27.2257 29.6001 24.4767 31.2251 24.5717C32.8521 24.6667 34.0051 27.5707 33.8011 31.0567Z" fill="#0B0808"/>
<path d="M31.158 28.9867C30.785 30.3377 29.959 31.2887 29.313 31.1097C28.667 30.9317 28.446 29.6917 28.819 28.3407C29.192 26.9897 30.018 26.0387 30.663 26.2167C31.309 26.3957 31.53 27.6357 31.158 28.9867Z" fill="white"/>
<path d="M18.3236 50.0675C17.8076 59.2635 1.13465 62.8195 0.118645 55.2375C-0.796355 48.4015 3.77565 46.6575 7.14465 46.1785C11.3406 45.5825 18.6746 43.8255 18.3236 50.0675Z" fill="#0B0808"/>
<path d="M5.66078 51.6491C4.00078 52.5661 2.26978 52.6131 1.79578 51.7531C1.32178 50.8941 2.28277 49.4551 3.94277 48.5381C5.60377 47.6211 7.33378 47.5741 7.80778 48.4331C8.28278 49.2921 7.32078 50.7321 5.66078 51.6491Z" fill="white"/>
<path d="M13.6985 68.4016C13.6045 67.7906 14.3685 67.5806 14.2945 67.2446C14.3285 67.2566 14.3645 67.2666 14.4005 67.2796C14.4265 67.2556 14.4545 67.2316 14.4825 67.2096L14.5055 67.3166C16.8255 68.1366 18.8985 68.4516 21.2795 67.4606C22.9255 66.7746 25.8985 64.2566 26.4795 62.3136C26.6845 61.6286 27.3845 61.2876 28.0415 61.5486C28.6995 61.8116 29.0665 62.5786 28.8625 63.2626C27.9645 66.2666 24.1845 69.1616 22.3195 69.9386C21.5965 70.2406 20.8975 70.4466 20.2195 70.5746C18.0995 70.9726 16.0945 71.1106 14.4145 69.7136C14.1465 69.4906 13.8435 68.8676 13.7325 68.5376C13.7165 68.4906 13.7055 68.4456 13.6985 68.4016Z" fill="black"/>
<path d="M15.444 70.061C15.824 70.036 16.185 69.853 16.433 69.521C16.908 68.884 17.033 68.56 16.401 68.027C16.333 67.968 12.946 64.571 10.303 57.614C10.002 56.828 9.161 56.408 8.425 56.679C7.686 56.951 7.332 57.812 7.63 58.598C10.623 66.474 14.262 69.583 14.416 69.713C14.721 69.971 15.091 70.084 15.444 70.061Z" fill="black"/>
</svg>
