<svg width="234" height="217" viewBox="0 0 234 217" fill="none" xmlns="http://www.w3.org/2000/svg">
<path opacity="0.3" d="M198.741 205.85C198.741 211.489 164.779 216.061 122.876 216.061C80.9747 216.061 47.0098 211.489 47.0098 205.85C47.0098 200.207 80.9747 195.632 122.876 195.632C164.779 195.632 198.741 200.207 198.741 205.85Z" fill="#231F20"/>
<path d="M73.7409 19.7744C70.1229 20.7384 66.5189 21.7564 62.8739 22.6544C57.9299 23.8724 54.0679 25.4164 49.8889 28.2384C44.7689 31.6954 36.1369 41.3574 31.2369 31.7984C28.4959 26.4564 38.0329 17.3584 42.2589 14.2354C45.3739 11.9344 49.5479 11.1934 52.6369 8.96437C56.7199 6.01537 58.9869 1.70836 63.9179 0.415364C71.6859 -1.62364 77.0569 4.42837 83.9349 5.93237C85.7029 6.32037 89.1259 5.71836 90.3749 7.64936C95.3269 15.2974 78.0179 18.6354 73.7409 19.7744Z" fill="#CE945F"/>
<path d="M187.782 84.0826C186.349 85.1066 184.95 86.1206 183.669 87.3346C182.184 88.7376 180.835 89.8596 178.974 90.8816C172.515 94.4256 159.821 99.5336 158.923 91.1716C158.915 91.0976 158.909 91.0216 158.901 90.9466C158.418 85.1846 165.363 81.4266 171.091 79.0476C174.53 77.6186 178.037 76.4516 181.51 75.1536C185.934 73.5006 190.244 71.1006 194.064 68.3166C195.942 66.9476 206.911 55.9836 208.12 54.7306C210.813 51.9436 207.413 61.2536 207.175 61.7146C202.779 70.2156 200.973 71.6606 199.356 73.7206C196.12 77.8416 192.28 80.8656 187.782 84.0826Z" fill="#FFDDBB"/>
<path d="M84.8209 119.529C87.4779 117.05 89.402 114.084 89.512 110.555C89.769 102.366 83.9759 96.5236 76.1379 98.4196C63.6459 101.441 56.5049 113.097 46.6669 120.71C41.1429 124.986 35.5379 128.805 29.7899 132.681C27.7379 134.062 25.5749 135.842 23.4159 136.947C21.903 137.722 20.3929 137.966 18.7919 138.182C15.8129 138.581 10.1729 135.946 9.97991 140.858C9.68691 148.281 21.607 153.595 26.697 152.062C35.172 149.507 68.1419 129.368 72.7289 127.105C76.3009 125.347 81.2279 122.882 84.8209 119.529Z" fill="#DBA77D"/>
<path d="M143.884 108.812C129.479 106.437 118.173 110.622 118.94 127.247C119.53 140.011 128.521 146.089 140.899 146.61C147.985 146.905 155.465 146.538 161.447 147.859C164.294 148.489 175.306 154.446 178.307 155.904C180.863 157.147 182.124 158.575 183.997 160.946C187.039 164.797 195.353 168.371 196.296 160.644C196.85 156.097 192.132 148.693 189.551 145.386C182.107 135.838 171.61 130.456 163.426 121.937C157.008 115.25 153.648 110.422 143.884 108.812Z" fill="#DBA77D"/>
<path d="M171.746 81.5467C167.239 78.6717 158.172 78.4867 153.135 79.4187C150.259 79.9497 147.36 81.0517 144.308 81.4627C138.972 82.1797 133.697 82.2437 128.402 81.3907C123.561 80.6117 118.747 79.3887 114.369 77.3617C114.275 77.2447 114.184 77.1287 114.088 77.0127C112.094 74.5827 109.612 72.3997 107.83 70.5707C107.39 70.1197 106.97 69.6687 106.551 69.2197C96.455 94.8667 69.454 94.0997 59.543 92.8767C59.844 94.3067 60.02 95.7257 60.153 97.1417C60.467 100.46 61.4289 104.736 62.3619 108.104C62.3639 119.38 67.663 130.102 78.905 136.986C93.202 145.742 109.626 141.223 124.328 136.804C130.664 134.9 132.024 132.337 138.685 131.93C144.877 131.551 155.907 134.415 162.055 133.496C172.954 131.867 180.658 124.347 184.119 112.783C187.158 102.634 180.101 86.8757 171.746 81.5467Z" fill="#FFDDBB"/>
<path d="M108.739 67.2124C106.495 64.8204 105.449 64.1464 105.449 64.1464C105.449 64.1494 105.451 64.1574 105.449 64.1554C96.872 59.3314 58.793 76.4824 56.479 88.6024C55.695 92.7254 57.81 95.4464 60.096 96.5594C61.952 97.2254 103.685 105.75 110.997 73.6834C110.997 73.6834 111.765 70.4384 108.739 67.2124Z" fill="#EF4136"/>
<path d="M105.448 64.155C104.2 60.953 101.231 58.084 100.556 54.099C99.5655 48.265 99.1535 42.672 96.6165 37.282C92.7195 29.002 88.8325 24.983 81.3805 21.856C71.6995 17.794 61.1545 17.723 50.8725 20.988C40.9725 24.132 34.7515 30.075 31.3275 40.115C28.6625 47.929 27.1085 51.174 18.9825 53.719C16.1945 54.592 13.2175 54.303 10.4085 55.04C8.11651 55.643 3.37451 57.264 2.63251 59.599C1.95651 61.729 1.77253 77.045 10.3505 84.364C14.1315 87.589 19.2995 88.72 24.2635 88.48C29.2275 88.24 34.0855 86.961 39.0355 86.52C43.1855 86.151 53.0435 86.701 56.4775 88.601C77.2415 92.614 105.608 83.437 105.448 64.155Z" fill="#FFDDBB"/>
<path d="M104.991 48.269C101.604 46.323 98.1748 44.438 94.8298 42.412C90.2928 39.661 86.2008 38.066 80.7128 37.417C73.9868 36.621 59.1138 38.864 64.5458 26.069C67.5818 18.917 82.5598 17.914 88.3578 18.319C92.6328 18.617 96.1988 21.21 100.387 21.555C105.927 22.009 111.466 19.767 116.065 22.437C123.309 26.642 121.437 36.528 124.799 43.347C125.663 45.1 128.583 47.23 127.665 50.019C124.028 61.067 108.996 50.569 104.991 48.269Z" fill="#E5B27F"/>
<path d="M60.4272 46.7298C59.9092 51.2268 57.2133 54.6108 54.4043 54.2878C51.5973 53.9648 49.7413 50.0568 50.2583 45.5598C50.7763 41.0608 53.4712 37.6778 56.2782 38.0008C59.0872 38.3248 60.9442 42.2328 60.4272 46.7298Z" fill="#0B0808"/>
<path d="M55.4554 44.2711C54.6904 45.9441 53.3024 46.9501 52.3534 46.5161C51.4054 46.0831 51.2564 44.3751 52.0204 42.7011C52.7854 41.0271 54.1734 40.0221 55.1224 40.4551C56.0704 40.8891 56.2194 42.5981 55.4554 44.2711Z" fill="white"/>
<path d="M37.5162 44.2416C36.7622 47.6506 34.8612 50.1296 33.2712 49.7776C31.6802 49.4256 31.0022 46.3766 31.7562 42.9666C32.5112 39.5566 34.4112 37.0786 36.0012 37.4296C37.5922 37.7826 38.2702 40.8326 37.5162 44.2416Z" fill="#0B0808"/>
<path d="M159.959 121.976C155.331 118.075 146.886 118.237 141.309 119.019C132.969 120.189 125.502 125.934 116.871 125.335C108.346 124.745 99.6928 122.375 91.6028 119.679C87.5918 118.344 84.6227 117.691 80.2217 117.93C75.8597 118.168 73.5227 120.861 69.7817 121.407C67.9367 121.676 66.1818 120.971 64.8008 120.788C67.3778 127.121 72.0277 132.773 78.9067 136.985C93.2037 145.741 109.628 141.222 124.33 136.803C130.666 134.899 132.026 132.336 138.687 131.929C144.879 131.55 155.909 134.414 162.057 133.495C162.559 133.42 163.054 133.328 163.542 133.228C164.37 129.143 163.567 125.018 159.959 121.976Z" fill="#EFC095"/>
<path d="M102.585 126.395C107.482 114.897 101.34 99.5074 90.7017 106.027C81.3667 111.751 75.4487 123.886 69.4727 134.334C66.4077 139.695 52.6787 160.225 48.2937 162.611C46.7827 163.434 43.7857 162.401 43.2127 165.333C41.6407 173.371 53.4317 175.486 57.2457 174.481C64.2727 172.637 69.9277 164.865 75.2367 158.886C84.6747 148.267 96.2477 141.256 102.585 126.395Z" fill="#FFDDBB"/>
<path d="M171.974 98.7426C155.679 96.7346 143.15 101.925 144.728 120.486C145.941 134.737 156.309 141.129 170.246 141.155C178.225 141.165 186.617 140.419 193.398 141.628C196.625 142.204 209.259 148.37 212.696 149.866C215.622 151.141 217.101 152.681 219.31 155.249C222.894 159.419 232.393 163.043 233.122 154.357C233.55 149.247 227.926 141.177 224.884 137.594C216.105 127.25 204.074 121.703 194.507 112.542C187.005 105.354 183.019 100.106 171.974 98.7426Z" fill="#FFDDBB"/>
<path d="M35.235 41.7782C34.653 43.0532 33.686 43.8602 33.077 43.5822C32.468 43.3042 32.446 42.0452 33.028 40.7702C33.611 39.4952 34.5769 38.6872 35.1859 38.9662C35.7949 39.2442 35.817 40.5032 35.235 41.7782Z" fill="white"/>
<path d="M19.2196 60.557C17.2516 69.554 0.225576 70.421 0.425576 62.774C0.605576 55.879 5.39656 54.882 8.79856 54.944C13.0366 55.022 20.5566 54.45 19.2196 60.557Z" fill="#0B0808"/>
<path d="M6.46614 60.111C4.68214 60.753 2.9652 60.525 2.6332 59.601C2.3012 58.678 3.47814 57.409 5.26314 56.767C7.04814 56.125 8.76415 56.353 9.09615 57.276C9.42815 58.2 8.25014 59.469 6.46614 60.111Z" fill="white"/>
<path d="M11.7461 77.9264C11.7501 77.3084 12.5381 77.2224 12.5181 76.8794C12.5501 76.8974 12.5841 76.9124 12.6171 76.9314C12.6471 76.9114 12.677 76.8934 12.709 76.8754L12.7151 76.9844C14.8761 78.1624 16.872 78.8024 19.381 78.2004C21.115 77.7844 24.4501 75.7694 25.3311 73.9434C25.6421 73.2994 26.3871 73.0744 26.9941 73.4364C27.6021 73.8004 27.8431 74.6154 27.5331 75.2594C26.1701 78.0834 21.978 80.3424 20.014 80.8134C19.252 80.9974 18.5291 81.0894 17.8401 81.1084C15.6831 81.1654 13.6831 80.9834 12.2451 79.3374C12.0161 79.0754 11.8151 78.4114 11.7581 78.0684C11.7501 78.0174 11.7461 77.9704 11.7461 77.9264Z" fill="black"/>
<path d="M13.2053 79.8422C13.5843 79.8772 13.9704 79.7542 14.2674 79.4652C14.8374 78.9112 15.0124 78.6112 14.4724 77.9852C14.4144 77.9162 11.6094 74.0252 10.1024 66.7372C9.93037 65.9132 9.16532 65.3652 8.39632 65.5162C7.62332 65.6682 7.13733 66.4612 7.30733 67.2852C9.01333 75.5362 12.1123 79.1832 12.2443 79.3352C12.5063 79.6382 12.8533 79.8082 13.2053 79.8422Z" fill="black"/>
</svg>
