<svg width="169" height="211" viewBox="0 0 169 211" fill="none" xmlns="http://www.w3.org/2000/svg">
<path d="M25.975 187.093C32.897 192.793 37.947 198.575 42.511 189.413C42.553 189.333 42.593 189.249 42.632 189.166C45.622 182.796 41.6021 181.958 36.3981 176.487C35.4081 175.446 24.8471 164.943 19.0801 157.373C6.63106 141.032 2.33901 127.305 1.80101 127.007C-1.44399 125.204 -0.592974 147.608 6.73503 163.231C13.039 176.668 23.903 185.387 25.975 187.093Z" fill="#FFDDBB"/>
<path d="M123.574 155.207C134.128 162.297 150.93 150.906 154.675 138.01C154.896 137.248 155.196 133.449 153.241 131.624C152.14 130.596 148.457 131.455 147.008 131.695C142.859 132.382 134.399 140.083 130.564 137.88C128.064 136.444 126.676 117.215 125.405 114.124C123.737 110.066 119.059 108.402 114.762 114.53C109.421 122.147 111.421 135.234 114.863 143.233C116.875 147.907 119.553 152.305 123.196 154.944C123.322 155.034 123.447 155.122 123.574 155.207Z" fill="#FFDDBB"/>
<path d="M168.411 136.887C169.126 144.707 162.864 146.192 156.555 146.147C148.42 146.089 146.324 143.194 145.638 138.366C144.957 133.545 149.498 129.3 155.785 128.89C162.074 128.482 167.968 132.036 168.411 136.887Z" fill="#FFDDBB"/>
<path opacity="0.3" d="M130.193 201.781C130.193 206.518 104.894 210.356 73.6871 210.356C42.4711 210.356 17.1731 206.517 17.1731 201.781C17.1731 197.042 42.5331 193.403 73.7481 193.403C104.955 193.403 130.193 197.042 130.193 201.781Z" fill="#231F20"/>
<path d="M101.557 147.651C107.081 148.72 114.532 152.799 114.827 158.88C115.063 163.753 114.064 168.866 112.418 173.434C111.586 175.743 108.679 183.596 107.09 186.517C109.396 185.673 113.657 188.479 114.348 191.613C115.455 196.629 109.876 197.978 107.916 198.197C105.159 198.504 100.685 198.614 96.686 197.689C93.843 197.031 91.658 195.575 91.512 192.626C86.793 195.007 78.6811 193.109 75.8131 188.714C72.9461 184.319 69.947 173.25 74.868 162.619C79.79 151.988 95.2221 146.426 101.557 147.651Z" fill="#DBA77D"/>
<path d="M49.905 129.041C36.514 147.192 22.718 162.313 25.347 178.298C28.731 198.876 59.513 201.691 74.238 195.031C83.066 191.038 90.441 184.074 95.911 175.916C98.5441 171.989 100.771 167.77 103.66 164.038C110.206 155.581 119.072 147.1 122.917 136.61C126.358 127.221 128.194 115.111 121.776 106.72C117.99 101.77 101.998 95.3088 96.634 91.9828C91.366 88.7168 77.046 89.7388 70.709 88.6708C66.179 87.9078 62.254 112.303 49.905 129.041Z" fill="#FFDDBB"/>
<path d="M111.488 136.959C101.037 139.505 88.8801 139.032 78.9051 135.007C70.2361 156.191 55.0531 173.941 40.1211 191.288C39.3291 192.208 38.5361 193.129 37.7341 194.042C48.9161 199.662 66.3961 201.043 75.7921 196.793C84.6201 192.8 90.4401 184.073 95.9111 175.915C98.5441 171.988 100.771 167.769 103.66 164.037C110.206 155.58 119.072 147.099 122.917 136.609C123.435 135.195 123.916 133.718 124.339 132.202C120.263 134.2 116.029 135.853 111.488 136.959Z" fill="#E8BB91"/>
<path d="M71.1461 80.105C70.7711 72.856 72.6141 64.965 72.7181 57.223C72.8121 50.321 72.3171 43.785 74.1671 37.154C78.1411 22.903 88.5331 13.566 104.18 15.154C113.358 16.085 121.979 21.481 126.828 29.33C131.034 36.138 132.368 44.303 133.16 52.266C134.046 61.17 134.318 70.492 131.669 79.143C130.556 82.777 128.948 86.467 126.593 89.455C124.748 91.795 122.242 93.552 120.63 96.085C119.395 98.026 119.081 100.95 117.472 102.621C112.833 107.438 103.156 105.865 97.4751 104.547C91.3671 103.131 85.2791 101.092 80.2221 97.384C73.5741 92.507 71.4801 86.561 71.1461 80.105Z" fill="#E8BB91"/>
<path d="M71.4611 81.9287C83.9581 98.8307 101.273 100.556 122.213 97.2387C123.928 99.5707 123.788 105.34 122.274 106.885C120.332 107.78 85.657 117.565 66.423 91.8887C66.423 91.8887 65.508 87.1777 67.585 84.8647C69.448 82.7907 71.4611 81.9287 71.4611 81.9287Z" fill="#EF4136"/>
<path d="M138.184 48.5979C136.827 44.5219 135.401 40.4639 134.129 36.3509C132.402 30.7709 130.291 26.4599 126.525 21.8909C121.912 16.2919 109.205 7.17389 121.341 0.750891C128.125 -2.84011 140.137 7.36787 144.291 11.9639C147.352 15.3539 148.44 20.0899 151.407 23.4539C155.333 27.9009 160.946 30.1519 162.771 35.7089C165.644 44.4669 158.034 51.1389 156.321 59.1679C155.88 61.2319 156.765 65.1149 154.322 66.7099C144.642 73.0339 139.789 53.4199 138.184 48.5979Z" fill="#D88D50"/>
<path d="M66.7451 27.1185C67.0911 23.1235 66.4861 19.6835 68.1461 15.7995C69.7071 12.1475 72.36 8.94647 75.637 6.70747C81.664 2.59047 89.422 1.53345 96.629 2.68245C97.669 2.84845 98.7161 3.05745 99.7661 2.97145C100.982 2.87145 102.125 2.38045 103.284 2.00145C112.61 -1.05155 122.826 3.15847 130.739 8.96147C133.661 11.1045 136.471 13.5345 138.301 16.6615C141.958 22.9075 141.115 30.6825 140.435 37.8885C139.612 46.6145 140.593 52.7624 145.218 60.1044C147.914 64.3834 148.223 69.8275 147.156 74.7715C145.007 84.7325 136.12 99.8465 115.534 101.3C111.214 101.605 93.4301 106.006 80.7351 80.2554C78.8161 76.3634 79.318 70.2675 78.319 67.7075C76.753 63.6935 73.7111 60.1995 71.6531 56.4305C69.2551 52.0335 68.124 47.2095 67.296 42.1665C66.489 37.2355 66.3211 32.0165 66.7451 27.1185Z" fill="#FFDDBB"/>
<path d="M73.517 59.8265C73.172 55.4145 72.902 50.9905 72.464 46.5775C71.869 40.5885 72.143 35.6534 73.878 29.8114C76.002 22.6544 84.366 8.92645 70.344 7.66645C62.505 6.96145 55.232 21.4464 53.142 27.4684C51.603 31.9084 52.464 36.8404 51.004 41.2184C49.07 47.0084 44.6671 51.3834 45.1611 57.3894C45.9401 66.8534 55.7881 70.1554 60.6061 77.0984C61.8471 78.8835 62.5591 82.9234 65.5021 83.4644C77.1631 85.6104 73.925 65.0465 73.517 59.8265Z" fill="#D88D50"/>
<path d="M84.173 44.9656C85.131 49.7106 88.31 53.0736 91.274 52.4746C94.235 51.8766 95.86 47.5436 94.902 42.7986C93.944 38.0526 90.765 34.6906 87.803 35.2886C84.84 35.8876 83.215 40.2196 84.173 44.9656Z" fill="black"/>
<path d="M121.447 39.4042C122.405 44.1502 125.583 47.5122 128.547 46.9142C131.51 46.3162 133.135 41.9843 132.176 37.2383C131.218 32.4923 128.039 29.1303 125.076 29.7293C122.112 30.3273 120.488 34.6582 121.447 39.4042Z" fill="black"/>
<path d="M108.844 67.6818C108.584 79.3148 135.174 74.2938 134.612 65.4808C134.104 57.5328 125.377 58.3588 120.73 58.7548C115.002 59.2428 109.005 60.4438 108.844 67.6818Z" fill="black"/>
<path d="M120.157 86.2256C120.395 86.1916 120.627 86.1076 120.829 85.9706C127.558 81.4216 124.382 71.6096 124.244 71.1946C124.053 70.6256 123.313 70.3196 122.6 70.5056C121.882 70.6946 121.453 71.3086 121.641 71.8786C121.67 71.9666 124.501 80.7406 119.178 84.3386C118.591 84.7356 118.485 85.4226 118.94 85.8736C119.24 86.1696 119.706 86.2896 120.157 86.2256Z" fill="black"/>
<path d="M74.3861 130.697C78.0381 117.494 93.5711 107.678 98.0871 120.03C102.048 130.869 98.8201 145.266 96.7801 158.209C95.7301 164.849 91.5281 191.242 93.5921 196.066C94.3051 197.73 98.3861 198.616 97.8751 201.885C96.6211 209.907 79.9351 207.286 78.5441 203.415C76.1041 196.625 75.7981 184.941 75.3811 176.366C74.6381 161.129 69.6691 147.766 74.3861 130.697Z" fill="#FFDDBB"/>
<path d="M68.2321 197.021C68.2351 196.559 68.2061 196.074 68.1031 195.543C67.4021 191.941 63.0941 188.715 60.7631 189.684C62.3681 186.327 65.3021 177.304 66.1421 174.651C67.8041 169.403 69.5561 163.502 69.3151 157.902C69.0141 150.914 61.5441 145.059 55.9591 143.828C49.5541 142.417 35.6521 149.134 30.6841 161.348C28.1561 167.561 25.1961 174.759 25.7401 180.159C28.0551 189.108 35.8671 194.356 44.9621 196.723C44.9801 196.713 45.0011 196.706 45.0191 196.695C45.0201 196.71 45.0221 196.724 45.0231 196.739C52.6951 198.724 61.2681 198.661 68.2321 197.021Z" fill="#E8BB91"/>
<path d="M53.095 147.362C58.68 148.593 66.214 153.285 66.516 160.273C66.757 165.873 65.75 171.749 64.088 176.997C63.248 179.65 60.314 188.673 58.709 192.03C61.04 191.061 65.348 194.288 66.049 197.889C67.171 203.654 61.532 205.202 59.551 205.452C56.764 205.803 52.242 205.927 48.198 204.862C45.324 204.105 43.114 202.43 42.965 199.041C38.196 201.775 29.994 199.59 27.093 194.538C24.192 189.486 21.155 176.764 26.124 164.55C31.092 152.335 46.691 145.951 53.095 147.362Z" fill="#FFDDBB"/>
<path d="M135.584 77.1926C136.557 77.9096 133.271 96.0155 119.165 97.2265C99.2542 98.9355 104.246 75.5626 104.327 77.6306C104.33 77.7136 110.926 82.7605 124.194 81.5495C131.61 80.8715 135.286 76.9726 135.584 77.1926Z" fill="#A00A2B"/>
<path d="M118.293 83.1141C109.954 83.1141 103.965 78.5221 103.659 78.2821C103.167 77.8981 103.073 77.1771 103.447 76.6731C103.821 76.1671 104.525 76.0711 105.017 76.4531C105.1 76.5171 113.488 82.9161 123.735 80.0731C123.882 80.0321 124.036 80.0241 124.188 80.0461C124.247 80.0541 130.414 80.8791 134.791 76.3801C135.228 75.9301 135.937 75.9291 136.376 76.3781C136.814 76.8271 136.815 77.5541 136.377 78.0041C131.66 82.8501 125.427 82.4881 124.108 82.3501C122.08 82.8911 120.129 83.1141 118.293 83.1141Z" fill="black"/>
</svg>
