<svg width="32" height="32" viewBox="0 0 32 32" fill="none" xmlns="http://www.w3.org/2000/svg">
<path d="M26.2312 21.6592C27.8218 20.0623 28.9624 17.9623 29.3343 15.7311C29.5187 14.6311 29.5812 13.5342 29.4374 12.4248C29.3562 11.7998 29.2562 11.1842 29.0781 10.5748C28.9062 9.98733 28.6749 9.41545 28.4187 8.8592C27.9374 7.8217 27.2624 6.86545 26.4874 6.02795C25.7093 5.19045 24.7781 4.4592 23.7812 3.90295C21.8437 2.82483 19.5531 2.29983 17.3406 2.51545C16.2281 2.62483 15.1406 2.84983 14.1062 3.2842C13.5249 3.52795 12.9593 3.7842 12.4249 4.11545C11.8843 4.4467 11.3749 4.8342 10.8937 5.2467C9.1718 6.7217 7.91555 8.79045 7.37805 10.9905C7.11868 12.0592 6.9968 13.1873 7.06243 14.2873C7.12805 15.3936 7.33118 16.503 7.7218 17.5405C7.94055 18.1248 8.19368 18.6998 8.49993 19.2436C8.81243 19.7967 9.1843 20.3029 9.57805 20.7998C10.2937 21.7092 11.1812 22.4811 12.1437 23.1186C13.9968 24.3498 16.2781 24.9905 18.4999 24.9436C20.7312 24.8936 22.9874 24.1873 24.7937 22.8623C25.2968 22.4967 25.7874 22.103 26.2312 21.6592C26.5156 21.378 26.6874 20.953 26.6874 20.553C26.6874 20.1686 26.5187 19.7123 26.2312 19.4467C25.9343 19.1748 25.5437 18.9717 25.1249 18.9905C24.7093 19.0092 24.3187 19.1498 24.0187 19.4467C23.7281 19.7373 23.4187 20.0092 23.0937 20.2623C23.1999 20.1811 23.303 20.0998 23.4093 20.0186C22.753 20.5248 22.0374 20.9436 21.2749 21.2686C21.3999 21.2155 21.5249 21.1623 21.6468 21.1123C20.8468 21.4498 20.0093 21.678 19.1499 21.7936C19.2874 21.7748 19.4281 21.7561 19.5656 21.7373C18.7124 21.8498 17.8499 21.8498 16.9937 21.7373C17.1312 21.7561 17.2718 21.7748 17.4093 21.7936C16.5499 21.678 15.7124 21.4498 14.9124 21.1123C15.0374 21.1655 15.1624 21.2186 15.2843 21.2686C14.5218 20.9436 13.8062 20.5217 13.1499 20.0186C13.2562 20.0998 13.3593 20.1811 13.4656 20.2623C12.8156 19.7561 12.2312 19.1717 11.7249 18.5217C11.8062 18.628 11.8874 18.7311 11.9687 18.8373C11.4624 18.1811 11.0437 17.4655 10.7187 16.703C10.7718 16.828 10.8249 16.953 10.8749 17.0748C10.5374 16.2748 10.3093 15.4373 10.1937 14.578C10.2124 14.7155 10.2312 14.8561 10.2499 14.9936C10.1374 14.1405 10.1374 13.278 10.2499 12.4217C10.2312 12.5592 10.2124 12.6998 10.1937 12.8373C10.3093 11.978 10.5374 11.1405 10.8749 10.3405C10.8218 10.4655 10.7687 10.5905 10.7187 10.7123C11.0437 9.94983 11.4656 9.2342 11.9687 8.57795C11.8874 8.6842 11.8062 8.78733 11.7249 8.89358C12.2312 8.24358 12.8156 7.6592 13.4656 7.15295C13.3593 7.2342 13.2562 7.31545 13.1499 7.3967C13.8062 6.89045 14.5218 6.4717 15.2843 6.1467C15.1593 6.19983 15.0343 6.25295 14.9124 6.30295C15.7124 5.96545 16.5499 5.73733 17.4093 5.6217C17.2718 5.64045 17.1312 5.6592 16.9937 5.67795C17.8468 5.56545 18.7093 5.56545 19.5656 5.67795C19.4281 5.6592 19.2874 5.64045 19.1499 5.6217C20.0093 5.73733 20.8468 5.96545 21.6468 6.30295C21.5218 6.24983 21.3968 6.1967 21.2749 6.1467C22.0374 6.4717 22.753 6.89358 23.4093 7.3967C23.303 7.31545 23.1999 7.2342 23.0937 7.15295C23.7437 7.6592 24.3281 8.24358 24.8343 8.89358C24.7531 8.78733 24.6718 8.6842 24.5906 8.57795C25.0968 9.2342 25.5156 9.94983 25.8406 10.7123C25.7874 10.5873 25.7343 10.4623 25.6843 10.3405C26.0218 11.1405 26.2499 11.978 26.3656 12.8373C26.3468 12.6998 26.3281 12.5592 26.3093 12.4217C26.4218 13.2748 26.4218 14.1373 26.3093 14.9936C26.3281 14.8561 26.3468 14.7155 26.3656 14.578C26.2499 15.4373 26.0218 16.2748 25.6843 17.0748C25.7374 16.9498 25.7906 16.8248 25.8406 16.703C25.5156 17.4655 25.0937 18.1811 24.5906 18.8373C24.6718 18.7311 24.7531 18.628 24.8343 18.5217C24.5812 18.8467 24.3093 19.1561 24.0187 19.4467C23.7343 19.7311 23.5624 20.1498 23.5624 20.553C23.5624 20.9373 23.7312 21.3936 24.0187 21.6592C24.3155 21.9311 24.7062 22.1342 25.1249 22.1155C25.5406 22.0967 25.9343 21.9592 26.2312 21.6592Z" fill="currentColor"/>
<path d="M5.25566 28.928L7.69316 26.4905C8.97754 25.2061 10.2619 23.9217 11.5463 22.6373C11.84 22.3436 12.1338 22.0498 12.4307 21.753C12.715 21.4686 12.8869 21.0498 12.8869 20.6467C12.8869 20.2623 12.7182 19.8061 12.4307 19.5405C12.1338 19.2686 11.7432 19.0655 11.3244 19.0842C10.9088 19.103 10.5182 19.2436 10.2182 19.5405C9.40566 20.353 8.59316 21.1655 7.78066 21.978C6.49629 23.2623 5.21191 24.5467 3.92754 25.8311C3.63379 26.1248 3.34004 26.4186 3.04316 26.7155C2.75879 26.9998 2.58691 27.4186 2.58691 27.8217C2.58691 28.2061 2.75566 28.6623 3.04316 28.928C3.34004 29.1998 3.73066 29.403 4.14941 29.3842C4.56504 29.3686 4.95566 29.228 5.25566 28.928Z" fill="currentColor"/>
<path d="M2.93401 23.6189C3.54964 24.2346 4.16526 24.8502 4.78089 25.4658C5.75901 26.4439 6.73401 27.4189 7.71214 28.3971C7.93714 28.6221 8.16214 28.8471 8.38714 29.0721C8.67151 29.3564 9.09026 29.5283 9.49339 29.5283C9.87776 29.5283 10.334 29.3596 10.5996 29.0721C10.8715 28.7752 11.0746 28.3846 11.0559 27.9658C11.0371 27.5502 10.8965 27.1596 10.5996 26.8596C9.98401 26.2439 9.36839 25.6283 8.75276 25.0127C7.77464 24.0346 6.79964 23.0596 5.82151 22.0814C5.59651 21.8564 5.37151 21.6314 5.14651 21.4064C4.86214 21.1221 4.44339 20.9502 4.04026 20.9502C3.65589 20.9502 3.19964 21.1189 2.93401 21.4064C2.66214 21.7033 2.45901 22.0939 2.47776 22.5127C2.49651 22.9283 2.63401 23.3189 2.93401 23.6189Z" fill="currentColor"/>
</svg>
