<svg width="28" height="28" viewBox="0 0 28 28" fill="none" xmlns="http://www.w3.org/2000/svg">
<path fill-rule="evenodd" clip-rule="evenodd" d="M3.50004 2.33301C4.14438 2.33301 4.66671 2.85535 4.66671 3.49967V18.8997C4.66671 19.899 4.66762 20.5784 4.71052 21.1035C4.75231 21.615 4.82806 21.8765 4.92103 22.059C5.14473 22.498 5.50169 22.855 5.94073 23.0787C6.1232 23.1717 6.38476 23.2474 6.89625 23.2891C7.42136 23.3321 8.1007 23.333 9.10004 23.333H24.5C25.1444 23.333 25.6667 23.8553 25.6667 24.4997C25.6667 25.144 25.1444 25.6663 24.5 25.6663H9.05184C8.11271 25.6663 7.33763 25.6663 6.70624 25.6148C6.05047 25.5612 5.44764 25.4462 4.88142 25.1577C4.00333 24.7103 3.28942 23.9964 2.84202 23.1183C2.5535 22.552 2.43851 21.9492 2.38493 21.2934C2.33335 20.662 2.33336 19.887 2.33337 18.9479V3.49967C2.33337 2.85535 2.85571 2.33301 3.50004 2.33301ZM22.1667 4.66634C22.8111 4.66634 23.3334 5.18868 23.3334 5.83301V19.833C23.3334 20.4774 22.8111 20.9997 22.1667 20.9997C21.5224 20.9997 21 20.4774 21 19.833V5.83301C21 5.18868 21.5224 4.66634 22.1667 4.66634ZM12.8334 6.99967C13.4777 6.99967 14 7.52201 14 8.16634V19.833C14 20.4774 13.4777 20.9997 12.8334 20.9997C12.189 20.9997 11.6667 20.4774 11.6667 19.833V8.16634C11.6667 7.52201 12.189 6.99967 12.8334 6.99967ZM17.5 10.4997C18.1444 10.4997 18.6667 11.022 18.6667 11.6663V19.833C18.6667 20.4774 18.1444 20.9997 17.5 20.9997C16.8557 20.9997 16.3334 20.4774 16.3334 19.833V11.6663C16.3334 11.022 16.8557 10.4997 17.5 10.4997ZM8.16671 13.9997C8.81105 13.9997 9.33337 14.522 9.33337 15.1663V19.833C9.33337 20.4774 8.81105 20.9997 8.16671 20.9997C7.52238 20.9997 7.00004 20.4774 7.00004 19.833V15.1663C7.00004 14.522 7.52238 13.9997 8.16671 13.9997Z" fill="#783D16"/>
</svg>
