<svg width="28" height="28" viewBox="0 0 28 28" fill="none" xmlns="http://www.w3.org/2000/svg">
<path d="M3.75953 8.34049C2.16891 9.93736 1.02828 12.0374 0.656406 14.2686C0.472031 15.3686 0.409531 16.4655 0.553281 17.5749C0.634531 18.1999 0.734531 18.8155 0.912656 19.4249C1.08453 20.0124 1.31578 20.5842 1.57203 21.1405C2.05328 22.178 2.72828 23.1342 3.50328 23.9717C4.28141 24.8092 5.21266 25.5405 6.20953 26.0967C8.14703 27.1749 10.4377 27.6999 12.6502 27.4842C13.7627 27.3749 14.8502 27.1499 15.8845 26.7155C16.4658 26.4717 17.0314 26.2155 17.5658 25.8842C18.1064 25.553 18.6158 25.1655 19.097 24.753C20.8189 23.278 22.0752 21.2092 22.6127 19.0092C22.872 17.9405 22.9939 16.8124 22.9283 15.7124C22.8627 14.6061 22.6595 13.4967 22.2689 12.4592C22.0502 11.8749 21.797 11.2999 21.4908 10.7561C21.1783 10.203 20.8064 9.69674 20.4127 9.19986C19.697 8.29049 18.8095 7.51861 17.847 6.88111C15.9939 5.64986 13.7127 5.00924 11.4908 5.05611C9.25953 5.10611 7.00328 5.81236 5.19703 7.13736C4.69391 7.50299 4.20328 7.89674 3.75953 8.34049C3.47516 8.62174 3.30328 9.04674 3.30328 9.44674C3.30328 9.83111 3.47203 10.2874 3.75953 10.553C4.05641 10.8249 4.44703 11.028 4.86578 11.0092C5.28141 10.9905 5.67203 10.8499 5.97203 10.553C6.26266 10.2624 6.57203 9.99049 6.89703 9.73736C6.79078 9.81861 6.68766 9.89986 6.58141 9.98111C7.23766 9.47486 7.95328 9.05611 8.71578 8.73111C8.59078 8.78424 8.46578 8.83736 8.34391 8.88736C9.14391 8.54986 9.98141 8.32174 10.8408 8.20611C10.7033 8.22486 10.5627 8.24361 10.4252 8.26236C11.2783 8.14986 12.1408 8.14986 12.997 8.26236C12.8595 8.24361 12.7189 8.22486 12.5814 8.20611C13.4408 8.32174 14.2783 8.54986 15.0783 8.88736C14.9533 8.83424 14.8283 8.78111 14.7064 8.73111C15.4689 9.05611 16.1845 9.47799 16.8408 9.98111C16.7345 9.89986 16.6314 9.81861 16.5252 9.73736C17.1752 10.2436 17.7595 10.828 18.2658 11.478C18.1845 11.3717 18.1033 11.2686 18.022 11.1624C18.5283 11.8186 18.947 12.5342 19.272 13.2967C19.2189 13.1717 19.1658 13.0467 19.1158 12.9249C19.4533 13.7249 19.6814 14.5624 19.797 15.4217C19.7783 15.2842 19.7595 15.1436 19.7408 15.0061C19.8533 15.8592 19.8533 16.7217 19.7408 17.578C19.7595 17.4405 19.7783 17.2999 19.797 17.1624C19.6814 18.0217 19.4533 18.8592 19.1158 19.6592C19.1689 19.5342 19.222 19.4092 19.272 19.2874C18.947 20.0499 18.5252 20.7655 18.022 21.4217C18.1033 21.3155 18.1845 21.2124 18.2658 21.1061C17.7595 21.7561 17.1752 22.3405 16.5252 22.8467C16.6314 22.7655 16.7345 22.6842 16.8408 22.603C16.1845 23.1092 15.4689 23.528 14.7064 23.853C14.8314 23.7999 14.9564 23.7467 15.0783 23.6967C14.2783 24.0342 13.4408 24.2624 12.5814 24.378C12.7189 24.3592 12.8595 24.3405 12.997 24.3217C12.1439 24.4342 11.2814 24.4342 10.4252 24.3217C10.5627 24.3405 10.7033 24.3592 10.8408 24.378C9.98141 24.2624 9.14391 24.0342 8.34391 23.6967C8.46891 23.7499 8.59391 23.803 8.71578 23.853C7.95328 23.528 7.23766 23.1061 6.58141 22.603C6.68766 22.6842 6.79078 22.7655 6.89703 22.8467C6.24703 22.3405 5.66266 21.7561 5.15641 21.1061C5.23766 21.2124 5.31891 21.3155 5.40016 21.4217C4.89391 20.7655 4.47516 20.0499 4.15016 19.2874C4.20328 19.4124 4.25641 19.5374 4.30641 19.6592C3.96891 18.8592 3.74078 18.0217 3.62516 17.1624C3.64391 17.2999 3.66266 17.4405 3.68141 17.578C3.56891 16.7249 3.56891 15.8624 3.68141 15.0061C3.66266 15.1436 3.64391 15.2842 3.62516 15.4217C3.74078 14.5624 3.96891 13.7249 4.30641 12.9249C4.25328 13.0499 4.20016 13.1749 4.15016 13.2967C4.47516 12.5342 4.89703 11.8186 5.40016 11.1624C5.31891 11.2686 5.23766 11.3717 5.15641 11.478C5.40953 11.153 5.68141 10.8436 5.97203 10.553C6.25641 10.2686 6.42828 9.84986 6.42828 9.44674C6.42828 9.06236 6.25953 8.60611 5.97203 8.34049C5.67516 8.06861 5.28453 7.86549 4.86578 7.88424C4.45016 7.90299 4.05641 8.04049 3.75953 8.34049Z" fill="currentColor"/>
<path d="M24.7348 1.07171C23.9223 1.88421 23.1098 2.69671 22.2973 3.50921C21.0129 4.79358 19.7285 6.07796 18.4441 7.36233C18.1504 7.65608 17.8566 7.94983 17.5598 8.24671C17.2754 8.53108 17.1035 8.94983 17.1035 9.35296C17.1035 9.73733 17.2723 10.1936 17.5598 10.4592C17.8566 10.7311 18.2473 10.9342 18.666 10.9155C19.0816 10.8967 19.4723 10.7561 19.7723 10.4592C20.5848 9.64671 21.3973 8.83421 22.2098 8.02171C23.4941 6.73733 24.7785 5.45296 26.0629 4.16858C26.3566 3.87483 26.6504 3.58108 26.9473 3.28421C27.2316 2.99983 27.4035 2.58108 27.4035 2.17796C27.4035 1.79358 27.2348 1.33733 26.9473 1.07171C26.6504 0.799833 26.2598 0.596708 25.841 0.615458C25.4254 0.631083 25.0348 0.771708 24.7348 1.07171Z" fill="currentColor"/>
<path d="M27.5127 7.48726C27.5158 6.88101 27.5158 6.27789 27.519 5.67164C27.5221 4.70601 27.5252 3.74039 27.5283 2.77789C27.5283 2.55601 27.5283 2.33414 27.5315 2.11226C27.5346 1.25914 26.8127 0.562264 25.969 0.549764C25.3533 0.540389 24.7377 0.534139 24.1252 0.524764C23.144 0.512264 22.1627 0.496639 21.1815 0.484139C20.9533 0.481014 20.7283 0.477888 20.5002 0.474763C20.1033 0.468513 19.6752 0.652889 19.394 0.931014C19.1221 1.20289 18.919 1.64664 18.9377 2.03726C18.9752 2.89351 19.6252 3.58726 20.5002 3.59976C21.1158 3.60914 21.7315 3.61539 22.344 3.62476C23.3252 3.63726 24.3065 3.65289 25.2877 3.66539C25.5158 3.66851 25.7408 3.67164 25.969 3.67476C25.4471 3.15289 24.9283 2.63414 24.4065 2.11226C24.4033 2.71851 24.4033 3.32164 24.4002 3.92789C24.3971 4.89351 24.394 5.85914 24.3908 6.82164C24.3908 7.04351 24.3908 7.26539 24.3877 7.48726C24.3877 7.88726 24.5627 8.30914 24.844 8.59351C25.1158 8.86539 25.5596 9.06851 25.9502 9.04976C26.8002 9.01226 27.5096 8.36226 27.5127 7.48726Z" fill="currentColor"/>
</svg>
