<svg width="40" height="40" viewBox="0 0 40 40" fill="none" xmlns="http://www.w3.org/2000/svg">
<circle cx="20" cy="20" r="18.5" fill="#F4F0ED" stroke="#6CA719" stroke-width="3"/>
<mask id="mask0_820_1456" style="mask-type:luminance" maskUnits="userSpaceOnUse" x="3" y="3" width="34" height="34">
<path d="M20.0075 36.719C29.2375 36.719 36.72 29.2366 36.72 20.0065C36.72 10.7764 29.2375 3.29395 20.0075 3.29395C10.7774 3.29395 3.29492 10.7764 3.29492 20.0065C3.29492 29.2366 10.7774 36.719 20.0075 36.719Z" fill="white"/>
<path d="M20.0075 36.719C29.2375 36.719 36.72 29.2366 36.72 20.0065C36.72 10.7764 29.2375 3.29395 20.0075 3.29395C10.7774 3.29395 3.29492 10.7764 3.29492 20.0065C3.29492 29.2366 10.7774 36.719 20.0075 36.719Z" fill="white"/>
</mask>
<g mask="url(#mask0_820_1456)">
<path d="M20.0075 36.719C29.2375 36.719 36.72 29.2366 36.72 20.0065C36.72 10.7764 29.2375 3.29395 20.0075 3.29395C10.7774 3.29395 3.29492 10.7764 3.29492 20.0065C3.29492 29.2366 10.7774 36.719 20.0075 36.719Z" fill="#E8DCD4"/>
</g>
<mask id="mask1_820_1456" style="mask-type:luminance" maskUnits="userSpaceOnUse" x="3" y="3" width="34" height="34">
<path d="M20.2877 36.7103C29.5163 36.5514 36.8688 28.9413 36.7099 19.7127C36.551 10.4841 28.941 3.13159 19.7123 3.29046C10.4837 3.44933 3.13123 11.0594 3.29011 20.288C3.44898 29.5166 11.0591 36.8691 20.2877 36.7103Z" fill="white"/>
</mask>
<g mask="url(#mask1_820_1456)">
<path d="M19.904 22.3756C20.4142 22.3587 20.8786 22.6415 21.3269 22.8856C21.7752 23.1297 22.2953 23.3488 22.7829 23.1979C23.2939 23.0397 23.5999 22.5306 24.0192 22.1981C24.4763 21.8355 25.0652 21.6877 25.5694 21.3941C26.0445 21.1175 26.4465 20.7007 26.6564 20.1926C26.8662 19.6845 26.8708 19.0842 26.6211 18.5945C26.5549 18.4647 26.4694 18.3325 26.4802 18.1872C26.4899 18.0564 26.5765 17.9451 26.6668 17.85C26.9062 17.5977 27.2032 17.3887 27.3641 17.0804C27.4892 16.8407 27.5193 16.5609 27.4987 16.2914C27.4396 15.517 26.9529 14.789 26.2598 14.4386C25.5667 14.0882 24.6919 14.1277 24.0332 14.5392C23.4115 14.9277 22.6219 14.8373 21.9962 15.2194C20.9493 15.8588 20.0235 16.6958 19.2823 17.6733C18.9474 18.1148 18.6465 18.592 18.4853 19.1222C18.3242 19.6524 18.3129 20.2434 18.5432 20.7475C18.6639 21.0116 18.8452 21.2427 19.0247 21.471C19.2686 21.781 19.5857 22.1426 19.904 22.3756Z" fill="black"/>
<path d="M17.0446 26.167C16.8101 27.0367 18.7478 28.2233 19.3218 28.1003C20.1949 27.9132 21.407 26.9701 22.0801 26.3405C22.1034 25.8263 22.1279 25.312 22.1512 24.7978C22.1806 24.1547 22.2111 23.5104 22.3047 22.8733C22.3338 22.6781 22.3676 22.4834 22.4073 22.2905C22.5028 21.8089 22.6255 21.3333 22.7481 20.8565C22.8489 20.4655 22.9496 20.0734 23.0503 19.6824C22.8054 19.8868 22.5787 19.9863 22.287 20.1203C21.0579 20.6847 19.808 21.202 18.5514 21.7028C18.1729 21.8533 17.7909 22.0042 17.3892 22.0709L17.2122 24.3192L17.0446 26.167Z" fill="#FFCFCA"/>
<path d="M17.2122 24.3202C18.6024 24.0707 19.9557 23.6237 21.2036 22.9682C21.6005 22.7601 22.0127 22.5362 22.4074 22.2915C22.5028 21.8099 22.6255 21.3343 22.7481 20.8575C22.8489 20.4666 22.9496 20.0744 23.0504 19.6834C22.8054 19.8878 22.5787 19.9873 22.2871 20.1213C21.058 20.6857 19.8081 21.203 18.5514 21.7038C18.1729 21.8543 17.7909 22.0052 17.3893 22.0719L17.2122 24.3202Z" fill="#F9BFBB"/>
<path d="M14.7958 20.5242C14.9997 21.2925 15.3278 22.0101 15.9511 22.5254C16.504 22.9822 17.2047 23.2616 17.9183 23.323C18.7082 23.3909 19.4991 23.2153 20.222 22.8812C20.5818 22.7148 20.9251 22.5093 21.2424 22.2746C21.7972 21.8644 22.2831 21.3693 22.7158 20.8341C23.4189 19.9628 24.0274 18.9451 24.404 17.8614C24.8321 16.6364 24.9652 15.3267 24.6092 14.0518C24.4654 13.5321 24.2338 13.0378 23.9274 12.5932C22.6369 10.717 20.0805 10.0896 18.0665 11.1551C17.0174 11.7107 16.1677 12.64 15.6412 13.697C15.4741 14.0319 15.3226 14.3785 15.1902 14.7329C14.502 16.5688 14.294 18.631 14.7958 20.5242Z" fill="#FFCFCA"/>
<path d="M22.1968 20.4633C22.7591 20.9757 23.6016 21.1618 24.3252 20.9241C24.9364 20.7238 25.4395 20.2263 25.6599 19.6237C25.6997 19.5143 25.7301 19.4021 25.751 19.2859C25.7869 19.0837 25.7913 18.8744 25.747 18.6742C25.6347 18.1799 25.1984 17.7842 24.7017 17.6864C24.2037 17.5887 23.6675 17.7772 23.314 18.1406L22.8845 19.0339L22.1968 20.4633Z" fill="#FFCFCA"/>
<path d="M18.9734 17.5897C19.0728 17.5976 19.2147 17.4429 19.2592 17.2084C19.2826 17.0849 19.274 16.9604 19.2354 16.867C19.222 16.8347 19.1844 16.7582 19.1237 16.7467C19.1205 16.7462 19.1175 16.7457 19.1143 16.7455C19.0148 16.7376 18.873 16.8923 18.8285 17.1267C18.8051 17.2503 18.8137 17.3747 18.8523 17.4682C18.8657 17.5005 18.9033 17.5769 18.964 17.5884C18.9671 17.589 18.9703 17.5895 18.9734 17.5897Z" fill="#1F3C49"/>
<path d="M15.9937 17.2177C16.0779 17.2244 16.2228 17.0874 16.268 16.8493C16.2907 16.7296 16.2824 16.609 16.245 16.5187C16.2181 16.4534 16.1794 16.4116 16.1392 16.4039C16.1364 16.4034 16.1335 16.4029 16.1305 16.4027C16.0465 16.3961 15.9014 16.533 15.8562 16.7712C15.8336 16.891 15.8419 17.0115 15.8793 17.1019C15.9062 17.1672 15.9447 17.209 15.985 17.2166C15.9879 17.2171 15.9908 17.2175 15.9937 17.2177Z" fill="#1F3C49"/>
<path d="M17.4785 17.802C17.4028 17.714 17.2717 17.6736 17.1465 17.693C17.019 17.7106 16.8996 17.7979 16.8377 17.9122C16.7728 18.025 16.7612 18.1725 16.8133 18.2902C16.8628 18.407 16.9661 18.4973 17.0809 18.5152C17.0027 18.4323 16.96 18.34 16.9454 18.2494C16.9307 18.1594 16.9494 18.0741 16.9912 17.9978C17.0338 17.9219 17.0968 17.8611 17.1811 17.8263C17.2659 17.7911 17.3669 17.779 17.4785 17.802Z" fill="#1F3C49"/>
<path d="M19.7856 15.8299C19.8042 15.8295 19.8227 15.8217 19.8361 15.8067C19.8616 15.7782 19.8591 15.7343 19.8305 15.7088C19.621 15.5217 19.3289 15.4265 19.0493 15.4531C19.0111 15.4568 18.9832 15.4907 18.9869 15.5289C18.9906 15.567 19.0244 15.5949 19.0626 15.5913C19.3048 15.5673 19.5569 15.6504 19.7381 15.8122C19.7517 15.8244 19.7687 15.8302 19.7856 15.8299Z" fill="#1F3C49"/>
<path d="M16.7846 15.3718C16.7999 15.3668 16.8136 15.3564 16.8225 15.3415C16.8421 15.3086 16.8314 15.266 16.7986 15.2464C16.5802 15.1158 16.3035 15.0787 16.0585 15.1468C16.0226 15.1572 16 15.1953 16.0103 15.2323C16.0205 15.2692 16.0588 15.2908 16.0957 15.2805C16.3048 15.2223 16.541 15.254 16.7274 15.3654C16.7453 15.3762 16.7662 15.3779 16.7846 15.3718Z" fill="#1F3C49"/>
<path d="M19.0498 16.8994C19.1963 16.8733 19.2372 17.1009 19.0905 17.127C18.944 17.1531 18.9031 16.9256 19.0498 16.8994Z" fill="white"/>
<path d="M16.0235 16.5234C16.17 16.4973 16.2108 16.7249 16.0641 16.751C15.9176 16.7772 15.8768 16.5496 16.0235 16.5234Z" fill="white"/>
<path d="M15.8797 18.9488C15.872 19.2505 15.9475 19.5314 16.0824 19.7652C16.2984 20.1406 16.6674 20.3914 17.0918 20.4022C17.5266 20.4133 17.9158 20.1699 18.1482 19.7914C18.2856 19.5701 18.3688 19.3023 18.3762 19.0123C18.3764 19.0019 18.3753 18.9915 18.3756 18.9804L15.8819 18.917C15.8817 18.928 15.88 18.9384 15.8797 18.9488Z" fill="#D55454"/>
<path d="M15.9834 18.9199C16.2553 19.2232 16.6604 19.4201 17.1167 19.4317C17.5731 19.4433 17.9876 19.2672 18.2746 18.9782L15.9834 18.9199Z" fill="white"/>
<path d="M16.0825 19.7654C16.2985 20.1408 16.6675 20.3916 17.0919 20.4024C17.5267 20.4135 17.9159 20.1701 18.1483 19.7916C17.7249 19.6872 17.286 19.6434 16.8505 19.6635C16.592 19.6756 16.335 19.71 16.0825 19.7654Z" fill="#F37C7C"/>
<path d="M18.8112 18.6028C18.7805 18.982 19.173 19.3231 19.6878 19.3648C20.2026 19.4064 20.6448 19.1327 20.6755 18.7536C20.7062 18.3745 20.3137 18.0334 19.7989 17.9917C19.284 17.95 18.8418 18.2236 18.8112 18.6028Z" fill="#F9BFBB"/>
<path d="M14.8042 17.776C14.7835 18.0321 15.0486 18.2624 15.3962 18.2905C15.7439 18.3187 16.0425 18.1339 16.0632 17.8778C16.0839 17.6217 15.8188 17.3914 15.4712 17.3633C15.1235 17.3351 14.8249 17.5199 14.8042 17.776Z" fill="#F9BFBB"/>
<path d="M24.2176 26.1287C23.3946 25.9016 22.4888 25.4676 22.16 25.3828C20.9392 27.1675 18.2535 27.4611 17.0442 25.2702C15.8283 25.511 14.2273 25.824 12.8159 26.1969C12.8203 28.017 11.8947 30.137 11.6907 31.9188C11.3629 34.78 10.9051 36.7936 10.4294 39.6368C9.92948 42.6251 9.95445 45.1268 9.44003 49.0962C9.08805 51.812 8.89934 54.972 8.74361 59.1185C13.994 61.2189 20.3803 61.0369 30.0017 59.102C29.9036 54.4565 28.2837 44.2675 27.7408 39.6386C26.6302 35.1189 25.6827 30.5522 24.2176 26.1287Z" fill="white"/>
<path d="M24.9162 17.7309C23.8276 17.737 22.8372 18.9985 22.4714 15.8264C22.4138 15.3272 22.3329 14.8322 22.24 14.3389C22.1471 13.8455 21.9347 13.3363 21.5172 13.0878C20.5463 12.5099 19.3894 13.6894 18.2851 13.5209C17.7814 13.4441 17.2511 12.8019 16.7674 12.9663C16.5472 13.0412 16.1725 13.3431 16.0121 13.5178C15.5126 14.0618 15.3078 14.8211 14.9365 15.4681C14.8205 14.7722 14.4921 13.7746 14.79 13.1416C14.9627 12.7745 15.2255 12.3541 15.4049 11.9906C15.9212 10.9441 15.8192 10.2254 16.6944 9.48636C17.1828 9.07394 18.3654 8.65223 18.9635 8.85373C19.2604 8.9538 19.5357 9.13048 19.8441 9.17912C20.2621 9.24499 20.6747 9.06793 21.0737 8.92287C21.6666 8.7072 22.301 8.55478 22.9206 8.66272C23.5404 8.77066 24.1423 9.18598 24.3416 9.81025C24.4922 10.2818 24.4163 10.8468 24.7162 11.2323C24.9921 11.5872 25.4805 11.6503 25.8533 11.8889C26.6464 12.3964 26.7542 13.565 26.582 14.5206C26.3699 15.6979 25.6494 16.8122 24.9162 17.7309Z" fill="black"/>
<path d="M17.1025 25.071C17.1025 25.071 17.1496 26.634 17.1127 27.773C17.0205 30.6202 16.5102 31.8615 16.4302 34.7113C16.3984 35.8508 16.4248 36.9899 16.4569 38.1289C16.4761 38.8388 16.4975 39.5478 16.5081 40.2572C16.517 40.8856 16.5181 41.5135 16.5001 42.1427C16.4988 42.1961 16.4976 42.2494 16.4957 42.3028C16.4417 43.9856 16.2938 45.6646 16.0902 47.3362C16.0447 47.713 15.9955 48.0886 15.9435 48.4643C15.8865 48.8876 15.8253 49.3098 15.7626 49.732C15.759 49.7549 15.7561 49.7769 15.7526 49.7998C15.7467 49.8399 15.7408 49.8805 15.7342 49.9212C15.6324 50.6013 15.5279 51.2893 15.4223 51.9851C14.7808 56.195 14.0914 60.6531 13.6744 64.7838C13.6482 65.0449 7.85759 62.8964 5.84664 61.1493C5.62755 60.9582 7.05819 55.278 7.82017 52.1433C7.95245 51.5996 8.06428 51.1319 8.14409 50.7831C8.15166 50.7502 8.15851 50.7187 8.16544 50.6886C8.16672 50.6836 8.16729 50.6793 8.16857 50.675C8.2018 50.5275 8.22806 50.4059 8.24656 50.3135C8.25082 50.2892 8.25509 50.2671 8.25881 50.247C8.26191 50.232 8.26435 50.2177 8.26607 50.2049C7.80034 50.1598 6.78822 49.9883 6.32778 49.8578C5.15011 49.5248 4.01758 48.8953 3.42327 47.555C3.17535 46.9964 3.02113 46.3141 2.99602 45.4779C2.98035 44.8632 3.00277 44.2368 3.05985 43.6036C3.06464 43.5501 3.06941 43.4959 3.07494 43.4424C3.23745 41.7991 3.62555 40.1134 4.15919 38.4696C5.9801 32.8559 9.49551 27.7326 11.5067 26.4632C13.899 24.954 17.1025 25.071 17.1025 25.071Z" fill="#F1A917"/>
<path d="M29.2451 50.3865C29.2477 50.402 29.2496 50.4169 29.2522 50.4325C29.3596 51.1176 29.4842 51.9288 29.6165 52.8038C30.2532 57.0208 31.0657 62.7096 30.9311 62.8217C30.0288 63.5599 26.0219 65.1027 22.1874 65.289C22.067 65.2379 21.5781 58.4592 21.1079 51.4774C21.044 50.5363 20.9815 49.591 20.9193 48.6585C20.7489 46.0915 20.5885 43.618 20.4587 41.5711C20.4332 41.1736 20.409 40.7931 20.386 40.4305C20.2307 37.986 20.1327 36.3819 20.1363 36.3611C20.7504 32.8973 21.6908 25.1255 21.6908 25.1255C21.6908 25.1255 25.3334 25.656 28.9542 27.8228C30.9932 29.0429 34.1136 35.5633 35.1222 42.7828C35.1539 43.0108 35.1836 43.2404 35.2111 43.4706C35.2929 44.158 35.3529 44.8517 35.3895 45.5496C35.5589 48.8156 32.0365 49.9171 29.2451 50.3865Z" fill="#F1A917"/>
<path d="M27.8789 31.7677C27.861 32.5681 27.7853 33.3971 27.7675 34.1975C27.7602 34.5251 27.7529 34.8527 27.7455 35.1803C27.7117 36.6908 27.6779 38.2022 27.562 39.7086L28.653 39.6501C28.0837 37.0698 28.2297 34.3868 27.8789 31.7677Z" fill="#D78A00"/>
<path d="M11.4702 32.2782C11.46 33.0787 11.5066 33.9098 11.4964 34.7104C11.4921 35.0381 11.488 35.3657 11.4838 35.6934C11.4646 37.2041 11.4452 38.7159 11.5083 40.2254L10.42 40.1287C11.0796 37.5698 11.0277 34.8833 11.4702 32.2782Z" fill="#D78A00"/>
<path d="M13.2065 43.2348C13.3149 43.2433 13.4691 43.2184 13.5645 43.2689C13.6966 43.3394 13.8247 43.5161 13.9348 43.6206C14.2423 43.9125 14.5574 44.1971 14.8629 44.4916C14.9474 44.5729 15.0298 44.6558 15.1124 44.7385C15.7728 43.9437 16.422 43.1395 17.065 42.3303C16.3205 41.799 15.7521 41.3996 15.4963 41.2315C15.373 41.1502 15.2488 41.0691 15.1255 40.9879C15.0886 40.6524 15.0224 40.3211 14.9228 39.9993C14.7995 39.6035 14.5778 39.283 14.4176 38.9057C14.1408 38.254 13.9932 37.5398 13.7625 36.8681C13.6907 36.6598 13.6099 36.4441 13.4525 36.2888C13.447 36.2832 13.4408 36.2779 13.4352 36.2723C13.2764 36.129 13.0303 36.0611 12.8472 36.1719C12.7063 36.258 12.6354 36.4272 12.6198 36.591C12.5943 36.8808 12.6664 37.1923 12.7316 37.4718C12.7741 37.6511 12.8356 37.8419 12.8412 38.0272C12.8501 38.3098 12.6657 38.1362 12.5298 38.0047C12.3817 37.8599 12.2504 37.6994 12.1276 37.5329C11.885 37.2035 11.6798 36.8484 11.4509 36.5091C11.4509 36.5091 9.89951 34.2142 9.89676 34.2115C9.74436 33.9854 9.35733 34.0026 9.21046 34.2258C9.00566 34.536 9.36251 34.8991 9.50649 35.1548C9.7471 35.5822 9.98544 36.0108 10.2231 36.4403C10.3925 36.7484 10.5621 37.0573 10.7293 37.3666C10.8271 37.5461 10.9964 37.6965 11.0994 37.8799C11.1373 37.9479 11.2566 38.1291 11.1787 38.2086C11.0979 38.2901 10.9667 38.1366 10.9056 38.0885C10.7567 37.9714 10.6126 37.8489 10.4697 37.7239C10.1952 37.4817 9.93018 37.2281 9.66719 36.9724C9.13 36.4542 8.59854 35.9256 8.00212 35.474C7.9773 35.4547 7.95148 35.4394 7.9268 35.4262C7.75225 35.2726 7.45316 35.3098 7.32089 35.5019C7.07138 35.8641 7.57728 36.2441 7.79171 36.4797C8.13892 36.8582 8.50018 37.2239 8.8482 37.6023C9.10776 37.8844 9.36812 38.1664 9.62784 38.4492C9.7189 38.5476 10.2409 38.9072 10.1199 39.0842C10.0147 39.2393 9.6364 38.8919 9.54003 38.84C9.30891 38.7156 9.07902 38.5886 8.84962 38.4599C8.39091 38.2026 7.93932 37.9349 7.49395 37.6545C7.4524 37.628 7.40968 37.6103 7.36718 37.5998C7.24426 37.5161 7.12125 37.4316 6.99874 37.3455C6.77863 37.1927 6.45909 37.3204 6.39131 37.579C6.293 37.9515 6.74572 38.1435 6.99001 38.311C7.37906 38.5773 7.77055 38.8385 8.1663 39.0967C8.44495 39.2791 8.72492 39.459 9.00692 39.637C9.15665 39.7318 9.84549 40.0948 9.54378 40.3272C9.48471 40.3726 9.33506 40.3234 9.2732 40.3092C9.07561 40.2668 8.89225 40.179 8.70216 40.1111C8.1941 39.9293 7.68309 39.7543 7.17002 39.5874C6.88818 39.4953 6.59321 39.7528 6.64731 40.0479C6.7249 40.477 7.48715 40.5545 7.81873 40.6585C8.34735 40.8239 8.86914 41.0085 9.38354 41.213C9.47134 41.2488 9.55979 41.2836 9.63694 41.339C9.73592 41.4095 9.81201 41.5076 9.89203 41.6005C10.62 42.4444 11.7161 42.9961 12.806 43.1837C12.9384 43.207 13.0726 43.2245 13.2065 43.2348Z" fill="#FFCFCA"/>
</g>
</svg>
