<svg width="40" height="40" viewBox="0 0 40 40" fill="none" xmlns="http://www.w3.org/2000/svg">
<circle cx="20" cy="20" r="18.5" fill="#F4F0ED" stroke="#111111" stroke-width="3"/>
<mask id="mask0_820_1378" style="mask-type:luminance" maskUnits="userSpaceOnUse" x="3" y="3" width="34" height="34">
<path d="M20 37C29.3888 37 37 29.3888 37 20C37 10.6112 29.3888 3 20 3C10.6112 3 3 10.6112 3 20C3 29.3888 10.6112 37 20 37Z" fill="white"/>
</mask>
<g mask="url(#mask0_820_1378)">
<path d="M20 37C29.3888 37 37 29.3888 37 20C37 10.6112 29.3888 3 20 3C10.6112 3 3 10.6112 3 20C3 29.3888 10.6112 37 20 37Z" fill="#E8DCD4"/>
</g>
<mask id="mask1_820_1378" style="mask-type:luminance" maskUnits="userSpaceOnUse" x="3" y="3" width="34" height="34">
<path d="M20 37C29.3888 37 37 29.3888 37 20C37 10.6112 29.3888 3 20 3C10.6112 3 3 10.6112 3 20C3 29.3888 10.6112 37 20 37Z" fill="white"/>
</mask>
<g mask="url(#mask1_820_1378)">
<path d="M16.7395 25.5672C16.7092 25.1462 16.3426 24.8116 15.9058 24.9321C13.2853 25.6556 10.5767 26.8758 9.35691 29.4639C8.87995 30.4757 8.71044 31.6019 8.47755 32.6888C8.21691 33.9053 7.97472 35.1257 7.75113 36.3496C7.46821 37.8979 7.23712 39.4551 7.01803 41.0135C6.81889 42.4297 6.8561 44.1697 6.2028 45.4435C4.98435 47.8194 3.71317 50.2384 2.46771 52.6273C1.82897 53.8525 1.19225 55.0786 0.562063 56.3082C0.254394 56.9085 -0.0514737 57.5096 -0.356068 58.1118C-0.504278 58.4048 -0.763272 58.7526 -0.605611 59.0883C-0.296216 59.7467 0.593491 60.1095 1.17575 60.493C1.34721 60.606 1.52227 60.7205 1.72036 60.7762C2.62267 61.0294 3.38442 59.5656 3.8145 58.9975C4.54985 58.0262 5.27305 57.0457 5.98379 56.0563C7.55004 53.8759 9.16047 51.6499 10.5367 49.3162C11.0803 48.3944 11.6596 47.4573 12.0953 46.4815C13.1278 44.1693 13.5134 41.6192 14.3523 39.2332C15.2378 36.7148 16.3234 34.1683 16.6213 31.4923C16.8401 29.5261 16.8817 27.5402 16.7395 25.5672Z" fill="#64444D"/>
<path d="M37.6893 61.9208C36.8385 62.1382 34.0369 61.8503 33.9355 61.7891C33.4798 61.5132 33.4482 46.6157 32.75 45.3907C32.3648 44.7156 30.8646 42.2447 29.3255 39.6354C27.8726 37.1711 26.3849 34.5829 25.7718 33.2697C24.6246 30.8152 25.1086 25.0204 25.2825 24.375C26.873 24.7807 27.951 25.2496 28.0642 25.2997C28.0708 25.303 28.0742 25.3042 28.0742 25.3042C29.1424 25.7942 30.4331 26.7149 30.9719 27.2141C34.594 30.5728 38.0022 41.0283 38.579 43.8523C39.2699 47.2347 38.2913 61.7674 37.6893 61.9208Z" fill="#64444D"/>
<path d="M31.8941 57.2452C30.0092 58.6589 9.17334 58.7599 9.17334 57.772C9.17334 54.0034 10.0242 49.748 10.2929 45.9836C10.5222 42.7803 11.3072 32.687 11.4125 30.9023C11.485 29.6635 11.676 26.7533 11.676 26.7533C11.676 26.7533 13.5384 25.6332 14.5078 25.1728C15.8467 24.5366 17.2264 24.1401 18.6806 23.9176C21.1008 23.5481 23.5105 23.9228 25.2827 24.3752C26.8732 24.7809 27.9512 25.2498 28.0645 25.2999C28.0711 25.3032 28.0744 25.3045 28.0744 25.3045C28.0744 25.3045 27.0708 25.7358 26.8231 27.346C25.7694 34.1952 29.323 39.5882 29.323 39.5882C29.323 39.5882 30.2878 45.5253 30.8404 48.5521C31.1914 50.4738 32.1575 57.0476 31.8941 57.2452Z" fill="#795963"/>
<path d="M15.0869 12.5208C15.2316 11.9834 15.4656 11.4856 15.7731 11.0897C16.5953 10.0312 17.988 9.25296 19.3573 9.45075C20.6011 9.63038 21.7138 10.1391 22.3668 11.262C23.0503 12.4373 23.0276 14.02 22.2122 15.1261C21.7247 15.7874 21.0572 16.3214 20.3106 16.6625C20.0866 16.7648 19.8545 16.8492 19.6169 16.914C18.3566 17.2579 16.7064 17.1111 15.748 16.135C14.8399 15.2102 14.7667 13.7091 15.0869 12.5208Z" fill="#32334C"/>
<path d="M22.8101 17.7695C22.7489 18.1083 22.689 18.4475 22.6284 18.7862C22.6245 18.8064 22.6212 18.8272 22.6178 18.8474C22.6161 18.8568 22.6143 18.8656 22.6125 18.875C22.5322 19.3241 22.4524 19.7725 22.3974 20.2237C22.3746 20.4045 22.3564 20.5869 22.3436 20.7694C22.3289 20.9733 22.3209 21.1785 22.3188 21.3832C22.313 21.7748 22.3237 22.1668 22.3357 22.5579C22.35 23.0349 22.3637 23.5119 22.3779 23.9883C22.0971 24.2933 21.7039 24.6753 21.2835 25.0149C20.4651 25.2415 19.5123 25.3924 18.6856 25.4227C18.1261 25.0962 17.6299 24.6175 17.7133 24.1794L17.7391 22.46L17.7403 22.178L17.7423 21.4322L17.7463 20.3705C18.1122 20.281 18.4547 20.1149 18.7941 19.9498C19.9199 19.3991 21.0385 18.8345 22.135 18.2271C22.1645 18.211 22.1927 18.195 22.2204 18.1798C22.4409 18.0573 22.6213 17.9525 22.8101 17.7695Z" fill="#FFCFCA"/>
<path d="M17.7393 22.4594C19.0063 22.132 20.2254 21.6248 21.3326 20.9321C21.6847 20.7122 22.05 20.4766 22.3976 20.223C22.4522 19.7715 22.5324 19.3235 22.6125 18.8744C22.6783 18.5062 22.744 18.1368 22.8099 17.7686C22.5978 17.9745 22.3953 18.0822 22.1351 18.2263C21.0389 18.8335 19.9202 19.3985 18.7941 19.9488C18.4549 20.1142 18.1125 20.2802 17.7462 20.3698L17.7393 22.4594Z" fill="#F9BFBB"/>
<path d="M15.242 19.1214C15.484 19.817 15.8371 20.4571 16.4489 20.8897C16.9916 21.2732 17.6584 21.4825 18.322 21.4896C19.0565 21.4972 19.7749 21.2798 20.4195 20.9207C20.7403 20.7419 21.0432 20.5281 21.32 20.2892C21.8039 19.8715 22.2184 19.3803 22.5809 18.8556C23.1698 18.0016 23.6609 17.019 23.9334 15.9915C24.2435 14.8299 24.2751 13.6105 23.8574 12.4575C23.6883 11.9874 23.4399 11.5468 23.1258 11.1574C21.8027 9.51397 19.3972 9.11248 17.6107 10.2373C16.6802 10.8239 15.9599 11.7416 15.5472 12.7549C15.4162 13.076 15.3004 13.4067 15.2027 13.7434C14.6949 15.4876 14.6465 17.4073 15.242 19.1214Z" fill="#FFCFCA"/>
<path d="M22.0757 18.5487C22.6309 18.983 23.4223 19.0962 24.0743 18.8261C24.625 18.5984 25.0551 18.1037 25.2167 17.5317C25.2458 17.4278 25.2661 17.322 25.2773 17.2131C25.2964 17.0238 25.2859 16.8302 25.2309 16.6483C25.0928 16.1994 24.6622 15.8642 24.1963 15.8086C23.7295 15.7531 23.2472 15.9646 22.9459 16.325L22.6113 17.1802L22.0757 18.5487Z" fill="#FFCFCA"/>
<path d="M18.9733 16.1657C19.0653 16.1755 19.2005 16.0357 19.2474 15.8196C19.2722 15.7057 19.2671 15.5903 19.2337 15.5028C19.2221 15.4726 19.1891 15.4009 19.1332 15.3886C19.1303 15.388 19.1274 15.3875 19.1246 15.3872C19.0325 15.3774 18.8974 15.5173 18.8505 15.7333C18.8257 15.8472 18.8308 15.9627 18.8642 16.0502C18.8758 16.0804 18.9088 16.1521 18.9647 16.1642C18.9676 16.1649 18.9704 16.1654 18.9733 16.1657Z" fill="#1F3C49"/>
<path d="M16.2227 15.748C16.3005 15.7562 16.4382 15.633 16.4858 15.4135C16.5098 15.3032 16.5049 15.1913 16.4726 15.1067C16.4493 15.0455 16.4145 15.0059 16.3774 14.9978C16.3748 14.9972 16.3721 14.9967 16.3694 14.9965C16.2917 14.9882 16.154 15.1115 16.1063 15.331C16.0824 15.4413 16.0872 15.5532 16.1195 15.6379C16.1429 15.699 16.1776 15.7387 16.2147 15.7467C16.2174 15.7473 16.2201 15.7477 16.2227 15.748Z" fill="#1F3C49"/>
<path d="M17.5832 16.325C17.5152 16.2416 17.3948 16.2011 17.2783 16.2159C17.1599 16.2291 17.0472 16.307 16.987 16.4114C16.9242 16.5143 16.9098 16.6506 16.9552 16.761C16.9981 16.8703 17.0917 16.9564 17.1976 16.9759C17.1272 16.8971 17.0899 16.8106 17.0786 16.7264C17.0672 16.6426 17.0865 16.564 17.1271 16.4944C17.1685 16.4252 17.2282 16.3704 17.3072 16.3402C17.3865 16.3097 17.4804 16.3008 17.5832 16.325Z" fill="#1F3C49"/>
<path d="M19.8104 14.4354C19.8267 14.4299 19.8408 14.4178 19.8485 14.4009C19.863 14.3684 19.8486 14.3305 19.8162 14.3159C19.5786 14.2094 19.2941 14.2073 19.0546 14.3092C19.022 14.3232 19.0069 14.3609 19.0208 14.3936C19.0348 14.4262 19.0724 14.4414 19.1052 14.4274C19.3124 14.3384 19.5583 14.3411 19.7636 14.4333C19.779 14.4401 19.7956 14.4405 19.8104 14.4354Z" fill="#1F3C49"/>
<path d="M17.0481 14.0144C17.0628 14.0114 17.0764 14.0033 17.0862 13.9906C17.1078 13.9625 17.1025 13.9221 17.0744 13.9005C16.8873 13.757 16.6367 13.6933 16.4039 13.7299C16.3698 13.7356 16.3449 13.7683 16.3504 13.8034C16.3558 13.8384 16.3888 13.8624 16.4239 13.8569C16.6226 13.8257 16.8365 13.8801 16.9962 14.0026C17.0115 14.0143 17.0305 14.018 17.0481 14.0144Z" fill="#1F3C49"/>
<path d="M19.0613 15.5268C19.1976 15.5062 19.2299 15.718 19.0934 15.7386C18.9571 15.7592 18.9248 15.5475 19.0613 15.5268Z" fill="white"/>
<path d="M16.2674 15.1049C16.4037 15.0843 16.4359 15.2961 16.2994 15.3167C16.1631 15.3374 16.1309 15.1256 16.2674 15.1049Z" fill="white"/>
<path d="M16.0748 17.3478C16.0603 17.6271 16.1233 17.8891 16.2426 18.1089C16.4335 18.4618 16.7691 18.7032 17.1619 18.7236C17.5644 18.7444 17.9308 18.5286 18.1553 18.1836C18.288 17.982 18.3716 17.736 18.3855 17.4677C18.386 17.4581 18.3852 17.4483 18.3857 17.4381L16.0776 17.3184C16.0771 17.3286 16.0753 17.3382 16.0748 17.3478Z" fill="#D55454"/>
<path d="M16.1714 17.3232C16.4158 17.6107 16.7862 17.803 17.2086 17.8249C17.6309 17.8468 18.0192 17.6938 18.2921 17.4332L16.1714 17.3232Z" fill="white"/>
<path d="M16.2427 18.1087C16.4336 18.4615 16.7692 18.703 17.162 18.7233C17.5645 18.7442 17.9309 18.5283 18.1554 18.1834C17.7658 18.0762 17.3604 18.025 16.9565 18.033C16.7168 18.038 16.478 18.0636 16.2427 18.1087Z" fill="#F37C7C"/>
<path d="M18.7981 17.0995C18.7605 17.4499 19.1156 17.7754 19.5915 17.8266C20.0673 17.8778 20.4835 17.6351 20.5212 17.2847C20.5588 16.9343 20.2037 16.6087 19.7278 16.5576C19.2521 16.5064 18.8359 16.7491 18.7981 17.0995Z" fill="#F9BFBB"/>
<path d="M15.1073 16.2348C15.0819 16.4714 15.3218 16.6913 15.6431 16.7259C15.9644 16.7604 16.2455 16.5965 16.2709 16.3599C16.2964 16.1233 16.0565 15.9034 15.7352 15.8688C15.4139 15.8343 15.1327 15.9982 15.1073 16.2348Z" fill="#F9BFBB"/>
<path d="M15.099 11.0501C15.0138 10.1676 16.3765 9.20644 18.9141 8.76286C20.8752 8.42009 23.4862 9.09176 24.8354 10.5387C25.63 11.3907 26.1099 12.5506 26.0087 13.7167C25.9258 14.6714 25.5065 15.6089 25.1206 16.4789C24.8404 15.9326 24.0585 15.7199 23.4608 15.9131C23.1117 16.026 22.8261 16.2509 22.5992 16.5279C22.5903 15.4161 22.3089 14.3399 22.3093 13.2262C22.3055 13.2488 20.4669 13.0016 20.3366 12.9848C19.2729 12.8478 18.2171 12.7123 17.1843 12.4139C16.7442 12.2868 16.3106 12.1381 15.8858 11.9683C15.5743 11.8439 15.1243 11.3122 15.099 11.0501Z" fill="#32334C"/>
<path d="M24.1682 15.7407L23.9966 15.7381L22.5512 15.7136L21.7128 15.6992L20.6061 15.6811C20.605 15.6693 20.6052 15.6574 20.604 15.6455C20.5342 14.9225 19.8894 14.3913 19.1663 14.4611C18.657 14.5103 18.2435 14.846 18.0677 15.2931L17.578 15.2232C17.5786 15.1749 17.5766 15.1268 17.5719 15.0783C17.5021 14.3552 16.8572 13.824 16.1342 13.8939C15.7049 13.9353 15.3435 14.1813 15.1352 14.525L15.1092 14.3515C15.1051 14.3234 15.0847 14.3035 15.059 14.2975C15.0509 14.2956 15.0422 14.2951 15.0337 14.296C14.9979 14.3014 14.9734 14.3349 14.9788 14.3714L15.0048 14.5442L15.0334 14.7314C15.0292 14.743 15.0251 14.7547 15.0209 14.7663C14.9585 14.9424 14.9307 15.1336 14.9498 15.3316C14.9748 15.5906 15.0735 15.8245 15.2229 16.0152C15.4561 16.3129 15.8128 16.5055 16.2073 16.5209C16.2133 16.5217 16.2193 16.5217 16.2259 16.5217C16.279 16.5232 16.333 16.5213 16.3874 16.516C16.9578 16.461 17.4074 16.0476 17.5378 15.521L17.9897 15.5899C17.9756 15.6905 17.9717 15.7934 17.9819 15.899C18.0313 16.411 18.3692 16.8269 18.8195 17.0011C18.8621 17.0181 18.9059 17.0324 18.9507 17.0447C19.0994 17.0846 19.2577 17.099 19.4196 17.0834C19.7263 17.0538 19.998 16.9204 20.2045 16.7224C20.2124 16.7151 20.2202 16.707 20.228 16.699C20.4565 16.4678 20.5982 16.1538 20.6089 15.8126L21.5752 15.8291L22.5633 15.8456L23.6409 15.8639L23.6641 15.8642L23.965 15.8696L24.1658 15.8727L24.1737 15.872C24.1809 15.8713 24.188 15.8693 24.1943 15.866C24.2146 15.8574 24.2292 15.8375 24.2322 15.8141C24.2327 15.812 24.2332 15.81 24.2329 15.8074C24.2334 15.7715 24.2047 15.7412 24.1682 15.7407ZM16.3748 16.3849C16.3381 16.3885 16.3018 16.39 16.2655 16.3902C16.1749 16.391 16.086 16.381 15.9999 16.3609C15.7335 16.3013 15.4979 16.15 15.3314 15.9392C15.1942 15.7665 15.1036 15.5542 15.0809 15.319C15.0709 15.2154 15.0744 15.1145 15.0907 15.0163C15.0907 15.0156 15.0907 15.0156 15.0907 15.0156C15.1748 14.4968 15.6002 14.0779 16.1469 14.025C16.7978 13.9622 17.3779 14.4401 17.4408 15.091C17.5036 15.7419 17.0257 16.3221 16.3748 16.3849ZM18.015 15.4603L17.5638 15.3921C17.5652 15.3794 17.568 15.3672 17.5695 15.3552L18.0257 15.4203C18.0217 15.4332 18.0183 15.4468 18.015 15.4603ZM20.0836 16.6552C19.9021 16.8183 19.6685 16.9269 19.407 16.9522C19.2215 16.9701 19.0416 16.9438 18.8774 16.8816C18.4676 16.728 18.158 16.3516 18.1131 15.8862C18.0502 15.2352 18.5287 14.6552 19.179 14.5923C19.8299 14.5295 20.4101 15.0074 20.4729 15.6583C20.5105 16.0477 20.3545 16.4121 20.0836 16.6552Z" fill="black"/>
<path d="M23.0006 24.2508C22.9589 24.7071 22.0881 25.0772 20.9919 25.2998C20.1598 25.4692 19.1989 25.5537 18.372 25.5267C17.6084 25.5018 16.9602 25.3823 16.6343 25.1474C16.3138 24.9155 16.4209 22.1226 17.5436 22.2241C17.5687 22.2267 17.6056 22.2263 17.6536 22.2244C17.9492 22.2144 18.6505 22.1302 19.4491 22.0356C20.4401 21.9172 21.5802 21.7824 22.2762 21.7485C22.6275 21.7311 22.8663 21.7398 22.917 21.7891C23.2729 22.1352 23.0691 23.4939 23.0006 24.2508Z" fill="#795963"/>
</g>
</svg>
