<svg width="140" height="140" viewBox="0 0 140 140" fill="none" xmlns="http://www.w3.org/2000/svg">
<g id="Group">
<g id="Group_2">
<path id="Vector" d="M140 70C140 81.9041 137.027 93.1136 131.784 102.929C131.759 102.975 131.734 103.023 131.707 103.069C129.838 106.551 127.681 109.858 125.269 112.956V112.958C124.487 113.961 123.677 114.946 122.843 115.906C122.033 116.838 121.197 117.752 120.335 118.641C117.972 121.09 115.426 123.368 112.725 125.453C111.619 126.306 110.486 127.128 109.328 127.912C101.05 133.549 91.5037 137.453 81.2041 139.109C80.5803 139.209 79.9544 139.301 79.3265 139.385C79.0699 139.418 78.8111 139.451 78.5524 139.483C75.7507 139.825 72.8967 140 70.001 140C69.0435 140 68.0901 139.981 67.1408 139.942C66.5984 139.923 66.056 139.894 65.5157 139.86C64.9837 139.825 64.4517 139.787 63.9218 139.739C63.5108 139.704 63.1019 139.664 62.693 139.622C61.3015 139.478 59.9204 139.295 58.554 139.07C56.8996 138.798 55.264 138.467 53.6493 138.079C53.497 138.043 53.3468 138.006 53.1966 137.968C53.086 137.941 52.9775 137.914 52.869 137.887C52.6604 137.834 52.4518 137.782 52.2431 137.728C52.0512 137.678 51.8593 137.626 51.6673 137.574C51.0749 137.413 50.4845 137.246 49.8982 137.069C49.5686 136.971 49.2411 136.871 48.9135 136.766H48.9115C48.1354 136.522 47.3635 136.264 46.5999 135.992C45.1333 135.473 43.6896 134.905 42.2689 134.29C41.5992 134.002 40.9358 133.704 40.2766 133.393C38.2613 132.448 36.3002 131.409 34.3976 130.282C31.8107 128.751 29.3302 127.057 26.9706 125.215C26.4136 124.781 25.8629 124.338 25.3205 123.888C24.6153 123.302 23.9227 122.703 23.2426 122.092C21.8636 120.852 20.5326 119.559 19.2558 118.215C18.5465 117.471 17.856 116.707 17.1821 115.931C16.8233 115.52 16.4707 115.107 16.1244 114.688C15.4151 113.838 14.7308 112.973 14.0653 112.09C5.23434 100.376 0 85.7992 0 70C0 31.3397 31.3413 0 70.001 0C108.661 0 140 31.3397 140 70Z" fill="#434A59"/>
</g>
<g id="Group_3">
<g id="Group_4">
<g id="Group_5">
<path id="Vector_2" d="M52.2432 137.728C52.0512 137.678 51.8593 137.626 51.6674 137.574C51.0749 137.413 50.4845 137.246 49.8983 137.069C49.5686 136.971 49.2411 136.87 48.9136 136.766H48.9115C48.1354 136.522 47.3635 136.263 46.5999 135.992C45.1333 135.473 43.6896 134.905 42.2689 134.29C41.5993 134.002 40.9358 133.704 40.2766 133.393C38.2613 132.448 36.3003 131.409 34.3976 130.282C31.8107 128.751 29.3302 127.057 26.9707 125.215C26.4136 124.781 25.8629 124.338 25.3205 123.888C24.6153 123.302 23.9227 122.703 23.2426 122.092C21.8636 120.852 20.5326 119.559 19.2558 118.215C18.5465 117.47 17.856 116.707 17.1821 115.931C28.5896 98.907 41.447 83.7712 52.8732 80.066C53.2133 79.9555 53.5366 79.8825 53.8454 79.8449C64.7959 78.5014 55.3537 122.167 52.2432 137.728Z" fill="#91504A"/>
</g>
</g>
<g id="Group_6">
<g id="Group_7">
<g id="Group_8">
<g id="Group_9">
<path id="Vector_3" d="M131.707 103.069C129.838 106.551 127.681 109.858 125.269 112.956V112.958C124.487 113.961 123.677 114.946 122.843 115.906C122.033 116.838 121.197 117.752 120.335 118.641C117.971 121.09 115.426 123.368 112.725 125.452C111.619 126.306 110.486 127.128 109.328 127.912C101.05 133.549 91.5036 137.452 81.2039 139.109C80.5802 139.209 79.9543 139.301 79.3263 139.384C79.0697 139.418 78.811 139.451 78.5523 139.482C75.7505 139.825 72.8966 140 70.0009 140C69.0433 140 68.0899 139.981 67.1407 139.941C66.5983 139.923 66.0558 139.893 65.5155 139.86C64.9835 139.825 64.4516 139.787 63.9217 139.739C63.5107 139.703 63.1017 139.664 62.6928 139.622C61.3013 139.478 59.9203 139.295 58.5538 139.069C56.8994 138.798 55.2638 138.466 53.6491 138.078C53.4968 138.043 53.3466 138.005 53.1964 137.968C53.0858 137.941 52.9774 137.913 52.8689 137.886C52.6602 137.834 52.4516 137.782 52.243 137.728C52.0511 137.678 51.8591 137.626 51.6672 137.573C51.0747 137.413 50.4843 137.246 49.8981 137.069C49.5685 136.971 49.2409 136.87 48.9134 136.766H48.9113C48.1352 136.522 47.3633 136.263 46.5998 135.992C45.1332 135.473 43.6895 134.905 42.2688 134.29C41.5991 134.002 40.9357 133.703 40.2764 133.393C38.2611 132.448 36.3001 131.409 34.3975 130.282C31.8105 128.751 29.33 127.057 26.9705 125.214C26.4135 124.781 25.8627 124.338 25.3203 123.888C31.2827 108.116 38.3425 94.5278 46.8689 84.2009C48.8091 82.2773 51.1665 80.8483 53.8452 79.8448C58.2868 78.1737 63.6087 77.6688 69.3646 78.011C71.8597 78.1549 74.4383 78.4616 77.0607 78.8997C77.0648 78.9018 77.0669 78.9018 77.0711 78.9018C78.8674 79.2022 80.6865 79.5652 82.514 79.9825C83.3423 80.1702 84.1705 80.3684 85.0029 80.5791H85.005C104.976 85.6258 125.448 96.5995 131.315 102.648C131.455 102.791 131.586 102.931 131.707 103.069Z" fill="#B7645A"/>
</g>
</g>
</g>
</g>
<g id="Group_10">
<g id="Group_11">
<path id="Vector_4" d="M88.0823 83.6712C87.9926 91.1108 84.0434 113.947 79.3264 139.385C79.0698 139.418 78.8111 139.451 78.5524 139.483C75.7506 139.825 72.8967 140 70.001 140C69.0434 140 68.09 139.981 67.1408 139.942C66.5984 139.923 66.056 139.894 65.5156 139.86C64.9836 139.825 64.4517 139.787 63.9218 139.739C63.5108 139.704 63.1019 139.664 62.693 139.622C61.3015 139.478 59.9204 139.295 58.5539 139.07C56.8996 138.798 55.264 138.467 53.6492 138.079C53.4969 138.043 53.3467 138.006 53.1965 137.968C57.1457 108.433 62.4739 82.094 69.0685 79.1169C69.3918 78.9688 69.7194 78.8791 70.049 78.8478C71.9099 78.635 74.453 78.6204 77.0608 78.8999C77.065 78.902 77.0671 78.902 77.0712 78.902C78.928 79.1023 80.816 79.4507 82.5141 79.9827C83.4696 80.2811 84.3647 80.6378 85.1574 81.0592C86.4613 81.7477 87.494 82.6093 88.0823 83.6712Z" fill="white"/>
</g>
</g>
<g id="Group_12">
<g id="Group_13">
<g id="Group_14">
<g id="Group_15">
<path id="Vector_5" d="M122.843 115.906C122.033 116.838 121.197 117.752 120.335 118.641C120.281 111.285 123.316 105.445 131.315 102.648C131.365 102.629 131.415 102.61 131.467 102.593C131.467 102.593 131.576 102.708 131.784 102.929C131.759 102.975 131.734 103.023 131.707 103.069C129.838 106.551 127.681 109.858 125.269 112.956V112.958C124.487 113.961 123.677 114.946 122.843 115.906Z" fill="#B7645A"/>
</g>
</g>
</g>
</g>
<g id="Group_16">
<g id="Group_17">
<path id="Vector_6" d="M65.3834 29.2225C65.3834 29.2225 73.3693 27.2917 77.8731 25.862C92.8486 23.4692 90.847 48.2426 95.2066 56.5238C98.1094 61.0881 87.8867 73.7195 73.7302 73.5472C59.5737 73.3749 51.8912 73.5512 50.6366 69.4502C49.3819 65.3493 53.3312 61.4302 53.4257 56.0248C53.52 50.6193 50.4146 29.3014 65.3834 29.2225Z" fill="#FFE164"/>
</g>
<g id="Group_18">
<path id="Vector_7" d="M82.7862 58.5835C83.1121 62.4076 83.8429 77.8546 85.2148 81.2003C85.3198 84.9318 74.6239 94.7514 68.6415 90.1443C64.7949 87.2 74.0202 65.0448 74.6548 60.1547L82.7862 58.5835Z" fill="#FF867A"/>
</g>
<g id="Group_19">
<path id="Vector_8" d="M71.4624 71.3747L73.8841 62.8632L80.7125 61.3534C80.7125 61.3534 78.9492 71.047 71.4624 71.3747Z" fill="#C66C67"/>
</g>
<g id="Group_20">
<path id="Vector_9" d="M76.2447 43.3901L81.3009 49.078C84.5977 55.2356 81.2203 63.3194 74.7491 65.9473C66.6779 69.2248 62.0835 68.796 59.803 61.0491C58.4657 56.5063 60.0637 47.1086 60.7284 43.4606C61.5053 39.1955 64.3724 36.4833 67.7146 36.01C70.8898 35.56 68.2799 40.4752 76.2447 43.3901Z" fill="#FF867A"/>
</g>
<g id="Group_21">
<g id="Group_22">
<path id="Vector_10" d="M66.3263 53.0275C65.3038 52.8907 64.3963 52.5361 63.5514 51.9442C62.9115 51.4959 62.3385 52.5665 62.9715 53.01C63.8871 53.6513 64.9319 54.0585 66.0399 54.2068C66.807 54.3094 67.0996 53.1309 66.3263 53.0275Z" fill="#C66C67"/>
</g>
<g id="Group_23">
<path id="Vector_11" d="M70.3184 46.3095C69.1355 46.0325 69.0477 49.0302 70.4975 48.4238C71.0778 48.1475 71.2194 46.4038 70.3184 46.3095Z" fill="#434A59"/>
</g>
<g id="Group_24">
<path id="Vector_12" d="M62.3645 47.0218C61.1817 46.7448 61.0939 49.7424 62.5437 49.1361C63.1239 48.8595 63.2655 47.1161 62.3645 47.0218Z" fill="#434A59"/>
</g>
</g>
<g id="Group_25">
<path id="Vector_13" d="M70.9116 55.9743C71.3582 56.1126 61.0421 55.8276 61.3556 57.2256C62.2275 61.9339 68.5041 63.8438 71.3779 56.6437C71.4999 56.3189 71.2581 55.9707 70.9116 55.9743Z" fill="white"/>
</g>
<g id="Group_26">
<path id="Vector_14" d="M80.4236 48.5911C81.2395 46.9473 80.8528 42.3498 83.9237 44.2179C86.7999 46.2807 85.0878 53.9452 81.4014 53.9367C78.6639 53.9304 79.7059 50.4053 80.4236 48.5911Z" fill="#FF867A"/>
</g>
<g id="Group_27">
<g id="Group_28">
<path id="Vector_15" d="M82.8552 59.3474C84.8718 61.0721 88.385 58.9929 88.4088 56.7573C88.507 54.3383 85.3418 52.1325 85.2058 52.0405C84.577 51.5982 83.8936 52.5902 84.533 53.0235C85.3168 53.5534 87.2885 55.2815 87.2169 56.711C87.0769 58.1928 84.8345 59.4723 83.5589 58.3881C82.0028 57.2841 80.5306 53.0642 82.9831 52.2199C83.3055 52.1521 83.5108 51.8371 83.4428 51.5147C83.375 51.1926 83.0599 50.9874 82.7376 51.0554C79.0938 51.9975 80.4895 57.7022 82.8552 59.3474Z" fill="#F7D443"/>
</g>
</g>
<g id="Group_29">
<path id="Vector_16" d="M69.5069 43.3683C70.6554 43.5189 71.8869 43.8601 72.9168 44.4253C73.4065 44.694 72.9911 45.4042 72.5025 45.136C71.6188 44.651 70.5016 44.3323 69.5153 44.2032C68.9735 44.1321 68.958 43.2963 69.5069 43.3683Z" fill="#434A59"/>
</g>
<g id="Group_30">
<path id="Vector_17" d="M60.3241 44.4579C61.0401 44.4229 61.7574 44.451 62.4762 44.4844C63.0245 44.5098 63.036 45.3448 62.4847 45.3193C61.766 45.2857 61.0487 45.2576 60.3326 45.2926C59.7866 45.3193 59.7797 44.4844 60.3241 44.4579Z" fill="#434A59"/>
</g>
</g>
</g>
</g>
</svg>
