<svg width="130" height="151" viewBox="0 0 174 201" fill="none" xmlns="http://www.w3.org/2000/svg">
<path d="M151.954 137.485C150.685 138.655 149.447 139.815 148.388 141.223C147.161 142.852 146.006 144.147 144.275 145.291C138.263 149.261 125.963 154.8 122.81 144.572C122.782 144.48 122.755 144.388 122.728 144.296C120.699 137.254 127.178 133.051 132.71 130.46C136.029 128.904 139.49 127.672 142.881 126.278C147.198 124.501 151.202 121.811 154.577 118.623C156.235 117.057 165.149 104.295 166.122 102.834C168.285 99.5855 167.069 110.737 166.935 111.287C164.436 121.403 162.876 123.065 161.678 125.486C159.278 130.332 155.944 133.808 151.954 137.485Z" fill="#D9C5B2"/>
<path opacity="0.3" d="M160.205 178.808C160.558 189.406 131.639 198.912 95.6088 200.045C59.5748 201.178 30.0848 193.508 29.7318 182.91C29.3788 172.307 58.2978 162.799 94.3318 161.666C130.362 160.533 159.852 168.205 160.205 178.808Z" fill="black"/>
<path d="M75.4678 178.36C80.9868 177.765 87.5268 176.867 92.2598 171.721C96.8258 166.755 98.7538 156.571 96.0108 149.817C90.1058 135.291 76.5698 123.403 65.8688 139.049C60.8708 146.354 64.9358 158.111 68.0568 164.34C65.6818 165.185 63.2288 163.808 60.9978 166.119C59.0488 168.138 58.2668 172.068 59.6348 174.564C63.0228 180.731 70.5008 178.894 75.4678 178.36Z" fill="#D9C5B2"/>
<path d="M116.936 88.6139C116.479 87.8109 116.028 87.0059 115.585 86.1959C113.746 82.8339 112.014 79.3599 109.416 76.5109C106.53 73.3459 103.272 71.7079 99.0965 72.0429C98.1735 72.1169 87.3835 75.5739 87.2715 75.1889C87.2705 75.1859 87.2605 75.1509 87.2605 75.1509C87.1295 75.1929 87.0015 75.2399 86.8675 75.2799C86.7345 75.3129 86.5965 75.3389 86.4655 75.3689L86.4765 75.4069C78.7735 77.8409 71.1835 81.5289 63.7415 84.5109C56.1345 87.5589 54.5525 95.4289 54.3845 102.638C54.3295 104.991 54.7715 107.53 54.3575 109.85C54.0905 111.346 53.0895 112.692 53.0085 114.213C52.7575 118.967 58.1525 121.753 61.2075 124.516C64.7975 127.764 67.0635 132.126 69.2545 136.391C72.6625 143.023 76.0705 149.654 79.4785 156.286C81.2375 159.709 83.0195 163.166 85.5455 166.1C90.2105 171.518 100.149 173.979 107.111 174.557C122.597 175.842 137.282 175.669 141.214 157.526C143.933 144.98 139.938 130.527 134.585 119.102C129.613 108.484 122.753 98.8209 116.936 88.6139Z" fill="#D9C5B2"/>
<path d="M117.492 88.0183C117.027 87.2093 116.569 86.3963 116.119 85.5793C115.547 84.5423 114.983 83.4963 114.404 82.4593C111.761 82.3003 109.108 82.6293 106.599 83.5553C103.681 84.6333 101.103 86.4123 98.6468 88.2763C95.8958 90.3633 93.1998 92.6383 91.4338 95.5543C88.7858 99.9283 88.5628 105.596 90.9168 110.124C92.4218 113.018 94.9178 115.462 97.9918 116.943C100.413 118.109 103.115 118.555 105.543 119.696C107.934 120.818 109.231 122.567 111.039 124.283C112.815 125.969 115.513 126.927 117.512 128.413C119.696 130.037 121.696 131.895 123.457 133.949C125.385 136.199 127.022 138.667 128.668 141.12C132.249 146.457 135.895 151.753 139.606 157.006C139.844 157.342 140.114 157.702 140.518 157.811C144.424 158.87 142.52 141.268 142.188 139.374C140.938 132.249 138.526 125.321 135.429 118.761C130.374 108.055 123.403 98.3113 117.492 88.0183Z" fill="#EADBCC"/>
<path d="M135.429 118.761C132.683 112.946 129.37 107.416 125.971 101.927C123.027 109.469 119.267 120.43 118.53 129.212C120.318 130.64 121.977 132.22 123.458 133.948C125.386 136.198 127.023 138.666 128.669 141.119C129.129 141.805 129.6 142.485 130.063 143.17C130.749 142.837 131.399 142.43 131.979 141.955C133.813 140.453 135.091 138.421 136.177 136.35C137.537 133.754 138.536 131.095 139.335 128.381C138.221 125.103 136.906 121.889 135.429 118.761Z" fill="#D9C5B2"/>
<path d="M62.6418 107.875C63.4788 112.577 61.3048 116.828 58.8038 121.46C52.9038 132.388 48.8558 143.142 47.8158 155.451C47.0888 164.055 48.8248 171.545 53.6698 178.5C57.0788 183.392 59.2918 188.581 51.4378 190.224C48.6438 190.808 45.6518 191.767 42.9058 191.012C31.4118 187.85 30.6558 179.911 28.9868 169.394C27.5438 160.302 27.1678 151.015 28.1618 141.846C29.9558 125.306 37.6578 102.119 52.5778 92.4688C55.0728 96.6667 59.1428 99.8248 61.3658 104.17C62.0178 105.443 62.4278 106.674 62.6418 107.875Z" fill="#EADBCC"/>
<path d="M47.2518 117.718C51.0028 120.189 55.3098 121.676 59.6228 122.932C64.7328 124.42 70.0088 125.629 75.3258 125.38C80.6418 125.132 86.0558 123.28 89.7178 119.418C91.7238 117.302 93.1718 114.523 93.1548 111.607C93.1338 108.05 90.9188 104.773 88.0288 102.699C85.1398 100.625 81.6408 99.5873 78.1648 98.8343C68.7478 96.7943 58.9358 96.5963 49.4448 98.2563C36.3748 100.542 37.6088 111.366 47.2518 117.718Z" fill="#D9C5B2"/>
<path d="M81.7348 115.906C80.0088 122.127 88.3808 131.586 90.4588 137.442C91.8958 141.491 93.5758 143.881 94.4538 148.052C95.5608 153.314 96.7348 158.442 93.9628 163.088C92.7868 165.058 90.0588 168.81 88.3238 170.34C84.6168 173.608 80.9078 176.875 77.2018 180.145C74.4818 182.544 70.0248 185.261 70.5238 189.408C70.9118 192.632 74.3638 194.471 77.4618 195.091C92.5048 198.103 108.102 183.884 114.434 171.053C118.817 162.171 117.03 149.824 115.868 140.243C114.25 126.904 108.336 111.305 97.6828 102.852C94.8138 106.801 90.4858 109.569 87.8718 113.69C87.1068 114.897 82.0618 114.729 81.7348 115.906Z" fill="#EADBCC"/>
<path d="M40.2099 88.2448C38.9329 93.0188 39.6649 100.848 41.9189 104.839C44.0689 108.639 47.7009 111.623 50.9509 113.624C58.1349 118.053 66.6069 119.02 74.5319 117.953C86.1579 116.393 98.1539 113.914 106.558 102.718C110.751 97.1328 114.192 91.5618 114.178 83.5408C114.138 62.4938 98.3479 60.8958 84.9749 60.5168C72.3929 60.1598 53.3159 61.9078 45.5049 76.9528C43.8249 80.1868 41.1999 84.5408 40.2099 88.2448Z" fill="#E9AAA6"/>
<path d="M152.461 132.485C156.734 141.312 157.487 151.63 154.537 160.933C153.044 165.639 150.538 170.197 146.542 173.32C142.547 176.442 136.891 177.906 132.03 176.226C124.994 173.794 122.58 164.945 122.928 157.838C123.419 147.814 123.082 140.413 129.086 133.58C135.813 125.923 147.101 121.414 152.461 132.485Z" fill="#EADBCC"/>
<path d="M132.66 85.4219C133.462 84.2229 134.526 83.1389 135.946 82.2089C137.125 81.4369 138.45 80.8459 139.857 80.6289C140.902 80.4679 141.977 80.5159 143.016 80.7149C150.031 82.0609 153.546 90.2709 151.826 96.5079C149.529 104.839 145.077 112.264 143.45 120.938C142.341 126.848 141.054 132.526 138.218 137.936C137.132 140.007 135.854 142.04 134.02 143.541C132.186 145.043 129.708 145.956 127.346 145.502C124.582 144.971 122.47 142.669 121.461 140.129C117.495 130.141 126.12 107.88 129.957 98.7019C132.818 91.8589 128.55 91.5669 132.66 85.4219Z" fill="#EADBCC"/>
<path d="M153.544 95.0416C153.191 96.1096 152.76 97.1526 152.265 98.1596C150.591 101.565 148.046 104.715 144.56 106.199C138.748 108.674 134.559 104.84 130.774 100.959C126.812 96.8966 126.206 90.6046 127.682 85.3386C128.909 80.9616 132.114 77.1246 136.309 75.3946C140.504 73.6646 145.611 74.1856 149.219 76.9406C152.294 79.2886 154.127 83.0606 154.525 86.9146C154.808 89.6526 154.411 92.4216 153.544 95.0416Z" fill="#EADBCC"/>
<path d="M133.406 84.0145C132.992 83.3445 132.875 82.4655 133.125 81.6905C133.498 80.5365 134.96 79.4455 136.081 79.2895C136.517 79.2285 139.577 81.1575 138.931 81.9985C139.848 80.8055 141.626 79.5005 142.881 80.2085C144.141 80.9195 144.731 82.5935 144.312 84.0435C145.921 82.8605 148.867 83.1075 149.634 85.2065C150.271 86.9515 148.862 89.2345 147.072 89.2455C147.33 91.4765 147.368 94.0285 145.876 95.6845C144.565 97.1395 142.468 97.4145 140.603 97.2165C135.587 96.6835 130.002 93.5045 131.529 87.3075C131.833 86.0765 132.611 84.9075 133.735 84.4355C133.61 84.3085 133.5 84.1675 133.406 84.0145Z" fill="#D9C5B2"/>
<path d="M52.4199 116.964C49.5949 115.132 49.4209 114.165 45.9579 112.823C36.3639 109.106 33.7699 107.029 30.6849 97.1343C26.4579 83.5883 34.7549 78.0113 36.1589 66.6083C37.1039 58.9253 34.5419 49.5183 36.2999 41.3283C38.8679 29.3663 46.1569 17.6073 57.4409 12.3133C63.2029 9.61226 67.1749 9.76426 72.9269 11.7213C79.6939 14.0253 83.3309 20.3253 89.7189 22.5873C93.6989 23.9963 98.6869 21.8533 103.216 23.4493C114.497 27.4303 120.545 40.8423 119.453 52.4633C118.967 57.6423 117.801 63.0453 116.024 68.0243C114.205 73.1183 112.114 77.9263 108.783 82.0493C105.926 85.5833 100.726 86.4023 98.3349 90.2833C96.8089 92.7603 95.9009 100.273 94.5709 102.998C92.0049 108.262 90.1569 111.34 86.1869 115.693C77.1679 125.579 62.7499 123.673 52.4199 116.964Z" fill="#EADBCC"/>
<path d="M73.3709 90.7812C71.4349 102.943 44.7019 92.6702 46.9589 83.6022C48.9949 75.4232 59.0199 77.9902 63.6049 79.8182C69.3119 82.0942 74.5769 83.2152 73.3709 90.7812Z" fill="#A17D60"/>
<path d="M143.524 37.7582C135.728 28.4252 119.459 27.4482 111.135 36.9512C107.515 41.0862 112.646 46.5002 117.256 48.5002C122.641 50.8312 129.247 47.5122 135.233 47.5972C138.081 47.6362 142.015 48.7412 144.394 46.4862C147.315 43.7202 145.502 40.1252 143.524 37.7582Z" fill="#BD9C80"/>
<path d="M151.497 61.3317C143.666 58.5297 139.019 49.9707 131.557 46.6957C124.219 43.4747 111.66 48.5717 108.222 39.0517C104.956 30.0107 120.576 29.6717 126.034 27.1867C129.853 25.4487 132.579 24.6257 136.912 25.8877C144.734 28.1647 148.265 31.8127 153.753 36.9327C157.967 40.8657 163.761 44.7667 168.952 47.4997C172.02 49.1147 174.056 49.6277 173.396 53.7077C172.883 56.8857 170.323 59.3177 167.499 60.6257C163.731 62.3717 158.618 62.6617 154.515 62.0787C153.455 61.9287 152.452 61.6727 151.497 61.3317Z" fill="#D0B096"/>
<path d="M31.7469 11.0631C40.7239 2.85906 56.9769 4.07407 63.9519 14.6061C66.9849 19.1891 61.1739 23.8661 56.3369 25.2301C50.6879 26.8191 44.5869 22.6441 38.6439 21.9241C35.8159 21.5811 31.7699 22.1491 29.7139 19.5951C27.1919 16.4631 29.4689 13.1441 31.7469 11.0631Z" fill="#BD9C80"/>
<path d="M20.6849 33.3539C28.8209 31.6269 34.5738 23.7689 42.4068 21.5239C50.1108 19.3169 61.8729 26.0519 66.5559 17.0789C71.0039 8.55791 55.5709 6.12691 50.4959 2.93291C46.9449 0.697911 44.3528 -0.483087 39.8888 0.186913C31.8328 1.39391 27.8449 4.53591 21.7189 8.87391C17.0159 12.2059 10.7509 15.2949 5.24086 17.3069C1.98386 18.4949 -0.102141 18.7319 0.00385899 22.8619C0.086859 26.0799 2.29684 28.8339 4.91984 30.5079C8.41984 32.7439 13.4478 33.7159 17.5918 33.6889C18.6648 33.6839 19.6929 33.5629 20.6849 33.3539Z" fill="#D0B096"/>
<path d="M74.3988 108.085C69.6688 111.651 66.3608 114.888 60.4078 112.041C65.2168 112.409 67.3448 109.366 70.9978 106.349C72.6038 105.022 74.3908 103.925 76.3248 103.557C78.2588 103.189 80.3598 103.623 81.8808 105.083C79.2318 105.356 76.6408 106.395 74.3988 108.085Z" fill="#A17D60"/>
<path d="M60.0608 62.1289C59.9818 62.1359 59.9018 62.1389 59.8208 62.1349C54.6128 61.8789 51.2348 62.4409 46.6748 59.8859C49.3328 58.4939 52.8378 58.8119 55.7688 58.8009C52.5418 55.7319 48.9208 53.2589 48.0888 48.6709C52.9618 51.0809 57.3618 55.6859 61.1008 59.3709C61.5828 59.8469 61.7138 60.5619 61.4308 61.1729C61.1818 61.7129 60.6538 62.0739 60.0608 62.1289Z" fill="#A17D60"/>
<path d="M83.5069 69.9842C83.5659 70.0352 83.6289 70.0832 83.6969 70.1272C88.0499 72.9192 90.4289 75.3172 95.6599 75.8842C94.3659 73.2322 91.3479 71.4712 88.9919 69.7742C93.4619 69.1582 97.8859 69.2512 101.35 66.0332C95.9549 65.1692 89.6049 66.3472 84.3479 67.1642C83.6699 67.2692 83.1279 67.7702 82.9839 68.4262C82.8569 69.0032 83.0619 69.5982 83.5069 69.9842Z" fill="#A17D60"/>
</svg>
