<svg width="143" height="152" viewBox="0 0 143 152" fill="none" xmlns="http://www.w3.org/2000/svg">
<path opacity="0.3" d="M10.0342 143.754C10.0342 147.834 33.3638 151.143 62.1467 151.143C90.9296 151.143 114.261 147.834 114.261 143.754C114.261 139.671 90.9303 136.362 62.1467 136.362C33.3645 136.362 10.0342 139.67 10.0342 143.754Z" fill="#231F20"/>
<path d="M116.475 57.9136C114.489 55.7061 112.541 53.4592 110.501 51.2966C107.734 48.364 105.896 45.5739 104.539 41.5884C102.874 36.7037 102.169 25.2463 93.5276 31.3916C88.6977 34.8261 90.3402 46.1593 91.5665 50.4157C92.4699 53.5547 94.9645 55.7896 95.8896 58.8556C97.1103 62.912 96.3269 67.4092 99.0447 70.4021C103.325 75.1148 110.372 72.0994 115.975 73.4892C117.415 73.8465 119.464 75.6743 121.39 74.5329C129.02 70.0126 118.822 60.5233 116.475 57.9136Z" fill="#D88D50"/>
<path d="M89.9581 84.2947C93.01 76.4093 104.02 74.1506 106.575 83.7563C108.815 92.1857 105.235 100.79 103.292 108.951C102.294 113.137 98.1586 130.141 100.209 133.541C100.674 134.313 103.752 137.941 102.958 139.742C102.095 141.697 99.0957 142.035 96.6403 141.769C91.4419 141.208 90.4185 139.592 89.8893 137.79C88.0327 131.467 87.4747 119.57 87.5554 113.665C87.6965 103.173 86.0154 94.4894 89.9581 84.2947Z" fill="#E8BB91"/>
<path d="M33.7993 80.6343C38.8398 70.2122 44.4643 72.6808 54.0798 79.5596C61.4605 84.8423 63.3705 96.3846 58.1299 104.756C55.1285 109.548 48.9418 111.263 47.0501 115.72C46.3959 117.261 43.6107 132.329 43.5707 133.283C43.5118 134.7 45.8112 135.369 46.4008 137.611C46.6879 138.701 46.3517 140.669 44.4671 141.238C43.2331 141.61 40.3917 141.852 37.8571 140.902C33.3753 139.221 32.3211 131.269 31.768 125.456C31.1762 119.243 31.5321 113.005 30.9418 106.895C30.2771 100.035 30.3845 87.6984 33.7993 80.6343Z" fill="#E8BB91"/>
<path d="M20.1434 85.4742C24.9165 88.6497 28.5047 91.9986 30.8119 85.875C30.8329 85.8217 30.8533 85.7655 30.873 85.7101C32.3603 81.4642 29.7492 81.1925 26.0838 78.0515C25.3868 77.4541 17.9864 71.4597 13.8268 67.0201C4.84648 57.4361 1.22458 48.9843 0.863089 48.8292C-1.31848 47.8935 0.679896 62.087 6.35561 71.5475C11.2382 79.6841 18.7143 84.5231 20.1434 85.4742Z" fill="#FFDDBB"/>
<path d="M35.2464 93.3164C39.3385 93.3985 43.4462 93.6659 47.4415 94.5553C52.7992 95.7478 57.858 98.0368 63.1919 99.3318C69.7464 100.923 76.5697 100.98 83.3123 100.805C88.3479 100.675 93.4754 100.401 98.1958 98.6433C101.432 97.4388 104.482 95.4243 106.594 92.7373C104.849 97.5026 101.221 101.86 95.532 105.161C84.7042 111.444 74.8669 108.914 63.5611 106.446C58.6666 105.376 53.6535 102.742 48.7134 102.26C41.7833 101.581 32.904 104.452 26.2155 101.352C22.211 99.4954 19.3977 97.4739 17.7012 94.0871C23.525 93.4596 29.3895 93.1985 35.2464 93.3164Z" fill="#E8BB91"/>
<path d="M98.1957 98.6435C93.4746 100.401 88.3478 100.674 83.3122 100.805C76.5696 100.98 69.7462 100.923 63.1917 99.3321C57.8578 98.0371 52.7991 95.7481 47.4413 94.5556C43.4467 93.6662 39.3384 93.3988 35.2462 93.3167C29.3887 93.1987 23.5249 93.4599 17.7003 94.0874C17.1914 93.0717 16.7787 91.9388 16.4692 90.6438C15.5468 86.7818 17.6098 81.0415 20.3578 78.1707C21.9434 76.5134 24.3145 74.4786 26.5101 73.811C36.6072 70.7423 53.9544 73.5464 66.1734 71.1466C75.012 69.4107 76.1077 61.9093 83.0069 61.6278C89.8379 61.3492 93.5125 62.2259 98.4638 66.7006C106.732 74.1753 109.75 84.1243 106.594 92.7383C104.481 95.4245 101.432 97.439 98.1957 98.6435Z" fill="#FFDDBB"/>
<path d="M16.5021 85.2925C21.5426 74.8704 27.1671 77.339 36.7826 84.2178C44.1633 89.5005 46.0733 101.043 40.8327 109.414C37.8313 114.207 31.6446 115.921 29.753 120.378C29.0988 121.919 26.3135 136.987 26.2735 137.941C26.2146 139.357 28.5141 140.027 29.1037 142.269C29.3908 143.359 29.0546 145.328 27.1699 145.895C25.9359 146.267 23.0945 146.51 20.5599 145.559C16.0781 143.879 15.0239 135.927 14.4708 130.113C13.879 123.9 14.2349 117.663 13.6446 111.553C12.9806 104.693 13.0873 92.3573 16.5021 85.2925Z" fill="#FFDDBB"/>
<path d="M72.913 89.0535C76.1797 81.1681 87.9635 78.9094 90.6982 88.5151C93.0959 96.9445 89.2635 105.549 87.1837 113.71C86.116 117.896 81.6898 134.899 83.884 138.299C84.3823 139.072 87.6764 142.7 86.8257 144.501C85.9027 146.456 82.6921 146.793 80.0648 146.528C74.5007 145.966 73.4057 144.351 72.8393 142.549C70.8521 136.226 70.2555 124.329 70.3411 118.424C70.4927 107.931 68.6937 99.2475 72.913 89.0535Z" fill="#FFDDBB"/>
<path d="M75.2697 63.5737C77.2512 59.3152 78.7344 48.1519 78.7856 44.3271C78.8481 39.7316 78.5189 35.3797 79.75 30.9654C80.2309 29.2408 80.7432 27.7302 81.3209 26.3818L116.091 56.9939C111.814 60.1343 108.329 73.6884 107.7 75.5618C105.009 83.5924 91.7802 79.8428 84.1785 76.6034C80.2421 74.9258 72.9779 68.4977 75.2697 63.5737Z" fill="#FFDDBB"/>
<path d="M103.489 66.1989C100.534 66.8376 97.4948 67.0882 94.4815 66.9303C88.836 66.6334 83.507 62.4942 79.5938 58.5234C74.5554 53.412 72.6574 49.5501 72.4005 43.4792C72.2854 40.7501 71.5884 38.6528 72.2356 35.8149C72.8056 33.3154 78.1745 24.4761 79.1404 22.9277C83.3434 16.1935 92.1511 13.6364 99.6511 14.134C106.152 14.5636 108.975 14.4338 113.089 9.547C115.578 6.59122 115.864 2.82823 120.1 1.83362C123.723 0.983592 127.761 2.56782 130.274 5.28144C131.265 6.35117 132.966 7.48336 134.223 8.47026C137.277 10.8708 142.265 13.3675 142.175 17.7946C142.073 22.8013 136.196 27.0613 133.68 31.303C127.105 42.3905 126.01 54.7155 113.812 62.1102C110.634 64.037 107.125 65.4127 103.489 66.1989Z" fill="#FFDDBB"/>
<path d="M86.9476 66.9912C87.8832 68.6533 88.9206 70.3884 88.8947 72.2956C88.8441 76.0052 84.5737 78.5132 80.8921 78.0506C77.2105 77.588 74.1446 75.085 71.4275 72.5588C68.7581 70.0768 66.0858 67.2579 65.3502 63.6879C64.9305 61.6488 65.186 59.5368 65.4731 57.4745C66.0297 53.4813 66.7295 49.4207 68.6401 45.8704C69.8243 43.6699 72.5982 39.843 75.3659 39.4907C79.0194 39.0253 78.7793 42.669 79.2707 45.4507C80.6029 52.9977 83.1881 60.3103 86.9476 66.9912Z" fill="#E8BB91"/>
<path d="M75.2703 63.5723C83.0363 75.2157 93.669 77.0905 107.702 75.5596C108.767 77.1656 108.488 80.9974 107.431 81.9766C106.111 82.5086 82.9078 87.0444 70.9443 69.3498C70.9443 69.3498 71.1423 66.8727 72.5988 65.4008C73.9036 64.0805 75.2703 63.5723 75.2703 63.5723Z" fill="#EF4136"/>
<path d="M81.4833 69.8839C80.627 67.0412 79.8219 64.1787 78.8982 61.3528C77.6431 57.5203 77.1693 54.2136 77.6389 50.0294C78.2138 44.9012 82.4569 34.2349 72.0215 36.1139C66.1885 37.1633 62.8467 48.1167 62.1434 52.4904C61.6232 55.715 62.9281 58.7999 62.4592 61.9677C61.8359 66.1574 59.2107 69.8923 60.3949 73.7585C62.2599 79.8456 69.9199 80.1193 74.3968 83.7637C75.5472 84.7007 76.6218 87.2269 78.8518 87.015C87.6799 86.1748 82.4955 73.2454 81.4833 69.8839Z" fill="#D88D50"/>
<path d="M117.299 10.9613C123.474 12.8586 129.393 3.34476 124.61 0.88383C120.298 -1.33494 118.167 1.08739 117.13 3.0682C115.837 5.53545 113.106 9.67326 117.299 10.9613Z" fill="black"/>
<path d="M99.6638 21.5644C99.6694 21.6409 99.6694 21.7174 99.6652 21.7953C99.4567 25.2691 99.4658 28.7078 99.6905 32.0166C99.7508 32.9025 99.1528 33.657 98.3568 33.7026C97.5601 33.7476 96.8659 33.0674 96.8048 32.183V32.1809C96.6581 30.0183 96.5992 27.8044 96.6287 25.5632C94.5917 27.744 92.5786 29.9881 90.6188 32.2644C90.0735 32.8982 89.1574 32.9081 88.5735 32.2876C87.9895 31.6657 87.9586 30.6486 88.5033 30.0162C91.3278 26.7347 94.2618 23.5199 97.2225 20.4609C97.6542 20.0152 98.2943 19.9162 98.8348 20.2111C99.31 20.4722 99.6238 20.9923 99.6638 21.5644Z" fill="black"/>
<path d="M131.987 13.079C132.202 13.079 132.416 12.9828 132.557 12.7989C132.8 12.4837 132.741 12.0324 132.426 11.7895L124.617 5.76917C124.302 5.5256 123.85 5.58527 123.608 5.89973C123.365 6.21489 123.423 6.66622 123.739 6.90909L131.547 12.9294C131.679 13.0305 131.834 13.079 131.987 13.079Z" fill="black"/>
<path d="M137.142 12.458C141.458 16.5846 137.893 20.9049 131.317 17.1047C127.387 14.8333 127.519 7.69411 134.139 10.3424C135.376 10.8366 136.298 11.6501 137.142 12.458Z" fill="#A00A2B"/>
</svg>
