<svg width="40" height="40" viewBox="0 0 40 40" fill="none" xmlns="http://www.w3.org/2000/svg">
<circle cx="20" cy="20" r="18.5" fill="#F4F0ED" stroke="#111111" stroke-width="3"/>
<path d="M37 19.9995C37 22.2592 36.5592 24.4156 35.7587 26.388C35.3716 27.341 34.9014 28.251 34.3558 29.1082C34.2757 29.2344 34.1942 29.3595 34.1106 29.4837C33.9008 29.7953 33.6809 30.0993 33.4514 30.3957C33.2837 30.6125 33.1104 30.8253 32.9326 31.0341C32.812 31.1754 32.6889 31.3153 32.5637 31.4526C32.1022 31.9582 31.6107 32.4365 31.0914 32.8834C31.0767 32.896 31.062 32.9092 31.0468 32.9219C30.7357 33.1889 30.4145 33.4443 30.0842 33.688C29.8805 33.8384 29.6733 33.9843 29.4625 34.1257C29.1038 34.3664 28.735 34.5944 28.357 34.8072C28.2932 34.8442 28.2288 34.8796 28.1645 34.9146C28.0672 34.9683 27.9694 35.0205 27.8711 35.0722C27.8407 35.0879 27.8103 35.1041 27.7799 35.1193C27.403 35.3143 27.0174 35.4947 26.6247 35.6609C26.419 35.7485 26.2118 35.8316 26.0021 35.9102C25.5334 36.0875 25.0556 36.2441 24.5682 36.3788C23.7054 36.619 22.8152 36.7928 21.9032 36.8946C21.8333 36.9027 21.7629 36.9098 21.6925 36.9169C21.6226 36.9235 21.5526 36.9301 21.4822 36.9367C20.9938 36.9782 20.4993 37 20.0002 37C19.8918 37 19.7834 36.999 19.675 36.997C19.5797 36.9949 19.4845 36.9924 19.3892 36.9888C19.3517 36.9878 19.3147 36.9863 19.2773 36.9848C19.0685 36.9762 18.8608 36.9635 18.6541 36.9473C18.4843 36.9341 18.3151 36.9184 18.1464 36.8997C17.89 36.8723 17.6357 36.8389 17.3829 36.7994C16.44 36.6545 15.5224 36.431 14.6373 36.1366C14.3156 36.0302 13.9989 35.9142 13.6863 35.7886C13.6792 35.786 13.6727 35.784 13.6661 35.7805C13.3226 35.6427 12.9846 35.4937 12.6528 35.3341C12.5854 35.3022 12.518 35.2697 12.4516 35.2363C12.4486 35.2353 12.446 35.2338 12.443 35.2323C12.3726 35.1973 12.3032 35.1618 12.2338 35.1264C11.7605 34.8832 11.3 34.6177 10.8541 34.3324C10.462 34.0816 10.0805 33.8151 9.71062 33.5339C9.53026 33.3961 9.35242 33.2553 9.17762 33.1104C8.86806 32.8545 8.56761 32.588 8.2773 32.3108C8.24893 32.2845 8.21954 32.2571 8.19168 32.2293C7.92771 31.9749 7.67185 31.7115 7.42511 31.4399C7.35063 31.3583 7.27717 31.2763 7.20472 31.1932C6.75836 30.6835 6.34239 30.1469 5.95885 29.5865C4.09183 26.8571 3 23.5557 3 19.9995C3 10.6111 10.6115 3 20.0002 3C29.389 3 37 10.6111 37 19.9995Z" fill="#5CBEC6"/>
<path d="M25.5946 18.2871C25.5946 18.2871 25.1647 17.743 24.2103 17.1307C23.256 16.5185 19.5837 16.369 18.2507 16.8489C16.9176 17.3288 15.2997 17.7457 15.297 18.9854C15.2942 20.2252 17.5474 21.6144 18.9521 21.0742C20.3569 20.5341 25.4663 19.5156 25.5946 18.2871Z" fill="#CC365D"/>
<path d="M23.5351 14.1335C23.5106 14.1697 22.5283 17.3228 19.6031 16.973C18.1064 16.7941 18.5936 11.7599 19.5601 11.6188C20.5266 11.4778 24.059 13.3631 23.5351 14.1335Z" fill="#7F635D"/>
<path d="M31.0956 32.8816C31.0809 32.8943 31.0662 32.9074 31.051 32.9201C30.7399 33.1871 30.4187 33.4425 30.0884 33.6862C29.8847 33.8367 29.6775 33.9826 29.4667 34.1239C29.108 34.3646 28.7392 34.5926 28.3612 34.8054C28.2974 34.8424 28.233 34.8778 28.1687 34.9128C28.0714 34.9665 27.9736 35.0187 27.8753 35.0704C27.8449 35.0861 27.8145 35.1023 27.7841 35.1175C27.4072 35.3126 27.0216 35.4929 26.629 35.6591C26.4233 35.7468 26.216 35.8299 26.0063 35.9084C25.5376 36.0857 25.0599 36.2423 24.5724 36.3771C23.7096 36.6172 22.8194 36.791 21.9075 36.8928C21.8375 36.9009 21.7671 36.908 21.6967 36.9151C21.6268 36.9217 21.5568 36.9283 21.4864 36.9349C20.998 36.9764 20.5035 36.9982 20.0045 36.9982C19.896 36.9982 19.7876 36.9972 19.6792 36.9952C19.5839 36.9932 19.4887 36.9906 19.3934 36.9871C19.3559 36.9861 19.319 36.9845 19.2815 36.983C19.0727 36.9744 18.865 36.9617 18.6583 36.9455C18.4886 36.9324 18.3193 36.9166 18.1506 36.8979C17.8942 36.8705 17.6399 36.8371 17.3871 36.7976C16.4442 36.6527 15.5267 36.4292 14.6415 36.1349C14.3198 36.0285 14.0031 35.9124 13.6905 35.7868C13.6835 35.7843 13.6769 35.7822 13.6703 35.7787C13.3268 35.6409 12.9888 35.4919 12.657 35.3323C12.5896 35.3004 12.5222 35.268 12.4558 35.2345C12.4528 35.2335 12.4503 35.232 12.4472 35.2305C12.3768 35.1955 12.3074 35.1601 12.238 35.1246C11.7648 34.8814 11.3042 34.6159 10.8583 34.3306C10.4662 34.0799 10.0847 33.8133 9.71483 33.5321C9.53447 33.3943 9.35663 33.2535 9.18183 33.1086C8.87227 32.8527 8.57182 32.5862 8.28151 32.3091C8.25314 32.2827 8.22375 32.2554 8.19589 32.2275C7.93192 31.9732 7.67606 31.7097 7.42932 31.4381C8.04541 27.471 8.72331 24.508 9.42959 23.5514C10.7965 21.7006 12.6686 20.4897 15.1249 19.8847C15.2738 19.8477 15.4248 19.8128 15.5778 19.7804C16.2345 19.6425 16.9306 19.5448 17.6678 19.4875C17.7767 19.4789 17.8866 19.4713 17.9971 19.4652C18.6932 19.4227 19.4254 19.4145 20.1939 19.4409C20.2198 19.4419 20.2461 19.4424 20.2725 19.4434H20.273C20.8556 19.4652 21.4596 19.5063 22.0848 19.5665C22.5043 19.6071 22.902 19.6724 23.279 19.7611C24.235 19.985 25.0583 20.3554 25.7717 20.8337C26.2125 21.1291 26.6112 21.4655 26.973 21.8339C26.973 21.8339 26.974 21.8344 26.9755 21.8359C28.9165 23.8108 29.8128 26.7034 30.4957 29.1141C30.7065 29.8568 30.9066 31.1696 31.0956 32.8816Z" fill="#F95873"/>
<path d="M18.0335 16.994C18.0335 16.994 17.1973 20.1259 18.0389 20.7117C18.5725 21.0831 20.4272 20.8662 20.2455 19.9085C20.0596 18.9293 20.2555 16.3401 20.0596 16.038C19.8637 15.736 18.0335 16.994 18.0335 16.994Z" fill="#FF867A"/>
<path d="M14.4147 14.4331C13.9202 16.6491 16.8101 19.0972 19.772 17.0903C20.9593 16.2859 20.6147 14.8912 21.0448 13.4678C21.5507 11.7934 20.5443 10.2736 19.2667 9.94175C17.9702 9.60507 17.0243 10.031 16.0638 11.8111C15.6467 12.5839 14.8396 12.5293 14.4147 14.4331Z" fill="#FF867A"/>
<path d="M15.6121 14.0488C15.6121 14.0488 16.7933 14.7312 18.2473 14.9232C18.2473 14.9232 17.0698 15.9674 16.1785 15.5783C15.2872 15.1893 15.6121 14.0488 15.6121 14.0488Z" fill="white"/>
<path d="M21.005 14.3852C21.005 14.3852 22.0064 13.8338 22.2632 14.4959C22.6641 15.5299 20.8993 16.3328 20.4142 15.9948C19.929 15.6568 19.8519 15.135 21.005 14.3852Z" fill="#FF867A"/>
<path d="M17.0254 13.8681C16.7762 13.714 16.5821 13.5168 16.4318 13.2653C16.318 13.0748 16.0452 13.2859 16.1578 13.4743C16.3207 13.7469 16.5443 13.9736 16.8143 14.1405C17.0012 14.2562 17.2138 13.9845 17.0254 13.8681Z" fill="#C66C67"/>
<path d="M18.6229 12.8143C18.5897 12.7951 18.4905 12.7286 18.3861 12.8315C18.3074 12.909 18.2381 13.0206 18.2149 13.1337C18.1878 13.2658 18.2923 13.3863 18.4241 13.3831C18.6065 13.3788 18.8455 12.9432 18.6229 12.8143Z" fill="#434A59"/>
<path d="M16.664 11.9607C16.6308 11.9416 16.5317 11.875 16.4272 11.978C16.3485 12.0555 16.2792 12.1671 16.256 12.2802C16.229 12.4123 16.3335 12.5327 16.4652 12.5296C16.6477 12.5252 16.8866 12.0897 16.664 11.9607Z" fill="#434A59"/>
<path d="M18.5905 12.0014C18.7702 11.9736 19.0235 12.0832 19.1477 12.2081C19.2759 12.337 19.4048 12.5376 19.4188 12.7281C19.4257 12.7499 19.4253 12.771 19.4194 12.7902C19.4194 12.7905 19.4194 12.7909 19.4193 12.7913C19.4165 12.8322 19.3898 12.8546 19.359 12.8607C19.3124 12.8847 19.251 12.8809 19.2084 12.8245C19.0356 12.5963 18.7829 12.3841 18.5423 12.2362C18.426 12.1647 18.4839 11.9875 18.5905 12.0014Z" fill="#7F635D"/>
<path d="M16.557 11.3492C16.5663 11.3448 16.5765 11.3414 16.5879 11.3402C16.6691 11.3314 16.7723 11.3035 16.8747 11.2879C16.8827 11.2859 16.89 11.2843 16.896 11.2838C16.8987 11.2836 16.9012 11.284 16.9039 11.2838C17.0538 11.265 17.1975 11.2797 17.263 11.4295C17.2714 11.4487 17.2718 11.4675 17.2672 11.4848C17.274 11.5551 17.2279 11.6344 17.1395 11.6258C16.9424 11.6066 16.7454 11.589 16.5465 11.5897C16.4013 11.5902 16.4225 11.369 16.557 11.3492Z" fill="#7F635D"/>
<path d="M18.0383 17.9437C18.6919 17.8554 19.193 17.5857 19.2178 17.572C19.2856 17.5351 19.3105 17.4502 19.2737 17.3824C19.2366 17.3146 19.1519 17.2899 19.0839 17.3265C19.0773 17.3301 18.4073 17.6895 17.6455 17.6919C17.5685 17.693 17.5058 17.7549 17.5061 17.8322C17.5064 17.9095 17.5692 17.9718 17.6464 17.9716C17.7812 17.9711 17.9126 17.9608 18.0383 17.9437Z" fill="#C66C67"/>
<path d="M20.6008 12.8242C20.6008 12.8242 18.6611 11.77 18.3389 11.6561C18.0167 11.5423 18.0903 11.1111 17.9658 11.2505C17.8412 11.39 17.6979 11.3936 17.4048 11.3317C17.1118 11.2698 15.9041 10.9191 15.8698 10.7986C15.8355 10.6782 16.9378 9.08202 17.8754 8.66169C18.8129 8.24136 21.997 8.19024 23.3236 10.1124C24.6503 12.0345 23.8299 14.3615 23.6123 14.5094C23.0714 14.8772 20.6008 12.8242 20.6008 12.8242Z" fill="#7F635D"/>
<path d="M34.3581 29.1076C34.278 29.2337 34.1964 29.3589 34.1128 29.483C33.9031 29.7946 33.6832 30.0986 33.4537 30.395C33.286 30.6118 33.1127 30.8246 32.9349 31.0334C32.8143 31.1747 32.6912 31.3146 32.566 31.4519C32.1045 31.9575 31.613 32.4358 31.0937 32.8827C31.079 32.8954 31.0643 32.9085 31.0491 32.9212C30.738 33.1882 30.4168 33.4436 30.0865 33.6873C29.8828 33.8378 29.6756 33.9837 29.4648 34.125C29.1061 34.3657 28.7372 34.5937 28.3593 34.8065C28.2954 34.8435 28.2311 34.8789 28.1667 34.9139C27.2507 33.4502 26.5201 31.9971 26.2577 30.7861C26.2313 30.6671 26.2106 30.5505 26.1938 30.4365C25.5798 26.1877 26.971 21.835 26.971 21.835C26.971 21.835 26.9721 21.8355 26.9736 21.837C27.084 21.9317 30.6357 24.9742 34.3581 29.1076Z" fill="#F95873"/>
<path d="M26.4976 30.9924C26.5083 31.0213 27.1446 32.7247 28.3591 34.807C28.2952 34.844 28.2309 34.8795 28.1665 34.9144C28.0693 34.9682 27.9715 35.0203 27.8732 35.072C27.8428 35.0877 27.8124 35.1039 27.782 35.1191C26.5676 33.0363 25.9337 31.3364 25.8897 31.2163C25.8278 31.0486 25.914 30.8622 26.0817 30.8004C26.1399 30.7791 26.2002 30.775 26.2575 30.7867C26.3639 30.808 26.4576 30.8829 26.4976 30.9924Z" fill="#CC365D"/>
<path d="M18.6303 20.1925C18.6303 20.1925 22.9597 18.2113 24.3371 17.6414C25.1017 17.325 26.2377 19.025 26.5061 19.7201C27.1274 21.3284 19.8079 22.7855 18.48 22.6774C17.1521 22.5694 15.1266 20.5807 14.9916 19.4277C14.8565 18.2747 16.3603 18.5988 16.9049 18.6528C17.4495 18.7069 18.6303 20.1925 18.6303 20.1925Z" fill="#F95873"/>
</svg>
