<svg width="20" height="21" viewBox="0 0 20 21" fill="none" xmlns="http://www.w3.org/2000/svg">
<path d="M10.0003 18.7327C5.46041 18.7327 1.76699 15.0393 1.76699 10.4993C1.76699 5.95944 5.46041 2.26602 10.0003 2.26602C14.5402 2.26602 18.2337 5.95944 18.2337 10.4993C18.2337 15.0393 14.5402 18.7327 10.0003 18.7327ZM10.0003 4.14935C6.49856 4.14935 3.65033 6.99829 3.65033 10.4993C3.65033 14.0004 6.49856 16.8493 10.0003 16.8493C13.5021 16.8493 16.3503 14.0004 16.3503 10.4993C16.3503 6.99829 13.5021 4.14935 10.0003 4.14935ZM11.5706 11.902C11.8343 12.3503 11.6845 12.9275 11.2361 13.1911C10.788 13.4545 10.2111 13.3049 9.94751 12.8568L9.00444 11.2536C8.8126 10.9274 8.71144 10.5559 8.71144 10.1776V7.37435C8.71144 6.85428 9.13303 6.43268 9.6531 6.43268C10.1732 6.43268 10.5948 6.85428 10.5948 7.37435V9.61086C10.5948 10.0249 10.7055 10.4314 10.9154 10.7883L11.5706 11.902Z" fill="#783D16" stroke="white" stroke-width="0.2"/>
</svg>
