<svg width="20" height="21" viewBox="0 0 20 21" fill="none" xmlns="http://www.w3.org/2000/svg">
<path d="M9.32708 18.9659L9.32703 18.9658C8.97205 18.6663 7.23886 17.1725 5.59527 15.2523C4.77346 14.2922 3.97606 13.2277 3.38456 12.1546C2.79235 11.0802 2.41117 10.0054 2.41116 9.02237C2.41337 7.01035 3.21356 5.08137 4.6362 3.65859C6.05883 2.23582 7.98772 1.43543 9.99972 1.43301C12.0122 1.43463 13.9419 2.23466 15.3652 3.65752C16.7885 5.0804 17.5891 7.00987 17.5913 9.02242C17.5913 10.0054 17.21 11.0802 16.6177 12.1546C16.0261 13.2277 15.2285 14.2922 14.4066 15.2523C12.7629 17.1725 11.0297 18.6662 10.6754 18.9659C10.2861 19.2947 9.71635 19.2947 9.32708 18.9659ZM9.63429 16.4424C9.84042 16.6352 10.159 16.6351 10.365 16.4422C11.5149 15.3655 12.7946 14.0082 13.7877 12.6758C14.2843 12.0097 14.7107 11.3477 15.0134 10.7286C15.3154 10.111 15.4981 9.52814 15.4981 9.02231C15.4981 7.56405 14.9188 6.16551 13.8877 5.13436C12.8565 4.1032 11.458 3.52391 9.9997 3.52391C8.54143 3.52391 7.14289 4.1032 6.11174 5.13436C5.08059 6.16551 4.5013 7.56405 4.5013 9.02231C4.5013 9.52901 4.68397 10.1125 4.98586 10.7304C5.28848 11.3499 5.71484 12.012 6.21134 12.6781C7.20439 14.0103 8.48409 15.3668 9.63429 16.4424Z" fill="#783D16" stroke="white" stroke-width="0.2"/>
<path d="M12.0892 8.80598C12.0892 9.95991 11.1538 10.8954 9.99982 10.8954C8.84589 10.8954 7.91045 9.95991 7.91045 8.80598C7.91045 7.65205 8.84589 6.7166 9.99982 6.7166C11.1538 6.7166 12.0892 7.65205 12.0892 8.80598Z" fill="#783D16" stroke="white" stroke-width="0.4"/>
</svg>
