<svg width="48" height="48" viewBox="0 0 48 48" fill="none" xmlns="http://www.w3.org/2000/svg">
<circle cx="24" cy="24" r="24" fill="#111111"/>
<g clip-path="url(#clip0_820_158)">
<path d="M33.3619 19.9018C34.0861 17.5243 34.0059 15.0104 33.8606 13.5437C33.8445 13.3789 33.793 13.2196 33.7095 13.0766C33.626 12.9337 33.5125 12.8104 33.3769 12.7155C33.2413 12.6205 33.0868 12.556 32.9239 12.5263C32.761 12.4967 32.5936 12.5027 32.4333 12.5438C29.5983 13.2746 27.9178 14.5037 26.97 15.4824C25.9958 15.2596 24.9993 15.1495 24 15.1543C23.0007 15.1495 22.0042 15.2596 21.03 15.4824C20.0822 14.5037 18.4017 13.2746 15.5667 12.5438C15.4064 12.5027 15.239 12.4967 15.0761 12.5263C14.9132 12.556 14.7587 12.6205 14.6231 12.7155C14.4875 12.8104 14.374 12.9337 14.2905 13.0766C14.207 13.2196 14.1555 13.3789 14.1394 13.5437C13.9941 15.0104 13.9139 17.5243 14.6381 19.9018C13.2033 22.0548 12.5156 25.3749 12.5156 27.9156C12.5156 30.1876 16.305 35.4845 24 35.4845C31.695 35.4845 35.4844 30.1876 35.4844 27.9156C35.4844 25.3749 34.7967 22.0548 33.3619 19.9018Z" fill="#F29555"/>
<path d="M30.0246 26.1855C27.6495 26.1855 26.6239 28.5354 24.0007 28.5354C21.3776 28.5354 20.352 26.1855 17.9768 26.1855C14.532 26.1855 13.0699 29.0838 12.9059 29.433C14.051 31.9643 17.7284 35.4846 24.0007 35.4846C30.2731 35.4846 33.9504 31.9643 35.0956 29.433C34.9315 29.0838 33.4695 26.1855 30.0246 26.1855Z" fill="#F7E3CD"/>
<path d="M23.9539 33.7367C18.7559 33.7367 15.087 31.6634 12.9195 29.4045L12.9059 29.4326C14.051 31.9639 17.7284 35.4842 24.0007 35.4842C30.2731 35.4842 33.9504 31.9639 35.0956 29.4326C35.0857 29.4111 35.0703 29.3796 35.0487 29.3389C32.8906 31.624 29.201 33.7367 23.9539 33.7367Z" fill="#F2C59E"/>
<path d="M17.9055 16.5793C17.313 15.9549 16.397 15.0146 16.0436 14.7816C14.6373 13.8544 14.0467 15.0629 14.0467 15.0629C14.0162 16.4152 14.1175 18.0961 14.5862 19.7265C16.0628 18.2611 18.6048 16.9608 18.6048 16.9608C18.3375 16.9101 18.0928 16.7766 17.9055 16.5793Z" fill="#F7E3CD"/>
<path d="M30.0927 16.5793C30.6852 15.9549 31.6011 15.0146 31.9546 14.7816C33.3608 13.8544 33.9514 15.0629 33.9514 15.0629C33.9819 16.4152 33.8807 18.0961 33.4119 19.7265C31.9353 18.2611 29.3933 16.9608 29.3933 16.9608C29.6607 16.9101 29.9053 16.7766 30.0927 16.5793Z" fill="#F7E3CD"/>
<path d="M21.7353 21.2159C21.7353 21.6997 21.2511 22.092 20.6544 22.092C20.0577 22.092 19.573 21.5122 19.573 21.0284C19.573 20.5447 20.0572 20.3398 20.6544 20.3398C21.2516 20.3398 21.7353 20.7322 21.7353 21.2159Z" fill="#F7E3CD"/>
<path d="M26.3359 21.2159C26.3359 21.6997 26.8202 22.092 27.4173 22.092C28.0145 22.092 28.4997 21.5122 28.4997 21.0284C28.4997 20.5447 28.0155 20.3398 27.4188 20.3398C26.822 20.3398 26.3359 20.7322 26.3359 21.2159Z" fill="#F7E3CD"/>
<path d="M19.4295 25.0236C20.1083 25.0236 20.6586 24.4733 20.6586 23.7945C20.6586 23.1157 20.1083 22.5654 19.4295 22.5654C18.7507 22.5654 18.2004 23.1157 18.2004 23.7945C18.2004 24.4733 18.7507 25.0236 19.4295 25.0236Z" fill="black"/>
<path d="M28.6439 22.5654C28.4008 22.5654 28.1631 22.6375 27.961 22.7726C27.7589 22.9076 27.6014 23.0996 27.5084 23.3242C27.4153 23.5487 27.391 23.7959 27.4384 24.0343C27.4858 24.2727 27.6029 24.4917 27.7748 24.6636C27.9467 24.8355 28.1657 24.9525 28.4041 24.9999C28.6425 25.0474 28.8896 25.023 29.1142 24.93C29.3388 24.837 29.5307 24.6794 29.6658 24.4773C29.8008 24.2752 29.8729 24.0376 29.8729 23.7945C29.8727 23.4686 29.7431 23.1561 29.5127 22.9257C29.2822 22.6952 28.9697 22.5657 28.6439 22.5654Z" fill="black"/>
<path d="M28.178 29.7749C28.0543 29.7749 27.9357 29.8238 27.8479 29.9108C27.7601 29.9979 27.7103 30.1162 27.7093 30.2399C27.7027 30.3672 27.6723 30.4922 27.6197 30.6083C27.5349 30.7822 27.4154 30.8535 27.2068 30.8535C26.7952 30.8535 25.9913 30.6824 24.9422 30.3721C24.799 30.3297 24.653 30.2971 24.5054 30.2746V29.4182C24.9693 29.3198 25.3975 29.0962 25.7433 28.7718C26.198 28.3499 26.4694 27.816 26.4694 27.3379C26.4694 26.3713 25.4007 25.6143 24.0366 25.6143C22.6725 25.6143 21.6038 26.3713 21.6038 27.3379C21.6038 28.1872 22.4475 29.1908 23.5679 29.4182V30.2643C23.3956 30.2867 23.2254 30.3228 23.0588 30.3721C22.0097 30.6824 21.2058 30.8535 20.7943 30.8535C20.5857 30.8535 20.4661 30.7822 20.3813 30.6083C20.329 30.4934 20.2988 30.3697 20.2922 30.2436C20.2922 30.1193 20.2429 30.0001 20.1549 29.9122C20.067 29.8243 19.9478 29.7749 19.8235 29.7749C19.6992 29.7749 19.5799 29.8243 19.492 29.9122C19.4041 30.0001 19.3547 30.1193 19.3547 30.2436C19.3615 30.4953 19.4174 30.7433 19.5193 30.9735C19.7569 31.498 20.2097 31.7872 20.7943 31.7872C21.3099 31.7872 22.1593 31.6124 23.3255 31.2674C23.5537 31.1999 23.7907 31.167 24.0286 31.1699H24.0385C24.2541 31.1734 24.4683 31.2062 24.675 31.2674C25.8404 31.6124 26.6907 31.7872 27.2063 31.7872C27.7908 31.7872 28.2436 31.498 28.4813 30.9735C28.5832 30.7433 28.6391 30.4953 28.6458 30.2436C28.6458 30.1195 28.5966 30.0004 28.5089 29.9125C28.4212 29.8246 28.3022 29.7751 28.178 29.7749Z" fill="black"/>
<path d="M33.9113 19.8164C34.575 17.4886 34.5286 15.0881 34.3678 13.4634C34.3448 13.2305 34.2717 13.0053 34.1535 12.8033C34.0353 12.6013 33.8749 12.4272 33.6831 12.2931C33.4913 12.1589 33.2728 12.0678 33.0425 12.0261C32.8122 11.9843 32.5756 11.9928 32.3489 12.0511C29.5364 12.7758 27.8156 13.987 26.8317 14.9405C24.963 14.5604 23.037 14.5604 21.1683 14.9405C20.1839 13.987 18.4636 12.7758 15.6511 12.0511C15.4244 11.9928 15.1878 11.9843 14.9575 12.0261C14.7272 12.0678 14.5087 12.1589 14.3169 12.2931C14.1251 12.4272 13.9647 12.6013 13.8465 12.8033C13.7283 13.0053 13.6552 13.2305 13.6322 13.4634C13.4714 15.0881 13.425 17.4886 14.0888 19.8164C12.5503 22.2544 12 25.6898 12 27.9333C12 29.1558 12.9375 31.1798 15.0352 32.9456C16.6898 34.3387 19.5881 35.9995 24 35.9995C28.4119 35.9995 31.3125 34.3387 32.9648 32.9456C35.0625 31.1798 36 29.1558 36 27.9333C36 25.6898 35.4497 22.2544 33.9113 19.8164ZM32.5837 12.9619C32.6783 12.9371 32.7772 12.9334 32.8734 12.9509C32.9696 12.9684 33.0608 13.0067 33.1406 13.0631C33.2215 13.1196 33.2892 13.1929 33.3391 13.278C33.3889 13.3631 33.4197 13.4581 33.4294 13.5562C33.443 13.694 33.4561 13.8469 33.4683 14.0114C33.4402 14.002 33.4125 13.9926 33.383 13.9847C32.8706 13.844 32.3128 13.9725 31.7255 14.3597C31.4194 14.5612 30.7631 15.1912 29.7745 16.2323C29.6619 16.352 29.5161 16.4353 29.3558 16.4713C29.1955 16.5074 29.028 16.4947 28.875 16.4348C28.4447 16.2656 27.9042 15.9787 27.5747 15.5325C28.485 14.6765 30.0469 13.6153 32.5837 12.9619ZM14.8594 13.0631C14.9723 12.9831 15.1072 12.9401 15.2456 12.9398C15.3038 12.94 15.3618 12.9474 15.4181 12.9619C17.9531 13.6153 19.515 14.6765 20.4258 15.5325C20.0977 15.9787 19.5558 16.2656 19.1255 16.4348C18.9721 16.4951 18.8042 16.508 18.6435 16.4719C18.4827 16.4358 18.3365 16.3524 18.2236 16.2323C17.235 15.1912 16.5788 14.5612 16.2727 14.3597C15.6853 13.9725 15.1275 13.844 14.6152 13.9847C14.5856 13.9926 14.558 14.002 14.5298 14.0114C14.542 13.8469 14.5552 13.694 14.5687 13.5562C14.5786 13.4579 14.6097 13.3629 14.6599 13.2778C14.7101 13.1926 14.7781 13.1194 14.8594 13.0631ZM32.3583 32.2261C30.8241 33.5184 28.1283 35.0587 24 35.0587C19.8717 35.0587 17.1759 33.5184 15.6417 32.2261C13.8689 30.7331 12.9412 28.9364 12.9412 27.9333C12.9412 25.5984 13.5722 22.2961 14.9817 20.1694C15.3151 19.7754 15.689 19.4176 16.0973 19.102C16.1971 19.0274 16.2632 18.9163 16.281 18.793C16.2988 18.6697 16.2669 18.5444 16.1923 18.4446C16.1177 18.3448 16.0065 18.2788 15.8832 18.261C15.7599 18.2432 15.6346 18.2751 15.5348 18.3497C15.2913 18.5343 15.0594 18.7339 14.8406 18.9473C14.5364 17.61 14.4656 16.2698 14.4802 15.1725C14.5742 15.0377 14.7109 14.9386 14.8683 14.8912C15.1083 14.8294 15.4069 14.9147 15.7589 15.1453C15.9933 15.2986 16.6589 15.9469 17.5458 16.8797C17.7872 17.1362 18.1001 17.3143 18.4439 17.391C18.7877 17.4678 19.1466 17.4395 19.4742 17.31C20.0911 17.0672 20.8884 16.6247 21.3356 15.8686C23.0961 15.5048 24.9123 15.5048 26.6728 15.8686C27.12 16.6247 27.9173 17.0672 28.5342 17.31C28.8618 17.4395 29.2207 17.4678 29.5645 17.391C29.9083 17.3143 30.2212 17.1362 30.4627 16.8797C31.3495 15.9464 32.0175 15.2981 32.2495 15.1453C32.5997 14.9147 32.8988 14.8294 33.1402 14.8912C33.2975 14.9386 33.4342 15.0377 33.5283 15.1725C33.5452 16.2694 33.472 17.61 33.1678 18.9473C32.949 18.7339 32.7172 18.5343 32.4736 18.3497C32.4242 18.3126 32.368 18.2856 32.3081 18.2702C32.2483 18.2549 32.186 18.2514 32.1249 18.2601C32.0637 18.2689 32.0049 18.2895 31.9517 18.321C31.8985 18.3524 31.8521 18.394 31.815 18.4434C31.7779 18.4928 31.7509 18.549 31.7356 18.6089C31.7202 18.6687 31.7168 18.731 31.7255 18.7921C31.7342 18.8533 31.7548 18.9121 31.7863 18.9653C31.8177 19.0185 31.8594 19.0649 31.9088 19.102C32.3171 19.4177 32.6911 19.7757 33.0244 20.1698C34.4339 22.2961 35.0648 25.5984 35.0648 27.9333C35.0588 28.9364 34.1311 30.7331 32.3583 32.2261Z" fill="black"/>
</g>
<defs>
<clipPath id="clip0_820_158">
<rect width="24" height="24" fill="white" transform="translate(12 12)"/>
</clipPath>
</defs>
</svg>
